<?xml version="1.0" encoding="UTF-8"?>
<svg version="1.1" xmlns="http://www.w3.org/2000/svg" width="1024" height="416">
<path d="M0 0 C1.14210938 0.41765625 2.28421875 0.8353125 3.4609375 1.265625 C8.60158382 3.18325936 13.34267277 5.07600847 18 8 C18.99 8.495 18.99 8.495 20 9 C20 9.66 20 10.32 20 11 C20.8353125 11.1546875 20.8353125 11.1546875 21.6875 11.3125 C26.97662188 12.88494164 30.21806274 16.13011071 34 20 C35.24424665 21.06923174 36.49480226 22.13114547 37.75 23.1875 C44.7300185 29.24388656 50.9830699 36.23185016 56 44 C56 44.66 56 45.32 56 46 C56.66 46 57.32 46 58 46 C69.47014544 67.476017 74.63525374 88.54273117 74 113 C73.97164062 114.12277344 73.94328125 115.24554688 73.9140625 116.40234375 C72.88729498 138.13558957 64.00929352 160.29234651 50 177 C49.34 177 48.68 177 48 177 C48 177.99 48 178.98 48 180 C46.36739286 181.37482707 44.69774938 182.70647667 43 184 C42.34 184.99 41.68 185.98 41 187 C40.34 187 39.68 187 39 187 C38.67 187.99 38.34 188.98 38 190 C37.34 190 36.68 190 36 190 C35.67 190.99 35.34 191.98 35 193 C34.01 193 33.02 193 32 193 C31.67 193.99 31.34 194.98 31 196 C25.62857143 200 25.62857143 200 23 200 C23 200.66 23 201.32 23 202 C20.05780898 203.47109551 17.11544712 204.94182509 14.171875 206.41015625 C12.34462133 207.3260334 10.52002045 208.2473364 8.703125 209.18359375 C1.69133737 212.78765259 -5.02117448 215.17804379 -12.80078125 216.5703125 C-15.16296374 216.9829637 -15.16296374 216.9829637 -18 218 C-26.87347095 219.03373708 -35.78764442 219.17097668 -44.7109375 219.203125 C-45.96331207 219.20882507 -47.21568665 219.21452515 -48.50601196 219.22039795 C-51.12948784 219.22977138 -53.75297509 219.23635108 -56.37646484 219.24023438 C-59.05322447 219.24677183 -61.7291701 219.25871404 -64.40576172 219.28125 C-68.29925209 219.31169391 -72.19234146 219.32227456 -76.0859375 219.328125 C-77.27770599 219.3404718 -78.46947449 219.3528186 -79.69735718 219.36553955 C-85.89861856 219.34890386 -90.57662818 219.12653512 -96 216 C-100.97217314 210.62467769 -102.44282961 206.94946067 -102.328125 199.7421875 C-101.85306465 195.77204027 -100.6855777 193.92254044 -98 191 C-97.34 191 -96.68 191 -96 191 C-95.67 190.01 -95.34 189.02 -95 188 C-90.94487169 186.2346837 -87.37705126 185.74430077 -82.9855957 185.71289062 C-81.82030838 185.69947632 -80.65502106 185.68606201 -79.454422 185.67224121 C-78.20747055 185.66696411 -76.9605191 185.66168701 -75.67578125 185.65625 C-73.69315195 185.63390037 -71.71052271 185.61153997 -69.72790051 185.58856964 C-66.25616499 185.55096668 -62.78433932 185.52589647 -59.3125 185.5 C-55.18612401 185.46907775 -51.0598602 185.43573941 -46.93363953 185.38806152 C-44.36927953 185.35926041 -41.80480906 185.33870056 -39.24031067 185.32775879 C-28.91991089 185.21054002 -19.39259729 183.9314236 -9.75 180.1875 C-9.06397705 179.92759277 -8.3779541 179.66768555 -7.67114258 179.39990234 C-2.82450017 177.4960091 0.94464581 175.20655913 5 172 C5.99 172 6.98 172 8 172 C8.33 171.01 8.66 170.02 9 169 C9.99 169 10.98 169 12 169 C12.33 168.01 12.66 167.02 13 166 C14.453125 164.640625 14.453125 164.640625 16.25 163.25 C18.90784373 161.07788131 20.88574646 158.96624254 22.8125 156.125 C23.534375 155.09375 24.25625 154.0625 25 153 C25.66 153 26.32 153 27 153 C27.11601563 152.41863281 27.23203125 151.83726562 27.3515625 151.23828125 C28.04340483 148.85017489 28.99242438 147.24460494 30.375 145.1875 C40.92375015 128.72781226 42.36270801 107.54728007 38.6171875 88.69140625 C38.31167969 87.35916016 38.31167969 87.35916016 38 86 C37.81695313 85.16339844 37.63390625 84.32679688 37.4453125 83.46484375 C32.89203233 65.72953643 19.02500915 49.06392122 4 39 C-16.17081777 27.51234175 -38.48757984 23.94205396 -61 30 C-68.8495101 32.43063495 -76.24145582 35.41479227 -82.484375 40.8984375 C-84 42 -84 42 -87 42 C-87.33 42.99 -87.66 43.98 -88 45 C-91.44444444 48 -91.44444444 48 -94 48 C-94.33 48.99 -94.66 49.98 -95 51 C-95.66 51 -96.32 51 -97 51 C-97.33 51.99 -97.66 52.98 -98 54 C-98.66 54 -99.32 54 -100 54 C-100 54.99 -100 55.98 -100 57 C-100.99 57.495 -100.99 57.495 -102 58 C-103.17877654 59.80347857 -103.17877654 59.80347857 -104.3125 62 C-106.04012083 65.21571901 -107.80385754 68.39888394 -109.625 71.5625 C-117.88942971 86.64508422 -118.44266052 102.90736396 -118.3371582 119.69750977 C-118.33634982 121.61952201 -118.33695059 123.54153527 -118.33883667 125.46354675 C-118.34038549 129.56779719 -118.33311353 133.67189894 -118.31899452 137.77612495 C-118.29770191 144.26933615 -118.30266263 150.76237014 -118.3120575 157.25559998 C-118.33483975 175.70731132 -118.32290275 194.15891287 -118.28491211 212.6105957 C-118.26410616 222.82768824 -118.26476441 233.04455827 -118.28844708 243.26164669 C-118.30211043 249.71447711 -118.28898147 256.16651816 -118.25584948 262.61926949 C-118.24150524 266.62839198 -118.25214524 270.6371603 -118.26983261 274.6462574 C-118.27300834 276.50262111 -118.26593008 278.3590354 -118.24776649 280.21531296 C-118.22440694 282.75279349 -118.2380581 285.28753865 -118.26069641 287.82496643 C-118.23724772 288.92194952 -118.23724772 288.92194952 -118.21332532 290.04109389 C-118.31665329 295.26711851 -119.9828452 297.88109663 -123.39000481 301.56084102 C-126.64813473 304.47325154 -129.85275044 305.91365955 -134.234375 306.08984375 C-140.41544892 305.6853775 -144.65841482 303.66456245 -148.8125 298.9375 C-151.35068423 294.79625204 -151.14577017 290.80457657 -151.14044189 286.11616516 C-151.14489858 284.89806279 -151.14489858 284.89806279 -151.1494453 283.65535229 C-151.15814172 280.92427725 -151.1596414 278.19324601 -151.16113281 275.4621582 C-151.16576067 273.50740464 -151.17078529 271.55265199 -151.17617798 269.59790039 C-151.18931537 264.27692584 -151.19575066 258.95596392 -151.20018864 253.63497567 C-151.20311989 250.30658247 -151.20722501 246.97819272 -151.21169281 243.64980125 C-151.22537717 233.22521268 -151.23503672 222.80063197 -151.2388947 212.37603503 C-151.24336456 200.36481778 -151.26085857 188.35371494 -151.2898953 176.34253246 C-151.31157907 167.04802894 -151.3216027 157.75355742 -151.32293582 148.4590289 C-151.32397994 142.91409641 -151.32980254 137.36927134 -151.34775543 131.82436562 C-151.36434993 126.59669815 -151.36633689 121.36921747 -151.35761642 116.1415329 C-151.35685184 114.23414036 -151.36111125 112.32673732 -151.37107468 110.41937065 C-151.44260083 95.85907861 -150.36839246 81.94396219 -145.125 68.1875 C-144.86960449 67.48955322 -144.61420898 66.79160645 -144.35107422 66.07250977 C-142.18586307 60.25325343 -139.72384194 54.58026025 -137 49 C-136.34 49 -135.68 49 -135 49 C-134.34 47.02 -133.68 45.04 -133 43 C-132.34 43 -131.68 43 -131 43 C-130.64421875 41.94232422 -130.64421875 41.94232422 -130.28125 40.86328125 C-128.77497827 37.49713132 -126.84415483 35.03016827 -124.5 32.1875 C-123.30890625 30.72376953 -123.30890625 30.72376953 -122.09375 29.23046875 C-121.4028125 28.49441406 -120.711875 27.75835937 -120 27 C-119.34 27 -118.68 27 -118 27 C-117.67 26.01 -117.34 25.02 -117 24 C-113.55555556 21 -113.55555556 21 -111 21 C-110.505 19.515 -110.505 19.515 -110 18 C-107.4375 16.8125 -107.4375 16.8125 -105 16 C-105 15.34 -105 14.68 -105 14 C-104.01 14 -103.02 14 -102 14 C-102 13.34 -102 12.68 -102 12 C-100.02 11.34 -98.04 10.68 -96 10 C-96 9.34 -96 8.68 -96 8 C-95.38253906 7.75765625 -94.76507812 7.5153125 -94.12890625 7.265625 C-89.99056531 5.62792539 -85.89733097 3.96863363 -81.875 2.0625 C-77.67484677 0.17915727 -73.37816385 -1.28309711 -69 -2.6875 C-68.34757324 -2.90204834 -67.69514648 -3.11659668 -67.02294922 -3.33764648 C-46.3374736 -9.79058751 -19.99941086 -7.54499738 0 0 Z " fill="#EE2A27" transform="translate(646,76)"/>
<path d="M0 0 C0 0.66 0 1.32 0 2 C0.804375 2.12375 0.804375 2.12375 1.625 2.25 C4.87340691 3.27581271 7.28751859 4.96563894 10 7 C10 7.66 10 8.32 10 9 C10.99 9 11.98 9 13 9 C14.18722892 10.08546644 15.36284733 11.18771846 16.4609375 12.36328125 C19.01796322 15.08255479 21.74244856 17.63641515 24.42578125 20.23046875 C26 22 26 22 26 24 C26.99 24.33 27.98 24.66 29 25 C30.73331522 27.30325276 32.32021092 29.58114936 33.875 32 C34.54644043 33.03265991 34.54644043 33.03265991 35.23144531 34.08618164 C36.49936942 36.05026174 37.752329 38.0230115 39 40 C39.51304687 40.80308594 40.02609375 41.60617188 40.5546875 42.43359375 C53.02102929 63.3330491 54.61920734 86.44575568 54.53125 110.140625 C54.53395031 112.72369533 54.53783719 115.30676466 54.54284668 117.88983154 C54.54870365 123.26536854 54.54068516 128.64061435 54.52148438 134.01611328 C54.4995934 140.21610645 54.50687903 146.41557579 54.52879 152.61555696 C54.54914924 158.61922303 54.54697452 164.6226338 54.53526306 170.62633514 C54.53259889 173.16684798 54.5358546 175.70737428 54.54518127 178.2478714 C54.55533735 181.78702965 54.53986339 185.32517509 54.51757812 188.86425781 C54.52567505 189.90844376 54.53377197 190.9526297 54.54211426 192.02845764 C54.47346274 197.91222956 54.10352873 201.61302447 50 206 C49.01 206 48.02 206 47 206 C47 206.66 47 207.32 47 208 C41.3547067 210.59378341 35.93787693 210.4715608 30 209 C26.12984817 206.88587791 23.69119626 204.59936607 21.9342041 200.53384399 C20.69235373 195.83625651 20.70798955 191.43415752 20.71289062 186.59521484 C20.70605759 185.56022858 20.69922455 184.52524231 20.69218445 183.45889282 C20.67862035 181.21636493 20.66955174 178.9738063 20.66447449 176.73124313 C20.65616285 173.1736358 20.63563377 169.61628238 20.61193848 166.05874634 C20.56375483 158.49753546 20.53082475 150.93629894 20.5 143.375 C20.46424124 134.63010396 20.42212155 125.88533131 20.36405945 117.14055252 C20.34412178 113.65100661 20.33569617 110.16155729 20.32775879 106.67196655 C20.31477229 104.50835836 20.30124994 102.3447533 20.28710938 100.18115234 C20.28809128 99.22384216 20.28907318 98.26653198 20.29008484 97.2802124 C20.15104215 81.87617778 16.51744673 67.89784791 8 55 C8 54.01 8 53.02 8 52 C7.34 52 6.68 52 6 52 C4.625 50.34765625 4.625 50.34765625 3 48.0625 C-1.07242167 42.66100348 -5.83695656 38.34127286 -11 34 C-11.80695313 33.31679687 -12.61390625 32.63359375 -13.4453125 31.9296875 C-28.73924187 20.37739223 -50.15371457 16.18763555 -68.83984375 18.46875 C-80.8951483 20.30839153 -91.83192762 24.17707607 -102 31 C-102.66 31 -103.32 31 -104 31 C-104 31.66 -104 32.32 -104 33 C-104.99 33 -105.98 33 -107 33 C-107.33 33.99 -107.66 34.98 -108 36 C-109.70703125 37.75390625 -109.70703125 37.75390625 -111.8125 39.5625 C-112.49957031 40.16191406 -113.18664062 40.76132813 -113.89453125 41.37890625 C-115.86555845 42.89648749 -117.73964261 43.97902958 -120 45 C-120 45.99 -120 46.98 -120 48 C-120.99 48.495 -120.99 48.495 -122 49 C-122.495 50.485 -122.495 50.485 -123 52 C-123.66 52 -124.32 52 -125 52 C-125.66 53.98 -126.32 55.96 -127 58 C-127.66 58 -128.32 58 -129 58 C-129.0825 58.639375 -129.165 59.27875 -129.25 59.9375 C-129.90412616 62.60851515 -130.70390886 64.60410257 -131.875 67.0625 C-136.25105974 76.69545377 -137.53541747 86.30869709 -137.4375 96.8125 C-137.43065186 97.94888916 -137.42380371 99.08527832 -137.41674805 100.25610352 C-137.18240729 112.5638205 -134.44301378 122.86332465 -128.953125 133.92578125 C-128 136 -128 136 -128 138 C-127.34 138 -126.68 138 -126 138 C-125.1646875 139.5778125 -125.1646875 139.5778125 -124.3125 141.1875 C-122.31364263 144.69253863 -119.93188562 147.21113319 -117 150 C-116.2575 150.94875 -115.515 151.8975 -114.75 152.875 C-111.1093151 157.35315874 -106.16754702 161.41622649 -101 164 C-101 164.66 -101 165.32 -101 166 C-100.34 166.0825 -99.68 166.165 -99 166.25 C-95.83340139 167.04164965 -93.25609042 168.38850421 -90.37109375 169.8828125 C-78.6093191 175.42460418 -67.40694251 176.13220222 -54.62890625 176.17578125 C-52.00715335 176.19897107 -49.38540853 176.22308806 -46.76367188 176.24804688 C-42.65812065 176.28438297 -38.55272232 176.31422016 -34.44702148 176.32592773 C-30.4657066 176.33801629 -26.4849981 176.38165235 -22.50390625 176.42578125 C-20.67539879 176.42291862 -20.67539879 176.42291862 -18.80995178 176.41999817 C-11.86579975 176.51916963 -5.91321722 177.08818574 0 181 C4.1904353 186.00808121 4.41084079 190.02818746 4.23828125 196.44921875 C4.02441393 198.73865084 3.63516352 200.79500144 3 203 C2.34 203 1.68 203 1 203 C0.67 203.99 0.34 204.98 0 206 C-4.2743502 209.96903947 -8.86309313 210.12464297 -14.48608398 210.12939453 C-16.09947914 210.13412277 -16.09947914 210.13412277 -17.74546814 210.13894653 C-18.90067459 210.1369223 -20.05588104 210.13489807 -21.24609375 210.1328125 C-23.05014427 210.13424759 -23.05014427 210.13424759 -24.89064026 210.13571167 C-27.43840589 210.13639199 -29.98617325 210.13454802 -32.53393555 210.13037109 C-36.39180516 210.12506287 -40.24955609 210.13029926 -44.10742188 210.13671875 C-46.59114609 210.13605712 -49.07487023 210.13477421 -51.55859375 210.1328125 C-52.69558212 210.13483673 -53.8325705 210.13686096 -55.00401306 210.13894653 C-76.93920559 210.07631486 -95.45681177 206.02443597 -115 196 C-115 195.34 -115 194.68 -115 194 C-116.28390625 193.65195312 -116.28390625 193.65195312 -117.59375 193.296875 C-121.42547013 191.83800908 -124.33350706 189.78282023 -127.5 187.25 C-128.06807373 186.80333984 -128.63614746 186.35667969 -129.22143555 185.89648438 C-133.09627167 182.81401293 -136.73944539 179.72634812 -140 176 C-140 175.34 -140 174.68 -140 174 C-140.86625 173.6596875 -140.86625 173.6596875 -141.75 173.3125 C-144.59739809 171.65151778 -146.12067193 169.68475439 -148 167 C-148 166.34 -148 165.68 -148 165 C-148.66 165 -149.32 165 -150 165 C-150 164.01 -150 163.02 -150 162 C-150.66 162 -151.32 162 -152 162 C-154.8394052 158.32547562 -156 156.73113419 -156 152 C-156.66 152 -157.32 152 -158 152 C-161.42231725 145.97308732 -163.95341656 139.72908467 -166.1875 133.1875 C-166.43709473 132.47803223 -166.68668945 131.76856445 -166.94384766 131.03759766 C-170.54819121 120.1759582 -171.36756058 109.06613907 -171.3125 97.6875 C-171.30730347 95.925271 -171.30730347 95.925271 -171.30200195 94.12744141 C-171.04090354 73.17898239 -164.33887131 56.43760021 -155 38 C-154.33244931 36.66710905 -153.66539894 35.33396644 -153 34 C-152.34 34 -151.68 34 -151 34 C-150.79375 33.34 -150.5875 32.68 -150.375 32 C-147.53574569 25.80526332 -143.45183799 21.05393081 -138 17 C-137.113125 16.0925 -136.22625 15.185 -135.3125 14.25 C-133 12 -133 12 -131 12 C-130.505 10.515 -130.505 10.515 -130 9 C-127.4375 7.8125 -127.4375 7.8125 -125 7 C-125 6.34 -125 5.68 -125 5 C-124.01 5 -123.02 5 -122 5 C-122 4.34 -122 3.68 -122 3 C-110.56265517 -3.43631709 -99.66709582 -8.52559658 -87 -12 C-86.06800781 -12.350625 -85.13601562 -12.70125 -84.17578125 -13.0625 C-56.30526512 -21.28995864 -24.83154502 -12.89330222 0 0 Z " fill="#EE2A27" transform="translate(234,85)"/>
<path d="M0 0 C1.35666458 1.6477308 2.69305935 3.31255765 4 5 C5.64315155 6.49701545 5.64315155 6.49701545 7.25 7.6875 C8.1575 8.450625 9.065 9.21375 10 10 C10 10.66 10 11.32 10 12 C10.66 12 11.32 12 12 12 C13.78428569 14.19398856 15.43428717 16.38220857 17.0625 18.6875 C17.52205078 19.31333984 17.98160156 19.93917969 18.45507812 20.58398438 C20.89763943 24.00930896 22.59681091 26.69657357 23 31 C23.66 31 24.32 31 25 31 C35.55607013 54.31011651 38.47787889 75.22356105 38.46875 100.7578125 C38.47586745 103.20157034 38.48356871 105.64532654 38.49182129 108.08908081 C38.50517207 113.17369257 38.50687418 118.2581492 38.50097656 123.34277344 C38.49504472 129.84806213 38.5258601 136.35261373 38.56609344 142.85775948 C38.59194926 147.88843782 38.59485057 152.91893707 38.59120178 157.9496727 C38.59289043 160.34899648 38.60250823 162.74832876 38.62034607 165.14758682 C38.6425266 168.49489394 38.63284192 171.84068557 38.61523438 175.18798828 C38.62849762 176.16887924 38.64176086 177.1497702 38.65542603 178.16038513 C38.56377945 185.67404561 36.3929873 190.66724325 31.01953125 195.9453125 C26.52141816 198.29442378 20.78829106 198.61791798 15.8671875 197.52734375 C11.45821848 195.78093394 8.29887953 193.21659239 5.91151524 189.1424551 C4.91529139 186.80089812 4.7426232 185.19202944 4.72825623 182.65821838 C4.7185379 181.79643478 4.70881958 180.93465118 4.69880676 180.04675293 C4.69821762 179.10908081 4.69762848 178.17140869 4.69702148 177.20532227 C4.68858215 176.21124863 4.68014282 175.21717499 4.67144775 174.19297791 C4.64562618 170.9007825 4.63351176 167.60867715 4.62109375 164.31640625 C4.60491209 162.02155352 4.5877314 159.72670763 4.56959534 157.43186951 C4.52385426 151.37882684 4.48909812 145.32577474 4.45739746 139.27264404 C4.40561192 129.61654729 4.33986645 119.96055343 4.26918221 110.30457878 C4.2465412 106.9452946 4.23013805 103.58602278 4.21446228 100.22669983 C4.10700312 81.55777907 3.44353541 65.64487768 -4.9375 48.5625 C-5.42295288 47.56899536 -5.42295288 47.56899536 -5.91821289 46.55541992 C-7.59203222 43.27878675 -9.35118434 40.44776131 -11.75390625 37.65234375 C-14 35 -14 35 -14 33 C-14.66 33 -15.32 33 -16 33 C-16.61875 32.195625 -17.2375 31.39125 -17.875 30.5625 C-30.3310221 15.0657431 -50.07936041 8.46433801 -69 6 C-85.91993541 4.20998164 -104.84242767 9.87623117 -119 19 C-119.495 19.99 -119.495 19.99 -120 21 C-120.680625 21.391875 -121.36125 21.78375 -122.0625 22.1875 C-136.88074104 31.33067 -146.92823897 48.19365584 -151.9375 64.625 C-154.78293982 77.56126324 -154.14623344 91.17098662 -154.16866493 104.34144402 C-154.1759216 107.71764424 -154.19164907 111.09370664 -154.21000671 114.46986389 C-154.26208924 124.05809813 -154.31051905 133.64624599 -154.32592773 143.23461914 C-154.33600881 149.12533305 -154.36531495 155.01568218 -154.40724754 160.90625191 C-154.41953756 163.14168097 -154.42468247 165.37716148 -154.42244911 167.61262321 C-154.42009554 170.73295098 -154.4422603 173.85222667 -154.4699707 176.97241211 C-154.46006859 178.34635887 -154.46006859 178.34635887 -154.44996643 179.74806213 C-154.53616564 185.66663368 -155.58290145 189.13322027 -159 194 C-163.24310805 197.74391887 -168.52905344 198 -174 198 C-178.60629059 197.04397742 -181.63104719 195.27790004 -185 192 C-188.53848035 186.57619293 -188.43268787 181.71788518 -188.40405273 175.46264648 C-188.41091599 174.41285614 -188.41777924 173.3630658 -188.42485046 172.28146362 C-188.44314306 168.81120236 -188.43927229 165.34139292 -188.43359375 161.87109375 C-188.43815912 159.44132848 -188.44346575 157.01156449 -188.44947815 154.58180237 C-188.4584177 149.48001885 -188.45598198 144.37839172 -188.44604492 139.27661133 C-188.43464033 132.79476436 -188.45463124 126.31346911 -188.48396206 119.8316946 C-188.50248764 114.8047603 -188.50199787 109.77795368 -188.49632454 104.75099373 C-188.49617285 102.36521705 -188.50208857 99.97943085 -188.51461601 97.59368706 C-188.65636918 66.13185285 -182.32307068 36.90722196 -162 12 C-159.3125 9.6875 -159.3125 9.6875 -157 8 C-156.40445313 7.236875 -155.80890625 6.47375 -155.1953125 5.6875 C-152.86508202 2.83483351 -150.41266041 0.64085573 -147.5625 -1.6875 C-146.63566406 -2.45449219 -145.70882812 -3.22148438 -144.75390625 -4.01171875 C-142.19751923 -5.85739392 -139.97011003 -6.99199533 -137 -8 C-137 -8.66 -137 -9.32 -137 -10 C-132.91767286 -12.06729511 -128.82796665 -14.11827753 -124.72558594 -16.14550781 C-123.36868793 -16.81742958 -122.01563663 -17.49711996 -120.6640625 -18.1796875 C-115.79038919 -20.51057473 -110.72090074 -22.11904079 -105.5625 -23.6875 C-104.87051514 -23.90229004 -104.17853027 -24.11708008 -103.46557617 -24.33837891 C-68.0879555 -34.69462167 -27.55428022 -23.23124799 0 0 Z " fill="#EE2A27" transform="translate(924,97)"/>
<path d="M0 0 C0 0.66 0 1.32 0 2 C0.99 2.33 1.98 2.66 3 3 C4.35436722 5.36038279 5.53951258 7.66649087 6.6875 10.125 C7.38854944 11.58303104 8.0917312 13.04003845 8.796875 14.49609375 C9.15716797 15.2422998 9.51746094 15.98850586 9.88867188 16.75732422 C11.95148822 20.9201166 14.2039419 24.98436465 16.47338867 29.03759766 C18.28122014 32.34253238 19.49934732 35.25568205 20 39 C20.66 39 21.32 39 22 39 C22.53367187 40.15113281 23.06734375 41.30226562 23.6171875 42.48828125 C29.98248634 56.12387032 36.79814618 69.48034626 44.125 82.625 C47.08223114 87.98340173 49.64643442 93.5165347 52.19775391 99.07666016 C53.94653618 102.86730195 55.81238742 106.43811798 58 110 C59.42789518 112.58720921 60.80817556 115.19913717 62.1875 117.8125 C62.58332275 118.56096191 62.97914551 119.30942383 63.38696289 120.08056641 C66.30367877 125.62040423 69.12051767 131.2045479 71.89794922 136.81518555 C75.02533418 143.10794305 78.29686466 149.32219115 81.58764648 155.53076172 C83.77707925 159.66288095 85.92989308 163.80619117 88 168 C90.16488352 164.75267472 91.98710074 161.38055718 93.8125 157.9375 C94.35197266 156.92333008 94.35197266 156.92333008 94.90234375 155.88867188 C97.22287105 151.51055473 99.46398306 147.10003433 101.65625 142.65625 C103.72040693 138.5759398 105.89648606 134.55636361 108.05859375 130.52734375 C109.92441876 127.04212346 111.7507696 123.5457373 113.5 120 C115.51761635 115.91078426 117.65245295 111.89019476 119.8125 107.875 C122.58879364 102.70840752 125.27298448 97.50645139 127.875 92.25 C131.28179506 85.36846084 134.83699652 78.57245061 138.42919922 71.78613281 C140.66952946 67.54738999 142.87493579 63.29815247 145 59 C147.53698121 53.86870467 150.19725734 48.80868253 152.875 43.75 C156.05406518 37.74371234 159.17066844 31.71439276 162.1875 25.625 C175.29270519 -0.69973794 175.29270519 -0.69973794 180.87109375 -2.65625 C187.51122834 -3.72841852 193.17432059 -3.67937647 199 0 C199 0.66 199 1.32 199 2 C199.99 2.33 200.98 2.66 202 3 C204.82533614 7.60975896 204.947317 12.81571042 204 18 C201.90757914 23.91009035 198.90753265 29.45997158 196 35 C195.6690332 35.63599121 195.33806641 36.27198242 194.99707031 36.92724609 C193.06443669 40.62801292 191.0855023 44.30243602 189.09472656 47.97216797 C183.5697703 58.20639784 178.19873101 68.51826467 173.0390625 78.94116211 C170.03477057 84.98654854 166.88273703 90.9503011 163.71972656 96.91381836 C160.98113346 102.09170189 158.3373222 107.30762856 155.75 112.5625 C153.65453116 116.81118683 151.49510018 120.96893761 149 125 C143.5583262 133.80962867 139.24162051 143.29158529 134.89404297 152.67553711 C132.07402222 158.76216071 129.16955241 164.55988098 125.5859375 170.2421875 C121.93872551 176.58438371 119.03918676 183.35081476 116 190 C115.34 190 114.68 190 114 190 C113.87044922 191.00933594 113.87044922 191.00933594 113.73828125 192.0390625 C112.79669918 195.81535459 111.05704998 198.99555938 109.1875 202.375 C108.84396484 203.00921875 108.50042969 203.6434375 108.14648438 204.296875 C107.45495161 205.56836113 106.75690033 206.83632451 106.05224609 208.10058594 C105.33665343 209.3923054 104.63696178 210.69293462 103.95166016 212.00097656 C101.329946 216.890018 101.329946 216.890018 98 218 C98 218.66 98 219.32 98 220 C92.38103356 222.19276739 87.77954829 222.61150062 81.875 221.3125 C75.68646666 218.4873 73.2352671 213.89630587 70.44921875 208.0078125 C68.73373175 204.44736778 66.87545228 200.97800862 65 197.5 C61.89712571 191.71460388 58.90200555 185.8891139 56 180 C51.18740603 170.25976997 46.23555517 160.61468832 41.09472656 151.04394531 C35.55133635 140.69397589 30.1080302 130.29966274 24.8984375 119.77758789 C22.67724179 115.3077674 20.36725806 110.89403585 18 106.5 C15.28424088 101.45908657 12.66535965 96.38152649 10.125 91.25 C7.17175645 85.28491681 4.11614625 79.38157794 1 73.5 C-2.11615098 67.61841314 -5.17147445 61.714949 -8.125 55.75 C-13.43088531 45.0436242 -19.12442713 34.54975 -24.87109375 24.07421875 C-27.98682135 18.34947357 -27.67007843 12.42401282 -27 6 C-25.64742993 3.08288993 -24.55090916 2.0650217 -22 0 C-21.34 0 -20.68 0 -20 0 C-20 -0.66 -20 -1.32 -20 -2 C-12.99629326 -4.00105907 -6.26551364 -3.95716651 0 0 Z " fill="#EE2A27" transform="translate(303,73)"/>
</svg>
