<?xml version="1.0" encoding="UTF-8"?>
<svg version="1.1" xmlns="http://www.w3.org/2000/svg" width="331" height="152">
<path d="M0 0 C109.23 0 218.46 0 331 0 C331 50.16 331 100.32 331 152 C221.77 152 112.54 152 0 152 C0 101.84 0 51.68 0 0 Z " fill="#FEFEFE" transform="translate(0,0)"/>
<path d="M0 0 C19.7690625 -0.061875 19.7690625 -0.061875 39.9375 -0.125 C44.0843335 -0.14320801 48.23116699 -0.16141602 52.50366211 -0.18017578 C57.60461426 -0.18920898 57.60461426 -0.18920898 59.99977112 -0.19088745 C61.65688657 -0.19393952 63.31399784 -0.20093368 64.97108459 -0.21115112 C67.49504195 -0.22592284 70.01873011 -0.2278076 72.54272461 -0.22705078 C73.63240618 -0.23784511 73.63240618 -0.23784511 74.74410152 -0.2488575 C86.52682992 -0.20198303 96.55297404 3.46796403 105.25 11.5 C110.91157309 17.46519058 115.78044783 24.98496629 116.1484375 33.390625 C116.07496094 34.68226562 116.07496094 34.68226562 116 36 C113.62109375 35.81640625 113.62109375 35.81640625 111 35 C109.84765625 32.77734375 109.84765625 32.77734375 109.0625 29.9375 C105.65932855 19.47037506 99.22546289 13.53996909 89.8125 8.1875 C81.29650601 4.59185809 71.31817749 4.73070821 62.75 8 C52.91211793 12.63952959 47.00741072 18.92780253 43 29 C40.2005697 37.39829091 41.15559827 48.497181 44.62109375 56.5390625 C49.34794901 64.97509314 56.05911451 70.39272631 65 74 C66.98945762 74.39136871 68.98908358 74.74052691 71 75 C71 73.35 71 71.7 71 70 C70.030625 69.95875 69.06125 69.9175 68.0625 69.875 C61.25537863 68.86908935 55.80987604 64.38984405 51.625 59.125 C46.0290563 50.85543875 44.68979719 42.99435695 46 33 C48.93617297 23.84731431 53.98743769 17.40237901 62.3125 12.69140625 C70.35685177 8.96573692 78.80399398 8.58851884 87.1875 11.5 C95.71352161 15.42032505 101.24335523 21.28898009 105.22265625 29.703125 C106 32 106 32 106 36 C87.85 36 69.7 36 51 36 C51 37.65 51 39.3 51 41 C63.87 41 76.74 41 90 41 C85 46 85 46 81.40307617 46.56762695 C80.03278532 46.56684323 78.66231894 46.53905223 77.29296875 46.48828125 C76.56757401 46.48120651 75.84217926 46.47413177 75.09480286 46.46684265 C72.79129297 46.43898406 70.49026749 46.37627191 68.1875 46.3125 C66.62047797 46.28740563 65.0534176 46.26459444 63.48632812 46.24414062 C59.65660344 46.18918681 55.82872203 46.10298226 52 46 C52.44728964 47.26769905 52.90185237 48.53283309 53.359375 49.796875 C53.73787598 50.85406738 53.73787598 50.85406738 54.12402344 51.93261719 C56.7279896 58.07820957 61.21325666 61.25891105 67 64 C70.27312468 64.78453346 70.27312468 64.78453346 73 65 C73.0825 64.0925 73.165 63.185 73.25 62.25 C74.09248732 58.59922161 75.17881618 57.36615417 78 55 C79.32 55.66 80.64 56.32 82 57 C81.64726517 57.68008118 81.29453033 58.36016235 80.93110657 59.06085205 C76.82769968 67.74810388 76.26358598 75.62711903 76.29296875 85.046875 C76.27982118 86.55432099 76.2645077 88.06174948 76.24714661 89.56915283 C76.20764012 93.49492873 76.19712868 97.42024026 76.19311523 101.34619141 C76.18371816 105.36895532 76.14626442 109.39145367 76.11132812 113.4140625 C76.04710321 121.27604709 76.01357609 129.13776537 76 137 C77.65 137 79.3 137 81 137 C80.99111755 136.1806044 80.98223511 135.3612088 80.9730835 134.51698303 C80.89266632 126.76441161 80.8318987 119.01204473 80.79275131 111.25916386 C80.77194802 107.27407482 80.74376503 103.28933276 80.69824219 99.30444336 C80.65452273 95.45295783 80.63080841 91.60180433 80.62049103 87.75008965 C80.61314611 86.28657244 80.59880393 84.82307174 80.57707977 83.35969734 C80.46007095 75.14506293 80.67850308 68.21683479 85 61 C85.66902344 59.80310547 85.66902344 59.80310547 86.3515625 58.58203125 C90.80413895 52.39486213 97.32413523 47.32740519 105 46 C115.52425651 45.13010888 123.79996909 46.4668003 132.25 53 C138.69324846 59.15513572 142.30976659 66.71440239 142.625 75.625 C142.09524283 85.27579373 138.77282949 92.09902707 132.15625 99.0859375 C126.09628509 104.46525418 119.70833646 106.14900366 111.75 106.0625 C110.67234375 106.05347656 109.5946875 106.04445313 108.484375 106.03515625 C107.25460938 106.01775391 107.25460938 106.01775391 106 106 C106 107.65 106 109.3 106 111 C118.82377345 110.59224886 128.38064036 108.60248423 137.83203125 99.51171875 C145.72334692 90.36916744 146.74381671 80.68305215 146 69 C144.98651164 64.32084272 143.1697681 60.24519845 141 56 C142.32 56 143.64 56 145 56 C145.33 55.34 145.66 54.68 146 54 C146.82011312 55.55851755 147.63076213 57.12201716 148.4375 58.6875 C148.88996094 59.55761719 149.34242188 60.42773438 149.80859375 61.32421875 C154.12089328 71.00921934 152.60938085 82.33513111 149.25390625 92.0625 C145.33948881 101.23272403 137.42789338 109.14381213 128.4375 113.4375 C124.306316 115.08851896 120.42454132 115.67821518 116 116 C116.06058594 116.84949219 116.12117188 117.69898437 116.18359375 118.57421875 C115.68692035 127.84193307 109.05421205 137.07389035 102.38671875 143.1640625 C93.47798889 150.01693163 83.60919581 152.33667463 72.54272461 152.22705078 C71.73875276 152.22729185 70.9347809 152.22753292 70.10644627 152.2277813 C67.53829418 152.22630437 64.97044298 152.21114717 62.40234375 152.1953125 C60.803102 152.19236702 59.20385832 152.1903297 57.60461426 152.18920898 C51.71554651 152.17878012 45.82652021 152.15085764 39.9375 152.125 C26.758125 152.08375 13.57875 152.0425 0 152 C0 101.84 0 51.68 0 0 Z " fill="#07ABEB" transform="translate(0,0)"/>
<path d="M0 0 C6.73967208 4.67255221 11.35055476 10.17148844 14 18 C14 19.32 14 20.64 14 22 C-4.15 22 -22.3 22 -41 22 C-41 23.65 -41 25.3 -41 27 C-28.13 27 -15.26 27 -2 27 C-7 32 -7 32 -10.59692383 32.56762695 C-11.96721468 32.56684323 -13.33768106 32.53905223 -14.70703125 32.48828125 C-15.43242599 32.48120651 -16.15782074 32.47413177 -16.90519714 32.46684265 C-19.20870703 32.43898406 -21.50973251 32.37627191 -23.8125 32.3125 C-25.37952203 32.28740563 -26.9465824 32.26459444 -28.51367188 32.24414062 C-32.34339656 32.18918681 -36.17127797 32.10298226 -40 32 C-39.55271036 33.26769905 -39.09814763 34.53283309 -38.640625 35.796875 C-38.38829102 36.50166992 -38.13595703 37.20646484 -37.87597656 37.93261719 C-35.2720104 44.07820957 -30.78674334 47.25891105 -25 50 C-21.72687532 50.78453346 -21.72687532 50.78453346 -19 51 C-18.9175 50.0925 -18.835 49.185 -18.75 48.25 C-17.90751268 44.59922161 -16.82118382 43.36615417 -14 41 C-12.68 41.66 -11.36 42.32 -10 43 C-10.35273483 43.68008118 -10.70546967 44.36016235 -11.06889343 45.06085205 C-15.17230032 53.74810388 -15.73641402 61.62711903 -15.70703125 71.046875 C-15.72017882 72.55432099 -15.7354923 74.06174948 -15.75285339 75.56915283 C-15.79235988 79.49492873 -15.80287132 83.42024026 -15.80688477 87.34619141 C-15.81628184 91.36895532 -15.85373558 95.39145367 -15.88867188 99.4140625 C-15.95289679 107.27604709 -15.98642391 115.13776537 -16 123 C-14.35 123 -12.7 123 -11 123 C-11.00888245 122.1806044 -11.01776489 121.3612088 -11.0269165 120.51698303 C-11.10733368 112.76441161 -11.1681013 105.01204473 -11.20724869 97.25916386 C-11.22805198 93.27407482 -11.25623497 89.28933276 -11.30175781 85.30444336 C-11.34547727 81.45295783 -11.36919159 77.60180433 -11.37950897 73.75008965 C-11.38685389 72.28657244 -11.40119607 70.82307174 -11.42292023 69.35969734 C-11.53992905 61.14506293 -11.32149692 54.21683479 -7 47 C-6.33097656 45.80310547 -6.33097656 45.80310547 -5.6484375 44.58203125 C-1.19586105 38.39486213 5.32413523 33.32740519 13 32 C23.52425651 31.13010888 31.79996909 32.4668003 40.25 39 C46.69324846 45.15513572 50.30976659 52.71440239 50.625 61.625 C50.09524283 71.27579373 46.77282949 78.09902707 40.15625 85.0859375 C34.09628509 90.46525418 27.70833646 92.14900366 19.75 92.0625 C18.67234375 92.05347656 17.5946875 92.04445313 16.484375 92.03515625 C15.25460938 92.01775391 15.25460938 92.01775391 14 92 C14 95.3 14 98.6 14 102 C15.65 102 17.3 102 19 102 C18.43290721 110.69542285 14.55265057 118.46014638 8.1640625 124.3984375 C-1.53048542 131.57310293 -11.11335567 134.12387627 -23 133 C-32.75742066 130.53357431 -41.25302107 124.88810975 -46.6953125 116.3359375 C-51.62760484 106.78138262 -52.98111231 95.51365438 -49.875 85.0625 C-45.91725821 75.22362789 -38.14102008 68.26138188 -28.796875 63.6640625 C-27 63 -27 63 -24 63 C-24 62.34 -24 61.68 -24 61 C-23.01 61 -22.02 61 -21 61 C-21 59.35 -21 57.7 -21 56 C-21.969375 55.95875 -22.93875 55.9175 -23.9375 55.875 C-30.74462137 54.86908935 -36.19012396 50.38984405 -40.375 45.125 C-45.9709437 36.85543875 -47.31020281 28.99435695 -46 19 C-43.06382703 9.84731431 -38.01256231 3.40237901 -29.6875 -1.30859375 C-19.87248927 -5.85432789 -9.35174483 -5.42707815 0 0 Z " fill="#2894CD" transform="translate(92,14)"/>
<path d="M0 0 C6.73967208 4.67255221 11.35055476 10.17148844 14 18 C14 19.32 14 20.64 14 22 C-4.15 22 -22.3 22 -41 22 C-41 23.65 -41 25.3 -41 27 C-28.13 27 -15.26 27 -2 27 C-7 32 -7 32 -10.59692383 32.56762695 C-11.96721468 32.56684323 -13.33768106 32.53905223 -14.70703125 32.48828125 C-15.43242599 32.48120651 -16.15782074 32.47413177 -16.90519714 32.46684265 C-19.20870703 32.43898406 -21.50973251 32.37627191 -23.8125 32.3125 C-25.37952203 32.28740563 -26.9465824 32.26459444 -28.51367188 32.24414062 C-32.34339656 32.18918681 -36.17127797 32.10298226 -40 32 C-39.55271036 33.26769905 -39.09814763 34.53283309 -38.640625 35.796875 C-38.38829102 36.50166992 -38.13595703 37.20646484 -37.87597656 37.93261719 C-35.2720104 44.07820957 -30.78674334 47.25891105 -25 50 C-21.72687532 50.78453346 -21.72687532 50.78453346 -19 51 C-18.9175 50.0925 -18.835 49.185 -18.75 48.25 C-17.90751268 44.59922161 -16.82118382 43.36615417 -14 41 C-12.68 41.66 -11.36 42.32 -10 43 C-10.35273483 43.68008118 -10.70546967 44.36016235 -11.06889343 45.06085205 C-15.17230032 53.74810388 -15.73641402 61.62711903 -15.70703125 71.046875 C-15.72017882 72.55432099 -15.7354923 74.06174948 -15.75285339 75.56915283 C-15.79235988 79.49492873 -15.80287132 83.42024026 -15.80688477 87.34619141 C-15.81628184 91.36895532 -15.85373558 95.39145367 -15.88867188 99.4140625 C-15.95289679 107.27604709 -15.98642391 115.13776537 -16 123 C-23.98950755 122.11409978 -30.40479102 120.24023307 -36 114 C-40.886911 107.0223633 -42.10445261 100.39844171 -41 92 C-40.22343012 89.13198625 -39.25108311 86.71068007 -38 84 C-40.45224694 84.10613836 -40.45224694 84.10613836 -43 85 C-46.29351742 91.13275657 -45.75298041 98.28314822 -45 105 C-42.20915668 113.74000754 -37.72793351 119.83220373 -29.75390625 124.2421875 C-21.62157822 128.01558771 -13.2196091 128.43823574 -4.75 125.4375 C3.39886822 121.70369382 8.7918179 116.35815862 12 108 C12.70905938 106.01463373 13.39421747 104.01927511 14 102 C15.65 102 17.3 102 19 102 C18.43290721 110.69542285 14.55265057 118.46014638 8.1640625 124.3984375 C-1.53048542 131.57310293 -11.11335567 134.12387627 -23 133 C-32.75742066 130.53357431 -41.25302107 124.88810975 -46.6953125 116.3359375 C-51.62760484 106.78138262 -52.98111231 95.51365438 -49.875 85.0625 C-45.91725821 75.22362789 -38.14102008 68.26138188 -28.796875 63.6640625 C-27 63 -27 63 -24 63 C-24 62.34 -24 61.68 -24 61 C-23.01 61 -22.02 61 -21 61 C-21 59.35 -21 57.7 -21 56 C-21.969375 55.95875 -22.93875 55.9175 -23.9375 55.875 C-30.74462137 54.86908935 -36.19012396 50.38984405 -40.375 45.125 C-45.9709437 36.85543875 -47.31020281 28.99435695 -46 19 C-43.06382703 9.84731431 -38.01256231 3.40237901 -29.6875 -1.30859375 C-19.87248927 -5.85432789 -9.35174483 -5.42707815 0 0 Z " fill="#1D92CC" transform="translate(92,14)"/>
<path d="M0 0 C9.46487049 5.14953123 16.82426516 12.50626747 20 23 C20 24.32 20 25.64 20 27 C21.258125 27.0825 22.51625 27.165 23.8125 27.25 C33.17618012 28.32476203 40.95188584 31.79643111 48 38 C48.60199219 38.52078125 49.20398438 39.0415625 49.82421875 39.578125 C51.5 41.125 51.5 41.125 54 44 C54 45.32 54 46.64 54 48 C52.515 48.495 52.515 48.495 51 49 C51.27714844 49.53109375 51.55429688 50.0621875 51.83984375 50.609375 C52.38318359 51.66898438 52.38318359 51.66898438 52.9375 52.75 C53.29714844 53.44609375 53.65679687 54.1421875 54.02734375 54.859375 C57.57894017 62.67573981 57.08951381 72.69801507 54.5625 80.75 C50.28332547 91.00187396 41.89975583 98.15892407 31.8125 102.3125 C26.20973015 103.32283555 20.6766114 103.15365264 15 103 C15 101.35 15 99.7 15 98 C16.0621875 97.90203125 17.124375 97.8040625 18.21875 97.703125 C28.06270103 96.70441269 35.62380609 95.78504649 42.75 88.375 C48.6142124 81.08834706 50.83151776 73.65674292 50.51171875 64.31640625 C49.30209176 56.47691528 45.41937892 48.94596087 38.9609375 44.1796875 C30.88597286 39.32184025 23.40250175 37.85785562 14 39 C4.87831039 41.3462943 -1.00679164 45.86102509 -5.921875 53.83984375 C-8.41399372 58.83311061 -9.25590989 63.27204052 -9.31884766 68.83154297 C-9.33391609 69.81309105 -9.33391609 69.81309105 -9.34928894 70.81446838 C-9.37994662 72.95703325 -9.39710683 75.0994742 -9.4140625 77.2421875 C-9.43278823 78.73577935 -9.45236269 80.22936078 -9.4727478 81.72293091 C-9.52392678 85.63877194 -9.56362827 89.55464721 -9.60089111 93.47064209 C-9.6410204 97.47270073 -9.69207188 101.47461866 -9.7421875 105.4765625 C-9.83877807 113.31761197 -9.92323635 121.15873147 -10 129 C-11.65 129 -13.3 129 -15 129 C-15.11649449 120.34126343 -15.20501633 111.68280178 -15.25906086 103.02344894 C-15.28501615 99.00135112 -15.32015138 94.97979435 -15.37719727 90.95800781 C-15.4320266 87.06758657 -15.46152595 83.17768155 -15.47438622 79.28690338 C-15.48353587 77.81188087 -15.50139999 76.33688259 -15.52865028 74.86208344 C-15.69889199 65.25545568 -14.50488137 57.62347499 -10 49 C-11.32 48.67 -12.64 48.34 -14 48 C-15.32 50.97 -16.64 53.94 -18 57 C-23.4113194 57.83251068 -26.54536263 55.95488973 -30.80859375 52.91796875 C-34.33038884 49.83561334 -37.02949897 46.25010026 -39 42 C-39 40.68 -39 39.36 -39 38 C-38.0212793 37.98541748 -37.04255859 37.97083496 -36.03417969 37.95581055 C-32.39595374 37.89774894 -28.75834164 37.8205174 -25.12060547 37.73754883 C-23.54746478 37.70433628 -21.97420599 37.67629283 -20.40087891 37.65356445 C-18.13653328 37.61994972 -15.87326635 37.56763376 -13.609375 37.51171875 C-12.55759064 37.50213387 -12.55759064 37.50213387 -11.48455811 37.49235535 C-6.92745878 37.3557619 -5.86499136 36.89874352 -2 34 C-14.54 33.67 -27.08 33.34 -40 33 C-40 31.35 -40 29.7 -40 28 C-21.85 28 -3.7 28 15 28 C11.10246783 17.28178653 8.64538192 11.125589 -1.25 6.0625 C-9.44466165 2.30873418 -17.70088315 1.44187169 -26.3125 4.625 C-34.55573177 8.44985954 -39.05807947 13.35841033 -42.89453125 21.6484375 C-45.66909037 30.06035173 -45.02222598 38.83052832 -41.25 46.8203125 C-36.72118737 54.71742952 -30.54574539 59.20269364 -21.6953125 61.6328125 C-20.85613281 61.81457031 -20.85613281 61.81457031 -20 62 C-20 63.65 -20 65.3 -20 67 C-27.64173895 67.46007533 -33.15216487 63.95600044 -39.08984375 59.39453125 C-45.60172748 53.39561866 -49.64478442 45.27582487 -50.23828125 36.4609375 C-50.54492666 25.33175337 -49.25024407 17.6187196 -42 8.75 C-31.23910699 -2.60077585 -14.37311764 -7.02744682 0 0 Z " fill="#09ADED" transform="translate(91,8)"/>
<path d="M0 0 C0.07476562 0.72703125 0.14953125 1.4540625 0.2265625 2.203125 C1.79979979 14.23376306 6.32165856 24.35920413 16 32 C17.31164731 32.70838095 18.64002278 33.38952134 20 34 C20 34.66 20 35.32 20 36 C18.4609375 37.26171875 18.4609375 37.26171875 16.375 38.6875 C7.69457882 45.07151346 2.52805786 53.02263912 0.46875 63.7734375 C0.23388684 65.8415381 0.10393985 67.92120292 0 70 C-10.35454317 68.74621398 -17.83114263 64.4289783 -24.42578125 56.3125 C-30.43336155 47.48746889 -32.44718091 38.57279277 -31 28 C-28.51230549 18.23966746 -22.90838403 9.71090979 -14.30078125 4.3046875 C-9.51995037 1.86192719 -5.437553 0 0 0 Z " fill="#FCFDFE" transform="translate(36,41)"/>
<path d="M0 0 C0.33 0 0.66 0 1 0 C1.15855469 0.68964844 1.31710938 1.37929687 1.48046875 2.08984375 C3.94315096 12.00860249 7.66979112 20.66904125 16 27 C21.28161697 30.15733026 26.319958 32.96182302 32.5 33.5625 C36 35 36 35 37.1640625 37.6875 C37.81794305 39.98405609 38.43650127 42.29089848 39.0234375 44.60546875 C41.60999684 53.59634902 48.18094549 60.37724233 56.0078125 65.25 C60.51913187 67.656037 65.01316615 68.93139275 70 70 C70 70.33 70 70.66 70 71 C46.9 71 23.8 71 0 71 C0 47.57 0 24.14 0 0 Z " fill="#FDFEFE" transform="translate(0,81)"/>
<path d="M0 0 C23.1 0 46.2 0 70 0 C67.0464745 1.47676275 64.32652154 2.63304632 61.25 3.75 C52.34835061 7.2975691 44.82895317 13.25034382 40.5546875 21.9375 C38.56028451 26.58730811 36.85190977 30.99846519 36 36 C35.16597656 36.21914063 34.33195312 36.43828125 33.47265625 36.6640625 C22.32559756 39.80515808 13.68779891 44.28439163 7 54 C4.19507374 59.17385362 1.98600768 64.17835892 1 70 C0.67 70 0.34 70 0 70 C0 46.9 0 23.8 0 0 Z " fill="#FDFEFE" transform="translate(0,0)"/>
<path d="M0 0 C6.73967208 4.67255221 11.35055476 10.17148844 14 18 C14 19.32 14 20.64 14 22 C-4.15 22 -22.3 22 -41 22 C-41 23.65 -41 25.3 -41 27 C-28.13 27 -15.26 27 -2 27 C-7 32 -7 32 -10.59692383 32.56762695 C-11.96721468 32.56684323 -13.33768106 32.53905223 -14.70703125 32.48828125 C-15.43242599 32.48120651 -16.15782074 32.47413177 -16.90519714 32.46684265 C-19.20870703 32.43898406 -21.50973251 32.37627191 -23.8125 32.3125 C-25.37952203 32.28740563 -26.9465824 32.26459444 -28.51367188 32.24414062 C-32.34339656 32.18918681 -36.17127797 32.10298226 -40 32 C-39.53830301 33.27197994 -39.07269381 34.54254023 -38.60546875 35.8125 C-38.34660889 36.52019531 -38.08774902 37.22789063 -37.82104492 37.95703125 C-36.80570804 40.48344785 -35.49182153 42.72674814 -34 45 C-35.6875 45.8125 -35.6875 45.8125 -38 46 C-42.534878 42.5711898 -44.86059949 38.49847062 -46 33 C-47.21863342 22.99501963 -45.78746387 15.32257091 -40 7 C-29.91214454 -4.92005143 -13.53972625 -7.85748048 0 0 Z " fill="#0AADED" transform="translate(92,14)"/>
<path d="M0 0 C9.42909012 5.58181269 15.59936892 12.90621916 18.984375 23.38671875 C20.69525763 32.64259376 20.00319285 42.2362562 15.375 50.5 C9.2455659 58.90539293 1.83572215 65.61364027 -8.625 67.5 C-12.96424312 67.64769724 -17.28538983 67.61746313 -21.625 67.5 C-21.625 65.85 -21.625 64.2 -21.625 62.5 C-20.5628125 62.40203125 -19.500625 62.3040625 -18.40625 62.203125 C-8.56229897 61.20441269 -1.00119391 60.28504649 6.125 52.875 C11.9892124 45.58834706 14.20651776 38.15674292 13.88671875 28.81640625 C12.67709176 20.97691528 8.79437892 13.44596087 2.3359375 8.6796875 C-5.73902714 3.82184025 -13.22249825 2.35785562 -22.625 3.5 C-31.74668961 5.8462943 -37.63179164 10.36102509 -42.546875 18.33984375 C-45.03899372 23.33311061 -45.88090989 27.77204052 -45.94384766 33.33154297 C-45.95389328 33.98590836 -45.9639389 34.64027374 -45.97428894 35.31446838 C-46.00494662 37.45703325 -46.02210683 39.5994742 -46.0390625 41.7421875 C-46.05778823 43.23577935 -46.07736269 44.72936078 -46.0977478 46.22293091 C-46.14892678 50.13877194 -46.18862827 54.05464721 -46.22589111 57.97064209 C-46.2660204 61.97270073 -46.31707188 65.97461866 -46.3671875 69.9765625 C-46.46377807 77.81761197 -46.54823635 85.65873147 -46.625 93.5 C-48.275 93.5 -49.925 93.5 -51.625 93.5 C-51.74149449 84.84126343 -51.83001633 76.18280178 -51.88406086 67.52344894 C-51.91001615 63.50135112 -51.94515138 59.47979435 -52.00219727 55.45800781 C-52.0570266 51.56758657 -52.08652595 47.67768155 -52.09938622 43.78690338 C-52.10853587 42.31188087 -52.12639999 40.83688259 -52.15365028 39.36208344 C-52.39256401 25.88033908 -49.60018862 15.5251337 -40.10546875 5.6328125 C-29.4584454 -3.52195088 -12.79055565 -6.04316906 0 0 Z " fill="#F6FAFC" transform="translate(127.625,43.5)"/>
<path d="M0 0 C6.75647051 3.93850087 11.27404901 9.39399942 13.5 16.9375 C14.57072598 25.33675045 13.43619569 31.97969653 8.5 38.9375 C6.35991787 41.29159034 4.12146483 43.14448907 1.5 44.9375 C0.200625 45.865625 0.200625 45.865625 -1.125 46.8125 C-6.4915187 48.60133957 -11.89466633 48.16204601 -17.5 47.9375 C-17.5 46.2875 -17.5 44.6375 -17.5 42.9375 C-16.73816406 42.93492188 -15.97632812 42.93234375 -15.19140625 42.9296875 C-7.51177147 42.64206073 -2.1120676 41.38345989 3.5 35.9375 C7.18328849 31.27599397 8.21166969 26.3383147 7.94921875 20.46484375 C6.89050811 14.50844562 4.07370971 10.22216099 -0.5625 6.4375 C-6.05784904 3.63136432 -11.40060877 3.36899434 -17.5 3.9375 C-20.86878771 5.24469263 -20.86878771 5.24469263 -23.5 6.9375 C-24.49 7.2675 -25.48 7.5975 -26.5 7.9375 C-27.61935073 9.58380193 -27.61935073 9.58380193 -28.5 11.9375 C-29.00869629 13.02764404 -29.51739258 14.11778809 -30.04150391 15.2409668 C-32.25126486 21.18785063 -31.88290342 27.2550258 -31.8359375 33.51953125 C-31.84524511 35.49190646 -31.85458086 37.46428203 -31.86561012 39.43664837 C-31.88797538 44.27215386 -31.87795724 49.10761142 -31.86035156 53.94311523 C-31.85155816 56.66946051 -31.85594003 59.39520844 -31.87417603 62.12150574 C-31.89012138 64.6834023 -31.88534965 67.24552706 -31.85800171 69.80732727 C-31.86796173 70.96250351 -31.87792175 72.11767975 -31.88818359 73.30786133 C-31.88579681 74.32519852 -31.88341003 75.34253571 -31.88095093 76.39070129 C-32.5 78.9375 -32.5 78.9375 -35.03823853 80.78935242 C-35.85061981 81.16824112 -36.6630011 81.54712982 -37.5 81.9375 C-37.59303902 73.74843115 -37.66393536 65.55958636 -37.70724869 57.37011814 C-37.72804618 53.56662268 -37.75621807 49.76349115 -37.80175781 45.96020508 C-37.84549865 42.28378199 -37.86919592 38.60770702 -37.87950897 34.93104362 C-37.88685014 33.53450993 -37.90118483 32.13799341 -37.92292023 30.74160957 C-38.07290695 20.69835006 -36.91065692 14.00476171 -31.3125 5.6875 C-22.56543494 -2.86518584 -11.44628956 -5.19658093 0 0 Z " fill="#F4F9FC" transform="translate(123.5,53.0625)"/>
<path d="M0 0 C9.53841197 5.18954278 16.70557372 12.49776833 20 23 C20.25 26.0625 20.25 26.0625 20 28 C18.35 28 16.7 28 15 28 C14.79246094 27.29875 14.58492188 26.5975 14.37109375 25.875 C11.36928516 16.63093671 7.54037921 10.56020131 -1.25 6.0625 C-9.44466165 2.30873418 -17.70088315 1.44187169 -26.3125 4.625 C-34.55573177 8.44985954 -39.05807947 13.35841033 -42.89453125 21.6484375 C-45.66909037 30.06035173 -45.02222598 38.83052832 -41.25 46.8203125 C-36.72118737 54.71742952 -30.54574539 59.20269364 -21.6953125 61.6328125 C-20.85613281 61.81457031 -20.85613281 61.81457031 -20 62 C-20 63.65 -20 65.3 -20 67 C-27.64173895 67.46007533 -33.15216487 63.95600044 -39.08984375 59.39453125 C-45.60172748 53.39561866 -49.64478442 45.27582487 -50.23828125 36.4609375 C-50.54492666 25.33175337 -49.25024407 17.6187196 -42 8.75 C-31.23910699 -2.60077585 -14.37311764 -7.02744682 0 0 Z " fill="#F5FAFC" transform="translate(91,8)"/>
<path d="M0 0 C0 1.65 0 3.3 0 5 C-0.71285156 5.21914062 -1.42570312 5.43828125 -2.16015625 5.6640625 C-11.34948572 8.7065592 -16.5517634 11.97267729 -21.4375 20.4375 C-25.19142213 28.60303951 -25.68329499 36.84380166 -22.88671875 45.41015625 C-19.08902572 53.67090633 -14.50914276 58.57175776 -6.3125 62.375 C2.11815683 65.41975922 10.54305403 65.05241898 18.6796875 61.32421875 C27.99432871 56.00828715 31.98831505 49.03894983 35 39 C36.65 39 38.3 39 40 39 C39.43290721 47.69542285 35.55265057 55.46014638 29.1640625 61.3984375 C19.46951458 68.57310293 9.88664433 71.12387627 -2 70 C-11.75742066 67.53357431 -20.25302107 61.88810975 -25.6953125 53.3359375 C-30.62760484 43.78138262 -31.98111231 32.51365438 -28.875 22.0625 C-25.00365829 12.43841687 -17.21626914 5.05864938 -7.93359375 0.6796875 C-5.23424478 -0.26917456 -2.82527797 -0.2825278 0 0 Z " fill="#F5F9FC" transform="translate(71,77)"/>
<path d="M0 0 C13.69461335 0.00711335 13.69461335 0.00711335 19 5.3125 C20.41869256 9.75773668 20.19471792 13.76642765 18.9375 18.25 C16.31142029 21.0834018 14.57578802 22.03723733 10.9375 23.25 C8.36252932 23.32035439 5.82300071 23.3434934 3.25 23.3125 C-0.3696875 23.2815625 -0.3696875 23.2815625 -4.0625 23.25 C-4.0625 29.85 -4.0625 36.45 -4.0625 43.25 C-6.0425 43.745 -6.0425 43.745 -8.0625 44.25 C-10.01113925 42.30136075 -9.1916874 39.3519128 -9.20144653 36.75878906 C-9.1994223 35.84838867 -9.19739807 34.93798828 -9.1953125 34 C-9.19626923 33.07155273 -9.19722595 32.14310547 -9.19821167 31.18652344 C-9.19889355 29.21940035 -9.19703872 27.25227504 -9.19287109 25.28515625 C-9.18752295 22.26296974 -9.19281582 19.24093185 -9.19921875 16.21875 C-9.19855797 14.31249967 -9.19727681 12.40624943 -9.1953125 10.5 C-9.19733673 9.58959961 -9.19936096 8.67919922 -9.20144653 7.74121094 C-9.17015209 -0.57411321 -7.70258159 0.02819393 0 0 Z " fill="#22B5F0" transform="translate(311.0625,53.75)"/>
<path d="M0 0 C7.81944611 6.19087609 13.01461824 13.4370698 16 23 C16.1484375 26.390625 16.1484375 26.390625 16 29 C13.62109375 28.81640625 13.62109375 28.81640625 11 28 C9.84765625 25.77734375 9.84765625 25.77734375 9.0625 22.9375 C5.65932855 12.47037506 -0.77453711 6.53996909 -10.1875 1.1875 C-18.70349399 -2.40814191 -28.68182251 -2.26929179 -37.25 1 C-47.08788207 5.63952959 -52.99258928 11.92780253 -57 22 C-60.12144305 31.36432914 -58.22480111 42.93984451 -55 52 C-57.475 52.495 -57.475 52.495 -60 53 C-65.02418317 42.81705732 -65.761204 31.52745362 -63.1875 20.52734375 C-59.02096484 9.31531338 -50.75221187 1.02765463 -40 -4 C-26.66938177 -9.54739335 -12.04564649 -7.82136924 0 0 Z " fill="#08A9E9" transform="translate(100,7)"/>
<path d="M0 0 C4.54900564 3.68252838 6.08763573 9.42718042 7 15 C7.95093461 26.47357174 6.38250646 38.0986481 -1.2421875 47.16015625 C-9.47963195 55.78201478 -16.91167251 61.12084891 -29 62 C-28.93941406 62.84949219 -28.87882812 63.69898438 -28.81640625 64.57421875 C-29.32243506 74.01650108 -36.0378073 83.0359258 -42.7890625 89.22265625 C-49.97582418 95 -49.97582418 95 -55 95 C-55.33 94.34 -55.66 93.68 -56 93 C-56.99 92.34 -57.98 91.68 -59 91 C-58.2265625 90.67128906 -57.453125 90.34257812 -56.65625 90.00390625 C-47.08383151 85.63234385 -40.65039785 80.56537417 -36.5625 70.6875 C-35.53383926 67.82293354 -34.69810444 64.96186057 -34 62 C-35.65 62 -37.3 62 -39 62 C-39 60.35 -39 58.7 -39 57 C-38.18917969 56.97421875 -37.37835938 56.9484375 -36.54296875 56.921875 C-24.57226813 56.30870756 -15.94878121 53.95749226 -7.16796875 45.51171875 C0.72334692 36.36916744 1.74381671 26.68305215 1 15 C-0.01348836 10.32084272 -1.8302319 6.24519845 -4 2 C-2.68 2 -1.36 2 0 2 C0 1.34 0 0.68 0 0 Z " fill="#2C65A7" transform="translate(145,54)"/>
<path d="M0 0 C4.60177578 2.32573549 7.26692844 5.50171422 8.99609375 10.3515625 C9.84082134 16.15906467 8.42258032 20.67815922 4.99609375 25.3515625 C0.75056883 29.27812311 -3.56382758 29.77081927 -9.18359375 29.58984375 C-11.00390625 29.3515625 -11.00390625 29.3515625 -12.00390625 28.3515625 C-12.04454457 26.68539135 -12.04662725 25.01768155 -12.00390625 23.3515625 C-11.41222656 23.39796875 -10.82054688 23.444375 -10.2109375 23.4921875 C-5.98405007 23.68525903 -3.67906705 23.773538 -0.00390625 21.4765625 C2.36926796 18.9550649 2.92635069 17.97925007 3.30859375 14.5390625 C2.92445017 10.620798 1.70353058 9.13862983 -1.00390625 6.3515625 C-4.10439553 4.80131786 -6.58284843 5.06164235 -10.00390625 5.3515625 C-12.87224654 6.65681166 -12.87224654 6.65681166 -15.00390625 9.3515625 C-15.72005269 12.57134114 -15.62979912 15.72948464 -15.5703125 19.015625 C-15.57594711 19.96287445 -15.58158173 20.9101239 -15.58738708 21.88607788 C-15.60384843 24.91674082 -15.58831139 27.94595032 -15.56640625 30.9765625 C-15.54974024 33.9856226 -15.54084465 36.99370045 -15.55613708 40.0027771 C-15.56531614 41.87275543 -15.55659565 43.74294268 -15.52650452 45.61270142 C-15.553283 52.09942115 -16.85403716 57.62726934 -20.00390625 63.3515625 C-20.99390625 63.8465625 -20.99390625 63.8465625 -22.00390625 64.3515625 C-22.08006116 56.91347828 -22.13255039 49.47549487 -22.16870117 42.03710938 C-22.18377411 39.50744876 -22.20423586 36.97781421 -22.23022461 34.44824219 C-22.26667241 30.80917927 -22.28364795 27.17046234 -22.296875 23.53125 C-22.31235886 22.40290741 -22.32784271 21.27456482 -22.34379578 20.11203003 C-22.34537719 12.70969918 -21.55309177 8.21939621 -16.50390625 2.5390625 C-11.91228799 -1.47860348 -5.73985124 -1.85733978 0 0 Z " fill="#EBF3F9" transform="translate(118.00390625,61.6484375)"/>
<path d="M0 0 C4.3493244 2.9332653 7.73335406 6.20004389 10 11 C10 11.66 10 12.32 10 13 C-5.18 13 -20.36 13 -36 13 C-32.74217129 4.85542823 -28.71089494 1.69214122 -21 -2 C-13.93074227 -4.35641924 -6.62530231 -3.24011135 0 0 Z " fill="#FAFCFD" transform="translate(89,18)"/>
<path d="M0 0 C1.12591553 0.00523682 2.25183105 0.01047363 3.41186523 0.01586914 C4.62680664 0.0190918 5.84174805 0.02231445 7.09350586 0.02563477 C8.37290039 0.03401367 9.65229492 0.04239258 10.97045898 0.05102539 C12.2537207 0.05553711 13.53698242 0.06004883 14.85913086 0.06469727 C18.04211921 0.07652994 21.22501661 0.09301471 24.40795898 0.11352539 C24.40795898 1.43352539 24.40795898 2.75352539 24.40795898 4.11352539 C16.48795898 4.11352539 8.56795898 4.11352539 0.40795898 4.11352539 C0.40795898 9.06352539 0.40795898 14.01352539 0.40795898 19.11352539 C7.99795898 19.11352539 15.58795898 19.11352539 23.40795898 19.11352539 C23.40795898 20.43352539 23.40795898 21.75352539 23.40795898 23.11352539 C15.81795898 23.11352539 8.22795898 23.11352539 0.40795898 23.11352539 C0.40795898 28.72352539 0.40795898 34.33352539 0.40795898 40.11352539 C8.65795898 40.11352539 16.90795898 40.11352539 25.40795898 40.11352539 C25.40795898 41.43352539 25.40795898 42.75352539 25.40795898 44.11352539 C21.43864909 44.1381842 17.46936864 44.15636562 13.5 44.16845703 C12.14875512 44.17349596 10.79751573 44.18032716 9.44628906 44.18896484 C7.50775464 44.20104958 5.56918098 44.20622367 3.63061523 44.21118164 C1.87890015 44.21903687 1.87890015 44.21903687 0.09179688 44.22705078 C-2.59204102 44.11352539 -2.59204102 44.11352539 -3.59204102 43.11352539 C-3.69321022 40.02271074 -3.73172659 36.95469984 -3.72485352 33.86352539 C-3.72581024 32.93507812 -3.72676697 32.00663086 -3.72775269 31.05004883 C-3.72843457 29.08292574 -3.72657973 27.11580043 -3.72241211 25.14868164 C-3.71706397 22.12649513 -3.72235684 19.10445724 -3.72875977 16.08227539 C-3.72809899 14.17602506 -3.72681783 12.26977482 -3.72485352 10.36352539 C-3.72687775 9.453125 -3.72890198 8.54272461 -3.73098755 7.60473633 C-3.70297774 0.16218185 -3.70297774 0.16218185 0 0 Z " fill="#10B0EF" transform="translate(227.592041015625,53.886474609375)"/>
<path d="M0 0 C8.46185776 3.4155135 13.8307368 9.66840138 17.66015625 17.765625 C18.4375 20.0625 18.4375 20.0625 18.4375 24.0625 C0.2875 24.0625 -17.8625 24.0625 -36.5625 24.0625 C-36.2325 22.4125 -35.9025 20.7625 -35.5625 19.0625 C-20.0525 19.0625 -4.5425 19.0625 11.4375 19.0625 C5.34650419 9.92600629 2.47367096 6.47118103 -7.5625 4.0625 C-5.5902034 -0.30472819 -4.99869698 -1.31544657 0 0 Z " fill="#1C93CE" transform="translate(87.5625,11.9375)"/>
<path d="M0 0 C1.93359375 1.484375 1.93359375 1.484375 2.7109375 3.65625 C2.78441406 4.25953125 2.85789062 4.8628125 2.93359375 5.484375 C-1.06640625 5.484375 -1.06640625 5.484375 -4.25390625 3.484375 C-8.4910881 0.94388053 -12.23230499 0.66154925 -17.06640625 1.484375 C-22.21711143 3.13260066 -25.55645732 6.40685797 -28.1796875 11.078125 C-30.20096342 16.5631733 -30.20096342 22.4055767 -28.1796875 27.890625 C-25.55228991 32.56931307 -22.21756132 35.82237908 -17.06640625 37.484375 C-11.7809792 38.48432066 -8.19351098 37.87922086 -3.69140625 34.921875 C-3.06492187 34.44621094 -2.4384375 33.97054687 -1.79296875 33.48046875 C-1.22320312 33.15175781 -0.6534375 32.82304688 -0.06640625 32.484375 C0.92359375 32.814375 1.91359375 33.144375 2.93359375 33.484375 C2.7109375 35.3125 2.7109375 35.3125 1.93359375 37.484375 C-3.28941429 41.49395693 -9.14653969 43.28182015 -15.6796875 42.90234375 C-21.24812746 41.92718323 -24.91231565 39.6384656 -28.87890625 35.671875 C-34.10015361 28.0637717 -35.25054533 21.71172293 -34.06640625 12.484375 C-31.62644773 5.37304289 -27.23065688 0.9135212 -20.81640625 -2.828125 C-12.9982081 -4.78267454 -7.12353017 -3.60066112 0 0 Z " fill="#0EAFEF" transform="translate(292.06640625,56.515625)"/>
<path d="M0 0 C3.04623221 1.51183376 5.77877653 3.28480935 8.609375 5.171875 C7.949375 6.491875 7.289375 7.811875 6.609375 9.171875 C5.68318359 8.63046875 5.68318359 8.63046875 4.73828125 8.078125 C-1.00074308 4.93345413 -5.81192278 2.72574586 -12.390625 4.171875 C-17.0593614 5.97966281 -20.37260719 8.50364595 -22.890625 12.859375 C-25.18508797 18.29848141 -25.4213568 23.80172944 -23.6953125 29.4453125 C-21.58700239 34.21115636 -19.06778532 36.68402377 -14.390625 39.171875 C-9.88648057 40.67325648 -5.62239601 41.08126212 -1.1953125 39.27734375 C0.16904184 38.56495947 1.5186681 37.8232413 2.84765625 37.046875 C4.609375 36.171875 4.609375 36.171875 7.609375 36.171875 C7.939375 37.161875 8.269375 38.151875 8.609375 39.171875 C1.3415711 44.24243586 -4.48856311 46.52860636 -13.390625 45.171875 C-19.60225264 42.6559923 -24.39203485 39.29399655 -27.390625 33.171875 C-30.01065701 26.35979178 -30.87978713 18.80918764 -27.890625 11.984375 C-22.11044374 1.80712728 -11.46380239 -3.97112109 0 0 Z " fill="#0EAFEF" transform="translate(208.390625,53.828125)"/>
<path d="M0 0 C10.56 0 21.12 0 32 0 C29.03 3.96 29.03 3.96 26 8 C24.01584785 11.70017562 22.32055542 15.03833373 21 19 C15.5886806 19.83251068 12.45463737 17.95488973 8.19140625 14.91796875 C4.66961116 11.83561334 1.97050103 8.25010026 0 4 C0 2.68 0 1.36 0 0 Z " fill="#F9FCFD" transform="translate(52,46)"/>
<path d="M0 0 C-0.2816803 0.47706894 -0.5633606 0.95413788 -0.85357666 1.44566345 C-4.66492886 8.75107 -4.60447087 15.79607069 -4.609375 23.87890625 C-4.62438205 25.30095784 -4.64111444 26.72299216 -4.65948486 28.14500427 C-4.70288834 31.8586616 -4.72309674 35.57208394 -4.73822021 39.28594971 C-4.75788971 43.0872573 -4.79984805 46.88831468 -4.83984375 50.68945312 C-4.91485255 58.12623436 -4.96532043 65.56290962 -5 73 C-7.475 73.495 -7.475 73.495 -10 74 C-10.06971632 65.53286617 -10.12292046 57.06585363 -10.15543652 48.59850311 C-10.17104788 44.66615105 -10.19220249 40.73399633 -10.22631836 36.80175781 C-10.25907462 33.00216246 -10.27688703 29.20275613 -10.28463173 25.4030304 C-10.29014622 23.95824715 -10.30091432 22.51347346 -10.31719017 21.06877136 C-10.47493952 6.47720188 -10.47493952 6.47720188 -7 0 C-3.86650268 -1.04449911 -3.01031744 -0.93423645 0 0 Z " fill="#1B94CF" transform="translate(91,62)"/>
<path d="M0 0 C0.296875 2.32421875 0.296875 2.32421875 0 5 C-2.046875 6.51953125 -2.046875 6.51953125 -4.75 7.8125 C-9.12144618 10.24589709 -11.57123076 12.12059485 -13.4453125 16.796875 C-15.19321372 23.73924322 -14.50390895 29.25726539 -10.875 35.40625 C-10 37 -10 37 -10 39 C-9.46375 39.268125 -8.9275 39.53625 -8.375 39.8125 C-5.58333333 41.20833333 -2.79166667 42.60416667 0 44 C0 45.65 0 47.3 0 49 C-6.42131637 48.83535086 -10.64031138 45.39174515 -15 41 C-20.08777596 34.16918969 -21.03760484 27.33542553 -20 19 C-18.58690417 12.20092415 -14.78159686 6.77480809 -9.1953125 2.67578125 C-5.84609687 0.62744122 -3.98934497 0 0 0 Z " fill="#F3F9FC" transform="translate(71,87)"/>
<path d="M0 0 C1.06214607 2.07666228 2.06278109 4.14825414 2.97265625 6.296875 C7.32143903 16.08553301 14.33303921 22.28626947 24.31640625 26.16796875 C32.07740962 27.92098436 40.09713683 27.3514119 48 27 C48.495 28.98 48.495 28.98 49 31 C36.27656556 34.33729428 25.38978082 33.79063901 13.8125 27.25 C5.24134982 21.75051397 -0.87735756 14.92804255 -4 5 C-3.15234375 2.63671875 -3.15234375 2.63671875 -2 1 C-1.67 1.33 -1.34 1.66 -1 2 C-0.67 1.34 -0.34 0.68 0 0 Z " fill="#0AABEB" transform="translate(41,119)"/>
<path d="M0 0 C4.54900564 3.68252838 6.08763573 9.42718042 7 15 C7.95185909 26.48472605 6.36629232 38.05412655 -1.21875 47.1484375 C-10.08074534 56.36024845 -10.08074534 56.36024845 -15 58 C-16 56 -16 56 -15.5625 53.8125 C-13.59781404 50.27606527 -11.03410726 48.3269392 -7.96484375 45.74609375 C-2.01095872 40.45506669 0.62354081 33.39541542 1.2890625 25.625 C1.50175685 16.6531655 0.04516345 9.91445022 -4 2 C-2.68 2 -1.36 2 0 2 C0 1.34 0 0.68 0 0 Z " fill="#1A93CE" transform="translate(145,54)"/>
<path d="M0 0 C4.35253861 3.134422 9.18668511 6.81910031 11 12 C10.1875 15.8125 10.1875 15.8125 9 19 C7.50932185 17.04864581 6.06757549 15.10588931 4.74609375 13.03515625 C0.90697265 7.24782444 -3.29993318 3.97219709 -10 2 C-18.53025363 0.71850547 -24.84761548 1.51812482 -32.01171875 6.39453125 C-34.00290501 7.92988644 -34.00290501 7.92988644 -35.5703125 9.65625 C-37.75334506 11.70806202 -40.10412303 11.67823589 -43 12 C-39.52411715 4.75857739 -34.64398012 0.44199101 -27.3125 -2.875 C-18.19974319 -5.86484359 -8.22998957 -4.80316797 0 0 Z " fill="#08ACED" transform="translate(128,50)"/>
<path d="M0 0 C0.66 0 1.32 0 2 0 C5.35824893 7.26725068 5.154163 15.74553029 2.5 23.25 C-1.02568416 30.87242984 -6.43892744 36.90662877 -14.140625 40.34375 C-18.12487311 41.74995522 -21.50877866 42.11299073 -25.75 42.0625 C-26.73484375 42.05347656 -27.7196875 42.04445312 -28.734375 42.03515625 C-29.48203125 42.02355469 -30.2296875 42.01195312 -31 42 C-31 40.35 -31 38.7 -31 37 C-29.87464844 36.99613281 -29.87464844 36.99613281 -28.7265625 36.9921875 C-20.08799995 36.66579345 -13.37817306 34.68722058 -7.33984375 28.22265625 C-3.22471559 22.73981786 -1.74648989 18.28139552 -2 11.5 C-2.16544461 7.07435666 -1.91940927 4.01876317 0 0 Z " fill="#1D94CE" transform="translate(138,64)"/>
<path d="M0 0 C2.371875 -0.103125 4.74375 -0.20625 7.1875 -0.3125 C7.92508545 -0.35802002 8.6626709 -0.40354004 9.42260742 -0.45043945 C13.31439539 -0.53190159 14.87280727 -0.10027363 17.953125 2.328125 C20 5 20 5 20.5625 8.0625 C19.85153096 11.77533834 19.03339603 12.75958624 16 15 C13.10550051 15.2906124 10.62050065 15.38186045 7.75 15.25 C6.63238281 15.22292969 6.63238281 15.22292969 5.4921875 15.1953125 C3.66090299 15.14835649 1.83028351 15.07661652 0 15 C0 10.05 0 5.1 0 0 Z " fill="#FCFDFE" transform="translate(307,58)"/>
<path d="M0 0 C1.65 0 3.3 0 5 0 C4.67 1.0725 4.34 2.145 4 3.25 C1.90133074 11.92041463 1.90801992 19.92680847 6.37890625 27.8046875 C10.35626017 33.19088727 15.51927451 36.37981863 22 38 C20.25 41.875 20.25 41.875 18 43 C8.99021215 39.98575653 3.01836195 34.1816209 -1.4375 25.9375 C-3.97413303 19.66152001 -3.80975265 12.63121765 -3 6 C-1.47265625 2.54296875 -1.47265625 2.54296875 0 0 Z " fill="#0CADED" transform="translate(49,98)"/>
<path d="M0 0 C0.97795066 1.17583511 1.90942898 2.39072352 2.8125 3.625 C7.64507431 9.41990513 14.24508667 12.00198021 21 15 C21 15.66 21 16.32 21 17 C20.0821875 17.40089844 19.164375 17.80179688 18.21875 18.21484375 C10.04229065 21.94549257 4.52281964 25.71047193 -1 33 C-1.66 33.66 -2.32 34.32 -3 35 C-4.4375 32.5 -4.4375 32.5 -5 29 C-2.06915516 24.21905936 2.4008272 20.15371849 7 17 C7.66 17 8.32 17 9 17 C9 16.34 9 15.68 9 15 C8.26136719 14.74863281 7.52273437 14.49726562 6.76171875 14.23828125 C3.79396445 12.90761914 2.0887945 11.49021185 -0.1875 9.1875 C-1.19876953 8.18783203 -1.19876953 8.18783203 -2.23046875 7.16796875 C-4.10737372 4.86844941 -5.04845465 2.7960794 -6 0 C-3 -1 -3 -1 0 0 Z " fill="#2570B1" transform="translate(47,60)"/>
<path d="M0 0 C1.98 0 3.96 0 6 0 C5.83792557 0.54748398 5.67585114 1.09496796 5.50886536 1.65904236 C4.9307001 4.31880366 4.86803053 6.73287025 4.8581543 9.45532227 C4.85111984 10.54647842 4.84408539 11.63763458 4.83683777 12.76185608 C4.83267349 13.93485764 4.82850922 15.10785919 4.82421875 16.31640625 C4.80103334 18.79623257 4.77691654 21.27605032 4.75195312 23.75585938 C4.71674023 27.66892338 4.68743454 31.58166934 4.67407227 35.49487305 C4.65865948 39.26910779 4.61850604 43.04241471 4.57421875 46.81640625 C4.57612717 47.99143204 4.57803558 49.16645782 4.58000183 50.37709045 C4.56351089 51.46509445 4.54701996 52.55309845 4.5300293 53.67407227 C4.52416306 54.6324147 4.51829681 55.59075714 4.51225281 56.57814026 C4 59 4 59 0 62 C0 41.54 0 21.08 0 0 Z " fill="#1491CD" transform="translate(92,69)"/>
<path d="M0 0 C2.97361628 1.78152067 5.42653612 3.85307225 7 7 C7.39996563 9.93308126 7.53465611 12.07397562 6.0234375 14.69140625 C4.14368597 17.08434148 2.55906718 18.78846107 -0.3125 19.875 C-0.869375 19.91625 -1.42625 19.9575 -2 20 C-2.061875 19.401875 -2.12375 18.80375 -2.1875 18.1875 C-2.82479523 15.74165425 -2.82479523 15.74165425 -5.5 14.625 C-8 13 -8 13 -8.8125 9.8125 C-8.874375 8.884375 -8.93625 7.95625 -9 7 C-9.99 6.67 -10.98 6.34 -12 6 C-9.47676535 0.17715081 -6.14768961 -0.7293869 0 0 Z " fill="#2293CC" transform="translate(115,66)"/>
<path d="M0 0 C0.99 0.66 1.98 1.32 3 2 C2.0960961 8.58558559 2.0960961 8.58558559 1.5 11.15625 C0.79035044 15.1923819 0.63436811 19.22345261 0.4375 23.3125 C0.39431641 24.14845703 0.35113281 24.98441406 0.30664062 25.84570312 C0.20114693 27.89696935 0.10012685 29.9484648 0 32 C-0.66 31.67 -1.32 31.34 -2 31 C-2.66 31.66 -3.32 32.32 -4 33 C-4.33 30.69 -4.66 28.38 -5 26 C-6.7325 25.87625 -6.7325 25.87625 -8.5 25.75 C-13.22127498 25.18513317 -16.9106739 23.33831147 -21 21 C-20.34 19.68 -19.68 18.36 -19 17 C-17.22888156 17.47811177 -15.45811517 17.9575278 -13.6875 18.4375 C-12.70136719 18.70433594 -11.71523438 18.97117187 -10.69921875 19.24609375 C-8.78482474 19.78079425 -6.88566385 20.37144538 -5 21 C-5.103125 19.7625 -5.20625 18.525 -5.3125 17.25 C-5.36311523 10.90284963 -2.67143155 5.63862874 0 0 Z " fill="#0AA4E2" transform="translate(41,90)"/>
<path d="M0 0 C17.16 0 34.32 0 52 0 C50.02 0.99 50.02 0.99 48 2 C46.96157959 2.53020752 45.92315918 3.06041504 44.85327148 3.60668945 C40.39203138 5.48928079 36.12632855 5.37893671 31.34765625 5.29296875 C30.44752304 5.28872391 29.54738983 5.28447906 28.61997986 5.28010559 C25.76717214 5.26341816 22.91509137 5.22578497 20.0625 5.1875 C18.11915088 5.1724403 16.17579061 5.15875415 14.23242188 5.14648438 C9.48800451 5.11354726 4.74412517 5.0618344 0 5 C0 3.35 0 1.7 0 0 Z " fill="#FDFEFE" transform="translate(51,36)"/>
<path d="M0 0 C0 9.57 0 19.14 0 29 C-4.74406581 26.15356051 -7.54317599 23.91364803 -10 19 C-10.56735892 14.34951706 -10.4598631 10.90269423 -8.3125 6.6875 C-2.55813953 0 -2.55813953 0 0 0 Z " fill="#FCFDFE" transform="translate(71,97)"/>
<path d="M0 0 C7.53633721 4.1375969 7.53633721 4.1375969 9.5 9 C9.726875 9.9075 9.95375 10.815 10.1875 11.75 C8 12.0625 8 12.0625 5.1875 11.75 C2.625 9.375 2.625 9.375 0.1875 6.75 C-4.02732252 4.17720209 -8.00089794 4.18950872 -12.8125 4.75 C-15.85675825 6.10300367 -17.53807851 7.45842717 -19.8125 9.875 C-22.14215058 12.05904742 -23.6853345 12.40253717 -26.8125 12.75 C-26.39561525 7.88634454 -24.40030535 5.92061868 -20.8125 2.75 C-14.91584753 -2.10606674 -7.12014216 -2.87935419 0 0 Z " fill="#0CACEB" transform="translate(119.8125,57.25)"/>
<path d="M0 0 C1.98 0 3.96 0 6 0 C8.12377668 4.24755336 7.62286571 9.7386404 6.38671875 14.2265625 C3.71295684 20.32792227 -1.12495622 24.06247811 -7 27 C-8.87379605 27.07033769 -10.75001102 27.0843022 -12.625 27.0625 C-13.62789063 27.05347656 -14.63078125 27.04445313 -15.6640625 27.03515625 C-16.43492188 27.02355469 -17.20578125 27.01195313 -18 27 C-18 25.35 -18 23.7 -18 22 C-17.19175781 21.91363281 -16.38351563 21.82726562 -15.55078125 21.73828125 C-8.77105654 20.89826489 -8.77105654 20.89826489 -2.875 17.6875 C0.61913318 12.67924244 1.34058782 9.13058081 1 3 C0.67 2.01 0.34 1.02 0 0 Z " fill="#2697CF" transform="translate(125,69)"/>
<path d="M0 0 C0.33 0 0.66 0 1 0 C1 11.88 1 23.76 1 36 C-0.65 36 -2.3 36 -4 36 C-4 34.02 -4 32.04 -4 30 C-6.475 29.01 -6.475 29.01 -9 28 C-9 26.35 -9 24.7 -9 23 C-7.68 23.33 -6.36 23.66 -5 24 C-4.67 17.4 -4.34 10.8 -4 4 C-2.68 4.33 -1.36 4.66 0 5 C0 3.35 0 1.7 0 0 Z " fill="#195FA5" transform="translate(75,101)"/>
<path d="M0 0 C12.87 0 25.74 0 39 0 C34 5 34 5 30.3112793 5.56762695 C28.89867837 5.56684281 27.4859081 5.53902725 26.07421875 5.48828125 C25.32662796 5.48120651 24.57903717 5.47413177 23.80879211 5.46684265 C21.43398598 5.43897645 19.06158649 5.37626132 16.6875 5.3125 C15.07229982 5.28740668 13.45706246 5.26459531 11.84179688 5.24414062 C7.89361181 5.18917647 3.94721311 5.10296527 0 5 C0 3.35 0 1.7 0 0 Z " fill="#105FA7" transform="translate(51,41)"/>
<path d="M0 0 C0.75 2.6875 0.75 2.6875 1 6 C-0.875 8.75 -0.875 8.75 -3 11 C-4.73176656 14.46353311 -4.4845156 18.21312806 -4 22 C-2.18621008 25.34752558 -2.18621008 25.34752558 0 28 C1.04449911 31.13349732 0.93423645 31.98968256 0 35 C-5.05945832 32.97621667 -6.87072783 29.48496037 -9.046875 24.75390625 C-11.11213467 18.78666007 -10.91283969 13.37985014 -8.3125 7.625 C-6.64980004 4.69152222 -3.76273336 0 0 0 Z " fill="#109AD6" transform="translate(66,94)"/>
<path d="M0 0 C0.33 0 0.66 0 1 0 C1 10.56 1 21.12 1 32 C-1.475 32.495 -1.475 32.495 -4 33 C-4.02915731 28.95834861 -4.04685173 24.9167245 -4.0625 20.875 C-4.07087891 19.73289062 -4.07925781 18.59078125 -4.08789062 17.4140625 C-4.09111328 16.30546875 -4.09433594 15.196875 -4.09765625 14.0546875 C-4.10289307 13.03874512 -4.10812988 12.02280273 -4.11352539 10.97607422 C-3.99652309 7.90885274 -3.56776417 5.01366866 -3 2 C-2.01 2.33 -1.02 2.66 0 3 C0 2.01 0 1.02 0 0 Z " fill="#1E60A6" transform="translate(85,103)"/>
<path d="M0 0 C7.25571501 5.03457776 10.94572918 11.83052181 14 20 C14.19140625 23.4375 14.19140625 23.4375 14 26 C11.62109375 25.81640625 11.62109375 25.81640625 9 25 C7.84765625 22.77734375 7.84765625 22.77734375 7.0625 19.9375 C5.27409959 14.32411258 2.71145563 10.49616339 -1 6 C-1.66 5.01 -2.32 4.02 -3 3 C-2.01 2.01 -1.02 1.02 0 0 Z " fill="#266EAF" transform="translate(102,10)"/>
<path d="M0 0 C0.99 1.32 1.98 2.64 3 4 C-2.3076149 10.32831008 -7.5374437 16.16787649 -15 20 C-15.99 20 -16.98 20 -18 20 C-18.33 19.34 -18.66 18.68 -19 18 C-19.99 17.34 -20.98 16.68 -22 16 C-21.21496094 15.6596875 -20.42992188 15.319375 -19.62109375 14.96875 C-13.17195191 11.99344039 -8.63978052 9.29680101 -4.40234375 3.5390625 C-3.93957031 3.03117188 -3.47679688 2.52328125 -3 2 C-2.01 2 -1.02 2 0 2 C0 1.34 0 0.68 0 0 Z " fill="#2571B1" transform="translate(108,129)"/>
<path d="M0 0 C9.57 0 19.14 0 29 0 C29 0.33 29 0.66 29 1 C27.35 1 25.7 1 24 1 C24.66 2.32 25.32 3.64 26 5 C17.09 5 8.18 5 -1 5 C-0.67 3.35 -0.34 1.7 0 0 Z " fill="#1B6EB0" transform="translate(52,31)"/>
<path d="M0 0 C-0.203125 2.34765625 -0.203125 2.34765625 -1 5 C-3.109375 6.37109375 -3.109375 6.37109375 -5.75 7.4375 C-9.25645297 9.00145771 -11.50995195 10.1734853 -13.75 13.3125 C-16 16 -16 16 -19.3125 16.375 C-20.199375 16.25125 -21.08625 16.1275 -22 16 C-17.54769792 7.09539584 -10.52164992 0 0 0 Z " fill="#1D99D3" transform="translate(71,82)"/>
<path d="M0 0 C0 1.65 0 3.3 0 5 C-0.79664062 5.24234375 -1.59328125 5.4846875 -2.4140625 5.734375 C-8.20367628 7.5656397 -13.18945156 9.25846232 -18 13 C-18.66 12.67 -19.32 12.34 -20 12 C-19.67 11.01 -19.34 10.02 -19 9 C-19.66 8.67 -20.32 8.34 -21 8 C-7.56258457 -0.44485792 -7.56258457 -0.44485792 0 0 Z " fill="#2771B1" transform="translate(36,36)"/>
<path d="M0 0 C1.32 0.33 2.64 0.66 4 1 C4.11591764 5.10393012 4.18715601 9.20744106 4.25 13.3125 C4.30027344 15.06336914 4.30027344 15.06336914 4.3515625 16.84960938 C4.36445312 17.96787109 4.37734375 19.08613281 4.390625 20.23828125 C4.41157227 21.26993408 4.43251953 22.30158691 4.45410156 23.36450195 C4 26 4 26 0 29 C0 19.43 0 9.86 0 0 Z " fill="#1861A7" transform="translate(92,102)"/>
<path d="M0 0 C6.26480445 1.74732641 10.88233868 3.97120279 16 8 C15.34 9.32 14.68 10.64 14 12 C10.88266593 10.83099972 7.94827982 9.47306241 5 7.9375 C2.01337945 6.41590733 -0.64024934 5.41996883 -4 5 C-3.67 4.01 -3.34 3.02 -3 2 C-2.01 2 -1.02 2 0 2 C0 1.34 0 0.68 0 0 Z " fill="#199ED9" transform="translate(86,1)"/>
<path d="M0 0 C7.92 0 15.84 0 24 0 C24.33 1.32 24.66 2.64 25 4 C18.1834265 5.7879537 12.03482474 6.23668569 5 6 C5.66 5.34 6.32 4.68 7 4 C4.69 3.01 2.38 2.02 0 1 C0 0.67 0 0.34 0 0 Z " fill="#139DD9" transform="translate(65,146)"/>
<path d="M0 0 C0.99 0 1.98 0 3 0 C3.02725341 1.7290774 3.04650987 3.45828176 3.0625 5.1875 C3.07410156 6.15042969 3.08570312 7.11335938 3.09765625 8.10546875 C3.00486622 10.85576513 2.62111685 13.32479591 2 16 C0.68 15.67 -0.64 15.34 -2 15 C-2.33 12.69 -2.66 10.38 -3 8 C-4.32 8.33 -5.64 8.66 -7 9 C-7 7.35 -7 5.7 -7 4 C-4.69 3.01 -2.38 2.02 0 1 C0 0.67 0 0.34 0 0 Z " fill="#2186C2" transform="translate(73,90)"/>
<path d="M0 0 C5.6970694 -0.59344473 8.44624057 0.53530724 13.1328125 3.75390625 C15.31039357 5.2071455 17.52867372 6.15048159 20 7 C20 8.32 20 9.64 20 11 C12.95813615 10.74393222 8.39190726 8.54111322 3 4 C1.95799653 2.69922848 0.94434113 1.37331628 0 0 Z " fill="#2471B2" transform="translate(52,59)"/>
<path d="M0 0 C1.32 0 2.64 0 4 0 C4.86500888 2.60101286 5.71726928 5.20506411 6.5625 7.8125 C6.80935547 8.55048828 7.05621094 9.28847656 7.31054688 10.04882812 C9.11328125 15.66015625 9.11328125 15.66015625 8 19 C6.68 19 5.36 19 4 19 C1.30292366 12.44995746 -0.53699151 7.11513755 0 0 Z " fill="#1992CD" transform="translate(36,41)"/>
<path d="M0 0 C0.33 1.65 0.66 3.3 1 5 C-5.52940894 7.95671348 -10.87399867 8.35368021 -18 8 C-18 6.35 -18 4.7 -18 3 C-17.18015625 2.95101562 -16.3603125 2.90203125 -15.515625 2.8515625 C-14.43796875 2.77679688 -13.3603125 2.70203125 -12.25 2.625 C-11.18265625 2.55539063 -10.1153125 2.48578125 -9.015625 2.4140625 C-5.74696712 1.96525714 -3.1830482 0 0 0 Z " fill="#2571B2" transform="translate(125,98)"/>
<path d="M0 0 C1.06347656 -0.01417969 2.12695312 -0.02835938 3.22265625 -0.04296875 C5.9375 0.1875 5.9375 0.1875 7.9375 2.1875 C5.94570189 5.06104273 4.66495653 5.23998778 1.14453125 5.91796875 C-0.31887947 6.08351295 -1.78388394 6.23543087 -3.25 6.375 C-3.99958984 6.45685547 -4.74917969 6.53871094 -5.52148438 6.62304688 C-7.36725918 6.82290784 -9.21475433 7.00676538 -11.0625 7.1875 C-10.25 4.25 -10.25 4.25 -9.0625 1.1875 C-5.83852808 0.11284269 -3.38779214 0.02058197 0 0 Z " fill="#09A1DF" transform="translate(76.0625,9.8125)"/>
<path d="M0 0 C2.5625 0.3125 2.5625 0.3125 4.4375 1.5 C5.5625 3.3125 5.5625 3.3125 5.375 5.875 C4.5625 8.3125 4.5625 8.3125 2.5625 10.3125 C0.0625 10.5625 0.0625 10.5625 -2.4375 10.3125 C-4.4375 8.3125 -4.4375 8.3125 -4.6875 5.3125 C-4.37675292 1.58353509 -3.7821044 0.48488518 0 0 Z " fill="#F5F9FC" transform="translate(111.4375,70.6875)"/>
<path d="M0 0 C1.77111844 0.47811177 3.54188483 0.9575278 5.3125 1.4375 C6.29863281 1.70433594 7.28476562 1.97117187 8.30078125 2.24609375 C10.21517526 2.78079425 12.11433615 3.37144538 14 4 C14 5.65 14 7.3 14 9 C7.79011871 8.55643705 3.39459439 7.08467498 -2 4 C-1.34 2.68 -0.68 1.36 0 0 Z " fill="#2974B4" transform="translate(22,107)"/>
<path d="M0 0 C5.30486983 2.89356536 9.74386757 6.74386757 14 11 C12.68 12.32 11.36 13.64 10 15 C8.31575504 13.64658887 6.65306155 12.26632681 5 10.875 C4.071875 10.10929687 3.14375 9.34359375 2.1875 8.5546875 C0 6 0 6 -0.3125 2.6953125 C-0.209375 1.80585937 -0.10625 0.91640625 0 0 Z " fill="#1495D1" transform="translate(9,96)"/>
<path d="M0 0 C0.80179688 0.00451172 1.60359375 0.00902344 2.4296875 0.01367188 C4.41149006 0.02546832 6.39325433 0.04340395 8.375 0.0625 C4.16629021 4.91399455 4.16629021 4.91399455 0.5859375 5.5859375 C-0.34992188 5.53695312 -1.28578125 5.48796875 -2.25 5.4375 C-3.19101563 5.40398438 -4.13203125 5.37046875 -5.1015625 5.3359375 C-7.625 5.0625 -7.625 5.0625 -10.625 4.0625 C-10.625 3.0725 -10.625 2.0825 -10.625 1.0625 C-7.31505287 -0.59247356 -3.63377 -0.03834335 0 0 Z " fill="#2282C0" transform="translate(81.625,40.9375)"/>
<path d="M0 0 C1.32 0.33 2.64 0.66 4 1 C4 6.61 4 12.22 4 18 C2.68 18 1.36 18 0 18 C0 12.06 0 6.12 0 0 Z " fill="#1D6EB0" transform="translate(71,105)"/>
<path d="M0 0 C0.33 0 0.66 0 1 0 C1.02701408 2.10409639 1.04640223 4.20829178 1.0625 6.3125 C1.07410156 7.48425781 1.08570312 8.65601562 1.09765625 9.86328125 C1 13 1 13 0 16 C-0.66 16 -1.32 16 -2 16 C-2.33 17.65 -2.66 19.3 -3 21 C-3.33 21 -3.66 21 -4 21 C-4.02697137 18.39576408 -4.04682489 15.79180756 -4.0625 13.1875 C-4.07087891 12.44951172 -4.07925781 11.71152344 -4.08789062 10.95117188 C-4.10259828 7.70077932 -4.03531702 5.10595105 -3 2 C-2.01 2 -1.02 2 0 2 C0 1.34 0 0.68 0 0 Z " fill="#2186C3" transform="translate(85,90)"/>
<path d="M0 0 C0.33 0.66 0.66 1.32 1 2 C0.67 2.66 0.34 3.32 0 4 C0.66 4.33 1.32 4.66 2 5 C-1.42094242 7.28062828 -2.68187222 7.21925007 -6.6875 7.125 C-8.17830078 7.09792969 -8.17830078 7.09792969 -9.69921875 7.0703125 C-10.45847656 7.04710938 -11.21773438 7.02390625 -12 7 C-12 5.35 -12 3.7 -12 2 C-8.04 1.34 -4.08 0.68 0 0 Z " fill="#2C75B3" transform="translate(119,89)"/>
<path d="M0 0 C0.33 1.65 0.66 3.3 1 5 C-0.26572233 6.15147661 -1.53777906 7.29599314 -2.8125 8.4375 C-3.87404297 9.39462891 -3.87404297 9.39462891 -4.95703125 10.37109375 C-7 12 -7 12 -10 13 C-11 11 -11 11 -10.5 8.75 C-8.48408929 5.0541637 -4.54334867 0 0 0 Z " fill="#2788C4" transform="translate(140,99)"/>
<path d="M0 0 C0.66 0.66 1.32 1.32 2 2 C1.67 2.99 1.34 3.98 1 5 C0.77548542 7.22574335 0.59217122 9.45581519 0.4375 11.6875 C0.35371094 12.86699219 0.26992188 14.04648437 0.18359375 15.26171875 C0.12300781 16.16535156 0.06242187 17.06898437 0 18 C-0.33 16.68 -0.66 15.36 -1 14 C-1.99 14.33 -2.98 14.66 -4 15 C-5.65094122 13.34905878 -5.28867693 11.45514063 -5.375 9.1875 C-5.36124265 4.37930478 -5.36124265 4.37930478 -2.5 1.375 C-1.675 0.92125 -0.85 0.4675 0 0 Z " fill="#1BA8E3" transform="translate(41,27)"/>
<path d="M0 0 C2.4375 2 2.4375 2 4 4 C3.31292969 4.13277344 2.62585938 4.26554687 1.91796875 4.40234375 C0.56638672 4.66724609 0.56638672 4.66724609 -0.8125 4.9375 C-2.15248047 5.19853516 -2.15248047 5.19853516 -3.51953125 5.46484375 C-6.11397171 5.97741153 -6.11397171 5.97741153 -9 7 C-9.99 6.67 -10.98 6.34 -12 6 C-9.46977419 0.16101737 -6.15523662 -0.64791964 0 0 Z " fill="#0BA6E5" transform="translate(115,66)"/>
<path d="M0 0 C0.85851562 0.41572266 0.85851562 0.41572266 1.734375 0.83984375 C2.064375 1.82984375 2.394375 2.81984375 2.734375 3.83984375 C1.46899131 4.68142911 0.19683721 5.51284123 -1.078125 6.33984375 C-2.13966797 7.0359375 -2.13966797 7.0359375 -3.22265625 7.74609375 C-5.265625 8.83984375 -5.265625 8.83984375 -8.265625 8.83984375 C-8.595625 8.17984375 -8.925625 7.51984375 -9.265625 6.83984375 C-10.255625 6.17984375 -11.245625 5.51984375 -12.265625 4.83984375 C-10.69029414 3.97100669 -9.10497991 3.12025307 -7.515625 2.27734375 C-6.63390625 1.80167969 -5.7521875 1.32601562 -4.84375 0.8359375 C-2.265625 -0.16015625 -2.265625 -0.16015625 0 0 Z " fill="#2E8DC6" transform="translate(98.265625,140.16015625)"/>
<path d="M0 0 C0 1.65 0 3.3 0 5 C-4.0271824 7.20536179 -7.43545749 8.45660208 -12 9 C-12 5 -12 5 -11 3 C-9.00390625 2.1484375 -9.00390625 2.1484375 -6.5625 1.375 C-5.35787109 0.98441406 -5.35787109 0.98441406 -4.12890625 0.5859375 C-2 0 -2 0 0 0 Z " fill="#2874B3" transform="translate(130,107)"/>
<path d="M0 0 C5.94 0 11.88 0 18 0 C18 0.33 18 0.66 18 1 C15.36 1 12.72 1 10 1 C10.33 1.99 10.66 2.98 11 4 C10 5 10 5 7.49609375 5.09765625 C5.98208984 5.08025391 5.98208984 5.08025391 4.4375 5.0625 C3.42558594 5.05347656 2.41367187 5.04445313 1.37109375 5.03515625 C0.58863281 5.02355469 -0.19382813 5.01195312 -1 5 C-0.67 3.35 -0.34 1.7 0 0 Z " fill="#1E5DA3" transform="translate(52,31)"/>
<path d="M0 0 C0.99 0.33 1.98 0.66 3 1 C3 6.28 3 11.56 3 17 C1.68 17 0.36 17 -1 17 C-1.18451025 5.47835991 -1.18451025 5.47835991 0 0 Z " fill="#2770B0" transform="translate(82,105)"/>
<path d="M0 0 C0.99 0.66 1.98 1.32 3 2 C2.40380045 6.86896303 1.43023178 11.32790951 0 16 C-2.51699856 13.8113056 -3.57245465 12.32535276 -4 9 C-3.22265625 6.640625 -3.22265625 6.640625 -2.0625 4.25 C-1.68222656 3.45078125 -1.30195312 2.6515625 -0.91015625 1.828125 C-0.60980469 1.22484375 -0.30945312 0.6215625 0 0 Z " fill="#2096CF" transform="translate(41,90)"/>
<path d="M0 0 C-0.33 1.65 -0.66 3.3 -1 5 C-2.43344 5.53190541 -3.87195367 6.05015258 -5.3125 6.5625 C-6.51326172 6.99755859 -6.51326172 6.99755859 -7.73828125 7.44140625 C-10 8 -10 8 -13 7 C-12.4375 5.1875 -12.4375 5.1875 -11 3 C-7.00905178 0.93061944 -4.52370909 0 0 0 Z " fill="#236FB0" transform="translate(71,82)"/>
<path d="M0 0 C2.65660135 2.11320562 4.48900076 3.90986828 5.9375 7 C6.02166924 9.69341564 5.13866026 11.58871946 4 14 C1.82418313 11.15118272 -0.20937999 8.23915912 -2.1875 5.25 C-2.71730469 4.45078125 -3.24710938 3.6515625 -3.79296875 2.828125 C-4.39044922 1.92320313 -4.39044922 1.92320313 -5 1 C-2.671875 0.36328125 -2.671875 0.36328125 0 0 Z " fill="#0CA3E1" transform="translate(133,55)"/>
<path d="M0 0 C1.38671875 1.62890625 1.38671875 1.62890625 2.6875 3.5625 C3.34298828 4.52349609 3.34298828 4.52349609 4.01171875 5.50390625 C4.33785156 5.99761719 4.66398437 6.49132812 5 7 C4.34 7.66 3.68 8.32 3 9 C0.56699753 9 -0.64349732 8.34837726 -2.37109375 6.66015625 C-6 2.45555949 -6 2.45555949 -6 0 C-3 -1 -3 -1 0 0 Z " fill="#2789C4" transform="translate(47,60)"/>
<path d="M0 0 C1.65 0.33 3.3 0.66 5 1 C3.35 4.96 1.7 8.92 0 13 C-0.33 12.01 -0.66 11.02 -1 10 C-1.99 10 -2.98 10 -4 10 C-3.5205537 5.78087253 -2.83374881 3.20336822 0 0 Z " fill="#199DD7" transform="translate(77,55)"/>
<path d="M0 0 C2.76544722 3.45680903 4.84921278 7.14341602 7 11 C5.3125 11.8125 5.3125 11.8125 3 12 C-0.22727623 9.37314725 -2.52753358 7.25219775 -3 3 C-2.01 2.67 -1.02 2.34 0 2 C0 1.34 0 0.68 0 0 Z " fill="#1694D0" transform="translate(51,48)"/>
<path d="M0 0 C0.51385563 2.82620599 0.34138082 4.49003606 -1.265625 6.890625 C-2.78069438 8.6998826 -4.24435875 10.42174219 -6 12 C-6.66 12 -7.32 12 -8 12 C-8.875 9.375 -8.875 9.375 -9 6 C-6.59764539 2.42065286 -4.40485337 0 0 0 Z " fill="#1799D5" transform="translate(17,45)"/>
<path d="M0 0 C0.84191782 2.9248633 1.11819313 5.50741656 1.09765625 8.546875 C1.09282227 9.81337891 1.09282227 9.81337891 1.08789062 11.10546875 C1.07951172 11.97816406 1.07113281 12.85085937 1.0625 13.75 C1.05798828 14.63816406 1.05347656 15.52632812 1.04882812 16.44140625 C1.037074 18.62767329 1.02064249 20.81380179 1 23 C-3.28941709 17.59160454 -3.62622323 12.73189975 -3 6 C-1.5 2.375 -1.5 2.375 0 0 Z " fill="#0DA7E6" transform="translate(59,100)"/>
<path d="M0 0 C0.33 0 0.66 0 1 0 C1.7230444 7.10993658 1.7230444 7.10993658 -0.3359375 9.64453125 C-2 11 -2 11 -5 13 C-5.99 12.34 -6.98 11.68 -8 11 C-6.63859873 6.54450493 -4.69243386 4.74565595 -1 2 C-0.67 1.34 -0.34 0.68 0 0 Z " fill="#2B87C2" transform="translate(132,90)"/>
<path d="M0 0 C-0.99 0.495 -0.99 0.495 -2 1 C-2.33 2.32 -2.66 3.64 -3 5 C-5.97 5 -8.94 5 -12 5 C-12.66 3.68 -13.32 2.36 -14 1 C-9.32798795 -0.20568053 -4.78503708 -0.09382426 0 0 Z " fill="#2282BF" transform="translate(90,31)"/>
<path d="M0 0 C1.17539996 0.92652701 2.34010577 1.86663387 3.5 2.8125 C4.1496875 3.33457031 4.799375 3.85664063 5.46875 4.39453125 C7 6 7 6 7 9 C5.02 9.99 5.02 9.99 3 11 C1.02 8.36 -0.96 5.72 -3 3 C-2.01 2.01 -1.02 1.02 0 0 Z " fill="#2487C3" transform="translate(102,10)"/>
<path d="M0 0 C0.33 0.99 0.66 1.98 1 3 C-0.14453125 4.75390625 -0.14453125 4.75390625 -1.8125 6.5625 C-2.35519531 7.16191406 -2.89789063 7.76132813 -3.45703125 8.37890625 C-4.62127433 9.60209834 -5.80591859 10.80591859 -7 12 C-8.1875 9.25 -8.1875 9.25 -9 6 C-7.14990484 2.29980969 -4.22567061 0 0 0 Z " fill="#2586C2" transform="translate(51,83)"/>
<path d="M0 0 C2.35171131 0.59861742 4.6859378 1.26924352 7 2 C7.33 2.66 7.66 3.32 8 4 C9.65948148 5.01187895 11.32580562 6.0126546 13 7 C13 7.33 13 7.66 13 8 C4.6 8.32941176 4.6 8.32941176 1 6 C0.1875 2.875 0.1875 2.875 0 0 Z " fill="#11A5E2" transform="translate(60,143)"/>
<path d="M0 0 C1.32 0 2.64 0 4 0 C4 4.29 4 8.58 4 13 C2.68 12.67 1.36 12.34 0 12 C0 8.04 0 4.08 0 0 Z " fill="#2186C3" transform="translate(92,90)"/>
<path d="M0 0 C0.66 0 1.32 0 2 0 C3.65 3.63 5.3 7.26 7 11 C6.34 11 5.68 11 5 11 C4.34 12.32 3.68 13.64 3 15 C-0.77755334 10.27805833 -0.30096975 5.74071928 0 0 Z " fill="#15A4E0" transform="translate(5,86)"/>
<path d="M0 0 C0.99 0.33 1.98 0.66 3 1 C3 6.61 3 12.22 3 18 C2.34 18 1.68 18 1 18 C0.04380267 14.00204108 -0.1039592 10.29196078 -0.0625 6.1875 C-0.05347656 5.02605469 -0.04445313 3.86460938 -0.03515625 2.66796875 C-0.02355469 1.78753906 -0.01195313 0.90710938 0 0 Z " fill="#266FB0" transform="translate(92,102)"/>
<path d="M0 0 C0.66 0 1.32 0 2 0 C3.32854177 5.9180497 2.66464729 8.77729131 0 14 C-0.66 14 -1.32 14 -2 14 C-3.10643764 8.16605611 -3.27137992 5.23420787 0 0 Z " fill="#10A4E2" transform="translate(7,52)"/>
<path d="M0 0 C3.63 0 7.26 0 11 0 C10.01 0.33 9.02 0.66 8 1 C8 1.99 8 2.98 8 4 C8.66 4.33 9.32 4.66 10 5 C6.7 5 3.4 5 0 5 C0 3.35 0 1.7 0 0 Z " fill="#2761A6" transform="translate(107,101)"/>
<path d="M0 0 C1.65 0.33 3.3 0.66 5 1 C3.79618552 3.49361571 2.54571278 5.68143083 1 8 C-1.625 8.1875 -1.625 8.1875 -4 8 C-4 4.09161134 -2.49432124 2.88405893 0 0 Z " fill="#0EA3E1" transform="translate(82,48)"/>
<path d="M0 0 C2.25 2.3125 2.25 2.3125 2.25 6.3125 C-2.03806873 5.83604792 -4.01647487 4.65347516 -6.75 1.3125 C-6.75 0.6525 -6.75 -0.0075 -6.75 -0.6875 C-3.66354227 -2.05925899 -2.95986056 -1.81627807 0 0 Z " fill="#0EA4E2" transform="translate(142.75,49.6875)"/>
<path d="M0 0 C1 2 1 2 0.875 4.4375 C0 7 0 7 -2.4375 8.875 C-3.7059375 9.431875 -3.7059375 9.431875 -5 10 C-5.66 9.67 -6.32 9.34 -7 9 C-6.67 8.01 -6.34 7.02 -6 6 C-6.66 5.67 -7.32 5.34 -8 5 C-4.04 2.525 -4.04 2.525 0 0 Z " fill="#2986C1" transform="translate(23,39)"/>
<path d="M0 0 C0.78375 0.04125 1.5675 0.0825 2.375 0.125 C2.705 0.785 3.035 1.445 3.375 2.125 C3.045 2.785 2.715 3.445 2.375 4.125 C4.355 4.125 6.335 4.125 8.375 4.125 C8.375 4.455 8.375 4.785 8.375 5.125 C6.41674127 5.15194851 4.45837774 5.17137218 2.5 5.1875 C1.40945312 5.19910156 0.31890625 5.21070313 -0.8046875 5.22265625 C-3.625 5.125 -3.625 5.125 -5.625 4.125 C-4.13829365 1.15158729 -3.39577812 0.16170372 0 0 Z " fill="#2AA1D8" transform="translate(73.625,136.875)"/>
<path d="M0 0 C1.32 0 2.64 0 4 0 C4.33 2.64 4.66 5.28 5 8 C3.68 8.99 2.36 9.98 1 11 C-0.28317892 7.15046324 -0.06643637 4.05261865 0 0 Z " fill="#0D9AD7" transform="translate(36,41)"/>
<path d="M0 0 C-4.30769231 5.78461538 -4.30769231 5.78461538 -7.8125 6.875 C-8.8953125 6.936875 -8.8953125 6.936875 -10 7 C-9.75 4.625 -9.75 4.625 -9 2 C-6.09557968 -0.17831524 -3.54875053 -0.19715281 0 0 Z " fill="#15A1DD" transform="translate(103,63)"/>
<path d="M0 0 C1.95803507 -0.05389087 3.91648909 -0.09274217 5.875 -0.125 C7.51082031 -0.15980469 7.51082031 -0.15980469 9.1796875 -0.1953125 C12 0 12 0 14 2 C10.3558226 4.4294516 8.28758728 4.16179575 4 4 C4 3.34 4 2.68 4 2 C2.68 1.34 1.36 0.68 0 0 Z " fill="#2CA5DC" transform="translate(70,10)"/>
<path d="M0 0 C3.63 0 7.26 0 11 0 C10.67 1.32 10.34 2.64 10 4 C7.03 4 4.06 4 1 4 C1.33 3.34 1.66 2.68 2 2 C1.34 1.34 0.68 0.68 0 0 Z " fill="#15A7E3" transform="translate(70,0)"/>
<path d="M0 0 C6.35051546 -0.36637589 6.35051546 -0.36637589 9.4375 1.375 C11 3 11 3 11 5 C8.3125 5.875 8.3125 5.875 5 6 C2.86499088 4.20703368 1.61093091 2.32163572 0 0 Z " fill="#2986C2" transform="translate(52,59)"/>
<path d="M0 0 C0.8125 2.6875 0.8125 2.6875 1 6 C-1.4375 8.875 -1.4375 8.875 -4 11 C-4 9.02 -4 7.04 -4 5 C-4.66 4.67 -5.32 4.34 -6 4 C-1.125 0 -1.125 0 0 0 Z " fill="#2A99D1" transform="translate(66,94)"/>
<path d="M0 0 C0 0.99 0 1.98 0 3 C0.66 3.33 1.32 3.66 2 4 C0.02 5.32 -1.96 6.64 -4 8 C-4.66 7.67 -5.32 7.34 -6 7 C-5.6875 4.625 -5.6875 4.625 -5 2 C-2 0 -2 0 0 0 Z " fill="#2B88C2" transform="translate(125,86)"/>
<path d="M0 0 C2.475 0.99 2.475 0.99 5 2 C5 3.32 5 4.64 5 6 C4.01 6.33 3.02 6.66 2 7 C0.68 5.68 -0.64 4.36 -2 3 C-1.34 2.01 -0.68 1.02 0 0 Z " fill="#1D94CE" transform="translate(96,6)"/>
<path d="M0 0 C3.63 0 7.26 0 11 0 C11 0.99 11 1.98 11 3 C7.37 3 3.74 3 0 3 C0 2.01 0 1.02 0 0 Z " fill="#276FB0" transform="translate(60,42)"/>
<path d="M0 0 C2.5625 2.1875 2.5625 2.1875 5 5 C4.8125 7.8125 4.8125 7.8125 4 10 C2 8.9375 2 8.9375 0 7 C-0.25 3.3125 -0.25 3.3125 0 0 Z " fill="#258CC7" transform="translate(62,119)"/>
<path d="M0 0 C1.9375 0.3125 1.9375 0.3125 4 1 C5.00496852 4.01490557 5.10335303 6.04181692 5.0625 9.1875 C5.05347656 10.08855469 5.04445313 10.98960938 5.03515625 11.91796875 C5.02355469 12.60503906 5.01195312 13.29210937 5 14 C4.67 14 4.34 14 4 14 C4 11.69 4 9.38 4 7 C3.01 6.67 2.02 6.34 1 6 C0.67 4.02 0.34 2.04 0 0 Z " fill="#32A7DD" transform="translate(36,102)"/>
<path d="M0 0 C2.97 0 5.94 0 9 0 C6.75 2.5625 6.75 2.5625 4 5 C1.6875 4.8125 1.6875 4.8125 0 4 C0 2.68 0 1.36 0 0 Z " fill="#1491CD" transform="translate(81,41)"/>
<path d="M0 0 C2.91517292 1.07401108 4.77810176 1.77810176 7 4 C5.68 5.32 4.36 6.64 3 8 C1.68 6.68 0.36 5.36 -1 4 C-0.34 4 0.32 4 1 4 C0.67 2.68 0.34 1.36 0 0 Z " fill="#2C8AC4" transform="translate(16,103)"/>
<path d="M0 0 C2.2477975 2.05233685 3.0022242 3.00667261 4 6 C2.25 6.75 2.25 6.75 0 7 C-2.25 5.0625 -2.25 5.0625 -4 3 C-2.68 2.67 -1.36 2.34 0 2 C0 1.34 0 0.68 0 0 Z " fill="#1A9FD9" transform="translate(145,54)"/>
<path d="M0 0 C-2.23407889 3.35111834 -3.26215824 4.81553956 -7.25 5.8125 C-8.61125 5.9053125 -8.61125 5.9053125 -10 6 C-7.09167817 0.84433858 -5.91982852 -0.15578496 0 0 Z " fill="#06A1E0" transform="translate(95,56)"/>
<path d="M0 0 C0 1.65 0 3.3 0 5 C-2.31 5.33 -4.62 5.66 -7 6 C-6.34 5.67 -5.68 5.34 -5 5 C-5 4.01 -5 3.02 -5 2 C-5.66 1.67 -6.32 1.34 -7 1 C-4.53721199 -0.231394 -2.7204945 -0.07159196 0 0 Z " fill="#2666AA" transform="translate(36,36)"/>
<path d="M0 0 C1.98 0.66 3.96 1.32 6 2 C6 3.65 6 5.3 6 7 C4.33388095 7.042721 2.66617115 7.04063832 1 7 C0 6 0 6 -0.0625 2.9375 C-0.041875 1.968125 -0.02125 0.99875 0 0 Z " fill="#2167AB" transform="translate(107,79)"/>
<path d="M0 0 C2.97 0.495 2.97 0.495 6 1 C4.25 4.875 4.25 4.875 2 6 C-0.125 5.0625 -0.125 5.0625 -2 4 C-1.34 3.67 -0.68 3.34 0 3 C0 2.01 0 1.02 0 0 Z " fill="#12A6E2" transform="translate(65,135)"/>
<path d="M0 0 C0.33 0 0.66 0 1 0 C1.125 6.625 1.125 6.625 0 10 C-0.66 10 -1.32 10 -2 10 C-2.33 11.65 -2.66 13.3 -3 15 C-3.33 15 -3.66 15 -4 15 C-4.125 8.375 -4.125 8.375 -3 5 C-2.01 5 -1.02 5 0 5 C0 3.35 0 1.7 0 0 Z " fill="#247DBB" transform="translate(85,96)"/>
<path d="M0 0 C1.2065625 0.0309375 1.2065625 0.0309375 2.4375 0.0625 C2.1075 1.3825 1.7775 2.7025 1.4375 4.0625 C-0.2125 4.3925 -1.8625 4.7225 -3.5625 5.0625 C-3.8925 6.0525 -4.2225 7.0425 -4.5625 8.0625 C-3.54737544 0.08652135 -3.54737544 0.08652135 0 0 Z " fill="#119EDB" transform="translate(51.5625,97.9375)"/>
<path d="M0 0 C1.65 0 3.3 0 5 0 C5.33 1.32 5.66 2.64 6 4 C1.545 4.495 1.545 4.495 -3 5 C-2.01 4.34 -1.02 3.68 0 3 C0 2.01 0 1.02 0 0 Z " fill="#1392CE" transform="translate(84,146)"/>
<path d="M0 0 C1.65 0 3.3 0 5 0 C5 1.65 5 3.3 5 5 C2.69 4.67 0.38 4.34 -2 4 C-1.34 3.67 -0.68 3.34 0 3 C0 2.01 0 1.02 0 0 Z " fill="#2566AA" transform="translate(31,111)"/>
<path d="M0 0 C0 1.65 0 3.3 0 5 C-1.65 5.66 -3.3 6.32 -5 7 C-5.1875 4.625 -5.1875 4.625 -5 2 C-2 0 -2 0 0 0 Z " fill="#2271B2" transform="translate(71,92)"/>
<path d="M0 0 C2.97 0.495 2.97 0.495 6 1 C5.67 1.99 5.34 2.98 5 4 C5.99 4.33 6.98 4.66 8 5 C5.36 5 2.72 5 0 5 C0 3.35 0 1.7 0 0 Z " fill="#1E5BA2" transform="translate(107,91)"/>
<path d="M0 0 C0.33 0.66 0.66 1.32 1 2 C3.02463255 2.65213292 3.02463255 2.65213292 5 3 C2.44931155 5.35448165 1.28982642 5.98327924 -2.25 6.1875 C-3.1575 6.125625 -4.065 6.06375 -5 6 C-3.35 4.02 -1.7 2.04 0 0 Z " fill="#2988C3" transform="translate(57,87)"/>
<path d="M0 0 C0.66 1.32 1.32 2.64 2 4 C0.625 6 0.625 6 -1 8 C-1.66 8 -2.32 8 -3 8 C-3.75 6.25 -3.75 6.25 -4 4 C-2.0625 1.75 -2.0625 1.75 0 0 Z " fill="#269BD3" transform="translate(41,48)"/>
<path d="M0 0 C-1.32 1.32 -2.64 2.64 -4 4 C-5.32 3.34 -6.64 2.68 -8 2 C-7.67 1.01 -7.34 0.02 -7 -1 C-3.62895826 -2.46078476 -3.21850792 -2.14567195 0 0 Z " fill="#269CD4" transform="translate(97,6)"/>
<path d="M0 0 C1.67542976 0.28604898 3.34385343 0.61781233 5 1 C4.34 3.31 3.68 5.62 3 8 C1.10786631 5.61426621 -0.02391783 3.92824652 -1 1 C-0.67 0.67 -0.34 0.34 0 0 Z " fill="#109AD6" transform="translate(134,61)"/>
<path d="M0 0 C2.97 0.495 2.97 0.495 6 1 C5.67 2.32 5.34 3.64 5 5 C3.68 5.33 2.36 5.66 1 6 C0.67 4.02 0.34 2.04 0 0 Z " fill="#17A6E2" transform="translate(46,45)"/>
<path d="M0 0 C2.0625 0.1875 2.0625 0.1875 4 1 C4.33 1.99 4.66 2.98 5 4 C3.35 4.66 1.7 5.32 0 6 C0 5.34 0 4.68 0 4 C-0.66 3.34 -1.32 2.68 -2 2 C-1.34 1.34 -0.68 0.68 0 0 Z " fill="#2881BD" transform="translate(96,140)"/>
<path d="M0 0 C0.33 0.66 0.66 1.32 1 2 C1.66 2 2.32 2 3 2 C4.231394 5.69418201 3.64432764 8.2056261 3 12 C0.50494038 9.50494038 0.64051624 8.32671112 0.375 4.875 C0.30023438 3.96492188 0.22546875 3.05484375 0.1484375 2.1171875 C0.09945312 1.41851562 0.05046875 0.71984375 0 0 Z " fill="#1E9DD6" transform="translate(59,114)"/>
<path d="M0 0 C1.5 1.375 1.5 1.375 3 3 C3 3.66 3 4.32 3 5 C0 6 0 6 -2.1875 5.0625 C-2.785625 4.711875 -3.38375 4.36125 -4 4 C-2.68 2.68 -1.36 1.36 0 0 Z " fill="#239CD4" transform="translate(84,11)"/>
<path d="M0 0 C0.66 0 1.32 0 2 0 C2 0.99 2 1.98 2 3 C2.66 3.33 3.32 3.66 4 4 C1.525 5.485 1.525 5.485 -1 7 C-1.33 6.34 -1.66 5.68 -2 5 C-1.0625 2.375 -1.0625 2.375 0 0 Z " fill="#267FBC" transform="translate(131,105)"/>
<path d="M0 0 C0.66 0 1.32 0 2 0 C2 2.97 2 5.94 2 9 C-0.8290723 6.1709277 -1.37611108 5.61855575 -2 2 C-1.34 2 -0.68 2 0 2 C0 1.34 0 0.68 0 0 Z " fill="#1397D3" transform="translate(39,97)"/>
<path d="M0 0 C-0.99 1.485 -0.99 1.485 -2 3 C-5.125 3.1875 -5.125 3.1875 -8 3 C-7.67 2.01 -7.34 1.02 -7 0 C-3.86650268 -1.04449911 -3.01031744 -0.93423645 0 0 Z " fill="#1F9FD9" transform="translate(91,62)"/>
<path d="M0 0 C1.32 0.66 2.64 1.32 4 2 C3.01 3.485 3.01 3.485 2 5 C0.0625 4.625 0.0625 4.625 -2 4 C-2.33 3.34 -2.66 2.68 -3 2 C-2.01 1.34 -1.02 0.68 0 0 Z " fill="#227DBC" transform="translate(48,64)"/>
<path d="M0 0 C0.33 0 0.66 0 1 0 C1 2.31 1 4.62 1 7 C-0.32 6.67 -1.64 6.34 -3 6 C-3 4.35 -3 2.7 -3 1 C-2.67 1.66 -2.34 2.32 -2 3 C-1.34 3 -0.68 3 0 3 C0 2.01 0 1.02 0 0 Z " fill="#247CBA" transform="translate(95,96)"/>
<path d="M0 0 C1.5 1.375 1.5 1.375 3 3 C3 3.66 3 4.32 3 5 C1.35 5 -0.3 5 -2 5 C-2.33 4.01 -2.66 3.02 -3 2 C-2.01 1.34 -1.02 0.68 0 0 Z " fill="#0B9BD9" transform="translate(127,64)"/>
<path d="M0 0 C0.99 0 1.98 0 3 0 C2.67 2.31 2.34 4.62 2 7 C1.67 6.01 1.34 5.02 1 4 C0.01 4 -0.98 4 -2 4 C-2 3.34 -2 2.68 -2 2 C-1.34 2 -0.68 2 0 2 C0 1.34 0 0.68 0 0 Z " fill="#1396D1" transform="translate(75,61)"/>
<path d="M0 0 C0.99 1.32 1.98 2.64 3 4 C2.67 4.66 2.34 5.32 2 6 C0.35 5.67 -1.3 5.34 -3 5 C-2.67 4.01 -2.34 3.02 -2 2 C-1.34 2 -0.68 2 0 2 C0 1.34 0 0.68 0 0 Z " fill="#159DD9" transform="translate(51,48)"/>
<path d="M0 0 C1.32 0.33 2.64 0.66 4 1 C4 2.98 4 4.96 4 7 C2.68 6.34 1.36 5.68 0 5 C0 3.35 0 1.7 0 0 Z " fill="#2673B3" transform="translate(66,124)"/>
<path d="M0 0 C1.98 0.99 1.98 0.99 4 2 C4 3.65 4 5.3 4 7 C2.68 6.67 1.36 6.34 0 6 C0 4.02 0 2.04 0 0 Z " fill="#247DBB" transform="translate(71,99)"/>
<path d="M0 0 C0.99 0.99 1.98 1.98 3 3 C0.525 4.485 0.525 4.485 -2 6 C-2.33 4.68 -2.66 3.36 -3 2 C-2.01 1.34 -1.02 0.68 0 0 Z " fill="#2A81BD" transform="translate(107,15)"/>
<path d="M0 0 C0.66 0 1.32 0 2 0 C2.33 1.32 2.66 2.64 3 4 C1.02 4.33 -0.96 4.66 -3 5 C-3.33 4.01 -3.66 3.02 -4 2 C-2.68 2 -1.36 2 0 2 C0 1.34 0 0.68 0 0 Z " fill="#2199D2" transform="translate(82,146)"/>
<path d="M0 0 C0.33 1.98 0.66 3.96 1 6 C0.01 6.66 -0.98 7.32 -2 8 C-2 6.35 -2 4.7 -2 3 C-2.66 2.67 -3.32 2.34 -4 2 C-1 0 -1 0 0 0 Z " fill="#398EC5" transform="translate(66,94)"/>
<path d="M0 0 C-0.66 1.32 -1.32 2.64 -2 4 C-3.65 3.67 -5.3 3.34 -7 3 C-4.49955934 -0.00052879 -4.2621484 0 0 0 Z " fill="#1090CC" transform="translate(58,92)"/>
<path d="M0 0 C1.98 0 3.96 0 6 0 C6.33 0.66 6.66 1.32 7 2 C5.02 2.33 3.04 2.66 1 3 C0.67 2.01 0.34 1.02 0 0 Z " fill="#1A9CD7" transform="translate(114,70)"/>
<path d="M0 0 C2.31 0.33 4.62 0.66 7 1 C5.8125 2.5625 5.8125 2.5625 4 4 C1.3125 3.6875 1.3125 3.6875 -1 3 C-0.67 2.01 -0.34 1.02 0 0 Z " fill="#0E9AD7" transform="translate(104,69)"/>
<path d="M0 0 C0.99 0 1.98 0 3 0 C3 1.65 3 3.3 3 5 C2.01 5.33 1.02 5.66 0 6 C-0.38218767 4.34385343 -0.71395102 2.67542976 -1 1 C-0.67 0.67 -0.34 0.34 0 0 Z " fill="#1591CD" transform="translate(14,45)"/>
</svg>
