<?xml version="1.0" standalone="no"?>
<!DOCTYPE svg PUBLIC "-//W3C//DTD SVG 20010904//EN"
 "http://www.w3.org/TR/2001/REC-SVG-20010904/DTD/svg10.dtd">
<svg version="1.0" xmlns="http://www.w3.org/2000/svg"
 width="1280.000000pt" height="560.000000pt" viewBox="0 0 1280.000000 560.000000"
 preserveAspectRatio="xMidYMid meet">
<metadata>
Created by potrace 1.16, written by Peter Selinger 2001-2019
</metadata>
<g transform="translate(0.000000,560.000000) scale(0.100000,-0.100000)"
fill="#000000" stroke="none">
<path d="M8155 5455 c-430 -164 -425 -161 -425 -213 0 -28 27 -47 103 -72 88
-29 155 -75 181 -125 21 -40 21 -43 24 -1734 1 -1212 -1 -1705 -9 -1734 -17
-64 -71 -111 -157 -136 -40 -12 -105 -30 -144 -42 -90 -26 -108 -41 -108 -90
0 -61 15 -65 230 -60 298 7 554 6 715 -3 192 -10 238 1 243 55 4 46 -8 55
-101 78 -128 33 -188 74 -207 142 -6 20 -10 232 -10 516 0 471 0 482 20 488
11 3 26 3 34 -2 20 -11 996 -934 1035 -978 66 -75 31 -117 -125 -151 -124 -28
-146 -42 -142 -93 5 -58 41 -65 273 -55 202 9 498 10 810 3 206 -4 229 0 241
47 4 16 1 31 -10 43 -9 10 -86 49 -172 86 -85 37 -181 86 -213 109 -62 43
-1162 1036 -1224 1106 -21 22 -37 46 -37 54 0 40 278 225 740 494 290 168 500
276 588 302 157 46 212 81 212 136 0 68 -42 75 -355 63 -158 -6 -342 -6 -499
0 -204 8 -255 7 -282 -4 -74 -31 -63 -90 26 -142 123 -71 150 -97 164 -155 5
-21 -1 -35 -26 -63 -98 -112 -632 -465 -902 -596 -102 -50 -126 -54 -143 -21
-4 9 -10 636 -13 1393 -6 1581 6 1419 -104 1419 -50 -1 -91 -12 -231 -65z"/>
<path d="M1410 5199 c-52 -5 -349 -13 -660 -18 -584 -8 -611 -11 -664 -52 -21
-16 -26 -29 -26 -64 0 -23 6 -47 13 -53 19 -16 117 -31 277 -42 217 -16 296
-35 320 -79 14 -27 14 -3082 -1 -3170 -14 -89 -44 -154 -91 -196 -48 -44 -63
-50 -203 -79 -62 -14 -126 -31 -143 -40 -47 -24 -73 -64 -70 -105 5 -55 29
-62 183 -56 72 3 600 9 1175 14 885 7 1061 11 1150 25 848 131 1480 677 1642
1420 20 88 22 132 23 341 0 273 -15 413 -70 629 -110 435 -356 810 -700 1066
-315 235 -660 366 -1155 442 -115 17 -192 21 -520 23 -212 2 -428 -1 -480 -6z
m579 -199 c410 -52 808 -227 1132 -498 291 -244 506 -613 580 -993 44 -228 44
-530 -1 -749 -100 -491 -421 -892 -910 -1135 -322 -161 -665 -227 -936 -180
-111 20 -237 62 -312 106 -80 47 -201 171 -240 245 -66 126 -62 43 -60 1643
l3 1450 29 30 c33 34 118 66 211 80 86 12 406 13 504 1z"/>
<path d="M11576 3789 c-162 -24 -298 -79 -438 -179 -268 -191 -446 -489 -525
-878 -25 -124 -25 -486 1 -627 27 -151 61 -258 120 -380 141 -295 363 -476
669 -548 78 -18 122 -21 297 -22 243 0 321 15 487 95 134 63 201 109 296 199
129 123 182 236 123 262 -39 18 -69 4 -143 -70 -133 -132 -255 -174 -508 -173
-301 2 -486 66 -650 227 -120 117 -187 254 -227 460 -20 104 -37 516 -24 569
l6 26 805 0 c825 0 846 1 860 39 17 44 16 141 -3 231 -85 409 -401 714 -797
769 -88 13 -263 12 -349 0z m419 -173 c220 -59 348 -245 306 -448 -16 -76 -46
-117 -108 -151 -104 -56 -158 -61 -598 -62 -220 0 -417 4 -437 8 -37 8 -38 9
-38 53 0 63 51 188 112 274 127 182 319 310 507 340 68 11 189 4 256 -14z"/>
<path d="M4572 3691 c-55 -7 -72 -20 -72 -57 0 -41 16 -48 278 -124 102 -29
107 -42 98 -250 -3 -85 -6 -429 -7 -765 0 -659 5 -741 55 -901 75 -234 233
-374 481 -425 134 -28 379 -23 495 11 107 30 300 127 405 203 172 125 190 137
214 139 40 5 51 -31 51 -169 0 -150 5 -158 89 -148 31 4 124 20 206 35 83 16
240 42 350 60 294 46 305 49 305 106 0 54 -22 61 -210 69 -189 7 -219 14 -256
58 l-27 32 9 655 c5 360 9 825 9 1032 l0 376 -23 25 c-39 41 -87 47 -297 37
-117 -6 -253 -6 -352 -1 -212 12 -285 5 -303 -30 -28 -52 43 -89 307 -160 162
-44 190 -57 199 -94 3 -13 2 -359 -4 -767 -11 -836 -10 -829 -84 -938 -102
-154 -317 -231 -643 -233 -111 0 -167 4 -214 16 -174 47 -278 146 -310 297 -9
41 -10 287 -5 960 7 903 7 905 -14 930 -20 25 -21 25 -159 20 -191 -6 -249 -6
-393 1 -69 3 -149 3 -178 0z"/>
<path d="M8475 759 c-89 -33 -141 -112 -133 -206 8 -92 53 -133 203 -183 52
-17 109 -41 127 -54 29 -19 33 -27 33 -65 0 -57 -31 -82 -108 -89 -58 -5 -141
23 -173 59 -9 10 -22 19 -29 19 -14 0 -75 -62 -75 -77 0 -20 73 -73 128 -93
106 -40 262 -19 325 44 83 83 72 239 -20 300 -21 14 -86 42 -143 61 -57 19
-114 45 -127 57 -38 35 -29 89 18 113 54 28 142 13 211 -37 15 -11 23 -7 58
27 36 35 38 40 25 55 -9 10 -39 30 -68 46 -44 23 -66 28 -137 31 -47 1 -98 -2
-115 -8z"/>
<path d="M502 513 c5 -269 13 -313 63 -379 14 -19 45 -44 68 -56 52 -27 169
-36 232 -18 58 16 117 68 147 128 22 45 23 58 26 310 l3 262 -54 0 -55 0 -4
-242 c-3 -222 -5 -246 -23 -277 -44 -75 -121 -99 -197 -62 -79 38 -83 51 -86
334 l-3 247 -61 0 -60 0 4 -247z"/>
<path d="M1900 410 l0 -350 55 0 55 0 0 251 0 252 158 -249 158 -249 57 -3 57
-3 0 351 0 350 -55 0 -55 0 0 -252 0 -253 -36 60 c-20 33 -90 147 -156 253
l-119 192 -60 0 -59 0 0 -350z"/>
<path d="M3310 410 l0 -350 55 0 55 0 0 350 0 350 -55 0 -55 0 0 -350z"/>
<path d="M4250 753 c0 -4 54 -161 119 -348 l118 -340 60 -3 c61 -3 61 -3 73
30 6 18 60 176 120 351 l109 317 -62 0 -62 0 -85 -265 c-47 -146 -87 -265 -90
-265 -4 0 -44 118 -91 263 l-85 262 -62 3 c-34 2 -62 -1 -62 -5z"/>
<path d="M5670 410 l0 -350 235 0 235 0 0 55 0 55 -180 0 -180 0 0 105 0 105
100 0 100 0 0 55 0 55 -100 0 -100 0 0 80 0 80 175 0 175 0 0 55 0 55 -230 0
-230 0 0 -350z"/>
<path d="M6970 410 l0 -350 55 0 55 0 0 135 0 135 78 0 77 0 68 -135 67 -135
65 0 65 0 -70 140 -70 140 39 19 c92 48 132 151 100 266 -14 51 -73 110 -124
124 -23 6 -120 11 -222 11 l-183 0 0 -350z m391 211 c23 -23 29 -38 29 -71 0
-89 -38 -110 -200 -110 l-110 0 0 105 0 105 126 0 c125 0 126 0 155 -29z"/>
<path d="M9670 410 l0 -350 60 0 60 0 0 350 0 350 -60 0 -60 0 0 -350z"/>
<path d="M10610 705 l0 -55 105 0 105 0 0 -295 0 -295 55 0 55 0 0 295 0 295
100 0 100 0 0 55 0 55 -260 0 -260 0 0 -55z"/>
<path d="M11918 728 c11 -18 68 -113 126 -212 l106 -178 0 -139 0 -139 60 0
60 0 0 140 0 140 115 193 c62 106 117 200 121 210 5 15 -2 17 -58 17 l-64 0
-77 -137 c-42 -76 -79 -146 -83 -155 -9 -27 -18 -22 -38 20 -10 20 -47 90 -84
155 l-66 117 -69 0 -69 0 20 -32z"/>
</g>
</svg>
