<?xml version="1.0" standalone="no"?>
<!DOCTYPE svg PUBLIC "-//W3C//DTD SVG 20010904//EN"
 "http://www.w3.org/TR/2001/REC-SVG-20010904/DTD/svg10.dtd">
<svg version="1.0" xmlns="http://www.w3.org/2000/svg"
 width="225.000000pt" height="225.000000pt" viewBox="0 0 225.000000 225.000000"
 preserveAspectRatio="xMidYMid meet">
<metadata>
Created by potrace 1.16, written by Peter Selinger 2001-2019
</metadata>
<g transform="translate(0.000000,225.000000) scale(0.100000,-0.100000)"
fill="#000000" stroke="none">
<path d="M0 1125 l0 -1125 1125 0 1125 0 0 1125 0 1125 -1125 0 -1125 0 0
-1125z m2040 395 c0 -121 -3 -150 -14 -150 -9 0 -16 17 -21 48 -20 138 -104
200 -276 205 l-74 2 -3 -485 c-2 -388 0 -490 11 -504 9 -12 37 -22 85 -29 40
-6 72 -15 72 -19 0 -4 -117 -8 -260 -8 -252 0 -333 10 -191 24 116 12 106 -38
109 518 1 287 -2 489 -7 497 -8 13 -23 13 -95 3 -95 -12 -155 -38 -184 -79
-24 -34 -52 -114 -52 -148 0 -15 -6 -25 -14 -25 -17 0 -21 14 -31 85 -16 122
-58 150 -247 167 -130 12 -266 4 -292 -15 -12 -10 -16 -51 -22 -219 l-7 -208
148 0 147 0 34 34 c31 31 34 40 34 90 0 49 2 56 20 56 11 0 21 -3 21 -7 1 -5
3 -99 4 -210 l3 -203 -24 0 c-22 0 -24 4 -24 55 0 46 -4 60 -29 87 l-29 33
-142 3 c-84 2 -146 0 -152 -6 -6 -6 -7 -92 -3 -235 l8 -226 28 -11 c18 -8 77
-11 176 -8 127 4 156 8 208 28 78 32 141 93 156 154 6 26 17 46 23 46 9 0 12
-37 11 -137 l-1 -138 -467 -3 c-265 -1 -467 2 -467 7 0 4 22 11 49 13 28 3 61
12 75 22 l26 16 0 483 c0 265 -4 488 -8 495 -10 15 -66 32 -109 32 -18 0 -33
4 -33 10 0 10 1126 18 1608 12 l222 -3 0 -149z"/>
</g>
</svg>
