<?xml version="1.0" standalone="no"?>
<!DOCTYPE svg PUBLIC "-//W3C//DTD SVG 20010904//EN"
 "http://www.w3.org/TR/2001/REC-SVG-20010904/DTD/svg10.dtd">
<svg version="1.0" xmlns="http://www.w3.org/2000/svg"
 width="2400.000000pt" height="628.000000pt" viewBox="0 0 2400.000000 628.000000"
 preserveAspectRatio="xMidYMid meet">
<metadata>
Created by potrace 1.16, written by Peter Selinger 2001-2019
</metadata>
<g transform="translate(0.000000,628.000000) scale(0.100000,-0.100000)"
fill="#000000" stroke="none">
<path d="M13395 6009 c-701 -130 -1258 -236 -1387 -264 -37 -8 -80 -15 -97
-15 -16 0 -33 -4 -36 -10 -3 -5 -19 -10 -35 -10 -26 0 -29 -4 -36 -45 -3 -25
-3 -69 0 -98 l7 -53 132 -33 c73 -17 152 -42 177 -55 85 -43 158 -174 194
-350 33 -157 40 -570 40 -2126 -1 -822 -6 -1724 -11 -2005 -6 -280 -10 -511
-9 -512 8 -11 461 -95 751 -140 154 -23 205 -26 536 -30 389 -5 536 3 705 37
528 108 972 397 1244 812 180 273 303 628 350 1007 18 150 24 470 11 588 -6
59 -17 151 -22 203 -20 180 -95 423 -186 605 -172 343 -397 581 -688 731 -253
129 -512 172 -830 140 -253 -27 -376 -58 -587 -152 l-98 -43 0 597 c0 328 5
736 10 906 8 248 8 311 -2 318 -16 10 -68 9 -133 -3z m721 -2148 c235 -117
394 -346 498 -719 61 -218 86 -437 86 -762 0 -306 -29 -548 -100 -825 -88
-346 -210 -594 -374 -763 -91 -95 -168 -145 -269 -178 -73 -24 -97 -27 -214
-27 -148 1 -182 11 -194 57 -23 84 -46 2023 -34 2757 l7 457 82 22 c121 32
179 39 300 36 108 -4 109 -4 212 -55z"/>
<path d="M1190 5921 l-185 -6 -3 -137 -3 -136 68 -7 c338 -32 469 -98 566
-283 92 -177 127 -402 148 -962 14 -378 6 -2452 -10 -2710 -35 -554 -93 -770
-242 -905 -62 -56 -131 -82 -308 -120 -155 -33 -198 -46 -213 -69 -11 -16 -9
-198 2 -216 8 -13 179 -15 1439 -15 786 0 1433 4 1438 8 12 13 10 224 -3 237
-6 6 -44 17 -85 25 -395 75 -419 83 -499 165 -96 99 -162 279 -194 530 -34
272 -56 769 -56 1275 l0 355 83 0 c139 0 456 -20 561 -35 54 -8 122 -26 150
-38 158 -73 287 -282 361 -584 23 -93 30 -112 48 -117 12 -3 73 -6 135 -6
l112 0 0 955 0 955 -122 0 c-68 0 -128 -4 -134 -8 -6 -4 -27 -69 -47 -145 -20
-75 -51 -172 -68 -214 -41 -98 -117 -211 -177 -263 -69 -59 -174 -108 -258
-120 -73 -10 -454 -30 -578 -30 l-69 0 6 713 c6 669 19 1213 35 1386 l7 76
465 -1 c622 -1 701 -11 910 -119 279 -144 476 -408 667 -889 38 -94 71 -172
76 -174 4 -2 7 -10 7 -17 0 -7 6 -15 14 -18 17 -7 31 -4 170 36 l109 30 -8
576 c-8 634 -17 1007 -25 1014 -8 8 -4074 15 -4290 8z"/>
<path d="M11456 4445 c-355 -60 -695 -345 -916 -767 -13 -26 -25 -46 -25 -45
-1 1 4 142 11 312 7 171 13 352 13 404 l1 94 -62 -6 c-114 -11 -1605 -310
-1647 -330 -31 -15 -45 -64 -38 -136 3 -29 8 -55 11 -58 2 -3 69 -18 147 -35
78 -16 159 -38 180 -48 116 -59 171 -189 200 -470 16 -157 23 -1503 10 -1870
-16 -440 -29 -542 -79 -649 -33 -71 -84 -127 -146 -158 -28 -14 -109 -38 -181
-53 l-130 -26 0 -120 0 -119 195 -8 c107 -5 640 -6 1183 -4 833 3 990 6 998
18 5 8 8 63 7 124 l-3 110 -60 7 c-337 43 -374 52 -439 109 -142 125 -172 354
-182 1424 -6 601 4 1041 26 1087 27 57 151 124 299 161 66 16 116 21 211 21
181 -1 293 -31 542 -148 89 -41 118 -45 118 -16 0 11 5 20 10 20 6 0 10 7 10
16 0 9 6 30 14 47 38 86 253 656 316 837 18 52 37 99 42 105 4 5 8 21 8 36 0
19 -10 33 -37 51 -128 83 -390 119 -607 83z"/>
<path d="M6685 4443 c-234 -21 -499 -94 -700 -193 -115 -56 -252 -136 -275
-160 -3 -3 -25 -21 -49 -39 -183 -144 -352 -343 -480 -571 -305 -538 -356
-1374 -126 -2041 63 -181 194 -427 285 -534 245 -288 474 -447 795 -554 242
-80 284 -86 685 -86 400 0 451 6 691 85 620 203 1058 686 1233 1360 59 227 70
336 70 665 -1 269 -2 301 -28 447 -61 355 -161 626 -321 868 -163 246 -373
432 -630 559 -205 100 -429 163 -677 190 -90 10 -381 12 -473 4z m260 -328
c77 -21 115 -44 204 -129 229 -220 355 -573 413 -1161 17 -170 17 -891 0
-1075 -49 -528 -149 -844 -327 -1025 -115 -118 -221 -161 -377 -153 -138 7
-253 76 -358 215 -165 219 -294 644 -331 1093 -14 175 -14 841 1 1040 33 464
144 849 297 1032 59 70 96 100 160 133 93 46 211 57 318 30z"/>
<path d="M17950 4439 c-168 -19 -374 -68 -515 -124 -68 -26 -235 -105 -245
-115 -3 -3 -44 -30 -91 -62 -388 -255 -669 -667 -799 -1174 -27 -104 -37 -169
-70 -440 -12 -98 -13 -341 -2 -348 5 -3 12 -63 15 -133 7 -150 25 -253 74
-412 215 -713 724 -1189 1433 -1343 97 -21 130 -23 425 -23 298 0 328 2 430
23 264 57 548 180 735 320 194 144 380 340 380 399 0 29 -72 129 -100 138 -28
9 -50 0 -139 -55 -234 -145 -394 -195 -661 -207 -395 -17 -677 80 -928 321
-172 164 -272 325 -352 565 -62 187 -90 347 -105 617 l-7 111 1171 8 1170 7 7
45 c9 60 -4 250 -27 413 -94 652 -380 1104 -841 1328 -207 101 -398 142 -688
147 -102 2 -223 -1 -270 -6z m256 -337 c61 -31 100 -67 146 -135 79 -117 142
-315 178 -560 20 -135 47 -513 38 -523 -7 -6 -381 -20 -810 -30 l-318 -7 0 51
c0 28 7 102 16 164 92 663 345 1082 644 1065 40 -3 81 -12 106 -25z"/>
<path d="M21371 4439 c-434 -46 -780 -213 -1020 -492 -234 -272 -326 -589
-281 -967 42 -359 241 -639 590 -833 85 -47 94 -51 425 -186 503 -206 685
-324 768 -498 32 -67 32 -70 31 -213 0 -124 -3 -154 -22 -204 -76 -204 -257
-341 -482 -367 -117 -14 -280 3 -387 40 -292 101 -532 390 -738 894 -40 99
-52 118 -73 124 -16 4 -27 2 -30 -5 -2 -7 -19 -12 -38 -12 -20 0 -58 -10 -86
-22 l-50 -21 6 -61 c3 -34 8 -263 12 -511 4 -247 9 -488 13 -534 l6 -84 66
-28 c131 -56 486 -138 775 -180 138 -20 176 -21 524 -16 421 6 464 11 693 88
285 95 531 260 673 449 78 106 91 126 131 210 98 203 122 319 123 596 0 213
-7 275 -45 394 -61 194 -195 367 -390 505 -137 97 -286 174 -594 307 -382 165
-562 269 -693 399 -112 110 -141 176 -146 324 -6 190 37 311 153 428 127 128
286 172 482 131 345 -71 556 -298 763 -824 30 -74 58 -138 64 -142 19 -13 53
-9 136 18 l82 25 -6 122 c-3 67 -8 275 -11 462 -3 187 -8 373 -11 413 -7 84 3
76 -179 137 -335 112 -878 171 -1234 134z"/>
</g>
</svg>
