<?xml version="1.0" standalone="no"?>
<!DOCTYPE svg PUBLIC "-//W3C//DTD SVG 20010904//EN"
 "http://www.w3.org/TR/2001/REC-SVG-20010904/DTD/svg10.dtd">
<svg version="1.0" xmlns="http://www.w3.org/2000/svg"
 width="474.000000pt" height="106.000000pt" viewBox="0 0 474.000000 106.000000"
 preserveAspectRatio="xMidYMid meet">
<metadata>
Created by potrace 1.16, written by Peter Selinger 2001-2019
</metadata>
<g transform="translate(0.000000,106.000000) scale(0.100000,-0.100000)"
fill="#000000" stroke="none">
<path d="M826 1053 c-28 -7 -87 -46 -113 -74 -12 -13 -31 -44 -42 -69 -19 -42
-21 -64 -21 -380 0 -316 2 -338 21 -380 89 -197 355 -200 445 -5 23 49 24 55
24 385 0 315 -2 338 -21 380 -27 60 -64 98 -124 126 -48 23 -118 30 -169 17z
m97 -174 c14 -6 30 -22 36 -36 15 -32 15 -578 1 -620 -21 -60 -103 -64 -129
-7 -12 27 -16 579 -4 623 4 18 43 45 70 51 1 0 13 -5 26 -11z"/>
<path d="M1380 533 l0 -518 82 0 83 0 5 430 5 429 50 -3 c81 -4 90 -19 90
-154 0 -129 -12 -161 -76 -196 l-38 -22 14 -47 c7 -26 30 -110 50 -187 20 -77
43 -163 51 -192 l15 -52 90 -3 c49 -2 89 1 89 5 0 5 -27 96 -60 204 l-59 195
25 26 c62 65 69 93 69 267 0 157 -1 161 -28 207 -59 102 -125 128 -318 128
l-139 0 0 -517z"/>
<path d="M2062 963 l3 -88 78 0 77 0 0 -427 0 -428 90 0 90 0 0 428 0 427 77
0 78 0 3 88 3 87 -251 0 -251 0 3 -87z"/>
<path d="M2762 613 c3 -430 3 -439 25 -479 27 -51 93 -109 141 -125 57 -19
160 -7 210 25 55 35 98 95 111 157 7 31 11 204 11 454 l0 405 -90 0 -90 0 0
-414 c0 -387 -1 -415 -18 -437 -13 -15 -30 -22 -52 -22 -22 0 -39 7 -52 22
-17 22 -18 50 -18 437 l0 414 -90 0 -91 0 3 -437z"/>
<path d="M3500 533 l0 -518 90 3 90 3 1 242 1 242 79 -242 80 -243 99 0 100 0
0 515 0 515 -90 0 -90 0 0 -277 c0 -153 -4 -271 -9 -263 -4 8 -45 133 -91 278
l-84 262 -88 0 -88 0 0 -517z"/>
<path d="M4250 535 l0 -515 210 0 c116 0 213 -1 218 -2 4 -2 8 36 10 84 l3 88
-131 0 -130 0 0 135 0 135 80 0 80 0 0 85 0 85 -80 0 -80 0 0 120 0 119 128 3
127 3 0 85 0 85 -217 3 -218 2 0 -515z"/>
<path d="M50 515 l0 -515 95 0 95 0 0 220 0 220 85 0 85 0 0 90 0 90 -85 0
-85 0 0 120 0 120 135 0 135 0 0 85 0 85 -230 0 -230 0 0 -515z"/>
</g>
</svg>
