<?xml version="1.0" encoding="UTF-8"?>
<svg version="1.1" xmlns="http://www.w3.org/2000/svg" width="618" height="350">
<path d="M0 0 C203.94 0 407.88 0 618 0 C618 115.5 618 231 618 350 C414.06 350 210.12 350 0 350 C0 234.5 0 119 0 0 Z " fill="#FEFEFE" transform="translate(0,0)"/>
<path d="M0 0 C13.79613413 10.10743966 21.15517448 24.32253663 24 41 C25.2983333 56.28202145 21.04671202 71.67456213 11.77734375 83.94140625 C1.79308284 95.57125057 -12.58052403 104.1078665 -28 106 C-29.99997275 106.01044087 -32.00003256 106.01141184 -34 106 C-33.9685791 106.99741211 -33.9371582 107.99482422 -33.90478516 109.02246094 C-33.79487729 112.77944685 -33.72683865 116.53629601 -33.67041016 120.29443359 C-33.64052951 121.91023779 -33.59980793 123.525884 -33.54736328 125.14111328 C-33.18004741 136.75837808 -34.06507977 145.72547397 -41.73925781 155.13183594 C-49.40961315 162.73069133 -59.58740543 164.42592182 -70.0072937 164.38195801 C-72.08868463 164.35134977 -74.16902648 164.30128649 -76.25 164.25 C-77.68877685 164.22987725 -79.12758129 164.21163681 -80.56640625 164.1953125 C-84.04553738 164.15527647 -87.52072179 164.07693736 -91 164 C-91 158.06 -91 152.12 -91 146 C-89.55625 145.7525 -88.1125 145.505 -86.625 145.25 C-75.33308376 142.94065183 -65.64384518 138.37677474 -58.6875 128.875 C-53.19014056 119.8556554 -50.61749413 109.49883171 -52 99 C-53.45020146 93.06478525 -55.07964734 87.76283532 -59 83 C-58.67 82.34 -58.34 81.68 -58 81 C-50.41 88.59 -42.82 96.18 -35 104 C-34.67 85.19 -34.34 66.38 -34 47 C-52.81 47 -71.62 47 -91 47 C-91 30.17030994 -86.37784884 18.15541082 -74.91015625 5.7734375 C-54.13239572 -13.51716226 -23.56538414 -15.84077937 0 0 Z " fill="#032169" transform="translate(182,98)"/>
<path d="M0 0 C0.33 0 0.66 0 1 0 C1 1.65 1 3.3 1 5 C19.81 5 38.62 5 58 5 C58 24.14 58 43.28 58 63 C50.125 56.25 50.125 56.25 46.59765625 52.6953125 C45.85322266 51.94765625 45.10878906 51.2 44.34179688 50.4296875 C43.58962891 49.66914063 42.83746094 48.90859375 42.0625 48.125 C41.28326172 47.34125 40.50402344 46.5575 39.70117188 45.75 C37.79845915 43.83561419 35.89813829 41.91891966 34 40 C34.62390625 41.05832031 35.2478125 42.11664063 35.890625 43.20703125 C41.75122854 53.49409594 42.5356359 64.17549243 39.5 75.5625 C35.34983121 87.67925153 27.70131782 95.5702382 16.421875 101.3125 C10.61957333 103.87547988 7.88855337 104 1 104 C1 109.94 1 115.88 1 122 C0.67 122 0.34 122 0 122 C-0.07497625 117.76826361 -0.12898541 113.53689412 -0.16479492 109.3046875 C-0.17974586 107.8693975 -0.20011424 106.43415209 -0.22631836 104.99902344 C-0.45833176 91.95168163 0.59705018 81.77682457 10 72 C13.95211501 68.49784116 17.90598367 65.5918801 23 64 C20.96345705 61.96345705 19.37169131 61.13477403 16.8125 59.875 C8.64407095 55.38367728 4.03913056 48.69256697 1 40 C-0.16189387 35.9099386 -0.12607934 31.95718631 -0.09765625 27.734375 C-0.0962413 26.94097717 -0.09482635 26.14757935 -0.09336853 25.33013916 C-0.08778415 22.80338728 -0.07523454 20.27672496 -0.0625 17.75 C-0.05748298 16.03385545 -0.05292043 14.31770951 -0.04882812 12.6015625 C-0.03781984 8.40100731 -0.02056596 4.20051883 0 0 Z " fill="#0895D3" transform="translate(90,140)"/>
<path d="M0 0 C0.02578125 0.81082031 0.0515625 1.62164062 0.078125 2.45703125 C0.63042987 13.2395286 2.6670971 24.19379397 10.97265625 31.80859375 C15.73987339 35.74175232 20.10423247 38.17767185 26 40 C23.61590612 42.00263886 21.61062986 43.15427874 18.6875 44.3125 C11.3668893 47.35361023 6.4220471 52.95460891 3 60 C0.68177988 66.83874935 0.41573344 73.82312798 0 81 C-12.60629442 80.46356194 -22.52280392 76.0283854 -31.1875 66.8125 C-39.08476919 57.12432004 -40.76416545 46.11343756 -40 34 C-38.21218381 23.45491467 -32.65153082 14.57645122 -24.5078125 7.7578125 C-16.85321491 2.39244036 -9.2679499 -0.17822981 0 0 Z " fill="#FECF14" transform="translate(90,163)"/>
<path d="M0 0 C18.81 0 37.62 0 57 0 C57 18.81 57 37.62 57 57 C52.67427253 53.2922336 48.61540701 49.74115503 44.61547852 45.74487305 C44.1267778 45.25792465 43.63807709 44.77097626 43.13456726 44.26927185 C41.54685081 42.68589795 39.96275032 41.09896542 38.37890625 39.51171875 C37.26804442 38.40153149 36.15703425 37.29149262 35.04588318 36.18159485 C32.73216841 33.86934616 30.42025184 31.55531871 28.10961914 29.23999023 C25.14149762 26.26613183 22.16885491 23.2968394 19.19488621 20.32882977 C16.90694415 18.04448873 14.62137357 15.75778698 12.33653069 13.47034645 C11.24038103 12.37352832 10.14348421 11.27745638 9.04583931 10.18213463 C7.52105433 8.65987292 5.99948371 7.13447144 4.47875977 5.6081543 C3.61162857 4.74022751 2.74449738 3.87230072 1.85108948 2.97807312 C0 1 0 1 0 0 Z " fill="#FDFDFD" transform="translate(91,146)"/>
<path d="M0 0 C1.14505889 2.24711087 2.22673206 4.50400502 3.26171875 6.8046875 C7.57257099 16.087783 11.93328001 20.91357568 21.203125 25.140625 C23 26 23 26 26 28 C25.443125 28.21914062 24.88625 28.43828125 24.3125 28.6640625 C14.75830049 32.63421973 7.79464306 37.61574796 3 47 C2.07215954 49.68984517 1.51115007 52.18867459 1 55 C-0.06320672 52.90726278 -1.08446849 50.81113226 -2.04296875 48.66796875 C-6.09066429 39.89565931 -11.28068197 34.20395691 -20 30 C-22.32427854 29.2040142 -24.60932698 28.58547094 -27 28 C-24.5067231 26.3378154 -22.55260795 25.38429444 -19.8125 24.3125 C-9.7199706 19.80690652 -5.2328073 13.01813215 -1 3 C-0.67 2.01 -0.34 1.02 0 0 Z " fill="#FBFCFA" transform="translate(90,176)"/>
<path d="M0 0 C5.34380826 2.17375251 8.10258832 4.45297382 10.40625 9.78515625 C11.84506723 15.15232315 10.75967366 19.53491509 8.25 24.375 C5.39666223 27.70389406 3.33662571 29.73186262 -1.14453125 30.24609375 C-5.92090998 30.38075119 -8.3600949 29.85596204 -13 28 C-13 33.28 -13 38.56 -13 44 C-14.65 44 -16.3 44 -18 44 C-18 29.81 -18 15.62 -18 1 C-16.35 1 -14.7 1 -13 1 C-13 1.66 -13 2.32 -13 3 C-11.7315625 2.2575 -11.7315625 2.2575 -10.4375 1.5 C-6.49951218 -0.21839468 -4.25539275 -0.52259209 0 0 Z " fill="#062269" transform="translate(526,201)"/>
<path d="M0 0 C2.5 1 2.5 1 4 2 C4.33 1.67 4.66 1.34 5 1 C6.98 1 8.96 1 11 1 C11 10.57 11 20.14 11 30 C9.02 30 7.04 30 5 30 C5 29.34 5 28.68 5 28 C4.43152344 28.32355469 3.86304688 28.64710938 3.27734375 28.98046875 C-0.43067977 30.640493 -4.01194356 30.45741149 -8 30 C-12.71362305 28.0098036 -15.72172827 24.55654346 -18 20 C-18.54035594 15.0747885 -18.54435469 11.13058282 -16.375 6.625 C-11.19613405 0.90099026 -7.52170903 -0.72790733 0 0 Z " fill="#0C266C" transform="translate(347,201)"/>
<path d="M0 0 C4.37710763 2.22135869 6.93900411 4.9066262 9.01171875 9.30078125 C9.82812781 13.91307159 9.52984428 17.91707749 7.38671875 22.11328125 C4.31840137 26.23128616 1.84938845 28.8524849 -3.38671875 29.6796875 C-9.0606228 29.94378814 -12.63726413 29.22730889 -16.98828125 25.30078125 C-20.36215522 20.41448102 -21.38072216 17.28550509 -20.98828125 11.30078125 C-19.47670416 6.14363589 -17.48957808 3.03657586 -13.01171875 0.18359375 C-8.67209748 -1.70975453 -4.42967244 -1.55778265 0 0 Z " fill="#0D266C" transform="translate(494.98828125,145.69921875)"/>
<path d="M0 0 C4.39557935 1.87566466 7.158369 4.06827032 9.2265625 8.41796875 C10.6684644 12.81532176 10.70481121 16.31920093 8.9375 20.515625 C6.3715727 25.04959363 3.97697912 27.76008816 -1.14453125 29.3359375 C-5.93926596 30.01720376 -9.17507317 29.83861947 -13.51953125 27.5859375 C-17.89361294 23.83672462 -19.94405069 20.94218483 -20.39453125 15.0859375 C-20.06866007 10.19786979 -19.12886765 6.42001567 -15.66796875 2.78515625 C-10.74235178 -1.20706755 -6.00456916 -1.85933836 0 0 Z " fill="#0A246B" transform="translate(493.14453125,201.6640625)"/>
<path d="M0 0 C21 0 21 0 26 3 C28.33772514 5.90200363 28.96474659 7.72300894 29.4375 11.4375 C28.91606726 15.68345227 27.73082959 17.73817577 25 21 C21.39269254 23.45875438 17.47436237 23.43265204 13.25 23.625 C9.66125 23.810625 9.66125 23.810625 6 24 C5.67 29.94 5.34 35.88 5 42 C3.35 42 1.7 42 0 42 C0 28.14 0 14.28 0 0 Z " fill="#041F68" transform="translate(236,188)"/>
<path d="M0 0 C4.80050635 2.40025318 7.52716549 5.24454901 10 10 C10 11.98 10 13.96 10 16 C2.74 16 -4.52 16 -12 16 C-10.37046529 20.88739834 -10.37046529 20.88739834 -7 24 C-2.54024996 24.59712134 0.1969315 24.535379 4 22 C6.1875 22.375 6.1875 22.375 8 23 C8 24.32 8 25.64 8 27 C2.62117893 29.74663203 -1.94687662 30.98308026 -8 30 C-12.81852225 27.63619663 -15.67076821 24.83763525 -18 20 C-18.81503266 14.89357088 -18.61497311 11.16632831 -16.1875 6.5625 C-11.37102736 0.92034633 -7.72333921 -1.04052578 0 0 Z " fill="#0D266C" transform="translate(443,145)"/>
<path d="M0 0 C1.65 0 3.3 0 5 0 C5 5.61 5 11.22 5 17 C6.65 16.01 8.3 15.02 10 14 C16.02788002 13.21860815 19.20078382 14.5851731 24 18 C28.0475971 22.71129086 27.3411709 27.94542374 27.1875 33.8125 C27.16719727 35.28106445 27.16719727 35.28106445 27.14648438 36.77929688 C27.11125312 39.18676625 27.06199265 41.59309564 27 44 C25.02 44 23.04 44 21 44 C20.98541748 43.40985107 20.97083496 42.81970215 20.95581055 42.21166992 C20.88131156 39.53628771 20.78466005 36.86215108 20.6875 34.1875 C20.66494141 33.25873047 20.64238281 32.32996094 20.61914062 31.37304688 C20.5659668 30.0340332 20.5659668 30.0340332 20.51171875 28.66796875 C20.48553467 27.84578857 20.45935059 27.0236084 20.43237305 26.17651367 C19.90674301 23.53055556 19.10060331 22.64518106 17 21 C14.67975596 19.98546047 14.67975596 19.98546047 12 20 C10.02 20.99 8.04 21.98 6 23 C5.67 29.93 5.34 36.86 5 44 C3.35 44 1.7 44 0 44 C0 29.48 0 14.96 0 0 Z " fill="#0A2068" transform="translate(270,187)"/>
<path d="M0 0 C1.65 0 3.3 0 5 0 C5 5.61 5 11.22 5 17 C6.65 16.01 8.3 15.02 10 14 C14.97005287 13.35573389 18.15310408 14.20520177 22.421875 16.5390625 C25.4036048 19.29937672 26.83147821 22.30602319 27.23486328 26.36083984 C27.29470711 29.03872554 27.2619794 31.6975609 27.1875 34.375 C27.16719727 35.76525391 27.16719727 35.76525391 27.14648438 37.18359375 C27.11133881 39.45633998 27.06214132 41.72785847 27 44 C25.02 44 23.04 44 21 44 C20.97494385 43.40985107 20.9498877 42.81970215 20.92407227 42.21166992 C20.80799948 39.53673186 20.68532428 36.8621362 20.5625 34.1875 C20.52318359 33.25873047 20.48386719 32.32996094 20.44335938 31.37304688 C20.40146484 30.48037109 20.35957031 29.58769531 20.31640625 28.66796875 C20.27974854 27.84578857 20.24309082 27.0236084 20.20532227 26.17651367 C20.06572228 23.82094822 20.06572228 23.82094822 19 21 C17.39620659 20.94583812 15.79188594 20.90713362 14.1875 20.875 C13.29417969 20.85179687 12.40085937 20.82859375 11.48046875 20.8046875 C8.74597286 20.81714173 8.74597286 20.81714173 6 23 C5.49297483 25.12106795 5.49297483 25.12106795 5.48828125 27.5703125 C5.45283203 28.46621094 5.41738281 29.36210937 5.38085938 30.28515625 C5.35830078 31.22230469 5.33574219 32.15945312 5.3125 33.125 C5.27833984 34.06988281 5.24417969 35.01476562 5.20898438 35.98828125 C5.12635888 38.32540253 5.05726012 40.66214191 5 43 C3.35 43 1.7 43 0 43 C0 28.81 0 14.62 0 0 Z " fill="#09256B" transform="translate(422,187)"/>
<path d="M0 0 C4.79357184 0.05172919 7.47615423 1.58330796 11.375 4.3125 C14.99603873 9.74405809 14.50228678 15.31078099 14.4375 21.625 C14.43298828 22.46095703 14.42847656 23.29691406 14.42382812 24.15820312 C14.41210548 26.20966649 14.39417203 28.26109273 14.375 30.3125 C12.395 30.3125 10.415 30.3125 8.375 30.3125 C8.36041748 29.72235107 8.34583496 29.13220215 8.33081055 28.52416992 C8.25631156 25.84878771 8.15966005 23.17465108 8.0625 20.5 C8.03994141 19.57123047 8.01738281 18.64246094 7.99414062 17.68554688 C7.9409668 16.3465332 7.9409668 16.3465332 7.88671875 14.98046875 C7.86053467 14.15828857 7.83435059 13.3361084 7.80737305 12.48901367 C7.28397375 9.85428487 6.47606463 8.94002618 4.375 7.3125 C2.42797966 6.87776367 2.42797966 6.87776367 0.375 7 C-0.305625 7.00386719 -0.98625 7.00773438 -1.6875 7.01171875 C-3.94691109 7.22341707 -3.94691109 7.22341707 -6.625 9.3125 C-7.13276044 11.53182277 -7.13276044 11.53182277 -7.13671875 14.1015625 C-7.17216797 15.04257813 -7.20761719 15.98359375 -7.24414062 16.953125 C-7.27797852 18.43039063 -7.27797852 18.43039063 -7.3125 19.9375 C-7.34666016 20.93007812 -7.38082031 21.92265625 -7.41601562 22.9453125 C-7.49865657 25.40092906 -7.56775127 27.85618141 -7.625 30.3125 C-9.605 30.3125 -11.585 30.3125 -13.625 30.3125 C-13.625 20.7425 -13.625 11.1725 -13.625 1.3125 C-10.625 1.3125 -7.625 1.3125 -4.625 1.3125 C-3.625 0.3125 -3.625 0.3125 0 0 Z " fill="#0D276D" transform="translate(262.625,144.6875)"/>
<path d="M0 0 C1.98 0 3.96 0 6 0 C8.97 5.61 11.94 11.22 15 17 C17.26126142 11.78054022 17.26126142 11.78054022 19.51733398 6.55883789 C21.88888889 1.11111111 21.88888889 1.11111111 23 0 C24.99958364 -0.04080783 27.00045254 -0.04254356 29 0 C25.36137934 9.74493117 21.35471314 19.28529701 17.1875 28.8125 C16.58373105 30.19845738 15.98021411 31.58452457 15.37695312 32.97070312 C13.92085876 36.31506738 12.46140518 39.65795242 11 43 C9.02 43 7.04 43 5 43 C6.39252745 38.6446482 7.77213594 34.37890516 9.75 30.25 C11.37596349 26.02249492 10.74679441 23.71718525 8.96850586 19.62817383 C8.55479736 18.82919678 8.14108887 18.03021973 7.71484375 17.20703125 C7.26689453 16.32982422 6.81894531 15.45261719 6.35742188 14.54882812 C5.88884766 13.64583984 5.42027344 12.74285156 4.9375 11.8125 C4.00554616 10.00834926 3.07698051 8.20244295 2.15234375 6.39453125 C1.73976318 5.59893799 1.32718262 4.80334473 0.90209961 3.98364258 C0 2 0 2 0 0 Z " fill="#09236A" transform="translate(538,202)"/>
<path d="M0 0 C5.22068775 1.84259568 7.45663992 4.11847662 10 9 C10.46949324 12.47647713 10.3798041 15.87528188 10.25 19.375 C10.23195313 20.30183594 10.21390625 21.22867188 10.1953125 22.18359375 C10.14844197 24.45681435 10.08285525 26.72785407 10 29 C8.35 29 6.7 29 5 29 C4.95101563 27.81921875 4.90203125 26.6384375 4.8515625 25.421875 C4.77651121 23.86456063 4.70096439 22.30727009 4.625 20.75 C4.5940625 19.97269531 4.563125 19.19539063 4.53125 18.39453125 C4.30621127 12.9042794 4.30621127 12.9042794 2 8 C-0.58271726 6.06296205 -1.80907528 5.98441431 -5.0625 6.25 C-8.16182133 6.86837499 -8.16182133 6.86837499 -11 9 C-11.50776044 11.21932277 -11.50776044 11.21932277 -11.51171875 13.7890625 C-11.54716797 14.73007813 -11.58261719 15.67109375 -11.61914062 16.640625 C-11.65297852 18.11789063 -11.65297852 18.11789063 -11.6875 19.625 C-11.72166016 20.61757812 -11.75582031 21.61015625 -11.79101562 22.6328125 C-11.87365657 25.08842906 -11.94275127 27.54368141 -12 30 C-13.65 30 -15.3 30 -17 30 C-17 20.43 -17 10.86 -17 1 C-15.35 1 -13.7 1 -12 1 C-12 1.66 -12 2.32 -12 3 C-11.319375 2.505 -10.63875 2.01 -9.9375 1.5 C-6.28168831 -0.36679746 -4.06691572 -0.42809639 0 0 Z " fill="#072068" transform="translate(381,201)"/>
<path d="M0 0 C-0.33 1.98 -0.66 3.96 -1 6 C-2.98 6.33 -4.96 6.66 -7 7 C-7.66 9.97 -8.32 12.94 -9 16 C-6.03 16 -3.06 16 0 16 C0 17.65 0 19.3 0 21 C-2.97 21 -5.94 21 -9 21 C-9 28.59 -9 36.18 -9 44 C-10.98 44 -12.96 44 -15 44 C-15 36.41 -15 28.82 -15 21 C-16.98 21 -18.96 21 -21 21 C-21 19.35 -21 17.7 -21 16 C-19.02 16 -17.04 16 -15 16 C-15.061875 14.783125 -15.12375 13.56625 -15.1875 12.3125 C-15.17360929 8.38142889 -14.57113962 6.10309954 -12 3 C-8.04820644 -0.18338925 -4.98469052 -0.29321709 0 0 Z " fill="#122B6F" transform="translate(526,130)"/>
<path d="M0 0 C1.65 0 3.3 0 5 0 C5.0093457 0.55461914 5.01869141 1.10923828 5.02832031 1.68066406 C5.08215722 4.20466481 5.16577254 6.72683814 5.25 9.25 C5.26417969 10.12269531 5.27835937 10.99539062 5.29296875 11.89453125 C5.47391444 17.08475545 5.47391444 17.08475545 7.82421875 21.6171875 C10.07201153 23.33374157 10.07201153 23.33374157 13.5625 22.875 C17.09045845 22.17969518 17.09045845 22.17969518 20 20 C20.50702517 17.87893205 20.50702517 17.87893205 20.51171875 15.4296875 C20.54716797 14.53378906 20.58261719 13.63789063 20.61914062 12.71484375 C20.64169922 11.77769531 20.66425781 10.84054688 20.6875 9.875 C20.72166016 8.93011719 20.75582031 7.98523438 20.79101562 7.01171875 C20.87364112 4.67459747 20.94273988 2.33785809 21 0 C22.65 0 24.3 0 26 0 C26 9.57 26 19.14 26 29 C24.35 29 22.7 29 21 29 C21 28.34 21 27.68 21 27 C20.195625 27.350625 19.39125 27.70125 18.5625 28.0625 C14.09486448 29.23819356 10.46687914 29.15990784 6 28 C3.18007283 26.17879704 1.49654522 24.99309044 0 22 C-0.08426094 20.3325394 -0.10725143 18.66174813 -0.09765625 16.9921875 C-0.09443359 16.00605469 -0.09121094 15.01992187 -0.08789062 14.00390625 C-0.07951172 12.97136719 -0.07113281 11.93882812 -0.0625 10.875 C-0.05798828 9.83472656 -0.05347656 8.79445312 -0.04882812 7.72265625 C-0.03701952 5.14838038 -0.02055075 2.57421854 0 0 Z " fill="#052068" transform="translate(371,146)"/>
<path d="M0 0 C3.0625 1 3.0625 1 5 2 C4.67 3.32 4.34 4.64 4 6 C1.62490863 6 -0.7503835 5.98499233 -3.125 5.9375 C-5.94390901 5.7937593 -5.94390901 5.7937593 -8 7 C-8 7.99 -8 8.98 -8 10 C-7.16855469 10.32613281 -6.33710938 10.65226563 -5.48046875 10.98828125 C-4.39378906 11.42527344 -3.30710937 11.86226562 -2.1875 12.3125 C-1.10855469 12.74175781 -0.02960938 13.17101562 1.08203125 13.61328125 C3.71474701 14.864438 5.26389989 15.6990728 7 18 C7.59391744 21.90288606 7.33267605 23.50098592 5.125 26.8125 C1.96658127 30.0638134 0.11431547 30.17811666 -4.3125 30.25 C-8.69846392 30.22697657 -11.50883051 29.88924372 -15 27 C-14.34 25.35 -13.68 23.7 -13 22 C-12.319375 22.33 -11.63875 22.66 -10.9375 23 C-7.49159762 24.17307315 -4.61602578 24.14180493 -1 24 C-0.67 22.68 -0.34 21.36 0 20 C-0.84304688 19.66226563 -1.68609375 19.32453125 -2.5546875 18.9765625 C-3.65039062 18.53054687 -4.74609375 18.08453125 -5.875 17.625 C-6.96554687 17.18414062 -8.05609375 16.74328125 -9.1796875 16.2890625 C-12 15 -12 15 -14 13 C-14.55090376 8.19926727 -14.70273285 6.08810248 -12.0625 2 C-7.93489756 -0.6955771 -4.79852724 -0.68550389 0 0 Z " fill="#0F276D" transform="translate(297,145)"/>
<path d="M0 0 C1.98 0 3.96 0 6 0 C6 2.64 6 5.28 6 8 C8.97 8 11.94 8 15 8 C15 9.65 15 11.3 15 13 C12.03 13 9.06 13 6 13 C6.1136515 15.62594784 6.24039054 18.25011547 6.375 20.875 C6.4059375 21.62136719 6.436875 22.36773437 6.46875 23.13671875 C6.55643831 27.53473188 6.55643831 27.53473188 9 31 C10.98821313 31.39764263 12.98944339 31.73775349 15 32 C15 33.65 15 35.3 15 37 C6.05074462 37.45504688 6.05074462 37.45504688 2 34 C-0.32607297 29.67091974 -0.23630741 25.47799977 -0.125 20.6875 C-0.11597656 19.94693359 -0.10695313 19.20636719 -0.09765625 18.44335938 C-0.07424213 16.62876533 -0.03837615 14.81433929 0 13 C-2.31 13 -4.62 13 -7 13 C-7 11.35 -7 9.7 -7 8 C-4.69 8 -2.38 8 0 8 C0 5.36 0 2.72 0 0 Z " fill="#10276D" transform="translate(408,138)"/>
<path d="M0 0 C1.98 0 3.96 0 6 0 C6 2.64 6 5.28 6 8 C8.97 8 11.94 8 15 8 C15 9.65 15 11.3 15 13 C12.03 13 9.06 13 6 13 C6.33 18.61 6.66 24.22 7 30 C9.31 30.66 11.62 31.32 14 32 C14.33 33.65 14.66 35.3 15 37 C7.03411131 37.62477558 7.03411131 37.62477558 3 35.1875 C0.27874886 32.21113157 -0.1268827 29.87539923 -0.09765625 25.98828125 C-0.09443359 25.23095703 -0.09121094 24.47363281 -0.08789062 23.69335938 C-0.07951172 22.90767578 -0.07113281 22.12199219 -0.0625 21.3125 C-0.05798828 20.51521484 -0.05347656 19.71792969 -0.04882812 18.89648438 C-0.0370585 16.93095743 -0.01912348 14.96546915 0 13 C-2.31 13 -4.62 13 -7 13 C-7 11.35 -7 9.7 -7 8 C-4.69 8 -2.38 8 0 8 C0 5.36 0 2.72 0 0 Z " fill="#0E276D" transform="translate(401,194)"/>
<path d="M0 0 C1.98 0 3.96 0 6 0 C6 2.64 6 5.28 6 8 C8.97 8 11.94 8 15 8 C15 9.65 15 11.3 15 13 C12.03 13 9.06 13 6 13 C6.33 18.61 6.66 24.22 7 30 C9.31 30.66 11.62 31.32 14 32 C14.33 33.65 14.66 35.3 15 37 C7.00348432 37.6271777 7.00348432 37.6271777 3 35.125 C0.26769903 32.22193022 -0.12493177 30.74031193 -0.09765625 26.8671875 C-0.09443359 26.06152344 -0.09121094 25.25585938 -0.08789062 24.42578125 C-0.07951172 23.58402344 -0.07113281 22.74226563 -0.0625 21.875 C-0.05798828 21.02550781 -0.05347656 20.17601562 -0.04882812 19.30078125 C-0.03702874 17.20049091 -0.01909306 15.1002367 0 13 C-2.31 13 -4.62 13 -7 13 C-7 11.35 -7 9.7 -7 8 C-4.69 8 -2.38 8 0 8 C0 5.36 0 2.72 0 0 Z " fill="#0F266C" transform="translate(351,138)"/>
<path d="M0 0 C1.98 0 3.96 0 6 0 C6 2.64 6 5.28 6 8 C8.97 8 11.94 8 15 8 C15 9.65 15 11.3 15 13 C12.03 13 9.06 13 6 13 C6.33 18.61 6.66 24.22 7 30 C9.64 30.66 12.28 31.32 15 32 C15 33.65 15 35.3 15 37 C6.05074462 37.45504688 6.05074462 37.45504688 2 34 C-0.32607297 29.67091974 -0.23630741 25.47799977 -0.125 20.6875 C-0.11597656 19.94693359 -0.10695313 19.20636719 -0.09765625 18.44335938 C-0.07424213 16.62876533 -0.03837615 14.81433929 0 13 C-2.31 13 -4.62 13 -7 13 C-7 11.35 -7 9.7 -7 8 C-4.69 8 -2.38 8 0 8 C0 5.36 0 2.72 0 0 Z " fill="#0F266C" transform="translate(313,138)"/>
<path d="M0 0 C2.80732192 2.01394833 4.62383309 3.49836596 5.484375 6.93359375 C5.75314763 10.88305824 5.25568624 12.63584081 2.9375 15.9375 C-0.61540225 18.43209094 -2.65904305 19.07615714 -7 19 C-10.4375 17.75 -10.4375 17.75 -13 15 C-13.75115721 11.21554384 -13.68571096 7.79157825 -13 4 C-9.55194691 -0.99373206 -5.66821098 -1.58709907 0 0 Z " fill="#F3F4F8" transform="translate(526,207)"/>
<path d="M0 0 C3.48638567 2.92102583 4.86054217 4.76812251 5.375 9.3125 C4.90786625 13.90598187 3.47959782 15.11447985 0 18 C-0.33 18.33 -0.66 18.66 -1 19 C-4.85303968 19.43784542 -6.54122122 19.30585252 -9.8125 17.125 C-12.79857385 14.22424254 -12.95683819 13.43881175 -13.375 9.1875 C-13.34874901 5.5779882 -13.05911955 5.07312154 -10.625 2.0625 C-6.58556987 -1.11133796 -5.00272242 -1.30070783 0 0 Z " fill="#F6F7FA" transform="translate(492,207)"/>
<path d="M0 0 C3.55247432 0.87379409 4.94828114 2.4927342 6.9375 5.4765625 C7.57747166 8.28564164 7.56770793 10.66617577 6.9375 13.4765625 C5.14386089 16.2865971 3.91869065 17.98596718 0.9375 19.4765625 C-2.93464182 19.90680048 -4.58746371 19.79325336 -7.875 17.6015625 C-10.86107385 14.70080504 -11.01933819 13.91537425 -11.4375 9.6640625 C-11.37577317 6.2752598 -11.05116791 5.45956436 -9.0625 2.4765625 C-5.73362371 0.25731164 -3.92313492 -0.28234683 0 0 Z " fill="#F5F6F9" transform="translate(491.0625,150.5234375)"/>
<path d="M0 0 C2.16015625 1.17578125 2.16015625 1.17578125 4 3 C4.82547679 7.04768273 4.6457232 10.92913636 4 15 C1.485318 18.25429436 0.04241611 18.8003884 -3.9375 19.5625 C-7.18915689 18.9652569 -9.40047372 18.022387 -11.85546875 15.76171875 C-13.82295339 12.73326969 -13.73976144 9.83800487 -13.53515625 6.3125 C-13 4 -13 4 -10.625 1.4375 C-6.3795723 -0.88737707 -4.809363 -1.15424712 0 0 Z " fill="#F7F8FA" transform="translate(348,207)"/>
<path d="M0 0 C1.98 0 3.96 0 6 0 C6 14.52 6 29.04 6 44 C4.02 44 2.04 44 0 44 C0 29.48 0 14.96 0 0 Z " fill="#102D71" transform="translate(317,187)"/>
<path d="M0 0 C1.98 0 3.96 0 6 0 C6 14.52 6 29.04 6 44 C4.02 44 2.04 44 0 44 C0 29.48 0 14.96 0 0 Z " fill="#283E7C" transform="translate(235,131)"/>
<path d="M0 0 C0 1.65 0 3.3 0 5 C-1.6396875 5.4021875 -1.6396875 5.4021875 -3.3125 5.8125 C-7.34105678 7.08219043 -7.34105678 7.08219043 -10 10 C-10.50155022 12.2143507 -10.50155022 12.2143507 -10.51171875 14.66796875 C-10.54716797 15.56064453 -10.58261719 16.45332031 -10.61914062 17.37304688 C-10.64169922 18.30181641 -10.66425781 19.23058594 -10.6875 20.1875 C-10.72166016 21.12787109 -10.75582031 22.06824219 -10.79101562 23.03710938 C-10.87348218 25.35795393 -10.94263403 27.67842148 -11 30 C-12.98 30 -14.96 30 -17 30 C-17 20.43 -17 10.86 -17 1 C-15.02 1 -13.04 1 -11 1 C-11 1.66 -11 2.32 -11 3 C-10.29875 2.505 -9.5975 2.01 -8.875 1.5 C-5.62880281 -0.1936681 -3.60659844 -0.25162315 0 0 Z " fill="#142B70" transform="translate(472,201)"/>
<path d="M0 0 C12.23169076 -0.49420973 12.23169076 -0.49420973 15.890625 1.859375 C18 4 18 4 18.5625 6.5 C17.80869586 9.85024062 16.71743525 10.91034059 14 13 C10.546875 13.390625 10.546875 13.390625 6.75 13.25 C5.48671875 13.21390625 4.2234375 13.1778125 2.921875 13.140625 C1.47554687 13.07101563 1.47554687 13.07101563 0 13 C0 8.71 0 4.42 0 0 Z " fill="#EFF1F5" transform="translate(241,193)"/>
<path d="M0 0 C5.62303757 4.67466337 10.79741554 9.67765667 15.9375 14.875 C16.71673828 15.65875 17.49597656 16.4425 18.29882812 17.25 C20.20154085 19.16438581 22.10186171 21.08108034 24 23 C21 23 21 23 17.625 21.1875 C12.05665069 18.25733866 6.12571123 17.27618984 0 16 C0 10.72 0 5.44 0 0 Z " fill="#05236B" transform="translate(91,147)"/>
<path d="M0 0 C1.98 0 3.96 0 6 0 C6 9.57 6 19.14 6 29 C4.02 29 2.04 29 0 29 C0 19.43 0 9.86 0 0 Z " fill="#12296E" transform="translate(304,202)"/>
<path d="M0 0 C1.65 0 3.3 0 5 0 C5 9.57 5 19.14 5 29 C3.35 29 1.7 29 0 29 C0 19.43 0 9.86 0 0 Z " fill="#062068" transform="translate(334,146)"/>
<path d="M0 0 C0.99 0 1.98 0 3 0 C3 13.2 3 26.4 3 40 C2.01 40 1.02 40 0 40 C0 26.8 0 13.6 0 0 Z " fill="#012068" transform="translate(237,133)"/>
<path d="M0 0 C1.98 0 3.96 0 6 0 C4.68 0.33 3.36 0.66 2 1 C2 9.58 2 18.16 2 27 C2.99 27 3.98 27 5 27 C5 20.73 5 14.46 5 8 C5.33 8 5.66 8 6 8 C6 14.93 6 21.86 6 29 C4.02 29 2.04 29 0 29 C0 19.43 0 9.86 0 0 Z " fill="#293A79" transform="translate(249,146)"/>
<path d="M0 0 C2.875 2.4375 2.875 2.4375 5 5 C5 5.33 5 5.66 5 6 C0.05 6 -4.9 6 -10 6 C-8.52015735 0.08062939 -5.7603879 -0.80645431 0 0 Z " fill="#F1F3F6" transform="translate(442,150)"/>
<path d="M0 0 C2.375 -0.125 2.375 -0.125 5 0 C5.66 0.66 6.32 1.32 7 2 C6.625 4.125 6.625 4.125 6 6 C3.625 6.625 3.625 6.625 1 7 C0.34 6.34 -0.32 5.68 -1 5 C-0.625 2.375 -0.625 2.375 0 0 Z " fill="#10286E" transform="translate(304,188)"/>
<path d="M0 0 C1.2065625 0.0309375 1.2065625 0.0309375 2.4375 0.0625 C3.0625 2.4375 3.0625 2.4375 3.4375 5.0625 C2.7775 5.7225 2.1175 6.3825 1.4375 7.0625 C-1.1875 6.6875 -1.1875 6.6875 -3.5625 6.0625 C-3.605221 4.39638095 -3.60313832 2.72867115 -3.5625 1.0625 C-2.5625 0.0625 -2.5625 0.0625 0 0 Z " fill="#092068" transform="translate(336.5625,131.9375)"/>
<path d="M0 0 C-0.75 1.875 -0.75 1.875 -2 4 C-2.6703125 4.2371875 -3.340625 4.474375 -4.03125 4.71875 C-4.6809375 5.1415625 -5.330625 5.564375 -6 6 C-6.70672206 9.10930941 -6.70672206 9.10930941 -6.75 12.625 C-6.80671875 13.81351563 -6.8634375 15.00203125 -6.921875 16.2265625 C-6.94765625 17.14179688 -6.9734375 18.05703125 -7 19 C-7.66 19 -8.32 19 -9 19 C-9.55934831 11.13804878 -8.63943785 7.19935136 -3.375 1.125 C-2 0 -2 0 0 0 Z " fill="#243879" transform="translate(434,146)"/>
<path d="M0 0 C0.66 0.33 1.32 0.66 2 1 C1.67 2.32 1.34 3.64 1 5 C-2.79557881 5 -4.62902617 4.49821059 -8 3 C-8 2.34 -8 1.68 -8 1 C-5.26094655 -0.36952673 -3.02912668 -0.12621361 0 0 Z " fill="#091F68" transform="translate(300,146)"/>
<path d="M0 0 C1.12894876 0.93274109 2.25300876 1.87140122 3.375 2.8125 C4.00148438 3.33457031 4.62796875 3.85664063 5.2734375 4.39453125 C7 6 7 6 9 9 C8.01 9.33 7.02 9.66 6 10 C5.67 10.66 5.34 11.32 5 12 C4.28385417 10.046875 3.56770833 8.09375 2.8515625 6.140625 C2.01000989 4.02516248 1.04673506 2.02065376 0 0 Z " fill="#113176" transform="translate(123,179)"/>
<path d="M0 0 C0 3 0 3 -1.53125 4.82421875 C-2.1809375 5.43910156 -2.830625 6.05398437 -3.5 6.6875 C-4.1496875 7.31011719 -4.799375 7.93273437 -5.46875 8.57421875 C-5.9740625 9.04472656 -6.479375 9.51523438 -7 10 C-7.66 9.67 -8.32 9.34 -9 9 C-8.06725891 7.87105124 -7.12859878 6.74699124 -6.1875 5.625 C-5.66542969 4.99851562 -5.14335938 4.37203125 -4.60546875 3.7265625 C-3 2 -3 2 0 0 Z " fill="#14296E" transform="translate(112,100)"/>
<path d="M0 0 C4.2742558 1.5830577 6.26531794 4.50568404 9 8 C8.1646875 7.566875 8.1646875 7.566875 7.3125 7.125 C4.91505355 5.9586747 2.48403061 4.9660119 0 4 C0 2.68 0 1.36 0 0 Z " fill="#113378" transform="translate(106,163)"/>
<path d="M0 0 C2.31 0 4.62 0 7 0 C6.67 1.65 6.34 3.3 6 5 C4.35 5 2.7 5 1 5 C2.32 4.67 3.64 4.34 5 4 C5 3.34 5 2.68 5 2 C3.35 2 1.7 2 0 2 C0 1.34 0 0.68 0 0 Z " fill="#223274" transform="translate(519,130)"/>
<path d="M0 0 C1.98 0 3.96 0 6 0 C6 1.65 6 3.3 6 5 C5.34 4.67 4.68 4.34 4 4 C4 3.34 4 2.68 4 2 C2.68 2 1.36 2 0 2 C0 1.34 0 0.68 0 0 Z " fill="#273D7C" transform="translate(466,201)"/>
</svg>
