<?xml version="1.0" encoding="UTF-8"?>
<svg version="1.1" xmlns="http://www.w3.org/2000/svg" width="642" height="332">
<path d="M0 0 C23.1 0 46.2 0 70 0 C70 109.56 70 219.12 70 332 C46.9 332 23.8 332 0 332 C0 222.44 0 112.88 0 0 Z " fill="#A31F34" transform="translate(228,0)"/>
<path d="M0 0 C23.1 0 46.2 0 70 0 C70 109.56 70 219.12 70 332 C46.9 332 23.8 332 0 332 C0 222.44 0 112.88 0 0 Z " fill="#A31F34" transform="translate(0,0)"/>
<path d="M0 0 C23.1 0 46.2 0 70 0 C70 74.58 70 149.16 70 226 C46.9 226 23.8 226 0 226 C0 151.42 0 76.84 0 0 Z " fill="#A31F34" transform="translate(458,106)"/>
<path d="M0 0 C23.1 0 46.2 0 70 0 C70 74.58 70 149.16 70 226 C46.9 226 23.8 226 0 226 C0 151.42 0 76.84 0 0 Z " fill="#8A8B8C" transform="translate(342,106)"/>
<path d="M0 0 C23.1 0 46.2 0 70 0 C70 74.58 70 149.16 70 226 C46.9 226 23.8 226 0 226 C0 151.42 0 76.84 0 0 Z " fill="#A31F34" transform="translate(114,0)"/>
<path d="M0 0 C60.72 0 121.44 0 184 0 C184 21.78 184 43.56 184 66 C123.28 66 62.56 66 0 66 C0 44.22 0 22.44 0 0 Z " fill="#A31F34" transform="translate(458,0)"/>
<path d="M0 0 C23.1 0 46.2 0 70 0 C70 21.78 70 43.56 70 66 C46.9 66 23.8 66 0 66 C0 44.22 0 22.44 0 0 Z " fill="#A31F34" transform="translate(342,0)"/>
</svg>
