<?xml version="1.0" encoding="UTF-8"?>
<svg version="1.1" xmlns="http://www.w3.org/2000/svg" width="500" height="280">
<path d="M0 0 C165 0 330 0 500 0 C500 92.4 500 184.8 500 280 C335 280 170 280 0 280 C0 187.6 0 95.2 0 0 Z " fill="#F4F4F4" transform="translate(0,0)"/>
<path d="M0 0 C13.86 0 27.72 0 42 0 C42 6.6 42 13.2 42 20 C38.37 20 34.74 20 31 20 C31.59474121 21.2900293 32.18948242 22.58005859 32.80224609 23.90917969 C34.91612271 28.67042682 36.59236832 33.49081865 38.1640625 38.453125 C38.44220795 39.3163739 38.72035339 40.1796228 39.00692749 41.06903076 C39.8843085 43.79454106 40.75501708 46.52212022 41.625 49.25 C42.50325702 51.99178152 43.38294724 54.73309095 44.26449585 57.47381592 C44.80981398 59.17042748 45.35307031 60.86770356 45.89395142 62.56573486 C47.13516423 66.43889327 48.41846144 70.24844341 50 74 C52.13118886 70.80321672 53.11398779 68.02128796 54.3125 64.375 C54.6384314 63.38463745 54.6384314 63.38463745 54.97094727 62.37426758 C56.78128283 56.81278624 58.42273544 51.20685081 60.04296875 45.58764648 C62.45110102 37.31158498 65.22331489 29.15830161 68 21 C64.37 21 60.74 21 57 21 C57 14.07 57 7.14 57 0 C72.51 0 88.02 0 104 0 C104 6.93 104 13.86 104 21 C97.565 21.495 97.565 21.495 91 22 C90.63671097 23.15797592 90.27342194 24.31595184 89.89912415 25.50901794 C86.33831515 36.83587992 82.69249053 48.13204129 78.98046875 59.41015625 C78.43088097 61.08213092 77.88134699 62.75412328 77.3318634 64.4261322 C76.19570753 67.88239884 75.05872066 71.33839067 73.92114258 74.79418945 C72.46225603 79.2264051 71.0058383 83.6594278 69.55004406 88.09265995 C68.42305154 91.52354718 67.2946368 94.95396533 66.16579628 98.38424492 C65.62745898 100.0208007 65.0896023 101.65751467 64.55223656 103.29438972 C63.80737368 105.56271416 63.06056443 107.83038846 62.31323242 110.09790039 C62.0924855 110.77151611 61.87173859 111.44513184 61.64430237 112.13916016 C60.86557319 114.49680204 60.11208246 116.77583509 59 119 C51.74 119 44.48 119 37 119 C32.86591011 108.54993944 29.2586091 97.98487591 25.75 87.3125 C24.93911555 84.85215908 24.12731581 82.39212907 23.31378174 79.93266296 C22.81239365 78.41629818 22.31261056 76.89940152 21.81463623 75.38191223 C20.58629255 71.61947963 20.58629255 71.61947963 19 68 C16.93188709 73.43514585 14.98655259 78.89210623 13.15234375 84.41015625 C12.8949794 85.18129257 12.63761505 85.95242889 12.37245178 86.74693298 C11.83309505 88.36432767 11.29448389 89.98197115 10.7565918 91.59985352 C9.93827785 94.06016136 9.11675842 96.51938253 8.29492188 98.97851562 C7.76803675 100.55983173 7.24133772 102.14120986 6.71484375 103.72265625 C6.47209213 104.44888687 6.22934052 105.17511749 5.97923279 105.9233551 C5.7488179 106.61775192 5.51840302 107.31214874 5.28100586 108.02758789 C5.08131699 108.6274501 4.88162811 109.22731232 4.67588806 109.84535217 C3.72431729 112.87884249 2.87340368 115.94308711 2 119 C-5.59 119 -13.18 119 -21 119 C-30.70973267 92.29823516 -39.95869968 65.45581198 -48.75 38.4375 C-49.01656403 37.62083862 -49.28312805 36.80417725 -49.55776978 35.96276855 C-50.30756648 33.66247119 -51.05305632 31.36083013 -51.796875 29.05859375 C-52.02124741 28.37073288 -52.24561981 27.68287201 -52.47679138 26.97416687 C-54 22.23077683 -54 22.23077683 -54 20 C-57.96 20 -61.92 20 -66 20 C-66 13.73 -66 7.46 -66 1 C-48.84 1 -31.68 1 -14 1 C-14 7.27 -14 13.54 -14 20 C-17.96 20 -21.92 20 -26 20 C-24.51067281 24.51793319 -23.01717291 29.03445889 -21.52001953 33.54980469 C-21.01272388 35.08166385 -20.50651189 36.61388238 -20.00146484 38.14648438 C-16.21543056 49.6456858 -16.21543056 49.6456858 -11.84375 60.93237305 C-8 70.3515625 -8 70.3515625 -8 75 C-7.34 75 -6.68 75 -6 75 C-5.87326904 74.31188232 -5.74653809 73.62376465 -5.6159668 72.91479492 C-4.93236953 69.6799682 -4.05990655 66.54045806 -3.14453125 63.36328125 C-2.96217926 62.73008972 -2.77982727 62.09689819 -2.59194946 61.44451904 C-2.00157648 59.39969677 -1.40742617 57.35600187 -0.8125 55.3125 C-0.61157745 54.62002167 -0.41065491 53.92754333 -0.2036438 53.21408081 C2.94211173 42.38735122 6.27698018 31.64345667 10 21 C6.7 21 3.4 21 0 21 C0 14.07 0 7.14 0 0 Z " fill="#B93C85" transform="translate(225,48)"/>
<path d="M0 0 C0.9583374 0.00523682 1.9166748 0.01047363 2.90405273 0.01586914 C4.45576172 0.02070312 4.45576172 0.02070312 6.03881836 0.02563477 C7.12743164 0.03401367 8.21604492 0.04239258 9.33764648 0.05102539 C10.97636719 0.05779297 10.97636719 0.05779297 12.64819336 0.06469727 C15.35723144 0.07652713 18.06616248 0.09300996 20.77514648 0.11352539 C21.09265869 1.1015918 21.4101709 2.0896582 21.73730469 3.10766602 C22.92628157 6.80588372 24.11780314 10.50327755 25.31005859 14.20043945 C25.82376409 15.79462003 26.33679763 17.38901732 26.84912109 18.98364258 C27.58958217 21.28794015 28.33253098 23.59142347 29.07592773 25.89477539 C29.30105545 26.5971936 29.52618317 27.29961182 29.75813293 28.02331543 C31.2957062 32.77648646 32.99414986 37.44591344 34.77514648 42.11352539 C35.77514648 44.78019206 36.77514648 47.44685872 37.77514648 50.11352539 C41.39969748 42.22290994 44.03241618 34.24743239 46.4597168 25.92797852 C49.00057785 17.23987297 51.87117177 8.68716501 54.77514648 0.11352539 C62.69514648 0.11352539 70.61514648 0.11352539 78.77514648 0.11352539 C79.66717773 2.88500977 80.55920898 5.65649414 81.47827148 8.51196289 C82.35455279 11.22626349 83.23202978 13.94017482 84.10961914 16.65405273 C84.71405777 18.52539472 85.31727281 20.39713241 85.91918945 22.26928711 C86.78975074 24.97625628 87.66485428 27.6817227 88.54077148 30.38696289 C88.93634247 31.62197037 88.93634247 31.62197037 89.33990479 32.88192749 C90.95935424 37.86593469 92.79583208 42.71180679 94.77032471 47.56512451 C96.49169157 51.930807 97.96469028 56.37698146 99.44702148 60.82836914 C99.93794281 62.29470543 99.93794281 62.29470543 100.43878174 63.79066467 C101.12257146 65.83633594 101.80482629 67.88252086 102.4855957 69.92919922 C103.53102704 73.06868502 104.58448618 76.20540335 105.63842773 79.34204102 C106.30427802 81.3373217 106.96965962 83.33275887 107.63452148 85.32836914 C107.95007996 86.26583481 108.26563843 87.20330048 108.59075928 88.16917419 C108.87815979 89.03760452 109.1655603 89.90603485 109.46166992 90.80078125 C109.71607849 91.56337753 109.97048706 92.32597382 110.23260498 93.11167908 C110.77514648 95.11352539 110.77514648 95.11352539 110.77514648 98.11352539 C115.06514648 98.11352539 119.35514648 98.11352539 123.77514648 98.11352539 C123.77514648 104.71352539 123.77514648 111.31352539 123.77514648 118.11352539 C106.28514648 118.11352539 88.79514648 118.11352539 70.77514648 118.11352539 C70.77514648 111.51352539 70.77514648 104.91352539 70.77514648 98.11352539 C74.40514648 98.11352539 78.03514648 98.11352539 81.77514648 98.11352539 C78.32167044 86.02007316 74.50087674 74.08581652 70.46264648 62.17602539 C69.37976634 58.98056351 68.30091075 55.78378233 67.22436523 52.58618164 C66.97756516 51.86237808 66.73076508 51.13857452 66.47648621 50.39283752 C64.77514648 45.33897132 64.77514648 45.33897132 64.77514648 43.11352539 C64.11514648 43.11352539 63.45514648 43.11352539 62.77514648 43.11352539 C62.64841553 44.13736328 62.52168457 45.16120117 62.39111328 46.21606445 C61.82517146 49.79699798 61.00865779 53.02161464 59.91967773 56.47290039 C59.36074829 58.25821167 59.36074829 58.25821167 58.79052734 60.07958984 C58.39357666 61.32828857 57.99662598 62.5769873 57.58764648 63.86352539 C57.18034917 65.15789016 56.77353271 66.45240633 56.3671875 67.74707031 C55.55677651 70.32579385 54.74325516 72.90349911 53.92651367 75.48022461 C52.89569633 78.73311343 51.86936665 81.98736278 50.84545898 85.24243164 C49.49432255 89.53459754 48.13707893 93.82477342 46.77514648 98.11352539 C50.07514648 98.11352539 53.37514648 98.11352539 56.77514648 98.11352539 C56.77514648 104.71352539 56.77514648 111.31352539 56.77514648 118.11352539 C42.91514648 118.11352539 29.05514648 118.11352539 14.77514648 118.11352539 C14.77514648 111.51352539 14.77514648 104.91352539 14.77514648 98.11352539 C18.07514648 98.11352539 21.37514648 98.11352539 24.77514648 98.11352539 C24.34431763 96.82889404 24.34431763 96.82889404 23.90478516 95.51831055 C22.82443057 92.29444366 21.74549889 89.07010745 20.66748047 85.84545898 C20.20351821 84.45855412 19.73901429 83.07183032 19.27392578 81.68530273 C16.87443627 74.53074306 14.5215891 67.37418082 12.39013672 60.1340332 C11.61750397 57.59560184 10.70973889 55.13444351 9.71264648 52.67602539 C9.39166992 51.87293945 9.07069336 51.06985352 8.73999023 50.24243164 C7.74317464 47.89031936 7.74317464 47.89031936 5.77514648 45.11352539 C5.42323242 46.32524414 5.07131836 47.53696289 4.70874023 48.78540039 C1.81508976 58.64307652 -1.2939278 68.37934098 -4.74291992 78.05688477 C-7.10184509 84.69210767 -9.21555218 91.36227289 -11.22485352 98.11352539 C-7.59485352 98.11352539 -3.96485352 98.11352539 -0.22485352 98.11352539 C-0.22485352 104.71352539 -0.22485352 111.31352539 -0.22485352 118.11352539 C-15.40485352 118.11352539 -30.58485352 118.11352539 -46.22485352 118.11352539 C-46.22485352 111.84352539 -46.22485352 105.57352539 -46.22485352 99.11352539 C-42.26485352 99.11352539 -38.30485352 99.11352539 -34.22485352 99.11352539 C-33.82008789 97.4080957 -33.41532227 95.70266602 -32.99829102 93.94555664 C-31.28741281 87.10705813 -29.12220155 80.47045258 -26.84985352 73.80102539 C-26.44992187 72.61331543 -26.04999023 71.42560547 -25.63793945 70.2019043 C-24.23225533 66.02881523 -22.81752122 61.85883686 -21.40161133 57.68920898 C-19.11543161 50.9502399 -16.93805763 44.20365572 -14.97485352 37.36352539 C-12.67899009 29.37966031 -10.09425227 21.49649137 -7.47485352 13.61352539 C-7.07363281 12.40083984 -6.67241211 11.1881543 -6.2590332 9.9387207 C-5.88166016 8.81046875 -5.50428711 7.6822168 -5.11547852 6.51977539 C-4.60549316 4.99320313 -4.60549316 4.99320313 -4.08520508 3.43579102 C-2.86650393 0.14626625 -2.86650393 0.14626625 0 0 Z " fill="#8E8E8E" transform="translate(353.224853515625,48.886474609375)"/>
<path d="M0 0 C7.59 0 15.18 0 23 0 C23.80824219 2.43632813 24.61648437 4.87265625 25.44921875 7.3828125 C26.2498692 9.79260532 27.05105774 12.20221862 27.85229492 14.61181641 C28.40070661 16.26202099 28.94857564 17.91240603 29.49584961 19.56298828 C32.87552645 29.75468106 36.33230592 39.90793559 40 50 C42.91218529 47.08781471 43.4672121 43.49506749 44.5625 39.625 C47.18247609 30.61661222 49.98977035 21.6760591 52.875 12.75 C53.28049072 11.49396973 53.68598145 10.23793945 54.10375977 8.94384766 C55.0675846 5.96204688 56.03290625 2.98074187 57 0 C60.77043032 -0.14496508 64.54014742 -0.23395607 68.3125 -0.3125 C69.9202832 -0.3753418 69.9202832 -0.3753418 71.56054688 -0.43945312 C72.58857422 -0.45556641 73.61660156 -0.47167969 74.67578125 -0.48828125 C75.62364502 -0.51446533 76.57150879 -0.54064941 77.5480957 -0.56762695 C80 0 80 0 81.51544189 2.15144348 C83.05667705 5.10875141 84.1556748 7.97968424 85.20483398 11.14453125 C85.61213242 12.36350098 86.01943085 13.5824707 86.43907166 14.83837891 C86.87491218 16.16303117 87.3105818 17.48773967 87.74609375 18.8125 C88.20256502 20.18684694 88.65952858 21.56103047 89.11695862 22.93505859 C90.07452287 25.81538072 91.02820749 28.69694617 91.97875977 31.57958984 C93.18502789 35.23768733 94.39759122 38.89365389 95.61273098 42.54881287 C96.78427001 46.07351788 97.95289855 49.59918557 99.12109375 53.125 C99.338421 53.7803775 99.55574825 54.435755 99.77966118 55.11099243 C102.32466404 62.79392182 104.7958911 70.49234452 107.13783264 78.23974609 C108.57648996 82.8456494 110.27409685 87.31896112 112.1875 91.75 C113 94 113 94 113 98 C117.29 98 121.58 98 126 98 C126 104.6 126 111.2 126 118 C108.84 118 91.68 118 74 118 C74 111.73 74 105.46 74 99 C77.63 99 81.26 99 85 99 C84.5968457 97.83130371 84.19369141 96.66260742 83.77832031 95.45849609 C82.26127607 91.05758217 80.74910341 86.65500654 79.23828125 82.25195312 C78.58788429 80.35860387 77.93622541 78.46568756 77.28320312 76.57324219 C73.56247367 65.78769208 69.95776132 55.02290104 67 44 C64.8008197 47.29877044 64.02108519 50.34854588 63.0625 54.125 C60.51495969 63.76012797 57.35949509 73.18210683 54.1875 82.625 C53.93308136 83.38266663 53.67866272 84.14033325 53.41653442 84.92095947 C51.9504046 89.28269716 50.47780375 93.64220453 49 98 C52.3 98 55.6 98 59 98 C59 104.6 59 111.2 59 118 C45.14 118 31.28 118 17 118 C17 111.4 17 104.8 17 98 C20.3 98 23.6 98 27 98 C26.2275293 95.66071411 26.2275293 95.66071411 25.43945312 93.27416992 C23.53410256 87.50024623 21.63457267 81.72442181 19.73681641 75.94799805 C18.91386607 73.44584564 18.08932764 70.94421498 17.26318359 68.44311523 C16.07754574 64.85275331 14.89758902 61.26056781 13.71875 57.66796875 C13.34689575 56.54601608 12.9750415 55.42406342 12.59191895 54.26811218 C12.25156616 53.22725967 11.91121338 52.18640717 11.56054688 51.11401367 C11.10754211 49.7383448 11.10754211 49.7383448 10.64538574 48.33488464 C10 46 10 46 10 43 C9.34 43 8.68 43 8 43 C7.88825439 43.98718018 7.77650879 44.97436035 7.66137695 45.99145508 C7.05375741 50.21829008 5.8000116 54.10715592 4.41796875 58.13671875 C4.16251785 58.89741165 3.90706696 59.65810455 3.64387512 60.44184875 C2.83074688 62.85902 2.00932797 65.27327455 1.1875 67.6875 C0.64722582 69.28822234 0.10750761 70.88913245 -0.43164062 72.49023438 C-1.47185094 75.57700633 -2.51504368 78.66274104 -3.56103516 81.74755859 C-5.39441947 87.1583004 -7.19864947 92.5785019 -9 98 C-5.37 98 -1.74 98 2 98 C2 104.6 2 111.2 2 118 C-13.18 118 -28.36 118 -44 118 C-44 111.73 -44 105.46 -44 99 C-40.04 99 -36.08 99 -32 99 C-31.74275146 97.74380859 -31.48550293 96.48761719 -31.22045898 95.19335938 C-29.98412099 89.64420343 -28.25868971 84.29934312 -26.47265625 78.90625 C-26.12755005 77.85288956 -25.78244385 76.79952911 -25.42687988 75.71424866 C-24.30966966 72.30808601 -23.1862713 68.90400303 -22.0625 65.5 C-21.29195538 63.15626097 -20.52169313 60.81242908 -19.75170898 58.46850586 C-17.50778944 51.64346856 -15.2550651 44.82136147 -13 38 C-12.68562988 37.04828918 -12.37125977 36.09657837 -12.04736328 35.11602783 C-10.22405544 29.59652533 -8.39615811 24.07857247 -6.5625 18.5625 C-6.33789093 17.88590332 -6.11328186 17.20930664 -5.88186646 16.51220703 C-5.25765152 14.63385037 -4.63085036 12.75635375 -4.00390625 10.87890625 C-3.66174072 9.8535376 -3.3195752 8.82816895 -2.96704102 7.77172852 C-2.05357573 5.15355852 -1.02984652 2.5746163 0 0 Z " fill="#8E8E8E" transform="translate(55,49)"/>
<path d="M0 0 C1.23556641 0.01740234 1.23556641 0.01740234 2.49609375 0.03515625 C3.32238281 0.04417969 4.14867187 0.05320313 5 0.0625 C5.63808594 0.07410156 6.27617187 0.08570313 6.93359375 0.09765625 C7.72800447 1.97149528 8.51899349 3.84678511 9.30859375 5.72265625 C9.74945313 6.76679688 10.1903125 7.8109375 10.64453125 8.88671875 C11.86495697 11.92668827 12.93173285 14.9797153 13.93359375 18.09765625 C16.1943053 14.70658892 17.58628198 11.18251488 19.05859375 7.41015625 C19.33574219 6.70826172 19.61289062 6.00636719 19.8984375 5.28320312 C20.57995116 3.5559185 21.25719147 1.82694888 21.93359375 0.09765625 C23.41266267 0.07076409 24.89186858 0.05131004 26.37109375 0.03515625 C27.19480469 0.02355469 28.01851563 0.01195312 28.8671875 0 C30.93359375 0.09765625 30.93359375 0.09765625 31.93359375 1.09765625 C32.02126487 3.17027701 32.04055248 5.24585919 32.03125 7.3203125 C32.02802734 8.58037109 32.02480469 9.84042969 32.02148438 11.13867188 C32.01312778 12.47916734 32.00466282 13.81966213 31.99609375 15.16015625 C31.99108035 16.50455567 31.98651717 17.84895685 31.98242188 19.19335938 C31.97058863 22.49483566 31.95410346 25.79622428 31.93359375 29.09765625 C29.95359375 29.09765625 27.97359375 29.09765625 25.93359375 29.09765625 C25.60359375 21.83765625 25.27359375 14.57765625 24.93359375 7.09765625 C23.94359375 10.06765625 22.95359375 13.03765625 21.93359375 16.09765625 C21.0543249 18.45805968 20.16023458 20.81303789 19.24609375 23.16015625 C18.80910156 24.28550781 18.37210937 25.41085938 17.921875 26.5703125 C17.59574219 27.40433594 17.26960938 28.23835938 16.93359375 29.09765625 C14.95359375 29.09765625 12.97359375 29.09765625 10.93359375 29.09765625 C8.62359375 22.16765625 6.31359375 15.23765625 3.93359375 8.09765625 C3.60359375 15.02765625 3.27359375 21.95765625 2.93359375 29.09765625 C0.95359375 29.09765625 -1.02640625 29.09765625 -3.06640625 29.09765625 C-3.09106506 25.12834636 -3.10924648 21.15906591 -3.12133789 17.18969727 C-3.12637682 15.83845239 -3.13320802 14.48721299 -3.1418457 13.13598633 C-3.15393044 11.19745191 -3.15910453 9.25887825 -3.1640625 7.3203125 C-3.16929932 6.15250244 -3.17453613 4.98469238 -3.17993164 3.78149414 C-3.02602492 0.14300685 -3.02602492 0.14300685 0 0 Z " fill="#5A5A5A" transform="translate(321.06640625,178.90234375)"/>
<path d="M0 0 C2.0078125 0.42578125 2.0078125 0.42578125 3.59765625 1.9921875 C5.3898013 5.08500291 6.56067058 8.30270679 7.6953125 11.67578125 C8.03272461 12.6503125 8.03272461 12.6503125 8.37695312 13.64453125 C8.92697477 15.23608324 9.46828038 16.83064281 10.0078125 18.42578125 C10.49701172 17.23082031 10.49701172 17.23082031 10.99609375 16.01171875 C13.17629468 10.72521383 15.33769758 5.48494636 18.0078125 0.42578125 C20.9778125 0.42578125 23.9478125 0.42578125 27.0078125 0.42578125 C27.0078125 9.99578125 27.0078125 19.56578125 27.0078125 29.42578125 C25.3578125 29.42578125 23.7078125 29.42578125 22.0078125 29.42578125 C21.5128125 18.04078125 21.5128125 18.04078125 21.0078125 6.42578125 C20.4303125 8.55015625 19.8528125 10.67453125 19.2578125 12.86328125 C17.64996108 18.62855785 15.67464505 24.06374559 13.0078125 29.42578125 C11.0278125 29.42578125 9.0478125 29.42578125 7.0078125 29.42578125 C4.06268217 22.53387727 1.86956039 15.686598 0.0078125 8.42578125 C-0.3221875 15.35578125 -0.6521875 22.28578125 -0.9921875 29.42578125 C-2.9721875 29.42578125 -4.9521875 29.42578125 -6.9921875 29.42578125 C-7.01684631 25.45647136 -7.03502773 21.48719091 -7.04711914 17.51782227 C-7.05215807 16.16657739 -7.05898927 14.81533799 -7.06762695 13.46411133 C-7.07971169 11.52557691 -7.08488578 9.58700325 -7.08984375 7.6484375 C-7.09508057 6.48062744 -7.10031738 5.31281738 -7.10571289 4.10961914 C-6.89751752 -0.8122986 -4.39269817 0.23503367 0 0 Z " fill="#585858" transform="translate(17.9921875,178.57421875)"/>
<path d="M0 0 C1.98 0 3.96 0 6 0 C8.26616615 6.25461856 9.83795007 12.45150687 11 19 C12.90283903 13.63399393 14.4643452 8.33804529 15.5703125 2.75 C16 1 16 1 17 0 C19.33297433 -0.04092937 21.66705225 -0.04241723 24 0 C24.67055285 2.93666226 25.33659053 5.87422359 26 8.8125 C26.19078125 9.64587891 26.3815625 10.47925781 26.578125 11.33789062 C26.75859375 12.14033203 26.9390625 12.94277344 27.125 13.76953125 C27.29257813 14.50792236 27.46015625 15.24631348 27.6328125 16.00708008 C28 18 28 18 28 21 C28.66 21 29.32 21 30 21 C30.103125 19.7625 30.20625 18.525 30.3125 17.25 C30.95168106 11.35637468 32.46277997 5.71381786 34 0 C35.98 0 37.96 0 40 0 C38.53869493 9.90197767 35.76626489 19.40253901 33 29 C30.36 29 27.72 29 25 29 C22.89492926 23.06370051 21.26529772 17.16801524 20 11 C19.72285156 12.21558594 19.44570312 13.43117187 19.16015625 14.68359375 C18.79446102 16.26827307 18.42856525 17.85290612 18.0625 19.4375 C17.88009766 20.23994141 17.69769531 21.04238281 17.50976562 21.86914062 C16.11328125 27.88671875 16.11328125 27.88671875 15 29 C12.32941149 29.14115161 9.67567762 29.04247107 7 29 C5.82483331 24.919064 4.66134593 20.83488859 3.5 16.75 C3.16613281 15.59113281 2.83226562 14.43226563 2.48828125 13.23828125 C2.17246094 12.12324219 1.85664063 11.00820312 1.53125 9.859375 C1.23798828 8.83295898 0.94472656 7.80654297 0.64257812 6.74902344 C0 4 0 4 0 0 Z " fill="#5A5A5A" transform="translate(155,179)"/>
<path d="M0 0 C2.31 0.33 4.62 0.66 7 1 C7.33 0.67 7.66 0.34 8 0 C12.23314767 -0.23961213 15.36736489 -0.32488647 19 2 C19.66 1.34 20.32 0.68 21 0 C24.69332324 -0.41036925 27.04565116 -0.62386762 30.2109375 1.4453125 C32.88717825 5.26684405 32.43455743 8.70704777 32.25 13.25 C32.23195312 14.09046875 32.21390625 14.9309375 32.1953125 15.796875 C32.14830798 17.86507395 32.07656724 19.93268441 32 22 C30.02 22 28.04 22 26 22 C25.67 16.72 25.34 11.44 25 6 C23.35 6.33 21.7 6.66 20 7 C19.67 11.95 19.34 16.9 19 22 C17.02 22 15.04 22 13 22 C12.67 16.72 12.34 11.44 12 6 C10.35 6.33 8.7 6.66 7 7 C6.67 11.95 6.34 16.9 6 22 C4.02 22 2.04 22 0 22 C0 14.74 0 7.48 0 0 Z " fill="#5A5A5A" transform="translate(222,186)"/>
<path d="M0 0 C2.87029869 1.79393668 4.49131638 2.98263276 6 6 C6.64924988 10.51523778 7.20625942 15.06189416 4.71875 19.05859375 C1.71990046 21.90068524 -0.97414445 23.36458511 -5.125 23.625 C-9.34779795 22.94390356 -11.05334161 22.03595107 -14 19 C-16.11507285 14.76985431 -15.62260071 9.58405033 -15 5 C-11.9774124 -0.61832123 -5.70534894 -1.1662868 0 0 Z " fill="#5A5A5A" transform="translate(436,186)"/>
<path d="M0 0 C3.125 1.8125 3.125 1.8125 5 5 C5.76195469 9.98258606 5.66233459 14.37728025 3.75 19.0625 C0.62267396 22.52489669 -1.23577397 22.92721657 -5.9375 23.375 C-9.14787522 23.29713642 -10.06144477 22.96208727 -12.9375 21.1875 C-16.52989849 17.37738039 -16.32936818 13.43594119 -16.29296875 8.44921875 C-15.88206478 5.01406155 -14.52072694 3.29830986 -12 1 C-8.2616676 -0.8691662 -4.07139114 -0.53049523 0 0 Z " fill="#5A5A5A" transform="translate(212,186)"/>
<path d="M0 0 C3.49890004 2.11391877 4.70578686 3.11736059 6 7 C6.5074473 10.80585475 6.86096143 14.44834189 4.953125 17.88671875 C3.1804351 20.0400156 1.50869211 21.74565394 -1 23 C-8.08958838 23.5811138 -8.08958838 23.5811138 -11.9375 21.125 C-15.68164367 17.26739743 -15.32695621 13.89351787 -15.29296875 8.70703125 C-14.90428228 5.11556825 -13.68553733 3.36959176 -11 1 C-7.53984865 -0.73007568 -3.78327445 -0.4835273 0 0 Z " fill="#5A5A5A" transform="translate(111,186)"/>
<path d="M0 0 C3.0625 2 3.0625 2 5 5 C5.39435378 7.80717625 5.24217646 10.14231773 5 13 C0.38 13 -4.24 13 -9 13 C-8.34 14.32 -7.68 15.64 -7 17 C-3.37 17 0.26 17 4 17 C3.67 18.65 3.34 20.3 3 22 C-0.7314828 23.2438276 -4.13091732 23.6643142 -8 23 C-11.52680379 21.03982364 -13.70233114 18.89300657 -15 15 C-15.50149463 8.88176547 -15.06790897 5.90541964 -11 1 C-7.51069104 -0.74465448 -3.80713023 -0.56450552 0 0 Z " fill="#5D5D5D" transform="translate(273,186)"/>
<path d="M0 0 C4.56944444 2.13888889 4.56944444 2.13888889 6 5 C6.125 8.5625 6.125 8.5625 6 12 C5 13 5 13 2.05859375 13.09765625 C0.26615234 13.08025391 0.26615234 13.08025391 -1.5625 13.0625 C-3.35880859 13.04896484 -3.35880859 13.04896484 -5.19140625 13.03515625 C-6.11824219 13.02355469 -7.04507812 13.01195312 -8 13 C-7.34 14.32 -6.68 15.64 -6 17 C-2.37 17 1.26 17 5 17 C4.67 18.65 4.34 20.3 4 22 C0.2685172 23.2438276 -3.13091732 23.6643142 -7 23 C-10.52680379 21.03982364 -12.70233114 18.89300657 -14 15 C-14.34547151 9.64519163 -14.46362011 6.3615957 -11 2 C-7.29702456 -0.46865029 -4.29548969 -0.56100937 0 0 Z " fill="#5B5B5B" transform="translate(371,186)"/>
<path d="M0 0 C1.65 0 3.3 0 5 0 C5 0.66 5 1.32 5 2 C5.99 1.34 6.98 0.68 8 0 C11.7084697 -0.40456033 14.03410171 -0.63253516 17.20703125 1.4453125 C19.88866367 5.26620052 19.43464382 8.70492135 19.25 13.25 C19.23195313 14.09046875 19.21390625 14.9309375 19.1953125 15.796875 C19.14830798 17.86507395 19.07656724 19.93268441 19 22 C17.02 22 15.04 22 13 22 C12.67 16.72 12.34 11.44 12 6 C10.35 6.33 8.7 6.66 7 7 C6.67 11.95 6.34 16.9 6 22 C4.02 22 2.04 22 0 22 C0 14.74 0 7.48 0 0 Z " fill="#5B5B5B" transform="translate(382,186)"/>
<path d="M0 0 C1.65 0 3.3 0 5 0 C5 0.66 5 1.32 5 2 C5.99 1.34 6.98 0.68 8 0 C11.7084697 -0.40456033 14.03410171 -0.63253516 17.20703125 1.4453125 C19.88866367 5.26620052 19.43464382 8.70492135 19.25 13.25 C19.23195313 14.09046875 19.21390625 14.9309375 19.1953125 15.796875 C19.14830798 17.86507395 19.07656724 19.93268441 19 22 C17.02 22 15.04 22 13 22 C12.67 16.72 12.34 11.44 12 6 C7.36980013 6.4452998 7.36980013 6.4452998 6 8 C5.76472227 10.34987262 5.58613583 12.70556039 5.4375 15.0625 C5.35371094 16.35285156 5.26992188 17.64320313 5.18359375 18.97265625 C5.12300781 19.97167969 5.06242187 20.97070312 5 22 C3.35 22 1.7 22 0 22 C0 14.74 0 7.48 0 0 Z " fill="#585858" transform="translate(283,186)"/>
<path d="M0 0 C2.66666667 0 5.33333333 0 8 0 C9.7015625 -0.12375 9.7015625 -0.12375 11.4375 -0.25 C15 0 15 0 17.20703125 1.4375 C19.88512957 5.26502179 19.4348035 8.70099065 19.25 13.25 C19.23195312 14.09046875 19.21390625 14.9309375 19.1953125 15.796875 C19.14830798 17.86507395 19.07656724 19.93268441 19 22 C17.02 22 15.04 22 13 22 C12.67 16.72 12.34 11.44 12 6 C9.69 6.33 7.38 6.66 5 7 C5 11.95 5 16.9 5 22 C3.35 22 1.7 22 0 22 C0 14.74 0 7.48 0 0 Z " fill="#575757" transform="translate(122,186)"/>
<path d="M0 0 C1.98 0 3.96 0 6 0 C6 1.65 6 3.3 6 5 C7.65 5 9.3 5 11 5 C11 6.65 11 8.3 11 10 C9.35 10 7.7 10 6 10 C6.33 13.96 6.66 17.92 7 22 C8.32 22.33 9.64 22.66 11 23 C10.67 24.65 10.34 26.3 10 28 C3.60344828 28.36206897 3.60344828 28.36206897 1.28125 26.96875 C-0.69717729 23.92872758 -0.31481877 20.80886916 -0.1875 17.3125 C-0.16719727 16.2596582 -0.16719727 16.2596582 -0.14648438 15.18554688 C-0.11120182 13.45670171 -0.05739583 11.72825235 0 10 C-0.99 10 -1.98 10 -3 10 C-3 8.35 -3 6.7 -3 5 C-2.01 5 -1.02 5 0 5 C0 3.35 0 1.7 0 0 Z " fill="#5D5D5D" transform="translate(407,181)"/>
<path d="M0 0 C1.21236328 0.04060547 1.21236328 0.04060547 2.44921875 0.08203125 C3.06410156 0.11683594 3.67898438 0.15164062 4.3125 0.1875 C4.6425 1.8375 4.9725 3.4875 5.3125 5.1875 C3.0025 5.1875 0.6925 5.1875 -1.6875 5.1875 C-2.0175 6.1775 -2.3475 7.1675 -2.6875 8.1875 C-1.594375 8.455625 -0.50125 8.72375 0.625 9 C5.94789446 10.71415245 5.94789446 10.71415245 7.3125 13.1875 C7.3125 16.6875 7.3125 16.6875 6.3125 20.1875 C3.41470243 22.82960955 1.59808231 23.16288084 -2.3125 23.5 C-5.6875 23.1875 -5.6875 23.1875 -8.6875 21.1875 C-8.6875 19.8675 -8.6875 18.5475 -8.6875 17.1875 C-5.3875 17.5175 -2.0875 17.8475 1.3125 18.1875 C0.60245535 14.90893001 0.60245535 14.90893001 -2.625 13.625 C-3.635625 13.150625 -4.64625 12.67625 -5.6875 12.1875 C-7.6875 10.1875 -7.6875 10.1875 -8 6.75 C-7.6875 3.1875 -7.6875 3.1875 -6.4609375 1.4765625 C-4.16445154 -0.19268941 -2.80776158 -0.12207659 0 0 Z " fill="#5E5E5E" transform="translate(469.6875,185.8125)"/>
<path d="M0 0 C1.98 0 3.96 0 6 0 C6 10.23 6 20.46 6 31 C4.02 31 2.04 31 0 31 C0 20.77 0 10.54 0 0 Z " fill="#5C5C5C" transform="translate(74,177)"/>
<path d="M0 0 C3.63 0 7.26 0 11 0 C11.99 2.31 12.98 4.62 14 7 C14.33773438 6.4946875 14.67546875 5.989375 15.0234375 5.46875 C15.46945312 4.8190625 15.91546875 4.169375 16.375 3.5 C16.81585938 2.8503125 17.25671875 2.200625 17.7109375 1.53125 C18.13632812 1.0259375 18.56171875 0.520625 19 0 C19.66 0 20.32 0 21 0 C20.88601335 1.62580966 20.75844341 3.25067157 20.625 4.875 C20.55539062 5.77992188 20.48578125 6.68484375 20.4140625 7.6171875 C20 10 20 10 18 12 C18 9.69 18 7.38 18 5 C16.68 7.31 15.36 9.62 14 12 C13.34 12 12.68 12 12 12 C11.34 10.02 10.68 8.04 10 6 C9.34 7.98 8.68 9.96 8 12 C4.7 12 1.4 12 -2 12 C-1.34 8.04 -0.68 4.08 0 0 Z " fill="#E6E6E6" transform="translate(254,216)"/>
<path d="M0 0 C1.65 0 3.3 0 5 0 C5 10.23 5 20.46 5 31 C3.35 31 1.7 31 0 31 C0 20.77 0 10.54 0 0 Z " fill="#505050" transform="translate(63,177)"/>
<path d="M0 0 C2.97 0.495 2.97 0.495 6 1 C6.33 0.67 6.66 0.34 7 0 C8.66617115 -0.04063832 10.33388095 -0.042721 12 0 C12 1.65 12 3.3 12 5 C10.7934375 5.4640625 10.7934375 5.4640625 9.5625 5.9375 C7.10919595 6.76335345 7.10919595 6.76335345 6 8 C5.76472227 10.34987262 5.58613583 12.70556039 5.4375 15.0625 C5.35371094 16.35285156 5.26992188 17.64320313 5.18359375 18.97265625 C5.12300781 19.97167969 5.06242187 20.97070312 5 22 C3.35 22 1.7 22 0 22 C0 14.74 0 7.48 0 0 Z " fill="#555555" transform="translate(447,186)"/>
<path d="M0 0 C1.65 0 3.3 0 5 0 C5 7.26 5 14.52 5 22 C3.02 22 1.04 22 -1 22 C-1.02887814 18.52085059 -1.04675687 15.04173169 -1.0625 11.5625 C-1.07087891 10.56927734 -1.07925781 9.57605469 -1.08789062 8.55273438 C-1.09111328 7.60849609 -1.09433594 6.66425781 -1.09765625 5.69140625 C-1.10289307 4.81685791 -1.10812988 3.94230957 -1.11352539 3.04125977 C-1 1 -1 1 0 0 Z " fill="#5F5F5F" transform="translate(86,186)"/>
<path d="M0 0 C1.65 0 3.3 0 5 0 C5 7.26 5 14.52 5 22 C3.02 22 1.04 22 -1 22 C-1.02887814 18.52085059 -1.04675687 15.04173169 -1.0625 11.5625 C-1.07087891 10.56927734 -1.07925781 9.57605469 -1.08789062 8.55273438 C-1.09111328 7.60849609 -1.09433594 6.66425781 -1.09765625 5.69140625 C-1.10289307 4.81685791 -1.10812988 3.94230957 -1.11352539 3.04125977 C-1 1 -1 1 0 0 Z " fill="#5E5E5E" transform="translate(52,186)"/>
<path d="M0 0 C14.52 0 29.04 0 44 0 C44 7.59 44 15.18 44 23 C40.16380575 23.95904856 38.67568464 23.91892116 35 23 C34.505 24.485 34.505 24.485 34 26 C33.34 24.35 32.68 22.7 32 21 C35.63 21 39.26 21 43 21 C43 14.4 43 7.8 43 1 C29.14 1 15.28 1 1 1 C1 7.6 1 14.2 1 21 C0.67 21 0.34 21 0 21 C0 14.07 0 7.14 0 0 Z " fill="#FEE5F6" transform="translate(224,47)"/>
<path d="M0 0 C2.375 0.75 2.375 0.75 3.375 1.75 C3.4995486 3.39230364 3.55068524 5.04052276 3.5625 6.6875 C3.57667969 7.58339844 3.59085938 8.47929687 3.60546875 9.40234375 C3.375 11.75 3.375 11.75 1.375 13.75 C-1.125 14 -1.125 14 -3.625 13.75 C-6.03986943 11.33513057 -5.9211925 10.62292211 -5.9375 7.3125 C-5.95425781 6.53003906 -5.97101563 5.74757812 -5.98828125 4.94140625 C-5.36398327 1.17547974 -3.80884669 -0.3627473 0 0 Z " fill="#EBEBEB" transform="translate(207.625,190.25)"/>
<path d="M0 0 C3.0625 0.25 3.0625 0.25 6 1 C7.5635348 4.12706959 7.39958487 7.57982443 7 11 C6.01 12.485 6.01 12.485 5 14 C2.5 14.3125 2.5 14.3125 0 14 C-2 12 -2 12 -2.265625 9.6875 C-2.26046875 8.800625 -2.2553125 7.91375 -2.25 7 C-2.25515625 6.113125 -2.2603125 5.22625 -2.265625 4.3125 C-2 2 -2 2 0 0 Z " fill="#ECECEC" transform="translate(429,190)"/>
<path d="M0 0 C0.66 0 1.32 0 2 0 C2 0.66 2 1.32 2 2 C3.299375 1.979375 4.59875 1.95875 5.9375 1.9375 C7.29165633 1.91600546 8.64756083 1.92851801 10 2 C11 3 11 3 11.1875 5.9375 C11 9 11 9 9 11 C5.375 10.625 5.375 10.625 2 10 C2 10.66 2 11.32 2 12 C1.01 12 0.02 12 -1 12 C-1.33 8.7 -1.66 5.4 -2 2 C-1.34 2 -0.68 2 0 2 C0 1.34 0 0.68 0 0 Z " fill="#868686" transform="translate(437,217)"/>
<path d="M0 0 C3.0625 0.125 3.0625 0.125 5.0625 1.125 C5.11672947 2.5620809 5.15539723 3.99975462 5.1875 5.4375 C5.21070312 6.23800781 5.23390625 7.03851563 5.2578125 7.86328125 C5.0625 10.125 5.0625 10.125 3.0625 13.125 C0.5625 13.4375 0.5625 13.4375 -1.9375 13.125 C-3.9375 11.125 -3.9375 11.125 -4.16796875 8.77734375 C-4.15378906 7.88144531 -4.13960938 6.98554688 -4.125 6.0625 C-4.11855469 5.16402344 -4.11210938 4.26554688 -4.10546875 3.33984375 C-3.84759659 -0.06047059 -3.47724252 0.14796777 0 0 Z " fill="#EEEEEE" transform="translate(105.9375,190.875)"/>
<path d="M0 0 C1.03125 0.165 2.0625 0.33 3.125 0.5 C6.48244326 0.93321848 9.62336157 1.08235703 13 1 C13.125 3.875 13.125 3.875 13 7 C12.34 7.66 11.68 8.32 11 9 C11.33 6.69 11.66 4.38 12 2 C11.01 2.33 10.02 2.66 9 3 C7.77479736 6.00847418 7.77479736 6.00847418 7 9 C4.03 9 1.06 9 -2 9 C-2.6875 6.75 -2.6875 6.75 -3 4 C-1.5625 1.6875 -1.5625 1.6875 0 0 Z " fill="#AEAEAE" transform="translate(132,219)"/>
<path d="M0 0 C0.99 0.66 1.98 1.32 3 2 C3.40373601 5.16259871 3.54458662 7.14012639 1.8125 9.875 C-0.65507108 11.40659584 -2.14519831 11.42822025 -5 11 C-6.8125 9.8125 -6.8125 9.8125 -8 8 C-8.4334014 5.11065736 -8.42525784 3.64907776 -6.8125 1.1875 C-4.37235669 -0.41121458 -2.86722793 -0.35840349 0 0 Z " fill="#949494" transform="translate(487,186)"/>
<path d="M0 0 C2.34148732 0.27017161 4.67504723 0.61250787 7 1 C8.9996695 1.03635763 11.00059462 1.04876598 13 1 C13 3.31 13 5.62 13 8 C12.01 8.495 12.01 8.495 11 9 C11.33 6.69 11.66 4.38 12 2 C11.01 2.33 10.02 2.66 9 3 C7.77479736 6.00847418 7.77479736 6.00847418 7 9 C4.03 9 1.06 9 -2 9 C-2.125 5.625 -2.125 5.625 -2 2 C-1.34 1.34 -0.68 0.68 0 0 Z " fill="#AEAEAE" transform="translate(420,219)"/>
<path d="M0 0 C0.99 0.33 1.98 0.66 3 1 C5.00212229 0.67966043 7.00239695 0.34740923 9 0 C9.33 0.33 9.66 0.66 10 1 C9.82364548 3.69082872 9.38164079 6.32851446 9 9 C8.34 9 7.68 9 7 9 C6.67 8.01 6.34 7.02 6 6 C5.67 6.99 5.34 7.98 5 9 C2.69 9 0.38 9 -2 9 C-1.125 1.125 -1.125 1.125 0 0 Z " fill="#C3C3C3" transform="translate(220,219)"/>
<path d="M0 0 C0.99 0.33 1.98 0.66 3 1 C4.1875 4.0625 4.1875 4.0625 5 7 C5.33773438 6.4946875 5.67546875 5.989375 6.0234375 5.46875 C6.46945312 4.8190625 6.91546875 4.169375 7.375 3.5 C7.81585938 2.8503125 8.25671875 2.200625 8.7109375 1.53125 C9.13632812 1.0259375 9.56171875 0.520625 10 0 C10.66 0 11.32 0 12 0 C11.88601335 1.62580966 11.75844341 3.25067157 11.625 4.875 C11.55539062 5.77992188 11.48578125 6.68484375 11.4140625 7.6171875 C11 10 11 10 9 12 C9 9.69 9 7.38 9 5 C7.68 7.31 6.36 9.62 5 12 C4.34 12 3.68 12 3 12 C2.34 10.02 1.68 8.04 1 6 C0.34 7.98 -0.32 9.96 -1 12 C-1.33 12 -1.66 12 -2 12 C-1.85962479 10.18706911 -1.71255111 8.3746557 -1.5625 6.5625 C-1.48128906 5.55316406 -1.40007812 4.54382813 -1.31640625 3.50390625 C-1 1 -1 1 0 0 Z " fill="#838383" transform="translate(263,216)"/>
<path d="M0 0 C2.72869407 0.03287583 5.2966618 0.56397771 8 1 C7.125 7.875 7.125 7.875 6 9 C3.32941149 9.14115161 0.67567762 9.04247107 -2 9 C-2.125 5.625 -2.125 5.625 -2 2 C-1.34 1.34 -0.68 0.68 0 0 Z " fill="#B5B5B5" transform="translate(60,219)"/>
<path d="M0 0 C0.99 0 1.98 0 3 0 C3.33 2.31 3.66 4.62 4 7 C4.66 7 5.32 7 6 7 C6.37125 5.824375 6.37125 5.824375 6.75 4.625 C8 2 8 2 12 0 C11.67 3.63 11.34 7.26 11 11 C10.34 11 9.68 11 9 11 C9 9.02 9 7.04 9 5 C7.02 7.97 7.02 7.97 5 11 C4.34 10.67 3.68 10.34 3 10 C2.375 7.4375 2.375 7.4375 2 5 C1.34 6.98 0.68 8.96 0 11 C-0.66 11 -1.32 11 -2 11 C-1.34 7.37 -0.68 3.74 0 0 Z " fill="#818181" transform="translate(404,217)"/>
<path d="M0 0 C1.4540625 0.0309375 1.4540625 0.0309375 2.9375 0.0625 C2.62980293 1.87582154 2.31620936 3.68814345 2 5.5 C1.82597656 6.50933594 1.65195312 7.51867187 1.47265625 8.55859375 C0.9375 11.0625 0.9375 11.0625 -0.0625 12.0625 C-1.72867115 12.10313832 -3.39638095 12.105221 -5.0625 12.0625 C-5.0625 0.10331633 -5.0625 0.10331633 0 0 Z " fill="#B2B2B2" transform="translate(474.0625,218.9375)"/>
<path d="M0 0 C0.33 0 0.66 0 1 0 C1 2.64 1 5.28 1 8 C1.66 8 2.32 8 3 8 C3.268125 6.865625 3.53625 5.73125 3.8125 4.5625 C4.204375 3.386875 4.59625 2.21125 5 1 C5.99 0.67 6.98 0.34 8 0 C8.33 2.31 8.66 4.62 9 7 C10.32 4.69 11.64 2.38 13 0 C14 3 14 3 13.00390625 5.26171875 C12.52824219 6.06222656 12.05257812 6.86273438 11.5625 7.6875 C11.08941406 8.49574219 10.61632812 9.30398437 10.12890625 10.13671875 C9.57009766 11.05904297 9.57009766 11.05904297 9 12 C8.34 12 7.68 12 7 12 C6.67 10.35 6.34 8.7 6 7 C3.7763932 8.9254644 3.7763932 8.9254644 3 12 C2.01 12 1.02 12 0 12 C0 8.04 0 4.08 0 0 Z " fill="#7E7E7E" transform="translate(93,216)"/>
<path d="M0 0 C1.1446875 0.3403125 1.1446875 0.3403125 2.3125 0.6875 C2.19840407 2.14672693 2.07084456 3.60490598 1.9375 5.0625 C1.86789063 5.87460938 1.79828125 6.68671875 1.7265625 7.5234375 C1.3125 9.6875 1.3125 9.6875 -0.6875 11.6875 C-3.3125 11.8125 -3.3125 11.8125 -5.6875 11.6875 C-5.6875 11.0275 -5.6875 10.3675 -5.6875 9.6875 C-4.0375 9.6875 -2.3875 9.6875 -0.6875 9.6875 C-3.1625 8.6975 -3.1625 8.6975 -5.6875 7.6875 C-5.91482116 4.88387237 -6.02831872 3.22563483 -4.5 0.8125 C-2.6875 -0.3125 -2.6875 -0.3125 0 0 Z " fill="#808080" transform="translate(83.6875,219.3125)"/>
<path d="M0 0 C0.78761719 0.18820313 1.57523437 0.37640625 2.38671875 0.5703125 C2.07889379 2.21702662 1.76532641 3.86266826 1.44921875 5.5078125 C1.27519531 6.42433594 1.10117187 7.34085938 0.921875 8.28515625 C0.38671875 10.5703125 0.38671875 10.5703125 -0.61328125 11.5703125 C-2.2794524 11.61095082 -3.9471622 11.6130335 -5.61328125 11.5703125 C-5.61328125 10.9103125 -5.61328125 10.2503125 -5.61328125 9.5703125 C-3.96328125 9.5703125 -2.31328125 9.5703125 -0.61328125 9.5703125 C-3.08828125 8.5803125 -3.08828125 8.5803125 -5.61328125 7.5703125 C-5.84060241 4.76668487 -5.95409997 3.10844733 -4.42578125 0.6953125 C-2.61328125 -0.4296875 -2.61328125 -0.4296875 0 0 Z " fill="#808080" transform="translate(385.61328125,219.4296875)"/>
<path d="M0 0 C0.66 0 1.32 0 2 0 C1.85904936 1.6254308 1.71207913 3.25034051 1.5625 4.875 C1.48128906 5.77992188 1.40007813 6.68484375 1.31640625 7.6171875 C1 10 1 10 0 12 C-1.98 12 -3.96 12 -6 12 C-6.125 8.625 -6.125 8.625 -6 5 C-5.34 4.34 -4.68 3.68 -4 3 C-3.01 3 -2.02 3 -1 3 C-0.67 2.01 -0.34 1.02 0 0 Z " fill="#818181" transform="translate(29,216)"/>
<path d="M0 0 C0.66 0 1.32 0 2 0 C1.34 3.96 0.68 7.92 0 12 C-1.98 12 -3.96 12 -6 12 C-7 11 -7 11 -7.25 8.625 C-7 6 -7 6 -5.75 4.1875 C-4 3 -4 3 0 3 C0 2.01 0 1.02 0 0 Z " fill="#818181" transform="translate(176,216)"/>
<path d="M0 0 C6.93359375 -0.09765625 6.93359375 -0.09765625 9 0 C10 1 10 1 10.1875 3.9375 C10 7 10 7 8 9 C8 6.69 8 4.38 8 2 C5.64214682 2.89335797 5.64214682 2.89335797 4.875 6.0625 C4.58625 7.031875 4.2975 8.00125 4 9 C3.34 9 2.68 9 2 9 C1.67 8.34 1.34 7.68 1 7 C0.34 7.66 -0.32 8.32 -1 9 C-0.67 6.03 -0.34 3.06 0 0 Z " fill="#808080" transform="translate(457,219)"/>
<path d="M0 0 C-0.33 2.64 -0.66 5.28 -1 8 C-4.13349732 9.04449911 -4.98968256 8.93423645 -8 8 C-7.74438677 5.6568787 -7.40729228 3.32156597 -7 1 C-4.53721199 -0.231394 -2.7204945 -0.07159196 0 0 Z " fill="#989898" transform="translate(159,219)"/>
<path d="M0 0 C1.37478516 0.01740234 1.37478516 0.01740234 2.77734375 0.03515625 C3.69644531 0.04417969 4.61554688 0.05320313 5.5625 0.0625 C6.27277344 0.07410156 6.98304687 0.08570313 7.71484375 0.09765625 C8.69075958 3.48083112 8.5734103 5.66339005 7.71484375 9.09765625 C7.05484375 9.09765625 6.39484375 9.09765625 5.71484375 9.09765625 C6.04484375 6.78765625 6.37484375 4.47765625 6.71484375 2.09765625 C3.49079397 3.76720444 3.49079397 3.76720444 3.02734375 6.72265625 C2.92421875 7.50640625 2.82109375 8.29015625 2.71484375 9.09765625 C2.05484375 9.09765625 1.39484375 9.09765625 0.71484375 9.09765625 C1.04484375 6.78765625 1.37484375 4.47765625 1.71484375 2.09765625 C-0.64300943 2.99101422 -0.64300943 2.99101422 -1.41015625 6.16015625 C-1.69890625 7.12953125 -1.98765625 8.09890625 -2.28515625 9.09765625 C-2.94515625 9.09765625 -3.60515625 9.09765625 -4.28515625 9.09765625 C-3.28992724 0.14059518 -3.28992724 0.14059518 0 0 Z " fill="#888888" transform="translate(119.28515625,218.90234375)"/>
<path d="M0 0 C1.65 0.33 3.3 0.66 5 1 C4.125 7.875 4.125 7.875 3 9 C1.33382885 9.04063832 -0.33388095 9.042721 -2 9 C-2.6875 6.75 -2.6875 6.75 -3 4 C-1.5625 1.6875 -1.5625 1.6875 0 0 Z " fill="#868686" transform="translate(109,219)"/>
<path d="M0 0 C0.99 0.33 1.98 0.66 3 1 C3.33 4.63 3.66 8.26 4 12 C3.34 12 2.68 12 2 12 C2 11.01 2 10.02 2 9 C-0.47266765 9.34444881 -0.47266765 9.34444881 -3 10 C-3.33 10.66 -3.66 11.32 -4 12 C-4.66 12 -5.32 12 -6 12 C-4.43358249 7.69235185 -2.31663844 3.93828536 0 0 Z " fill="#7F7F7F" transform="translate(17,216)"/>
<path d="M0 0 C1.1446875 0.3403125 1.1446875 0.3403125 2.3125 0.6875 C1.9825 3.3275 1.6525 5.9675 1.3125 8.6875 C-0.68704746 8.73004356 -2.68791636 8.72830783 -4.6875 8.6875 C-5.6875 7.6875 -5.6875 7.6875 -5.9375 5.3125 C-5.6875 2.6875 -5.6875 2.6875 -4.5 0.8125 C-2.6875 -0.3125 -2.6875 -0.3125 0 0 Z " fill="#838383" transform="translate(294.6875,219.3125)"/>
<path d="M0 0 C0.598125 0.226875 1.19625 0.45375 1.8125 0.6875 C2.5 2.4375 2.5 2.4375 2.8125 4.6875 C1.375 6.9375 1.375 6.9375 -0.1875 8.6875 C-1.8375 8.3575 -3.4875 8.0275 -5.1875 7.6875 C-5.41803497 4.84423536 -5.54653101 3.22604651 -3.9375 0.8125 C-2.1875 -0.3125 -2.1875 -0.3125 0 0 Z " fill="#818181" transform="translate(367.1875,219.3125)"/>
<path d="M0 0 C2.625 0.375 2.625 0.375 5 1 C4.67 3.64 4.34 6.28 4 9 C2.02 9 0.04 9 -2 9 C-2.125 5.625 -2.125 5.625 -2 2 C-1.34 1.34 -0.68 0.68 0 0 Z " fill="#7D7D7D" transform="translate(42,219)"/>
<path d="M0 0 C0.66 0 1.32 0 2 0 C2 0.66 2 1.32 2 2 C2.99 2.33 3.98 2.66 5 3 C4.67 5.31 4.34 7.62 4 10 C3.34 10 2.68 10 2 10 C2 10.66 2 11.32 2 12 C1.01 12 0.02 12 -1 12 C-1.33 8.7 -1.66 5.4 -2 2 C-1.34 2 -0.68 2 0 2 C0 1.34 0 0.68 0 0 Z " fill="#DDDDDD" transform="translate(437,217)"/>
<path d="M0 0 C0.33 0 0.66 0 1 0 C1 6.93 1 13.86 1 21 C-2.83619425 21.95904856 -4.32431536 21.91892116 -8 21 C-8.33 21.99 -8.66 22.98 -9 24 C-9.66 22.35 -10.32 20.7 -11 19 C-7.37 19 -3.74 19 0 19 C0 12.73 0 6.46 0 0 Z " fill="#F4CAE3" transform="translate(267,49)"/>
<path d="M0 0 C1.36125 0.37125 1.36125 0.37125 2.75 0.75 C2.75 1.41 2.75 2.07 2.75 2.75 C1.80125 2.70875 0.8525 2.6675 -0.125 2.625 C-3.35244856 2.40026182 -3.35244856 2.40026182 -5.25 4.75 C-5.25 6.07 -5.25 7.39 -5.25 8.75 C-3.6 9.08 -1.95 9.41 -0.25 9.75 C-0.25 8.76 -0.25 7.77 -0.25 6.75 C-0.91 6.42 -1.57 6.09 -2.25 5.75 C-1.26 5.75 -0.27 5.75 0.75 5.75 C0.792721 7.41611905 0.79063832 9.08382885 0.75 10.75 C-0.25 11.75 -0.25 11.75 -3.25 11.875 C-6.25 11.75 -6.25 11.75 -7.25 10.75 C-7.61631133 6.86709989 -7.78289959 4.56984552 -5.625 1.25 C-3.25 -0.25 -3.25 -0.25 0 0 Z " fill="#797979" transform="translate(190.25,216.25)"/>
<path d="M0 0 C1.65 0.33 3.3 0.66 5 1 C4.67 2.32 4.34 3.64 4 5 C2.35 5 0.7 5 -1 5 C-1 5.66 -1 6.32 -1 7 C0.32 7 1.64 7 3 7 C3 7.66 3 8.32 3 9 C1.35 9 -0.3 9 -2 9 C-2.6875 6.75 -2.6875 6.75 -3 4 C-1.5625 1.6875 -1.5625 1.6875 0 0 Z " fill="#888888" transform="translate(307,219)"/>
<path d="M0 0 C1.65 0.33 3.3 0.66 5 1 C5 1.99 5 2.98 5 4 C3.02 4.33 1.04 4.66 -1 5 C-1 5.66 -1 6.32 -1 7 C0.32 7 1.64 7 3 7 C3 7.66 3 8.32 3 9 C1.35 9 -0.3 9 -2 9 C-2.6875 6.75 -2.6875 6.75 -3 4 C-1.5625 1.6875 -1.5625 1.6875 0 0 Z " fill="#959595" transform="translate(132,219)"/>
<path d="M0 0 C0.66 0 1.32 0 2 0 C2 0.99 2 1.98 2 3 C3.32 3.33 4.64 3.66 6 4 C5.67 6.64 5.34 9.28 5 12 C4.34 12 3.68 12 3 12 C3.33 9.69 3.66 7.38 4 5 C0.77595022 6.66954819 0.77595022 6.66954819 0.3125 9.625 C0.209375 10.40875 0.10625 11.1925 0 12 C-0.66 12 -1.32 12 -2 12 C-1.34 8.04 -0.68 4.08 0 0 Z " fill="#7F7F7F" transform="translate(391,216)"/>
<path d="M0 0 C0.66 0 1.32 0 2 0 C1.85904936 1.6254308 1.71207913 3.25034051 1.5625 4.875 C1.48128906 5.77992188 1.40007812 6.68484375 1.31640625 7.6171875 C1 10 1 10 0 12 C-0.66 12 -1.32 12 -2 12 C-1.67 9.69 -1.34 7.38 -1 5 C-1.99 5.33 -2.98 5.66 -4 6 C-5.21869929 8.50447516 -5.21869929 8.50447516 -6 11 C-6.33 11 -6.66 11 -7 11 C-6.67 8.36 -6.34 5.72 -6 3 C-4.02 3 -2.04 3 0 3 C0 2.01 0 1.02 0 0 Z " fill="#8D8D8D" transform="translate(205,216)"/>
<path d="M0 0 C1.98 0 3.96 0 6 0 C6 0.66 6 1.32 6 2 C4.35 2 2.7 2 1 2 C1 2.99 1 3.98 1 5 C2.32 5 3.64 5 5 5 C5 5.66 5 6.32 5 7 C3.68 7 2.36 7 1 7 C0.67 8.32 0.34 9.64 0 11 C1.32 11.33 2.64 11.66 4 12 C2.02 12 0.04 12 -2 12 C-1.34 8.04 -0.68 4.08 0 0 Z " fill="#838383" transform="translate(254,216)"/>
<path d="M0 0 C0.33 0.99 0.66 1.98 1 3 C2.32 3 3.64 3 5 3 C5 5.64 5 8.28 5 11 C4.01 11.495 4.01 11.495 3 12 C3.33 9.69 3.66 7.38 4 5 C3.01 5.33 2.02 5.66 1 6 C-0.22520264 9.00847418 -0.22520264 9.00847418 -1 12 C-1.33 12 -1.66 12 -2 12 C-1.85962479 10.18706911 -1.71255111 8.3746557 -1.5625 6.5625 C-1.48128906 5.55316406 -1.40007812 4.54382813 -1.31640625 3.50390625 C-1 1 -1 1 0 0 Z " fill="#828282" transform="translate(349,216)"/>
<path d="M0 0 C2.625 0.375 2.625 0.375 5 1 C4.67 2.32 4.34 3.64 4 5 C2.35 5 0.7 5 -1 5 C-0.04134491 7.33075929 -0.04134491 7.33075929 3 9 C1.35 9 -0.3 9 -2 9 C-2.125 5.625 -2.125 5.625 -2 2 C-1.34 1.34 -0.68 0.68 0 0 Z " fill="#909090" transform="translate(420,219)"/>
<path d="M0 0 C2.0625 0.4375 2.0625 0.4375 4 1 C2.68 1.33 1.36 1.66 0 2 C0.495 2.7425 0.99 3.485 1.5 4.25 C3 7 3 7 3 11 C1.02 11.33 -0.96 11.66 -3 12 C-3.33 11.34 -3.66 10.68 -4 10 C-2.35 10 -0.7 10 1 10 C1 9.01 1 8.02 1 7 C0.01 6.67 -0.98 6.34 -2 6 C-1.125 1.125 -1.125 1.125 0 0 Z " fill="#838383" transform="translate(239,216)"/>
<path d="M0 0 C1.67542976 0.28604898 3.34385343 0.61781233 5 1 C4.67 2.32 4.34 3.64 4 5 C2.35 5 0.7 5 -1 5 C-0.04134491 7.33075929 -0.04134491 7.33075929 3 9 C1.35 8.67 -0.3 8.34 -2 8 C-1.125 1.125 -1.125 1.125 0 0 Z " fill="#8D8D8D" transform="translate(315,219)"/>
<path d="M0 0 C1.2065625 0.0309375 1.2065625 0.0309375 2.4375 0.0625 C2.7675 1.7125 3.0975 3.3625 3.4375 5.0625 C0.7975 5.0625 -1.8425 5.0625 -4.5625 5.0625 C-3.43829114 0.08386076 -3.43829114 0.08386076 0 0 Z " fill="#E3E3E3" transform="translate(367.5625,189.9375)"/>
<path d="M0 0 C1.2065625 0.0309375 1.2065625 0.0309375 2.4375 0.0625 C2.7675 1.7125 3.0975 3.3625 3.4375 5.0625 C0.7975 5.0625 -1.8425 5.0625 -4.5625 5.0625 C-3.43829114 0.08386076 -3.43829114 0.08386076 0 0 Z " fill="#E4E4E4" transform="translate(268.5625,189.9375)"/>
<path d="M0 0 C0.33 0 0.66 0 1 0 C1 1.65 1 3.3 1 5 C2.32 4.67 3.64 4.34 5 4 C5.042721 5.66611905 5.04063832 7.33382885 5 9 C4 10 4 10 1.4375 10.0625 C0.633125 10.041875 -0.17125 10.02125 -1 10 C-1 8.68 -1 7.36 -1 6 C-1.020625 5.113125 -1.04125 4.22625 -1.0625 3.3125 C-1 1 -1 1 0 0 Z " fill="#848484" transform="translate(470,221)"/>
<path d="M0 0 C0.66 0 1.32 0 2 0 C1.67 2.64 1.34 5.28 1 8 C-2.13349732 9.04449911 -2.98968256 8.93423645 -6 8 C-5.67 5.69 -5.34 3.38 -5 1 C-4.34 1 -3.68 1 -3 1 C-3.33 2.98 -3.66 4.96 -4 7 C-3.01 7 -2.02 7 -1 7 C-0.67 4.69 -0.34 2.38 0 0 Z " fill="#858585" transform="translate(377,219)"/>
<path d="M0 0 C1.2065625 0.0309375 1.2065625 0.0309375 2.4375 0.0625 C2.4375 3.0325 2.4375 6.0025 2.4375 9.0625 C1.7775 9.0625 1.1175 9.0625 0.4375 9.0625 C0.7675 6.7525 1.0975 4.4425 1.4375 2.0625 C-1.78654978 3.73204819 -1.78654978 3.73204819 -2.25 6.6875 C-2.353125 7.47125 -2.45625 8.255 -2.5625 9.0625 C-3.2225 9.0625 -3.8825 9.0625 -4.5625 9.0625 C-3.56521739 0.08695652 -3.56521739 0.08695652 0 0 Z " fill="#888888" transform="translate(73.5625,218.9375)"/>
<path d="M0 0 C2.97 0 5.94 0 9 0 C9 0.66 9 1.32 9 2 C7.68 2 6.36 2 5 2 C4.95101562 2.63808594 4.90203125 3.27617187 4.8515625 3.93359375 C4.77679688 4.75988281 4.70203125 5.58617187 4.625 6.4375 C4.55539063 7.26121094 4.48578125 8.08492187 4.4140625 8.93359375 C4.27742187 9.61550781 4.14078125 10.29742187 4 11 C3.01 11.495 3.01 11.495 2 12 C2.33 8.7 2.66 5.4 3 2 C2.01 2 1.02 2 0 2 C0 1.34 0 0.68 0 0 Z " fill="#858585" transform="translate(244,216)"/>
<path d="M0 0 C1.2065625 0.0309375 1.2065625 0.0309375 2.4375 0.0625 C2.4375 2.0425 2.4375 4.0225 2.4375 6.0625 C0.4575 6.0625 -1.5225 6.0625 -3.5625 6.0625 C-3.605221 4.39638095 -3.60313832 2.72867115 -3.5625 1.0625 C-2.5625 0.0625 -2.5625 0.0625 0 0 Z " fill="#626262" transform="translate(88.5625,176.9375)"/>
<path d="M0 0 C2.64 0 5.28 0 8 0 C8 0.66 8 1.32 8 2 C6.68 2 5.36 2 4 2 C4.020625 3.093125 4.04125 4.18625 4.0625 5.3125 C4 9 4 9 3 12 C2.34 12 1.68 12 1 12 C1.66 8.7 2.32 5.4 3 2 C2.01 2 1.02 2 0 2 C0 1.34 0 0.68 0 0 Z " fill="#818181" transform="translate(339,216)"/>
<path d="M0 0 C1.67542976 0.28604898 3.34385343 0.61781233 5 1 C5 2.65 5 4.3 5 6 C3.02 6 1.04 6 -1 6 C-1.042721 4.33388095 -1.04063832 2.66617115 -1 1 C-0.67 0.67 -0.34 0.34 0 0 Z " fill="#5F5F5F" transform="translate(52,177)"/>
<path d="M0 0 C1.66611905 -0.042721 3.33382885 -0.04063832 5 0 C5.33 0.33 5.66 0.66 6 1 C5.82364548 3.69082872 5.38164079 6.32851446 5 9 C4.67 9 4.34 9 4 9 C4 6.69 4 4.38 4 2 C1.64214682 2.89335797 1.64214682 2.89335797 0.875 6.0625 C0.58625 7.031875 0.2975 8.00125 0 9 C-0.33 9 -0.66 9 -1 9 C-0.67 6.03 -0.34 3.06 0 0 Z " fill="#828282" transform="translate(50,219)"/>
<path d="M0 0 C0.66 0 1.32 0 2 0 C0.55613874 7.21930632 -1.57788174 14.05110733 -4 21 C-5.24039732 17.45362915 -4.73996328 15.18641603 -3.6875 11.625 C-3.40648437 10.66207031 -3.12546875 9.69914062 -2.8359375 8.70703125 C-1.93467905 5.78847 -1.01260598 2.8820324 0 0 Z " fill="#FCE1F3" transform="translate(291,69)"/>
<path d="M0 0 C1.32 0 2.64 0 4 0 C4 0.66 4 1.32 4 2 C3.01 2 2.02 2 1 2 C1 2.66 1 3.32 1 4 C1.99 4.33 2.98 4.66 4 5 C3.67 6.32 3.34 7.64 3 9 C1.35 9 -0.3 9 -2 9 C-2 8.34 -2 7.68 -2 7 C-1.01 6.67 -0.02 6.34 1 6 C0.34 5.34 -0.32 4.68 -1 4 C-0.625 1.875 -0.625 1.875 0 0 Z " fill="#8E8E8E" transform="translate(209,219)"/>
<path d="M0 0 C0 2.97 0 5.94 0 9 C-0.66 9 -1.32 9 -2 9 C-1.67 6.69 -1.34 4.38 -1 2 C-4.32901247 4.21934164 -4.75023244 5.34683329 -6 9 C-6.96516243 5.99727245 -7.22393475 3.95784231 -6 1 C-3 0 -3 0 0 0 Z " fill="#818181" transform="translate(167,219)"/>
<path d="M0 0 C1.94723595 2.92085393 2.55175352 4.59332678 3 8 C2.67 8.33 2.34 8.66 2 9 C1.76346477 11.52596259 1.57826308 14.03107207 1.4375 16.5625 C1.39431641 17.27341797 1.35113281 17.98433594 1.30664062 18.71679688 C1.20028223 20.47761912 1.09961154 22.2387832 1 24 C0.67 24 0.34 24 0 24 C0 16.08 0 8.16 0 0 Z " fill="#DBDBDB" transform="translate(324,184)"/>
<path d="M0 0 C1.98 0.495 1.98 0.495 4 1 C3.67 3.64 3.34 6.28 3 9 C2.34 8.34 1.68 7.68 1 7 C0.34 7.66 -0.32 8.32 -1 9 C-0.67 6.03 -0.34 3.06 0 0 Z " fill="#B5B5B5" transform="translate(457,219)"/>
<path d="M0 0 C2.64 0 5.28 0 8 0 C7.67 0.99 7.34 1.98 7 3 C6.67 2.67 6.34 2.34 6 2 C6 2.99 6 3.98 6 5 C4.35 5 2.7 5 1 5 C0.67 3.35 0.34 1.7 0 0 Z " fill="#D8D8D8" transform="translate(184,221)"/>
<path d="M0 0 C-0.33 2.64 -0.66 5.28 -1 8 C-1.33 8 -1.66 8 -2 8 C-2 5.69 -2 3.38 -2 1 C-4.0245738 2.93254772 -5.42105792 4.63158688 -7 7 C-6.67 4.69 -6.34 2.38 -6 0 C-3 -1 -3 -1 0 0 Z " fill="#797979" transform="translate(230,220)"/>
<path d="M0 0 C1.32 0 2.64 0 4 0 C4 0.66 4 1.32 4 2 C3.01 2 2.02 2 1 2 C1 2.66 1 3.32 1 4 C1.66 4 2.32 4 3 4 C2.67 5.65 2.34 7.3 2 9 C0.68 9 -0.64 9 -2 9 C-1 7 -1 7 1 6 C0.34 5.34 -0.32 4.68 -1 4 C-0.625 1.875 -0.625 1.875 0 0 Z " fill="#878787" transform="translate(329,219)"/>
<path d="M0 0 C0.99 0.495 0.99 0.495 2 1 C2.33 1.99 2.66 2.98 3 4 C3.66 2.68 4.32 1.36 5 0 C5.66 0.33 6.32 0.66 7 1 C5.6875 3.9375 5.6875 3.9375 4 7 C3.01 7.33 2.02 7.66 1 8 C0.67 5.36 0.34 2.72 0 0 Z " fill="#7C7C7C" transform="translate(32,220)"/>
<path d="M0 0 C0.99 0.33 1.98 0.66 3 1 C3.625 2.9375 3.625 2.9375 4 5 C4.33 5.66 4.66 6.32 5 7 C3.68 7 2.36 7 1 7 C1 7.66 1 8.32 1 9 C0.34 9 -0.32 9 -1 9 C-0.67 6.03 -0.34 3.06 0 0 Z " fill="#E8E8E8" transform="translate(206,219)"/>
<path d="M0 0 C0.66 0 1.32 0 2 0 C2.33 1.32 2.66 2.64 3 4 C2.34 4 1.68 4 1 4 C1 6.31 1 8.62 1 11 C0.34 11 -0.32 11 -1 11 C-1.33 8.03 -1.66 5.06 -2 2 C-1.34 2 -0.68 2 0 2 C0 1.34 0 0.68 0 0 Z " fill="#848484" transform="translate(437,217)"/>
<path d="M0 0 C1.32 0 2.64 0 4 0 C4 0.66 4 1.32 4 2 C3.01 2.66 2.02 3.32 1 4 C0.27034634 6.56282742 0.27034634 6.56282742 0 9 C-0.66 9 -1.32 9 -2 9 C-1.125 1.125 -1.125 1.125 0 0 Z " fill="#8A8A8A" transform="translate(300,219)"/>
<path d="M0 0 C0.66 0 1.32 0 2 0 C2 2.31 2 4.62 2 7 C-1.13349732 8.04449911 -1.98968256 7.93423645 -5 7 C-4.67 6.01 -4.34 5.02 -4 4 C-4 4.66 -4 5.32 -4 6 C-2.68 6 -1.36 6 0 6 C0 4.02 0 2.04 0 0 Z " fill="#747474" transform="translate(156,220)"/>
<path d="M0 0 C2.475 0.99 2.475 0.99 5 2 C4.67 4.64 4.34 7.28 4 10 C3.34 10 2.68 10 2 10 C2 7.69 2 5.38 2 3 C1.34 2.67 0.68 2.34 0 2 C0 1.34 0 0.68 0 0 Z " fill="#909090" transform="translate(392,218)"/>
<path d="M0 0 C1.32 0.33 2.64 0.66 4 1 C3.67 3.64 3.34 6.28 3 9 C2.01 9 1.02 9 0 9 C0 6.03 0 3.06 0 0 Z " fill="#DADADA" transform="translate(46,219)"/>
<path d="M0 0 C0 1.65 0 3.3 0 5 C-0.99 5.33 -1.98 5.66 -3 6 C-3 5.34 -3 4.68 -3 4 C-4.32 4 -5.64 4 -7 4 C-7 3.34 -7 2.68 -7 2 C-1.125 0 -1.125 0 0 0 Z " fill="#E7E7E7" transform="translate(313,222)"/>
<path d="M0 0 C0 0.66 0 1.32 0 2 C-0.99 2 -1.98 2 -3 2 C-3.66 4.31 -4.32 6.62 -5 9 C-5.33 9 -5.66 9 -6 9 C-6.125 3.25 -6.125 3.25 -5 1 C-2 0 -2 0 0 0 Z " fill="#868686" transform="translate(362,219)"/>
<path d="M0 0 C0 0.66 0 1.32 0 2 C-0.99 2.66 -1.98 3.32 -3 4 C-3.72965366 6.56282742 -3.72965366 6.56282742 -4 9 C-4.66 9 -5.32 9 -6 9 C-5.67 6.36 -5.34 3.72 -5 1 C-2 0 -2 0 0 0 Z " fill="#838383" transform="translate(327,219)"/>
<path d="M0 0 C2.475 0.495 2.475 0.495 5 1 C4.67 2.32 4.34 3.64 4 5 C2.68 4.67 1.36 4.34 0 4 C0 2.68 0 1.36 0 0 Z " fill="#A8A8A8" transform="translate(307,219)"/>
<path d="M0 0 C1.65 0 3.3 0 5 0 C5 1.65 5 3.3 5 5 C3.35 5 1.7 5 0 5 C0 3.35 0 1.7 0 0 Z " fill="#6D6D6D" transform="translate(482,189)"/>
<path d="M0 0 C0.99 0 1.98 0 3 0 C3 1.65 3 3.3 3 5 C1.68 5 0.36 5 -1 5 C-0.67 3.35 -0.34 1.7 0 0 Z " fill="#E8E8E8" transform="translate(109,221)"/>
<path d="M0 0 C0.33 0 0.66 0 1 0 C0.67 2.31 0.34 4.62 0 7 C-1.32 7 -2.64 7 -4 7 C-2.92598892 4.08482708 -2.22189824 2.22189824 0 0 Z " fill="#B4B4B4" transform="translate(19,217)"/>
<path d="M0 0 C0.99 0 1.98 0 3 0 C2.67 1.65 2.34 3.3 2 5 C1.01 5 0.02 5 -1 5 C-0.67 3.35 -0.34 1.7 0 0 Z " fill="#E2E2E2" transform="translate(383,221)"/>
<path d="M0 0 C0.99 0 1.98 0 3 0 C3 1.65 3 3.3 3 5 C1.68 5 0.36 5 -1 5 C-0.67 3.35 -0.34 1.7 0 0 Z " fill="#E7E7E7" transform="translate(443,221)"/>
<path d="M0 0 C0.99 0 1.98 0 3 0 C2.67 1.65 2.34 3.3 2 5 C1.01 5 0.02 5 -1 5 C-0.67 3.35 -0.34 1.7 0 0 Z " fill="#ECECEC" transform="translate(365,221)"/>
<path d="M0 0 C0.99 0 1.98 0 3 0 C2.67 2.31 2.34 4.62 2 7 C1.01 6.34 0.02 5.68 -1 5 C-0.67 3.35 -0.34 1.7 0 0 Z " fill="#DEDEDE" transform="translate(141,221)"/>
<path d="M0 0 C1.3921875 0.3403125 1.3921875 0.3403125 2.8125 0.6875 C2.8125 1.3475 2.8125 2.0075 2.8125 2.6875 C-0.1875 2.6875 -3.1875 2.6875 -6.1875 2.6875 C-4.14987265 -0.14253799 -3.59070275 -0.35202968 0 0 Z " fill="#949494" transform="translate(190.1875,216.3125)"/>
<path d="M0 0 C0.99 0.33 1.98 0.66 3 1 C2.625 3.9375 2.625 3.9375 2 7 C1.01 7.495 1.01 7.495 0 8 C0 5.36 0 2.72 0 0 Z " fill="#E0E0E0" transform="translate(296,219)"/>
<path d="M0 0 C0.99 0 1.98 0 3 0 C2.67 1.65 2.34 3.3 2 5 C1.01 5 0.02 5 -1 5 C-0.67 3.35 -0.34 1.7 0 0 Z " fill="#E6E6E6" transform="translate(292,221)"/>
<path d="M0 0 C0.99 0 1.98 0 3 0 C2.67 1.65 2.34 3.3 2 5 C1.01 5 0.02 5 -1 5 C-0.67 3.35 -0.34 1.7 0 0 Z " fill="#E6E6E6" transform="translate(172,221)"/>
<path d="M0 0 C0.99 0 1.98 0 3 0 C2.67 1.65 2.34 3.3 2 5 C1.01 5 0.02 5 -1 5 C-0.67 3.35 -0.34 1.7 0 0 Z " fill="#E4E4E4" transform="translate(154,221)"/>
<path d="M0 0 C0.99 0 1.98 0 3 0 C2.67 1.65 2.34 3.3 2 5 C1.01 5 0.02 5 -1 5 C-0.67 3.35 -0.34 1.7 0 0 Z " fill="#E7E7E7" transform="translate(81,221)"/>
<path d="M0 0 C0.99 0 1.98 0 3 0 C2.67 1.65 2.34 3.3 2 5 C1.01 5 0.02 5 -1 5 C-0.67 3.35 -0.34 1.7 0 0 Z " fill="#E5E5E5" transform="translate(42,221)"/>
<path d="M0 0 C0.99 0 1.98 0 3 0 C2.67 1.65 2.34 3.3 2 5 C1.01 5 0.02 5 -1 5 C-0.67 3.35 -0.34 1.7 0 0 Z " fill="#E7E7E7" transform="translate(25,221)"/>
</svg>
