<?xml version="1.0" encoding="UTF-8"?>
<svg version="1.1" xmlns="http://www.w3.org/2000/svg" width="479" height="105">
<path d="M0 0 C158.07 0 316.14 0 479 0 C479 34.65 479 69.3 479 105 C320.93 105 162.86 105 0 105 C0 70.35 0 35.7 0 0 Z " fill="#FDFDFE" transform="translate(0,0)"/>
<path d="M0 0 C30.91709941 -0.08032734 30.91709941 -0.08032734 46.20284081 -0.10050774 C54.46549151 -0.11158486 62.72810177 -0.12564197 70.99072266 -0.15087891 C77.53320628 -0.17085236 84.07565938 -0.18372581 90.61817265 -0.18817699 C94.08037663 -0.19077769 97.54249328 -0.1968634 101.00466919 -0.21146011 C104.87552492 -0.22764652 108.74629625 -0.22797715 112.6171875 -0.22705078 C113.75726761 -0.23424133 114.89734772 -0.24143188 116.07197571 -0.24884033 C127.08649472 -0.22034627 137.92348995 1.92348995 146 10 C153.22345318 20.61000979 156.58798796 31.04143144 154.5390625 43.890625 C152.26583356 54.32073425 148.12507828 62.38959044 139.2578125 68.59375 C130.91337408 73.79097808 121.65804752 74.29784454 112 73 C105.96037241 71.11167971 101.93657384 67.94925907 97 64 C97 77.53 97 91.06 97 105 C64.99 105 32.98 105 0 105 C0 70.35 0 35.7 0 0 Z " fill="#036DA7" transform="translate(0,0)"/>
<path d="M0 0 C6.12812857 5.61081901 10.63012265 13.64894951 11.265625 21.9921875 C11.64748595 33.48926245 10.15806633 42.61193593 2.6796875 51.83984375 C-0.81195589 55.47477272 -4.50589761 58.15138631 -9.0078125 60.40234375 C-9.6265625 60.72203125 -10.2453125 61.04171875 -10.8828125 61.37109375 C-20.00681868 65.22028386 -32.7672544 64.88400381 -42.0703125 61.83984375 C-52.47643989 57.27519278 -59.57101629 49.81990399 -63.8828125 39.33984375 C-66.47836765 30.48076328 -66.4757591 19.08290613 -62.45703125 10.70703125 C-56.59499389 1.38465378 -48.40360946 -6.15329554 -37.5703125 -8.97265625 C-23.43694419 -11.41115994 -11.2452419 -8.94806213 0 0 Z " fill="#046DA7" transform="translate(227.0078125,9.59765625)"/>
<path d="M0 0 C11.22 0 22.44 0 34 0 C32.02 0.99 32.02 0.99 30 2 C24.49614117 4.9669239 21.15369658 7.57564188 18 13 C17.67 13 17.34 13 17 13 C17 9.37 17 5.74 17 2 C11.72 2 6.44 2 1 2 C1 24.77 1 47.54 1 71 C6.61 71 12.22 71 18 71 C17.97905273 69.76958984 17.95810547 68.53917969 17.93652344 67.27148438 C17.86378401 62.6794817 17.81807729 58.08752935 17.78027344 53.49511719 C17.76023503 51.51260801 17.73299647 49.53015737 17.69824219 47.54785156 C17.64938046 44.68800359 17.62695327 41.82894119 17.609375 38.96875 C17.58872986 38.09134155 17.56808472 37.21393311 17.54681396 36.30993652 C17.54468456 30.38764926 18.64561958 25.94195962 22 21 C26.59558031 16.62859434 30.52473071 15.58798597 36.7109375 15.6484375 C40.66045068 16.25501802 42.30201195 18.10459819 45 21 C47.11780399 24.33781861 47.262757 27.06517187 47.30859375 30.98046875 C47.33373047 32.14513672 47.35886719 33.30980469 47.38476562 34.50976562 C47.41964111 36.94200801 47.45095002 39.37430441 47.47851562 41.80664062 C47.69759489 51.51559259 48.66057826 59.29918269 55.453125 66.5625 C62.60691885 73.21047005 69.06706768 72 79 72 C79 82.89 79 93.78 79 105 C52.93 105 26.86 105 0 105 C0 70.35 0 35.7 0 0 Z " fill="#FEFEFE" transform="translate(0,0)"/>
<path d="M0 0 C6.27 0 12.54 0 19 0 C22.72849172 8.77803412 25.46680015 17.7496713 28.1875 26.875 C28.6421853 28.38553497 29.0972608 29.89595254 29.55273438 31.40625 C33.10628175 43.22360813 33.10628175 43.22360813 34 47 C38.35527521 34.41073943 42.29758176 21.77536257 45.77758789 8.91430664 C46.05465576 7.8958667 46.33172363 6.87742676 46.6171875 5.828125 C46.86065918 4.9196582 47.10413086 4.01119141 47.35498047 3.07519531 C48 1 48 1 49 0 C50.41570123 -0.08651611 51.835595 -0.10704904 53.25390625 -0.09765625 C54.53491211 -0.09282227 54.53491211 -0.09282227 55.84179688 -0.08789062 C56.73962891 -0.07951172 57.63746094 -0.07113281 58.5625 -0.0625 C59.46419922 -0.05798828 60.36589844 -0.05347656 61.29492188 -0.04882812 C63.53001314 -0.03700225 65.76497437 -0.0205222 68 0 C71.01926227 8.99363119 74.02024766 17.99319847 77 27 C77.30260742 27.91362305 77.60521484 28.82724609 77.91699219 29.76855469 C78.64120435 31.96791487 79.35480233 34.17028065 80.0625 36.375 C80.44535156 37.55835938 80.82820313 38.74171875 81.22265625 39.9609375 C81.94764916 42.79533189 82.16873439 45.09341405 82 48 C82.66 48 83.32 48 84 48 C84.10521973 47.4021167 84.21043945 46.8042334 84.31884766 46.18823242 C85.52842836 39.70510593 87.29626487 33.56483255 89.375 27.3125 C91.93735069 19.46238924 94.26464444 11.61443932 96.2734375 3.60546875 C97 1 97 1 98 0 C100.86267567 -0.07325168 103.700719 -0.09238205 106.5625 -0.0625 C107.36880859 -0.05798828 108.17511719 -0.05347656 109.00585938 -0.04882812 C111.00393756 -0.03700518 113.00197783 -0.01906914 115 0 C114.76381238 1.46063394 114.50994589 2.91840663 114.25 4.375 C114.11078125 5.18710938 113.9715625 5.99921875 113.828125 6.8359375 C113.13465263 9.48552533 112.3112309 11.77213973 111.265625 14.2890625 C108.22239493 21.70365346 105.91750017 29.36457798 103.5 37 C97.90729831 54.66396468 97.90729831 54.66396468 94.87695312 61.82421875 C93.79693483 64.50381869 92.9136025 67.25919249 92 70 C86.06 70 80.12 70 74 70 C73.33411865 68.01637451 73.33411865 68.01637451 72.65478516 65.99267578 C71.00954811 61.09677193 69.35655173 56.20351792 67.70117188 51.31103516 C66.98517593 49.19131031 66.27129936 47.07086836 65.55957031 44.94970703 C64.53744116 41.90467323 63.50777101 38.86228165 62.4765625 35.8203125 C62.15877838 34.86818878 61.84099426 33.91606506 61.51358032 32.93508911 C61.2134201 32.05432709 60.91325989 31.17356506 60.60400391 30.26611328 C60.34197174 29.48889923 60.07993958 28.71168518 59.80996704 27.91091919 C59.06063162 25.81057317 59.06063162 25.81057317 57 24 C53.88201478 34.0937605 50.81048095 44.20119283 47.75 54.3125 C47.28648464 55.84310692 46.82294312 57.37370593 46.359375 58.90429688 C45.23923496 62.60275927 44.11962776 66.30138234 43 70 C36.73 70 30.46 70 24 70 C22.63875 65.854375 22.63875 65.854375 21.25 61.625 C17.44782952 50.14104744 13.40842719 38.74235176 9.35253906 27.34619141 C6.12489613 18.2649216 3.02124159 9.15225933 0 0 Z " fill="#046DA7" transform="translate(237,2)"/>
<path d="M0 0 C8.77347014 7.06228092 11.97463345 16.46910045 13.48828125 27.33984375 C13.48828125 30.63984375 13.48828125 33.93984375 13.48828125 37.33984375 C-4.33171875 37.33984375 -22.15171875 37.33984375 -40.51171875 37.33984375 C-36.13269791 46.9988204 -36.13269791 46.9988204 -28.51171875 52.33984375 C-20.73679186 53.01161505 -13.98435142 53.04721296 -7.51171875 48.33984375 C-5.09099663 46.2584772 -5.09099663 46.2584772 -3.51171875 44.33984375 C-0.22902555 45.83060809 2.41905566 47.72604696 5.23828125 49.96484375 C6.0375 50.59648438 6.83671875 51.228125 7.66015625 51.87890625 C8.2634375 52.36101563 8.86671875 52.843125 9.48828125 53.33984375 C7.33725511 57.51959688 5.16312476 59.57316967 1.17578125 62.02734375 C0.25152344 62.60871094 -0.67273438 63.19007812 -1.625 63.7890625 C-11.05806485 68.85662237 -22.7445253 68.8700763 -33.0703125 66.53515625 C-42.36187167 63.03118725 -50.03219239 56.85423819 -54.57421875 47.96484375 C-58.66915395 38.78402818 -59.50489559 26.38071026 -55.94921875 16.77734375 C-50.54499312 5.83708212 -42.86983708 -0.4220524 -31.51171875 -4.66015625 C-20.53237645 -7.33804462 -9.48989715 -6.27248256 0 0 Z " fill="#046DA7" transform="translate(409.51171875,5.66015625)"/>
<path d="M0 0 C0 5.61 0 11.22 0 17 C-7.125 16.8125 -7.125 16.8125 -9.33251953 16.72973633 C-14.04841079 16.67026008 -17.14318825 17.28100113 -21 20 C-25.85025085 25.72229513 -26.73905677 30.86419534 -26.70703125 38.1875 C-26.72215256 39.13061035 -26.73727386 40.0737207 -26.75285339 41.04541016 C-26.79552569 44.03052055 -26.80454861 47.01461577 -26.8125 50 C-26.83566021 52.03518285 -26.86102869 54.07034185 -26.88867188 56.10546875 C-26.95132209 61.07040144 -26.98381711 66.03470724 -27 71 C-32.94 71 -38.88 71 -45 71 C-45 47.9 -45 24.8 -45 1 C-39.06 1 -33.12 1 -27 1 C-26.67 3.64 -26.34 6.28 -26 9 C-25.5875 8.52949219 -25.175 8.05898437 -24.75 7.57421875 C-18.6747569 1.02434728 -9.04960954 -4.52480477 0 0 Z " fill="#076EA8" transform="translate(478,1)"/>
<path d="M0 0 C5.00827912 4.07650626 8.37560576 9.03288913 9.38671875 15.45703125 C9.65324355 21.44005346 8.56372932 26.1441583 5 31 C0.04843735 36.28010235 -4.51993621 39.01926518 -11.8125 39.375 C-17.69328277 39.23498136 -22.20020602 37.60031757 -26.53515625 33.57421875 C-32.09911797 27.29651267 -32.4522016 21.41757876 -32.30859375 13.31640625 C-31.68751454 6.64177019 -27.57017606 3.34599336 -22.78125 -0.80078125 C-16.22203767 -5.21674218 -6.43616769 -3.65978163 0 0 Z " fill="#FAFCFD" transform="translate(212,19)"/>
<path d="M0 0 C4.33071337 3.13511765 7.50962509 6.85788207 9.5625 11.8125 C10.49191184 19.12061208 10.24322489 25.6458876 6.1953125 31.9375 C2.38854253 36.30891049 -2.84690541 39.36606728 -8.63671875 40.0859375 C-15.26854673 40.35662436 -19.3655921 39.12757532 -24.4375 34.8125 C-29.28499203 30.10068841 -31.71435985 25.28148408 -31.8125 18.5 C-31.68008606 12.35102789 -30.20417105 7.85894677 -26.046875 3.28125 C-19.10710165 -3.00107114 -8.22477133 -4.88874259 0 0 Z " fill="#FBFCFD" transform="translate(127.4375,18.1875)"/>
<path d="M0 0 C22.77 0 45.54 0 69 0 C67.68 0.66 66.36 1.32 65 2 C59.55743508 4.77483185 55.071484 7.40316323 51 12 C51 8.7 51 5.4 51 2 C45.39 2 39.78 2 34 2 C34.02094727 3.4634082 34.04189453 4.92681641 34.06347656 6.43457031 C34.13584923 11.86139144 34.1817903 17.28816987 34.21972656 22.71533203 C34.23984814 25.06468884 34.26714851 27.41399554 34.30175781 29.76318359 C34.3502504 33.13912315 34.37296357 36.51440086 34.390625 39.890625 C34.41127014 40.94179504 34.43191528 41.99296509 34.45318604 43.07598877 C34.45541978 50.32686735 34.45541978 50.32686735 32.19824219 53.66308594 C28.9628157 55.63078868 26.70090022 55.53831276 23 55 C20.53745685 52.66362265 20.02948985 51.25110288 19.63110352 47.85888672 C19.63037842 46.64475098 19.62965332 45.43061523 19.62890625 44.1796875 C19.61150476 42.82551855 19.59392062 41.47135194 19.57617188 40.1171875 C19.56616959 38.00450913 19.56248614 35.89199776 19.56420898 33.77929688 C19.60514689 20.00916634 19.60514689 20.00916634 13.35205078 8.10351562 C9.42640476 4.32742942 5.13917632 2.62289779 0 1 C0 0.67 0 0.34 0 0 Z " fill="#FCFDFE" transform="translate(45,0)"/>
<path d="M0 0 C4.39431662 2.57711802 7.36718103 5.45213523 9.640625 10.09375 C9.640625 12.07375 9.640625 14.05375 9.640625 16.09375 C-2.239375 16.09375 -14.119375 16.09375 -26.359375 16.09375 C-25.25344598 9.4581759 -23.74400548 6.2457336 -18.796875 1.78125 C-13.4384488 -1.92842968 -6.06115368 -2.32812525 0 0 Z " fill="#F5F8FB" transform="translate(395.359375,13.90625)"/>
<path d="M0 0 C11.22 0 22.44 0 34 0 C32.02 0.99 32.02 0.99 30 2 C24.49614117 4.9669239 21.15369658 7.57564188 18 13 C17.67 13 17.34 13 17 13 C17 9.37 17 5.74 17 2 C11.72 2 6.44 2 1 2 C1 24.77 1 47.54 1 71 C6.61 71 12.22 71 18 71 C18 57.14 18 43.28 18 29 C18.33 29 18.66 29 19 29 C19 43.19 19 57.38 19 72 C12.73 72 6.46 72 0 72 C0 48.24 0 24.48 0 0 Z " fill="#B6D0E2" transform="translate(0,0)"/>
<path d="M0 0 C11.22 0 22.44 0 34 0 C32.02 0.99 32.02 0.99 30 2 C24.49614117 4.9669239 21.15369658 7.57564188 18 13 C17.67 13 17.34 13 17 13 C17 9.37 17 5.74 17 2 C11.39 2 5.78 2 0 2 C0 1.34 0 0.68 0 0 Z " fill="#E9F0F6" transform="translate(0,0)"/>
<path d="M0 0 C-0.56847656 0.28230469 -1.13695312 0.56460938 -1.72265625 0.85546875 C-7.90630808 3.96320458 -13.3667007 6.76885563 -18 12 C-18 8.7 -18 5.4 -18 2 C-23.61 2 -29.22 2 -35 2 C-35 1.67 -35 1.34 -35 1 C-23.31433979 0.1716494 -11.71389465 -0.12330415 0 0 Z " fill="#F3F7FA" transform="translate(114,0)"/>
<path d="M0 0 C-0.59941406 0.29390625 -1.19882812 0.5878125 -1.81640625 0.890625 C-7.48936977 3.77277463 -11.10387504 7.10201434 -15 12 C-15.33 12 -15.66 12 -16 12 C-16 8.7 -16 5.4 -16 2 C-21.94 2 -27.88 2 -34 2 C-34 1.67 -34 1.34 -34 1 C-22.64906646 0.26429134 -11.37473908 -0.13947228 0 0 Z " fill="#F2F6F9" transform="translate(467,0)"/>
</svg>
