<?xml version="1.0" encoding="UTF-8"?>
<svg version="1.1" xmlns="http://www.w3.org/2000/svg" width="1359" height="272">
<path d="M0 0 C42 0 42 0 51.25 8.8125 C52.75594853 11.58610171 54.26343639 14.36303913 55.60302734 17.22070312 C57.87622166 21.7432554 60.97065767 25.57633348 64.0625 29.5625 C65.22469973 31.13329066 66.38227162 32.70751607 67.53515625 34.28515625 C71.0189021 39.02678495 74.50898429 43.76372234 78 48.5 C79.16278262 50.07810864 80.32554302 51.65623365 81.48828125 53.234375 C83.86021051 56.45346916 86.23266407 59.67217606 88.60546875 62.890625 C89.20552734 63.70466797 89.80558594 64.51871094 90.42382812 65.35742188 C91.53826202 66.8692508 92.65282795 68.3809824 93.76757812 69.89257812 C99.19195563 77.25185044 104.59347606 84.62746736 110 92 C110.33 61.64 110.66 31.28 111 0 C124.53 0 138.06 0 152 0 C152 53.46 152 106.92 152 162 C110 162 110 162 101.25 153.6875 C99.87926006 151.04588832 98.507888 148.4005667 97.29882812 145.68115234 C95.12320022 141.19003473 92.04854379 137.42654083 89 133.5 C87.82890793 131.91993706 86.66223116 130.33659203 85.5 128.75 C84.9225 127.96625 84.345 127.1825 83.75 126.375 C78.5 119.25 78.5 119.25 76.74951172 116.87426758 C75.58456151 115.29331017 74.41952266 113.71241808 73.25439453 112.1315918 C70.3107302 108.13744172 67.36868654 104.1421157 64.4296875 100.14453125 C63.83414063 99.335 63.23859375 98.52546875 62.625 97.69140625 C61.52283532 96.19315113 60.42119774 94.69450798 59.3203125 93.1953125 C53.60033546 85.4223734 47.79137133 77.72182845 42 70 C41.67 100.36 41.34 130.72 41 162 C27.47 162 13.94 162 0 162 C0 108.54 0 55.08 0 0 Z " fill="#683C2F" transform="translate(570,13)"/>
<path d="M0 0 C104.98132428 0 104.98132428 0 133.39453125 27.30078125 C148.634337 43.16367957 154.65262604 63.42143282 154.26953125 85.10546875 C153.41174152 106.38118949 144.1293023 124.65166949 128.75 139.1875 C92.29517856 170.08248732 45.05592242 162 0 162 C0 108.54 0 55.08 0 0 Z M41 37 C41 66.04 41 95.08 41 125 C73.65588953 126.0313325 73.65588953 126.0313325 100.25 111.375 C108.63762798 102.4949809 112.56433827 90.7425403 112.24609375 78.66796875 C111.12803383 66.54677945 106.33427904 56.26709687 97.4609375 47.88671875 C80.51499372 34.89482852 62.3144229 37 41 37 Z " fill="#683C2F" transform="translate(905,13)"/>
<path d="M0 0 C2.15536732 1.89795268 4.18639855 3.87444043 6.19140625 5.9296875 C4.89124109 8.82600624 3.55630202 10.78163056 1.21484375 12.91796875 C0.63025391 13.45623291 0.04566406 13.99449707 -0.55664062 14.54907227 C-1.17603516 15.10780029 -1.79542969 15.66652832 -2.43359375 16.2421875 C-3.06587891 16.81960693 -3.69816406 17.39702637 -4.34960938 17.99194336 C-6.16357665 19.6442815 -7.98503064 21.28795518 -9.80859375 22.9296875 C-11.04222656 24.05117187 -11.04222656 24.05117187 -12.30078125 25.1953125 C-15.95732501 28.46770575 -19.6461215 31.32814234 -23.80859375 33.9296875 C-24.18628906 33.49398437 -24.56398438 33.05828125 -24.953125 32.609375 C-34.11417197 22.69742254 -46.5177759 17.69760907 -59.84375 16.94140625 C-71.49811946 16.89534155 -83.12027789 22.27320261 -91.80859375 29.9296875 C-101.13774616 40.20072549 -105.34792074 52.26273194 -105.1171875 66.01171875 C-104.28618856 76.56224953 -100.50678326 84.84319802 -93.80859375 92.9296875 C-93.3084375 93.56519531 -92.80828125 94.20070313 -92.29296875 94.85546875 C-85.54583728 102.53970181 -74.46933536 107.46139798 -64.453125 108.78125 C-56.49015941 109.22821114 -49.80891717 107.90712329 -42.4140625 104.96484375 C-39.5873122 103.84177204 -36.69418322 102.89155066 -33.80859375 101.9296875 C-33.80859375 95.3296875 -33.80859375 88.7296875 -33.80859375 81.9296875 C-45.02859375 81.9296875 -56.24859375 81.9296875 -67.80859375 81.9296875 C-67.80859375 71.6996875 -67.80859375 61.4696875 -67.80859375 50.9296875 C-43.38859375 50.9296875 -18.96859375 50.9296875 6.19140625 50.9296875 C6.51227672 69.69615373 6.51227672 69.69615373 6.58203125 77.70117188 C6.62984177 83.16201013 6.68636951 88.62177452 6.79492188 94.08178711 C6.88190437 98.48446712 6.92969088 102.88599581 6.95042419 107.28946877 C6.96519676 108.96854598 6.99404676 110.64756069 7.0372467 112.32614708 C7.36236818 125.48349641 7.36236818 125.48349641 4.49560547 129.02407837 C2.40817256 130.35790083 0.53716191 131.15759333 -1.80859375 131.9296875 C-3.13002855 132.59985357 -4.44399492 133.28518598 -5.74609375 133.9921875 C-32.77773097 147.09823557 -61.82955493 151.70282116 -90.82763672 142.03100586 C-113.70474063 133.89965769 -131.57279842 116.60059994 -141.96728516 94.83007812 C-150.04158439 76.59144052 -150.49958671 54.61353289 -143.80859375 35.9296875 C-143.50824219 35.02347656 -143.20789062 34.11726563 -142.8984375 33.18359375 C-135.62690962 13.00589086 -117.90228667 -3.60716748 -99.01367188 -12.95898438 C-66.48143892 -28.12201653 -27.62715323 -22.66609935 0 0 Z " fill="#683C2F" transform="translate(1215.80859375,31.0703125)"/>
<path d="M0 0 C13.53 0 27.06 0 41 0 C41 20.13 41 40.26 41 61 C62.45 61 83.9 61 106 61 C106 40.87 106 20.74 106 0 C119.86 0 133.72 0 148 0 C148 53.46 148 106.92 148 162 C134.14 162 120.28 162 106 162 C106 140.88 106 119.76 106 98 C84.55 98 63.1 98 41 98 C41 119.12 41 140.24 41 162 C27.47 162 13.94 162 0 162 C0 108.54 0 55.08 0 0 Z " fill="#683C2F" transform="translate(155,13)"/>
<path d="M0 0 C39.93 0 79.86 0 121 0 C121 12.21 121 24.42 121 37 C94.6 37 68.2 37 41 37 C41 44.92 41 52.84 41 61 C64.76 61 88.52 61 113 61 C113 73.21 113 85.42 113 98 C89.24 98 65.48 98 41 98 C41 106.91 41 115.82 41 125 C67.4 125 93.8 125 121 125 C121 137.21 121 149.42 121 162 C81.07 162 41.14 162 0 162 C0 108.54 0 55.08 0 0 Z " fill="#683C2F" transform="translate(1238,13)"/>
<path d="M0 0 C39.6 0 79.2 0 120 0 C120 12.21 120 24.42 120 37 C93.93 37 67.86 37 41 37 C41 44.92 41 52.84 41 61 C64.43 61 87.86 61 112 61 C112 73.21 112 85.42 112 98 C88.57 98 65.14 98 41 98 C41 106.91 41 115.82 41 125 C67.07 125 93.14 125 120 125 C120 137.21 120 149.42 120 162 C80.4 162 40.8 162 0 162 C0 108.54 0 55.08 0 0 Z " fill="#683C2F" transform="translate(319,13)"/>
<path d="M0 0 C13.53 0 27.06 0 41 0 C41.04898438 6.75339844 41.09796875 13.50679687 41.1484375 20.46484375 C41.18383931 24.75326984 41.21980821 29.04167624 41.2578125 33.33007812 C41.31802845 40.13091151 41.37618913 46.93171748 41.421875 53.73266602 C41.45885577 59.21814277 41.50525016 64.7034678 41.55806351 70.18881416 C41.57653961 72.27745453 41.59167237 74.36612734 41.60334396 76.45481682 C41.62032289 79.38922406 41.64938539 82.32328891 41.68115234 85.25756836 C41.68331253 86.11353104 41.68547272 86.96949371 41.68769836 87.85139465 C41.84086776 98.98861297 44.52412023 109.55316956 52.3125 117.875 C59.99331567 124.86503567 69.35661128 127.33088263 79.70703125 126.8828125 C88.27811267 125.56003143 96.32023006 120.96741251 101.6875 114.12109375 C107.49577214 104.73451109 109.13275726 95.50003289 109.20532227 84.68994141 C109.21522186 83.77222961 109.22512146 82.85451782 109.23532104 81.90899658 C109.26678959 78.88987771 109.29163534 75.87074313 109.31640625 72.8515625 C109.33698843 70.75263064 109.35798523 68.6537028 109.37937927 66.55477905 C109.43446936 61.04094716 109.48393608 55.52707867 109.53222656 50.01318359 C109.59138884 43.39177972 109.65754471 36.77044246 109.72252655 30.14909363 C109.82037162 20.09943657 109.90934019 10.04973601 110 0 C123.53 0 137.06 0 151 0 C151.06810791 12.48400475 151.12300638 24.96788362 151.15543652 37.45203304 C151.1710109 43.25056365 151.19209677 49.0489592 151.22631836 54.84741211 C151.25920785 60.45603808 151.27691466 66.06453514 151.28463173 71.6732502 C151.29012263 73.7999836 151.30084285 75.92671093 151.31719017 78.0533886 C151.50267874 103.212893 148.16927522 125.57818071 130.35546875 144.8046875 C113.02625965 160.95562533 91.55384802 165.85024497 68.45703125 165.13623047 C49.07873604 164.06179796 31.45760444 155.92980109 18 142 C1.33225967 123.01654777 -0.46951361 102.44243787 -0.29296875 78.3203125 C-0.28736272 76.0534595 -0.28309739 73.78660283 -0.28010559 71.51974487 C-0.26873606 65.59818207 -0.23933799 59.67684548 -0.20599365 53.75537109 C-0.17512131 47.69501809 -0.16156381 41.63462799 -0.14648438 35.57421875 C-0.11445973 23.71603125 -0.06175748 11.85806996 0 0 Z " fill="#683C2F" transform="translate(738,13)"/>
<path d="M0 0 C45.87 0 91.74 0 139 0 C139 12.21 139 24.42 139 37 C122.83 37 106.66 37 90 37 C90 78.25 90 119.5 90 162 C76.47 162 62.94 162 49 162 C49 120.75 49 79.5 49 37 C32.83 37 16.66 37 0 37 C0 24.79 0 12.58 0 0 Z " fill="#683C2F" transform="translate(0,13)"/>
<path d="M0 0 C4.65574591 0.62637545 8.74940853 1.86836984 13.1484375 3.50390625 C13.80582916 3.7466478 14.46322083 3.98938934 15.14053345 4.23948669 C17.22057875 5.00883696 19.2977892 5.78553354 21.375 6.5625 C22.79278726 7.08838019 24.21075437 7.61377575 25.62890625 8.13867188 C29.08803517 9.4201835 32.54466292 10.7082941 36 12 C35.33824319 17.52963312 33.53688888 22.402012 31.59765625 27.58203125 C31.24875839 28.52717087 30.89986053 29.47231049 30.54039001 30.4460907 C29.38596782 33.57005509 28.22417372 36.6912257 27.0625 39.8125 C26.24618154 42.01802078 25.43043574 44.22375358 24.61523438 46.4296875 C22.92035348 51.01466099 21.22300563 55.59870987 19.52392578 60.18212891 C16.03103 69.61016068 12.56806328 79.0491509 9.10513306 88.48822021 C7.25114539 93.54082683 5.39502816 98.59265095 3.5390625 103.64453125 C3.16979141 104.64979858 2.80052032 105.65506592 2.4200592 106.6907959 C0.07054865 113.08672641 -2.27981129 119.48234429 -4.63067627 125.8777771 C-6.24193049 130.26122147 -7.8529082 134.64476744 -9.46386719 139.02832031 C-10.22056621 141.08712715 -10.97739571 143.14588604 -11.734375 145.20458984 C-12.44738723 147.14373768 -13.16009971 149.08299576 -13.87249756 151.02236938 C-14.55943646 152.89087138 -15.24776037 154.75886485 -15.93756104 156.62631226 C-17.73225606 161.49547988 -19.48751117 166.3751557 -21.19433594 171.27587891 C-21.55345062 172.29571365 -21.91256531 173.3155484 -22.28256226 174.36628723 C-22.97084989 176.32455798 -23.64983837 178.28612875 -24.31826782 180.25126648 C-24.62622284 181.12265762 -24.93417786 181.99404877 -25.25146484 182.8918457 C-25.5176059 183.6630928 -25.78374695 184.4343399 -26.05795288 185.22895813 C-27 187 -27 187 -30 188 C-32.56116368 187.26975701 -34.98663906 186.46843065 -37.4765625 185.54296875 C-38.20241547 185.27994461 -38.92826843 185.01692047 -39.67611694 184.7459259 C-41.20921388 184.18786724 -42.74064731 183.62522043 -44.27050781 183.05834961 C-46.6186918 182.1898332 -48.97276185 181.33906042 -51.328125 180.49023438 C-52.81548771 179.94636026 -54.30248028 179.4014726 -55.7890625 178.85546875 C-56.8499559 178.472519 -56.8499559 178.472519 -57.93228149 178.08183289 C-62.88473256 176.23053488 -62.88473256 176.23053488 -64 174 C-63.36820984 171.69749451 -63.36820984 171.69749451 -62.2878418 168.76733398 C-61.8846875 167.66243118 -61.4815332 166.55752838 -61.06616211 165.41914368 C-60.6150708 164.2070372 -60.16397949 162.99493073 -59.69921875 161.74609375 C-59.23094347 160.47140993 -58.76334676 159.19647665 -58.29638672 157.92131042 C-57.03235576 154.47530123 -55.7590205 151.03279662 -54.48403549 147.59082794 C-53.15090944 143.98689866 -51.82645312 140.37978688 -50.5012207 136.77294922 C-48.35417183 130.93245339 -46.20243298 125.09370815 -44.046875 119.25634766 C-41.3870645 112.05301454 -38.73731992 104.84602981 -36.09375 97.63671875 C-33.1912531 89.72257354 -30.2854552 81.80965966 -27.375 73.8984375 C-24.26599519 65.44708351 -21.16282152 56.99360554 -18.0625 48.5390625 C-16.8338623 45.18981355 -15.6051349 41.84059753 -14.37637329 38.49139404 C-13.59655241 36.36525765 -12.81706106 34.23900036 -12.03793335 32.11260986 C-8.10414471 21.37716751 -4.16307359 10.6491952 0 0 Z " fill="#683C2F" transform="translate(519,0)"/>
<path d="M0 0 C7 0 7 0 9.73828125 2.38671875 C10.61829261 3.46951241 11.47534524 4.57124106 12.3125 5.6875 C12.78123535 6.27619873 13.2499707 6.86489746 13.73291016 7.47143555 C15.1781159 9.29776506 16.59137414 11.14536729 18 13 C18.823369 14.06576119 19.64755011 15.13089562 20.47265625 16.1953125 C21.67550114 17.75607709 22.87833584 19.31689688 24.06933594 20.88671875 C28.17975951 26.29774424 32.47998113 31.55033889 36.79833984 36.79614258 C37.33023926 37.44478271 37.86213867 38.09342285 38.41015625 38.76171875 C38.88590088 39.33881592 39.36164551 39.91591309 39.85180664 40.51049805 C41 42 41 42 42 44 C42.33 29.48 42.66 14.96 43 0 C45.31 0 47.62 0 50 0 C50 19.14 50 38.28 50 58 C43 58 43 58 41.18652344 56.75341797 C40.74856445 56.17221191 40.31060547 55.59100586 39.859375 54.9921875 C39.35188721 54.3422583 38.84439941 53.6923291 38.3215332 53.02270508 C37.80292725 52.3139624 37.28432129 51.60521973 36.75 50.875 C36.19207764 50.15014404 35.63415527 49.42528809 35.05932617 48.6784668 C33.91091143 47.18436993 32.77117538 45.68356294 31.64013672 44.17626953 C29.68667446 41.58425366 27.67503135 39.04286355 25.65527344 36.50244141 C20.01518561 29.4041345 14.52740954 22.1856324 9 15 C8.67 29.19 8.34 43.38 8 58 C5.36 58 2.72 58 0 58 C0 38.86 0 19.72 0 0 Z " fill="#683C2F" transform="translate(853,213)"/>
<path d="M0 0 C13.86 0 27.72 0 42 0 C42 1.98 42 3.96 42 6 C30.45 6 18.9 6 7 6 C7 12.27 7 18.54 7 25 C16.9 25 26.8 25 37 25 C37 27.31 37 29.62 37 32 C27.1 32 17.2 32 7 32 C7 38.6 7 45.2 7 52 C18.55 52 30.1 52 42 52 C42 53.98 42 55.96 42 58 C28.14 58 14.28 58 0 58 C0 38.86 0 19.72 0 0 Z " fill="#683C2F" transform="translate(1317,213)"/>
<path d="M0 0 C0.66 0.66 1.32 1.32 2 2 C1.625 5.125 1.625 5.125 1 8 C-1.99471005 7.29090773 -4.88750294 6.39100298 -7.8125 5.4375 C-15.7456273 3.08307772 -21.4234504 4.11369539 -29 7 C-30.25490541 13.12975747 -30.25490541 13.12975747 -29 19 C-25.32845247 20.75346812 -21.48826413 21.69581604 -17.56469727 22.69897461 C-0.75698122 27.0368395 -0.75698122 27.0368395 4 33.875 C5.55237541 38.72617317 5.604873 42.31979723 3.875 47.125 C0.97784802 51.5672997 -2.18513884 54.22220236 -7.0625 56.3125 C-17.43935833 58.12433241 -28.25223704 58.02343407 -37.125 51.8125 C-37.74375 51.214375 -38.3625 50.61625 -39 50 C-38.67 48.35 -38.34 46.7 -38 45 C-34.1495999 45 -32.81843504 45.34078725 -29.5 46.9375 C-22.93943425 50.07174289 -17.56955781 50.66551078 -10.3125 49.3125 C-6.45960935 47.78588295 -4.98109054 46.63199932 -3 43 C-2.67091833 39.89072953 -2.67091833 39.89072953 -4 37 C-8.662503 33.23078028 -13.23232242 31.88005487 -19 30.5 C-26.05388894 28.81218829 -31.40350158 26.93814295 -36.375 21.3125 C-38.75259619 16.46586161 -39.04898483 12.16557551 -37.33984375 7.0078125 C-34.94325542 2.17313647 -31.82671064 0.2409728 -27 -2 C-18.43422265 -4.73375873 -8.13641668 -3.59784754 0 0 Z " fill="#683C2F" transform="translate(971,215)"/>
<path d="M0 0 C2.31 0 4.62 0 7 0 C7.01458252 1.14476807 7.02916504 2.28953613 7.04418945 3.46899414 C7.10240761 7.73899697 7.17963828 12.00848538 7.26245117 16.27807617 C7.29559026 18.12174088 7.32365613 19.96550436 7.34643555 21.80932617 C7.38018512 24.46836208 7.43250966 27.12650187 7.48828125 29.78515625 C7.49467117 30.60210464 7.5010611 31.41905304 7.50764465 32.26075745 C7.6679369 38.5794363 8.82085576 43.41226622 13 48.375 C17.97007375 52.41318492 24.94723336 51.52114842 31 51 C35.7395438 48.95709319 37.45598114 46.78759221 39.38223267 42.05636597 C40.51807959 38.27546524 40.48184024 34.48863709 40.51171875 30.56640625 C40.52966995 29.68846909 40.54762115 28.81053192 40.56611633 27.9059906 C40.61993679 25.12487471 40.65402364 22.34392763 40.6875 19.5625 C40.72069808 17.66729436 40.75519003 15.77211092 40.79101562 13.87695312 C40.87564675 9.25142445 40.942592 4.62594338 41 0 C43.31 0 45.62 0 48 0 C48.09944869 5.81660061 48.1717413 11.63269792 48.21972656 17.44995117 C48.23974646 19.4256249 48.26697092 21.40124009 48.30175781 23.37670898 C48.35070207 26.2291515 48.37306525 29.08080549 48.390625 31.93359375 C48.41127014 32.80584091 48.43191528 33.67808807 48.45318604 34.57676697 C48.45566037 41.45777134 46.99628769 47.63022601 42.32305908 52.88597107 C36.18189732 58.71161825 29.27266408 59.47695818 21.0703125 59.3125 C15.00439689 58.69510401 9.27154613 56.83485382 5.0625 52.25 C0.60665387 45.22866671 -0.44017681 39.38373588 -0.29296875 31.25 C-0.28872391 30.35128174 -0.28447906 29.45256348 -0.28010559 28.52661133 C-0.26344584 25.68408988 -0.22581832 22.84230355 -0.1875 20 C-0.17243671 18.06120823 -0.15875119 16.12240523 -0.14648438 14.18359375 C-0.1135841 9.45545021 -0.06189115 4.72784931 0 0 Z " fill="#683C2F" transform="translate(1172,213)"/>
<path d="M0 0 C15.84 0 31.68 0 48 0 C48 1.98 48 3.96 48 6 C41.4 6 34.8 6 28 6 C28 23.16 28 40.32 28 58 C25.36 58 22.72 58 20 58 C20 40.84 20 23.68 20 6 C13.4 6 6.8 6 0 6 C0 4.02 0 2.04 0 0 Z " fill="#683C2F" transform="translate(1244,213)"/>
<path d="M0 0 C15.84 0 31.68 0 48 0 C48 1.98 48 3.96 48 6 C41.4 6 34.8 6 28 6 C28 23.16 28 40.32 28 58 C25.69 58 23.38 58 21 58 C21 40.84 21 23.68 21 6 C14.07 6 7.14 6 0 6 C0 4.02 0 2.04 0 0 Z " fill="#683C2F" transform="translate(1100,213)"/>
<path d="M0 0 C15.84 0 31.68 0 48 0 C48 1.98 48 3.96 48 6 C41.07 6 34.14 6 27 6 C27 23.16 27 40.32 27 58 C24.69 58 22.38 58 20 58 C20 40.84 20 23.68 20 6 C13.4 6 6.8 6 0 6 C0 4.02 0 2.04 0 0 Z " fill="#683C2F" transform="translate(995,213)"/>
<path d="M0 0 C2.31 0 4.62 0 7 0 C7 19.14 7 38.28 7 58 C4.69 58 2.38 58 0 58 C0 38.86 0 19.72 0 0 Z " fill="#683C2F" transform="translate(1068,213)"/>
<path d="M0 0 C2.31 0 4.62 0 7 0 C7 19.14 7 38.28 7 58 C4.69 58 2.38 58 0 58 C0 38.86 0 19.72 0 0 Z " fill="#683C2F" transform="translate(812,213)"/>
</svg>
