<?xml version="1.0" standalone="no"?>
<!DOCTYPE svg PUBLIC "-//W3C//DTD SVG 20010904//EN"
 "http://www.w3.org/TR/2001/REC-SVG-20010904/DTD/svg10.dtd">
<svg version="1.0" xmlns="http://www.w3.org/2000/svg"
 width="661.000000pt" height="151.000000pt" viewBox="0 0 661.000000 151.000000"
 preserveAspectRatio="xMidYMid meet">
<metadata>
Created by potrace 1.16, written by Peter Selinger 2001-2019
</metadata>
<g transform="translate(0.000000,151.000000) scale(0.100000,-0.100000)"
fill="#000000" stroke="none">
<path d="M444 1501 c-121 -20 -242 -83 -302 -159 -139 -175 -128 -472 22 -610
61 -56 137 -92 311 -147 227 -72 256 -92 257 -174 1 -72 -45 -118 -128 -127
-64 -8 -126 9 -168 47 -39 34 -61 82 -71 157 l-7 52 -164 0 -164 0 0 -62 c1
-192 92 -350 244 -422 95 -45 153 -56 304 -56 194 0 298 35 397 134 65 65 102
143 117 246 27 194 -45 348 -204 438 -32 18 -140 60 -239 94 -143 49 -189 69
-217 95 -33 31 -34 35 -30 90 4 45 10 61 32 79 67 58 181 51 247 -15 41 -40
59 -91 59 -163 l0 -48 165 0 165 0 0 78 c0 136 -37 237 -118 325 -60 64 -104
91 -194 121 -82 28 -230 40 -314 27z"/>
<path d="M2624 1501 c-212 -34 -359 -164 -394 -351 -31 -164 8 -315 106 -413
60 -60 127 -92 326 -157 192 -62 231 -84 244 -137 9 -34 -2 -92 -22 -114 -29
-32 -98 -52 -155 -46 -111 13 -173 79 -185 195 l-7 62 -163 0 -164 0 0 -73 c0
-233 132 -401 357 -453 102 -24 337 -16 418 14 185 68 285 216 285 421 0 142
-34 226 -124 309 -60 56 -152 99 -344 163 -171 57 -215 85 -226 144 -19 98 76
170 190 145 94 -21 138 -80 150 -199 l7 -61 163 0 164 0 0 63 c-1 238 -130
416 -342 471 -71 18 -218 27 -284 17z"/>
<path d="M5178 1483 l-88 -4 0 -734 0 -735 735 0 735 0 0 195 0 195 -397 0
-398 0 400 400 400 400 -145 145 -145 145 -397 -397 -398 -398 0 398 0 397
-107 -2 c-60 -1 -147 -4 -195 -5z"/>
<path d="M1061 1458 c7 -13 95 -171 197 -353 102 -181 185 -334 185 -340 0 -8
-79 -147 -400 -702 l-25 -43 195 0 195 0 112 210 c62 116 115 212 119 214 3 2
58 -92 121 -210 l115 -214 203 0 c112 0 201 3 199 8 -74 124 -420 740 -420
748 0 6 87 163 194 350 107 186 196 342 197 346 2 4 -83 8 -190 8 l-193 0
-100 -195 c-55 -107 -102 -195 -105 -195 -3 0 -51 87 -106 193 l-100 192 -203
3 -202 2 12 -22z"/>
<path d="M3280 1471 c0 -8 239 -1291 261 -1398 l10 -53 204 0 c153 0 204 3
207 13 3 6 34 209 69 451 37 257 66 431 70 420 7 -18 129 -844 129 -871 0 -10
48 -13 208 -13 l208 0 133 712 c73 392 135 721 137 731 5 16 -8 17 -170 17
-97 0 -176 -1 -176 -2 -4 -39 -149 -900 -152 -903 -2 -2 -32 190 -67 428 -35
238 -65 442 -68 455 -5 22 -7 22 -174 22 -93 0 -169 -1 -169 -2 -53 -374 -139
-907 -144 -888 -3 14 -35 207 -71 430 -36 223 -68 417 -71 433 l-6 27 -184 0
c-101 0 -184 -4 -184 -9z"/>
<path d="M4786 159 c-19 -15 -26 -30 -26 -55 0 -47 14 -70 50 -82 83 -30 148
71 85 133 -30 31 -73 32 -109 4z"/>
</g>
</svg>
