<?xml version="1.0" encoding="UTF-8"?>
<svg version="1.1" xmlns="http://www.w3.org/2000/svg" width="2560" height="1582">
<path d="M0 0 C1.51953125 2.8359375 1.51953125 2.8359375 2.8125 6.375 C3.47185547 8.11910156 3.47185547 8.11910156 4.14453125 9.8984375 C5 13 5 13 4 16 C1.28564453 17.34350586 1.28564453 17.34350586 -2.3671875 18.71484375 C-3.02441803 18.96620087 -3.68164856 19.21755798 -4.35879517 19.47653198 C-5.78151256 20.02023517 -7.20602581 20.55925686 -8.63208008 21.09414673 C-12.44036087 22.52608642 -16.23161145 24.00170984 -20.0234375 25.4765625 C-21.17456024 25.92347191 -21.17456024 25.92347191 -22.34893799 26.37940979 C-107.42658082 59.5635376 -186.51804155 110.7142147 -254 172 C-255.56244746 173.39589215 -257.12494901 174.79172375 -258.6875 176.1875 C-280.02504911 195.34207072 -280.02504911 195.34207072 -299.53125 216.3125 C-301.11262969 218.12940433 -302.78197196 219.8121128 -304.5 221.5 C-308.2118719 225.16270803 -311.61011518 229.03979429 -315 233 C-315.90739364 234.05482382 -316.81495908 235.10949986 -317.72265625 236.1640625 C-320.3071683 239.16964436 -322.88393362 242.18176572 -325.45800781 245.19628906 C-326.92480572 246.91204316 -328.39574033 248.62417093 -329.8671875 250.3359375 C-335.62994597 257.06270734 -341.14166964 263.9444766 -346.48632812 271.00927734 C-348.24573256 273.32317795 -350.02103839 275.6244688 -351.796875 277.92578125 C-359.37516659 287.7689743 -366.76483884 297.67791809 -373.66699219 308.0078125 C-375.06335325 310.09468177 -376.4724548 312.17256852 -377.8828125 314.25 C-428.0398768 388.43602715 -464.35940225 470.79868298 -508 725 C-508.02191406 726.26827637 -508.04382813 727.53655273 -508.06640625 728.84326172 C-509.32042935 810.89840039 -497.67805361 892.49729782 -430 1080 C-429.5467334 1080.94504395 -429.0934668 1081.89008789 -428.62646484 1082.86376953 C-422.02067675 1096.58543538 -414.63296869 1109.82654116 -407 1123 C-406.4647168 1123.92603027 -405.92943359 1124.85206055 -405.37792969 1125.80615234 C-376.66158166 1175.34753305 -342.60803798 1221.79003925 -303.3046875 1263.4765625 C-300.48972038 1266.46456118 -297.74093765 1269.50631074 -295 1272.5625 C-289.4404317 1278.64561509 -283.63142164 1284.47904307 -277.8125 1290.3125 C-277.33868896 1290.78889923 -276.86487793 1291.26529846 -276.37670898 1291.75613403 C-271.30193298 1296.85276892 -266.19819221 1301.84854059 -260.71166992 1306.50268555 C-258.89083419 1308.09549478 -257.19353348 1309.77314117 -255.5 1311.5 C-251.83729197 1315.2118719 -247.96020571 1318.61011518 -244 1322 C-242.94517618 1322.90739364 -241.89050014 1323.81495908 -240.8359375 1324.72265625 C-237.83035564 1327.3071683 -234.81823428 1329.88393362 -231.80371094 1332.45800781 C-230.08795684 1333.92480572 -228.37582907 1335.39574033 -226.6640625 1336.8671875 C-219.91596466 1342.64836333 -213.02240622 1348.19686948 -205.92578125 1353.546875 C-203.75881022 1355.1819931 -201.59846438 1356.8257027 -199.4375 1358.46875 C-187.82257947 1367.26978211 -176.01846997 1375.75906037 -164 1384 C-163.34225586 1384.45181641 -162.68451172 1384.90363281 -162.00683594 1385.36914062 C-135.52687197 1403.48627835 -107.59352163 1419.48501074 -79 1434 C-78.28231445 1434.36641602 -77.56462891 1434.73283203 -76.82519531 1435.11035156 C-72.95263388 1437.08530131 -69.06541274 1439.02747302 -65.16162109 1440.93994141 C-63.623837 1441.69407045 -62.0878935 1442.45195778 -60.55322266 1443.21240234 C13.63248259 1479.89855021 95.71126263 1503.68893259 197.9375 1516.75 C198.82357941 1516.85114105 199.70965881 1516.9522821 200.62258911 1517.05648804 C229.16298227 1520.27658827 257.53905727 1521.38087927 286.23287201 1521.31805801 C288.85342978 1521.31241181 291.47398107 1521.30959502 294.09454346 1521.30697632 C318.70913562 1521.27122668 343.20049752 1520.98625854 367.68945312 1518.25646973 C370.14370464 1517.98404885 372.59904054 1517.7233929 375.0546875 1517.46386719 C424.13648805 1512.22226889 472.63582988 1502.96952723 520 1489 C520.68950745 1488.79695251 521.37901489 1488.59390503 522.0894165 1488.38470459 C605.98099796 1463.59058169 687.20741274 1425.63636615 758 1374 C758.77037598 1373.44070801 759.54075195 1372.88141602 760.33447266 1372.30517578 C770.72911331 1364.74941633 780.96188753 1357.02293305 791 1349 C792.01707031 1348.18917969 793.03414062 1347.37835937 794.08203125 1346.54296875 C796.39102276 1344.6990049 798.69725141 1342.85174944 801 1341 C811.41206081 1349.0321612 819.90590966 1359.46872204 828.08984375 1369.6875 C829.65039602 1371.57675756 831.22857528 1373.31187111 833 1375 C831.70485803 1377.92099169 830.4561869 1379.73947195 827.97265625 1381.7421875 C827.35551758 1382.24355225 826.73837891 1382.74491699 826.10253906 1383.26147461 C825.42932617 1383.79393799 824.75611328 1384.32640137 824.0625 1384.875 C823.35448242 1385.44162354 822.64646484 1386.00824707 821.91699219 1386.59204102 C776.56673741 1422.59065829 726.72037934 1453.09493034 675 1479 C674.38102844 1479.31066406 673.76205688 1479.62132812 673.12432861 1479.94140625 C632.1165825 1500.50036691 589.65450676 1516.97272755 546 1531 C544.12054687 1531.60690674 544.12054687 1531.60690674 542.203125 1532.22607422 C457.305267 1559.3938522 366.06516391 1571.85694654 277 1570 C275.28224365 1569.97099609 275.28224365 1569.97099609 273.52978516 1569.94140625 C192.04486382 1568.45289728 110.89510998 1555.37191918 -42 1504 C-42.98661621 1503.58959473 -43.97323242 1503.17918945 -44.98974609 1502.75634766 C-79.48130207 1488.3072635 -113.14080099 1471.78156182 -145.25830078 1452.62744141 C-147.72334572 1451.16421883 -150.19975586 1449.72396232 -152.68359375 1448.29296875 C-176.60076224 1434.39498118 -199.92695928 1418.66777717 -222 1402 C-222.57572754 1401.56623047 -223.15145508 1401.13246094 -223.74462891 1400.68554688 C-227.52514129 1397.82671629 -231.26639834 1394.91992757 -235 1392 C-236.13902648 1391.1194081 -237.27835756 1390.23921007 -238.41796875 1389.359375 C-246.84020624 1382.83020924 -254.96410076 1375.99782715 -263 1369 C-258.958644 1363.32025643 -254.54689343 1358.1990621 -249.78393555 1353.12597656 C-247.63159317 1350.82541786 -245.75328924 1348.62993386 -244 1346 C-253.63018539 1336.8790589 -253.63018539 1336.8790589 -263.75 1328.3125 C-268.2964288 1324.67402174 -272.38416759 1320.75097102 -276.41796875 1316.5546875 C-278.41479143 1314.5790112 -280.41646566 1312.76255818 -282.546875 1310.94140625 C-287.75990255 1306.42308308 -292.60762917 1301.54228419 -297.47290039 1296.6574707 C-299.05959946 1295.06541034 -300.65157742 1293.4787701 -302.24414062 1291.89257812 C-307.13745588 1287.0024608 -311.93456644 1282.07434205 -316.43237305 1276.81274414 C-319.14463868 1273.6763834 -322.0232717 1270.69650156 -324.875 1267.6875 C-329.71304824 1262.54285081 -334.33418248 1257.3073618 -338.7421875 1251.78515625 C-340.85522908 1249.1785842 -343.02882266 1246.64455034 -345.23364258 1244.11621094 C-351.96736793 1236.3839731 -358.20563599 1228.33533871 -364.37207031 1220.14697266 C-365.94830496 1218.0681773 -367.54385471 1216.00618392 -369.1484375 1213.94921875 C-378.22656006 1202.28336766 -386.65497666 1190.19783372 -395 1178 C-395.49032715 1177.28714844 -395.9806543 1176.57429688 -396.48583984 1175.83984375 C-403 1166.35939251 -403 1166.35939251 -403 1164 C-403.86608887 1164.16081055 -404.73217773 1164.32162109 -405.62451172 1164.48730469 C-422.33952552 1167.02611049 -440.51803523 1165.51209652 -457 1162 C-458.17949219 1161.75056641 -458.17949219 1161.75056641 -459.3828125 1161.49609375 C-493.93728842 1153.89861126 -526.5661228 1134.35168942 -548 1106 C-548.40460449 1105.47567383 -548.80920898 1104.95134766 -549.22607422 1104.41113281 C-556.07342279 1095.49720653 -561.39489199 1086.24541384 -566 1076 C-566.41741455 1075.07815918 -566.41741455 1075.07815918 -566.84326172 1074.13769531 C-582.19918202 1039.64479528 -583.88065888 999.47996873 -571 964 C-570.75266113 963.31583008 -570.50532227 962.63166016 -570.25048828 961.92675781 C-559.12440537 931.79623574 -539.48387978 909.03231502 -514 890 C-514.16081055 889.02691895 -514.32162109 888.05383789 -514.48730469 887.05126953 C-520.99876449 847.48346167 -525.6544326 808.11541193 -527 768 C-527.60134766 768.02094727 -528.20269531 768.04189453 -528.82226562 768.06347656 C-568.78060027 769.25648807 -607.14716024 758.1128069 -638 732 C-638.57927246 731.51031738 -639.15854492 731.02063477 -639.75537109 730.51611328 C-668.35304218 705.96566426 -687.15419226 670.58487936 -690.7890625 632.93505859 C-691.98758947 616.25833265 -692.02802405 599.2975485 -688 583 C-687.81727539 582.23526367 -687.63455078 581.47052734 -687.44628906 580.68261719 C-680.69115608 553.3182279 -666.67950661 529.93592769 -647 510 C-646.45545166 509.4342627 -645.91090332 508.86852539 -645.34985352 508.28564453 C-641.34494411 504.17680635 -637.16278141 500.55083966 -632.5625 497.125 C-631.87293213 496.61106689 -631.18336426 496.09713379 -630.47290039 495.56762695 C-623.33802153 490.35868795 -615.8468491 486.03529611 -608 482 C-607.39365723 481.68192383 -606.78731445 481.36384766 -606.16259766 481.03613281 C-568.7646199 461.61151153 -524.53386133 460.683257 -484.61328125 472.01171875 C-481.30280932 473.08794107 -481.30280932 473.08794107 -479 473 C-478.60844727 472.01531738 -478.21689453 471.03063477 -477.81347656 470.01611328 C-470.14419792 450.76333539 -462.3386534 431.6564661 -453.40429688 412.94824219 C-451.99820427 409.99622996 -450.6142733 407.03464722 -449.234375 404.0703125 C-443.45487955 391.72217837 -437.22093091 379.69119884 -430.56347656 367.79443359 C-428.95861461 364.92603105 -427.36596575 362.05104647 -425.7734375 359.17578125 C-417.93862548 345.09981723 -409.78352624 331.24120932 -400.546875 318.03125 C-399.98492432 317.21889893 -399.42297363 316.40654785 -398.84399414 315.56958008 C-397.7677487 314.02191216 -396.67650665 312.48452784 -395.56811523 310.9597168 C-392.67668163 306.81999649 -392.67668163 306.81999649 -391.953125 301.91796875 C-393.19162035 298.46589403 -394.79747121 295.32601262 -396.5625 292.125 C-404.33716972 277.28406276 -409.56702757 260.56834119 -412 244 C-412.27263672 242.21529297 -412.27263672 242.21529297 -412.55078125 240.39453125 C-414.5516564 223.77279144 -413.67406412 206.31631625 -410 190 C-409.83371094 189.25492188 -409.66742187 188.50984375 -409.49609375 187.7421875 C-404.24220927 165.09210775 -393.51355996 143.36755307 -378 126 C-376.85337891 124.69095703 -376.85337891 124.69095703 -375.68359375 123.35546875 C-373.485326 120.87451344 -371.25417723 118.43015389 -369 116 C-368.45085937 115.39671875 -367.90171875 114.7934375 -367.3359375 114.171875 C-341.0986822 86.5128965 -300.1154932 70.86026312 -262.51171875 69.796875 C-234.93137555 69.42681143 -203.56165096 73.29223269 -180 89 C-175.56654937 88.44588711 -172.1902015 85.67784049 -168.5625 83.25 C-167.02845177 82.24180163 -165.49324297 81.23536749 -163.95703125 80.23046875 C-163.14830566 79.70114746 -162.33958008 79.17182617 -161.50634766 78.62646484 C-146.99260294 69.20794085 -132.11425532 60.41490508 -117 52 C-115.64261719 51.24299805 -115.64261719 51.24299805 -114.2578125 50.47070312 C-86.55256343 35.08536523 -58.20727172 21.28027657 -29 9 C-28.06435211 8.60467072 -28.06435211 8.60467072 -27.10980225 8.20135498 C-22.99936189 6.46483015 -18.87866193 4.75520591 -14.75 3.0625 C-13.71431885 2.6308252 -12.6786377 2.19915039 -11.61157227 1.75439453 C-10.66209717 1.3726709 -9.71262207 0.99094727 -8.734375 0.59765625 C-7.91163086 0.26258057 -7.08888672 -0.07249512 -6.24121094 -0.41772461 C-3.69115231 -1.08023984 -2.4120718 -1.04188147 0 0 Z M-336.32421875 146.07421875 C-357.51040876 170.42105249 -365.76716037 201.21998856 -364 233 C-363.11441462 241.83476841 -361.58129881 250.50416 -359 259 C-354.94698513 255.11119568 -351.43614418 250.95118738 -347.9375 246.5625 C-339.63059309 236.24417223 -331.05796024 226.17854482 -322.15234375 216.37109375 C-320.65761439 214.72444997 -319.17120285 213.07023264 -317.69140625 211.41015625 C-313.79251863 207.03787924 -309.83588536 202.79114199 -305.65625 198.6875 C-303.97737166 196.97694471 -302.42706865 195.20096312 -300.875 193.375 C-293.8101849 185.19384842 -285.99335828 177.53410766 -277.7578125 170.5390625 C-275.92072976 168.9305945 -274.21092213 167.24161132 -272.5 165.5 C-269.51127663 162.46405075 -266.38293521 159.65491341 -263.15625 156.875 C-260.80037042 154.82640906 -258.4949254 152.72796998 -256.1875 150.625 C-251.48217778 146.38308072 -246.62531763 142.3639957 -241.70166016 138.37939453 C-238.16695008 135.51409871 -234.6448932 132.63346465 -231.125 129.75 C-230.03626587 128.86405151 -230.03626587 128.86405151 -228.92553711 127.96020508 C-225.0768516 124.80511313 -221.44459727 121.59318775 -218 118 C-233.35445499 114.51243387 -233.35445499 114.51243387 -249 113 C-249.99644531 112.96003906 -250.99289062 112.92007813 -252.01953125 112.87890625 C-284.01238386 112.20827925 -313.82919221 122.72019358 -336.32421875 146.07421875 Z M-619.125 544.25 C-637.70647268 565.89722874 -645.83812794 595.87603587 -644 624 C-641.25318119 654.83190476 -627.54423976 681.76832915 -604 702 C-599.57735577 705.42440734 -594.86993546 708.26242884 -590 711 C-589.00355469 711.56203125 -588.00710938 712.1240625 -586.98046875 712.703125 C-576.60619237 718.2027414 -565.70588069 721.73605722 -554.1875 723.8125 C-553.5382959 723.9364917 -552.8890918 724.0604834 -552.22021484 724.18823242 C-543.90449635 725.53065807 -535.39523471 725.09696624 -527 725 C-526.95877014 724.37392853 -526.91754028 723.74785706 -526.87506104 723.10281372 C-522.93367948 663.4902587 -516.21662137 605.54087624 -501.375 547.5625 C-501.18681702 546.82678772 -500.99863403 546.09107544 -500.80474854 545.33306885 C-498.66255687 536.99550428 -496.3797386 528.7463582 -493.72119141 520.55444336 C-492.86414649 517.96119299 -492.86414649 517.96119299 -493 515 C-537.47667871 499.31643362 -586.64937875 509.61779453 -619.125 544.25 Z M-504.3125 939.1875 C-523.62824091 959.93403653 -530.79556728 990.12367563 -530.24609375 1017.69140625 C-529.14894747 1047.87111658 -516.40860877 1074.93764593 -494.68359375 1095.73046875 C-489.29018727 1100.66978382 -483.35390046 1104.42408393 -477 1108 C-476.01515625 1108.56203125 -475.0303125 1109.1240625 -474.015625 1109.703125 C-460.71595301 1116.82024677 -445.93017591 1120.39917151 -431 1122 C-430.34 1121.67 -429.68 1121.34 -429 1121 C-429.44690186 1120.14172607 -429.89380371 1119.28345215 -430.35424805 1118.39916992 C-460.56095641 1060.32813563 -484.92320386 1001.25900467 -502 938 C-503.17140658 937.88818111 -503.17140658 937.88818111 -504.3125 939.1875 Z " fill="#004A86" transform="translate(1239,12)"/>
<path d="M0 0 C2.29238457 2.10622941 3.7032424 4.04957854 5.06201172 6.84350586 C5.63017105 8.00063332 5.63017105 8.00063332 6.20980835 9.18113708 C6.61236847 10.01726028 7.01492859 10.85338348 7.4296875 11.71484375 C7.85601471 12.58847061 8.28234192 13.46209747 8.72158813 14.36219788 C10.11249326 17.21755455 11.49398355 20.07734912 12.875 22.9375 C13.83892863 24.92265429 14.8031229 26.90767962 15.76757812 28.89257812 C21.28588526 40.27142112 26.69314844 51.69333291 31.96191406 63.18994141 C37.0102476 74.14840123 42.31716703 84.97795792 47.625 95.8125 C48.08675629 96.75519745 48.54851257 97.6978949 49.02426147 98.66915894 C50.82615115 102.34745355 52.62818372 106.0256781 54.43052673 109.70375061 C60.58415052 122.26744548 66.60910156 134.88961746 72.54296875 147.55859375 C73.52549207 149.65500884 74.50818756 151.75134301 75.49105835 153.84759521 C76.16024491 155.2751905 76.82905182 156.70296381 77.49746704 158.13092041 C81.67093056 167.04122886 85.91529529 175.91300459 90.25 184.74609375 C90.6881604 185.63986725 91.1263208 186.53364075 91.57775879 187.45449829 C93.72881588 191.8391961 95.88743465 196.21995617 98.05664062 200.59570312 C98.84001364 202.1874164 99.62322509 203.7792092 100.40625 205.37109375 C100.95345703 206.46556068 100.95345703 206.46556068 101.51171875 207.58213806 C104 212.66008372 104 212.66008372 104 216 C104.66 216 105.32 216 106 216 C106.16387207 214.94341187 106.16387207 214.94341187 106.33105469 213.86547852 C107.07693557 210.67044059 108.25159132 208.09458469 109.703125 205.15234375 C110.26418945 204.00515869 110.82525391 202.85797363 111.40332031 201.67602539 C111.85366638 200.76459274 111.85366638 200.76459274 112.31311035 199.83474731 C113.93010407 196.56025602 115.52676442 193.27586446 117.125 189.9921875 C117.61712982 188.98252678 117.61712982 188.98252678 118.11920166 187.95246887 C121.24467732 181.52681084 124.25907704 175.05180696 127.25 168.5625 C132.41003649 157.38335499 137.65682439 146.2476138 142.9375 135.125 C148.3488722 123.72503315 153.73785969 112.31574988 159.0625 100.875 C164.83875456 88.46488835 170.67056096 76.08166898 176.5234375 63.70751953 C180.14511582 56.04971949 183.75963036 48.38872296 187.35546875 40.71875 C188.06915848 39.19758425 188.78286273 37.67642531 189.49658203 36.15527344 C190.50930814 33.99668736 191.52143826 31.83783606 192.53118896 29.67785645 C197.1945107 19.70269759 202.03455142 9.82828168 207 0 C209.0635899 3.09538485 209.78646983 5.37225892 210.74560547 8.94335938 C211.08213135 10.18565308 211.41865723 11.42794678 211.76538086 12.70788574 C212.13276616 14.08647614 212.50003105 15.46509863 212.8671875 16.84375 C213.25694269 18.29118104 213.64717239 19.73848439 214.0378418 21.18566895 C215.10035897 25.12742285 216.15583873 29.07103109 217.21004486 33.01501465 C218.33160616 37.20637018 219.45949685 41.39602267 220.58642578 45.5859375 C223.40038403 56.05477124 226.20159723 66.52699902 229 77 C229.21595825 77.80808105 229.4319165 78.61616211 229.65441895 79.44873047 C233.55994705 94.06296466 237.45873664 108.67899217 241.35058594 123.296875 C247.35213544 145.83777238 253.3807474 168.37130387 259.42727661 190.900177 C260.12082545 193.48444501 260.81422113 196.06875407 261.50756836 198.65307617 C266.23954378 216.29021476 270.97775925 233.92564491 275.73195267 251.55680847 C277.00854724 256.29203854 278.28396175 261.02758664 279.55939293 265.76313019 C280.7539872 270.19775114 281.95088174 274.63174288 283.14955902 279.06526184 C283.70322316 281.11455101 284.25576888 283.16413765 284.80780029 285.21386719 C285.47565643 287.69355816 286.14535166 290.1727548 286.81719971 292.65136719 C287.10746033 293.7312793 287.39772095 294.81119141 287.69677734 295.92382812 C287.9501889 296.86230591 288.20360046 297.80078369 288.46469116 298.7677002 C289 301 289 301 289 303 C272.5 303 256 303 239 303 C237.84886719 298.44445313 236.69773437 293.88890625 235.51171875 289.1953125 C226.97944768 255.44939219 218.41150242 221.71300485 209.75 188 C209.4549589 186.85137356 209.4549589 186.85137356 209.15395737 185.67954254 C206.95095636 177.10315558 204.74484749 168.52758183 202.5329771 159.95347786 C201.4984185 155.94091052 200.46918971 151.92701874 199.44405746 147.91203308 C198.63694799 144.75324843 197.82581545 141.59549559 197.015625 138.4375 C196.72371277 137.28854248 196.43180054 136.13958496 196.13104248 134.95581055 C195.86382385 133.917229 195.59660522 132.87864746 195.32128906 131.80859375 C194.972789 130.44432251 194.972789 130.44432251 194.61724854 129.05249023 C194.18470968 127.02687337 194.18470968 127.02687337 193 126 C186.07293991 140.23974064 179.19167148 154.49369959 172.5625 168.875 C167.67776315 179.46869358 162.64645921 189.98112225 157.54125977 200.46972656 C153.11825408 209.56164849 148.79235571 218.6910701 144.5625 227.875 C139.50737158 238.84863274 134.27862645 249.72726285 128.98260498 260.58602905 C122.57268314 273.73531497 116.37622661 286.97466359 110.2800293 300.2722168 C108.90267139 303.20741037 107.46091203 306.10560966 106 309 C105.34 309 104.68 309 104 309 C81.39176658 262.87698949 81.39176658 262.87698949 72.14355469 243.66235352 C67.33474795 233.67654334 62.48276523 223.7120662 57.625 213.75 C51.69561516 201.58947145 45.77410536 189.42524903 39.875 177.25 C39.55742737 176.59456207 39.23985474 175.93912415 38.91265869 175.26382446 C38.59617371 174.61062225 38.27968872 173.95742004 37.95361328 173.28442383 C37.31022759 171.95653995 36.66683564 170.6286591 36.0234375 169.30078125 C35.54410263 168.31148369 35.54410263 168.31148369 35.05508423 167.30220032 C30.87571276 158.6778879 26.68769959 150.05777072 22.5 141.4375 C22.12002869 140.65532104 21.74005737 139.87314209 21.34857178 139.06726074 C19.23254224 134.7114289 17.11634879 130.35567674 15 126 C12.95081089 131.91429821 11.17676041 137.83798211 9.65014648 143.90698242 C9.32659479 145.17603078 9.32659479 145.17603078 8.99650669 146.47071648 C8.28492352 149.26485283 7.57802517 152.06015221 6.87109375 154.85546875 C6.36375627 156.85102647 5.85609912 158.84650295 5.34814453 160.84190369 C4.26824377 165.08645752 3.19031091 169.33150407 2.11398315 173.57696533 C0.4328904 180.20758805 -1.25258701 186.83709043 -2.93920898 193.46630859 C-3.21965341 194.56860054 -3.50009783 195.67089249 -3.78904057 196.80658722 C-4.35649764 199.03691836 -4.9239736 201.26724469 -5.49146843 203.49756622 C-6.34532117 206.85383211 -7.19876357 210.21020214 -8.05213928 213.56658936 C-12.99533986 233.00460308 -17.97649959 252.43273283 -22.97816086 271.85577774 C-23.5634539 274.12870439 -24.14858553 276.40167255 -24.7336731 278.6746521 C-26.82106363 286.78345908 -28.91023151 294.89180502 -31 303 C-47.5 303 -64 303 -81 303 C-76.40593169 283.47520967 -76.40593169 283.47520967 -74.6159668 276.89770508 C-74.40797549 276.12436419 -74.19998419 275.35102331 -73.98569012 274.55424786 C-73.3093764 272.04199115 -72.62931199 269.53076715 -71.94921875 267.01953125 C-71.45755911 265.19582893 -70.96616252 263.37205568 -70.4750061 261.54821777 C-69.42823266 257.66297855 -68.37988119 253.7781702 -67.33023071 249.89370728 C-65.65571058 243.69642242 -63.98501065 237.4981119 -62.31518555 231.29956055 C-62.03255136 230.2504012 -61.74991716 229.20124186 -61.4587183 228.1202898 C-60.88399068 225.98679049 -60.30928022 223.85328656 -59.73458672 221.71977806 C-58.86341585 218.48599967 -57.99192036 215.25230889 -57.12037659 212.01863098 C-51.72646419 192.00241557 -46.36738775 171.9769595 -41.01694107 151.94908905 C-38.90415458 144.04133076 -36.78981924 136.13398629 -34.67578125 128.2265625 C-34.44445433 127.36126545 -34.2131274 126.4959684 -33.97479057 125.60445023 C-28.80141077 106.25326463 -23.62390221 86.9031879 -18.43832397 67.55526733 C-17.49579188 64.03837364 -16.55392214 60.52130372 -15.61270142 57.00405884 C-10.51899494 37.97081891 -5.38012818 18.95480643 0 0 Z " fill="#131313" transform="translate(1789,868)"/>
<path d="M0 0 C2.77645587 2.42870287 4.06579429 4.91201835 5.57421875 8.2578125 C6.06857422 9.34126953 6.56292969 10.42472656 7.07226562 11.54101562 C7.60529297 12.72373047 8.13832031 13.90644531 8.6875 15.125 C9.85327734 17.68189562 11.02547761 20.23581412 12.19921875 22.7890625 C12.65867386 23.7897879 12.65867386 23.7897879 13.12741089 24.81072998 C16.63762332 32.42917842 20.31877997 39.96314161 24 47.5 C29.48546449 58.74406955 34.83421146 70.03765133 40.06640625 81.40234375 C44.26515926 90.49104499 48.61197325 99.50153112 53 108.5 C58.47362698 119.72469502 63.81575284 130.99631083 69.0378418 142.34082031 C75.80839388 156.99752081 82.91748455 171.49222682 90 186 C93.76185823 172.70800686 97.2546437 159.35896387 100.6484375 145.96875 C101.18373611 143.86316976 101.71923818 141.75764124 102.25492859 139.65216064 C103.38279714 135.21802735 104.50960208 130.78362585 105.63552856 126.34899902 C108.5497872 114.8719151 111.47251337 103.39698537 114.39453125 91.921875 C114.68177755 90.79360542 114.96902386 89.66533585 115.26497459 88.50287628 C119.85681389 70.46752987 124.46230409 52.43580939 129.11578369 34.41625977 C129.74418241 31.98271878 130.37175329 29.54896387 130.99847412 27.11499023 C131.84163766 23.84165968 132.68778709 20.56911897 133.53515625 17.296875 C133.77554123 16.3624054 134.01592621 15.42793579 134.26359558 14.46514893 C134.48090836 13.62941345 134.69822113 12.79367798 134.92211914 11.93261719 C135.10795059 11.21434753 135.29378204 10.49607788 135.48524475 9.75604248 C136 8 136 8 137 6 C152.51 6 168.02 6 184 6 C183.34762858 11.21897137 182.72322488 15.55452708 181.36791992 20.51098633 C181.03130341 21.75295776 180.69468689 22.9949292 180.34786987 24.27453613 C179.9754628 25.62705102 179.60299374 26.97954884 179.23046875 28.33203125 C178.83843815 29.77154615 178.44694243 31.21120681 178.05593872 32.65100098 C177.21479496 35.74476694 176.37045406 38.83763508 175.52359009 41.92984009 C173.45701923 49.47700826 171.40799474 57.02895172 169.35680962 64.58031273 C168.64326974 67.2065201 167.92909613 69.83255457 167.21485901 72.45857239 C162.72516673 88.97323993 158.31222455 105.507959 153.91483688 122.04740143 C152.06368575 129.00868822 150.20989999 135.96927389 148.35546875 142.9296875 C148.14511301 143.71926723 147.93475727 144.50884697 147.71802711 145.32235336 C141.88738968 167.20310513 136.00623921 189.07030593 130.125 210.9375 C129.72376041 212.42940353 129.72376041 212.42940353 129.31441498 213.95144653 C125.76847713 227.13568219 122.22071955 240.31942776 118.67211151 253.50294495 C117.62456299 257.39483831 116.57717742 261.28677552 115.52978516 265.17871094 C111.68824741 279.45293837 107.8454215 293.72681831 104 308 C103.01 308 102.02 308 101 308 C100.69521729 307.34032227 100.39043457 306.68064453 100.07641602 306.00097656 C91.55527546 287.57127695 82.91585605 269.19945625 74.23483276 250.84463501 C70.45902967 242.85947266 66.69696315 234.86786558 62.9375 226.875 C62.61020905 226.17916809 62.28291809 225.48333618 61.94570923 224.76641846 C60.62487356 221.95820433 59.30405478 219.14998226 57.98335266 216.34170532 C55.6352953 211.34932128 53.28489097 206.35804634 50.93359375 201.3671875 C44.90566316 188.57054014 38.88511221 175.77076193 32.9119873 162.94842529 C27.70865678 151.77947147 22.48456538 140.62039651 17.23190308 129.47454834 C16.50967717 127.94152823 15.78807026 126.40821631 15.06716919 124.87457275 C10.1923828 114.50673016 5.16697576 104.22540885 0 94 C-0.30478271 94.65967773 -0.60956543 95.31935547 -0.92358398 95.99902344 C-9.44472454 114.42872305 -18.08414395 132.80054375 -26.76516724 151.15536499 C-32.19814256 162.64515643 -37.60341465 174.14799935 -43.01211548 185.64923096 C-45.37277587 190.66836998 -47.73663156 195.685997 -50.1015625 200.703125 C-56.22788781 213.70268165 -62.34045109 226.70749575 -68.375 239.75 C-75.41653214 254.96573546 -82.61214496 270.10797993 -89.80267334 285.25369263 C-93.55423952 293.1601297 -97.27888787 301.07919431 -101 309 C-101.66 309 -102.32 309 -103 309 C-103.16999008 308.37522263 -103.33998016 307.75044525 -103.51512146 307.10673523 C-113.31873674 271.07947429 -123.16748897 235.0647676 -133.0625 199.0625 C-133.32301651 198.1146249 -133.58353302 197.1667498 -133.85194397 196.19015121 C-136.26205297 187.42133904 -138.67253431 178.65262925 -141.08337402 169.88401794 C-144.66805287 156.84594012 -148.25148779 143.80752118 -151.83364105 130.76874924 C-152.66097458 127.75733348 -153.4883526 124.74592995 -154.31573486 121.73452759 C-156.73210491 112.93945485 -159.14809696 104.14427885 -161.56251144 95.34866905 C-162.83576494 90.71026114 -164.10923627 86.07191306 -165.3828125 81.43359375 C-165.62722832 80.54339916 -165.87164413 79.65320457 -166.12346649 78.73603439 C-169.11716006 67.83412546 -172.12106539 56.93512949 -175.14130974 46.04054642 C-176.31440566 41.80709421 -177.48436051 37.57277222 -178.65493774 33.33862305 C-179.53145401 30.17456999 -180.41339917 27.01206603 -181.2956543 23.84960938 C-181.80285805 22.0157042 -182.30979642 20.18172559 -182.81640625 18.34765625 C-183.04315033 17.54207779 -183.26989441 16.73649933 -183.50350952 15.9065094 C-184.4546581 12.44196562 -185 9.62289626 -185 6 C-168.83 6 -152.66 6 -136 6 C-131.51908571 22.37182538 -127.23708923 38.78518015 -123.05078125 55.234375 C-122.78140621 56.29278091 -122.51203117 57.35118683 -122.23449326 58.44166565 C-120.25800262 66.21047764 -118.28506209 73.98018978 -116.3125 81.75 C-114.35826025 89.44625886 -112.40294869 97.14224373 -110.44540024 104.83766174 C-109.89219375 107.01275092 -109.33926706 109.18791129 -108.78662491 111.36314392 C-105.73290707 123.37946291 -102.64838289 135.38672177 -99.49365234 147.37695312 C-99.21165954 148.45019459 -98.92966673 149.52343605 -98.63912868 150.62919998 C-97.29604187 155.73834072 -95.94747704 160.84592576 -94.58943176 165.95111084 C-94.11178979 167.76196169 -93.6342979 169.57285213 -93.15698242 171.38378906 C-92.93679884 172.20330299 -92.71661526 173.02281693 -92.48975945 173.86716461 C-91.56548209 177.3906921 -91 180.33194848 -91 184 C-90.34 184 -89.68 184 -89 184 C-88.77812012 183.23405518 -88.55624023 182.46811035 -88.32763672 181.67895508 C-86.50896713 176.63932065 -84.13591812 171.93303954 -81.7578125 167.13671875 C-81.23420135 166.07250198 -80.71059021 165.00828522 -80.17111206 163.91181946 C-78.49266239 160.50193133 -76.80910424 157.09459844 -75.125 153.6875 C-72.93828426 149.25480178 -70.75376794 144.82102375 -68.5703125 140.38671875 C-68.02451538 139.27884003 -67.47871826 138.1709613 -66.91638184 137.0295105 C-62.65265699 128.36105462 -58.45879834 119.66043748 -54.2885437 110.94670105 C-50.05536985 102.10302981 -45.76946469 93.28598678 -41.46194458 84.47833252 C-39.32016908 80.098568 -37.18167003 75.71720382 -35.04296875 71.3359375 C-34.4015519 70.02210587 -34.4015519 70.02210587 -33.74717712 68.68173218 C-29.67349048 60.33536465 -25.61408898 51.98211373 -21.5625 43.625 C-21.24010345 42.96024658 -20.91770691 42.29549316 -20.58554077 41.6105957 C-17.09460409 34.41138691 -13.61555545 27.20665238 -10.15625 19.9921875 C-9.69640968 19.03392563 -9.69640968 19.03392563 -9.22727966 18.05630493 C-7.78036066 15.04094933 -6.33557994 12.02463386 -4.89477539 9.00634766 C-4.39453857 7.96269043 -3.89430176 6.9190332 -3.37890625 5.84375 C-2.9413501 4.92787109 -2.50379395 4.01199219 -2.05297852 3.06835938 C-1 1 -1 1 0 0 Z " fill="#131313" transform="translate(573,82)"/>
<path d="M0 0 C3.18335039 2.65800731 4.64418164 6.05748892 6.3359375 9.74609375 C6.80875404 10.75641159 6.80875404 10.75641159 7.29112244 11.78713989 C8.32533964 14.00107008 9.35019237 16.21920053 10.375 18.4375 C11.09993974 19.99432238 11.82545112 21.55087869 12.55151367 23.10717773 C14.37431893 27.01815107 16.18968933 30.93252237 18.00274658 34.84802246 C19.42340576 37.91366916 20.85031812 40.97637393 22.27734375 44.0390625 C26.24913614 52.57075485 30.20135973 61.11149041 34.15234375 69.65283203 C36.53822429 74.81060949 38.92495494 79.96799284 41.3125 85.125 C41.71757782 85.99999146 42.12265564 86.87498291 42.54000854 87.77648926 C48.11153134 99.80755388 53.71971748 111.82058602 59.375 123.8125 C65.09741527 135.9471545 70.78428396 148.09724092 76.41796875 160.2734375 C78.8102752 165.44249092 81.21574558 170.60518903 83.62876892 175.76460266 C85.36593042 179.48059263 87.09909935 183.19843833 88.83187866 186.91647339 C89.68548582 188.74566612 90.54077846 190.57407338 91.39785767 192.40164185 C92.6057306 194.97790209 93.80736817 197.55699036 95.0078125 200.13671875 C95.36664017 200.89816193 95.72546783 201.6596051 96.09516907 202.44412231 C98.4490824 207.52344086 100.33616608 212.65550561 102 218 C102.66 218 103.32 218 104 218 C104.08668945 217.34523682 104.17337891 216.69047363 104.26269531 216.01586914 C105.25035868 211.97593354 106.985241 208.47686172 108.796875 204.74609375 C109.18164001 203.94193024 109.56640503 203.13776672 109.96282959 202.30923462 C110.78961365 200.58261023 111.61890043 198.85718246 112.45043945 197.13284302 C114.20855111 193.48644579 115.95402007 189.83404962 117.69995117 186.18180847 C118.57714071 184.34690709 119.45490782 182.51228171 120.33325195 180.67793274 C123.77105523 173.49502398 127.15729968 166.29024288 130.5 159.0625 C131.24817993 157.44613647 131.24817993 157.44613647 132.01147461 155.79711914 C133.36475891 152.87088761 134.71674018 149.94405787 136.06829834 147.01702881 C139.47852685 139.63426945 142.89535614 132.25456041 146.3125 124.875 C146.71784973 123.99946472 147.12319946 123.12392944 147.54083252 122.22186279 C153.11207231 110.19134305 158.71997907 98.17885928 164.375 86.1875 C169.04601455 76.28239086 173.70314317 66.3715216 178.3125 56.4375 C178.81418701 55.35774902 179.31587402 54.27799805 179.83276367 53.16552734 C182.78938839 46.79397141 185.72876203 40.41485908 188.65455627 34.02909851 C190.39519664 30.23250398 192.14077165 26.43818786 193.8868103 22.64407349 C194.75131296 20.7620698 195.61349082 18.87899641 196.47329712 16.99484253 C197.6783274 14.35458199 198.89105916 11.71798796 200.10546875 9.08203125 C200.4694577 8.27929779 200.83344666 7.47656433 201.20846558 6.64950562 C203.77231572 1.11384214 203.77231572 1.11384214 206 0 C213.7639783 27.30276134 221.32353711 54.6585583 228.79476929 82.04275513 C231.64769763 92.49950695 234.50617101 102.9547439 237.36399651 113.41015816 C238.33958922 116.97953751 239.31501319 120.54896294 240.29042053 124.11839294 C246.31432372 146.16036346 252.3566369 168.19725674 258.40977097 190.23121643 C259.18459367 193.05191966 259.95916549 195.87269168 260.7336731 198.69348145 C265.75979041 216.99754731 270.7964757 235.29852398 275.88410759 253.5855999 C276.54378078 255.95688802 277.20304582 258.32828926 277.86219788 260.69972229 C279.67527952 267.22151867 281.48958817 273.74294169 283.3143425 280.26148319 C284.19279326 283.40271902 285.06664212 286.54523588 285.94140625 289.6875 C286.25564545 290.80446762 286.56988464 291.92143524 286.89364624 293.07225037 C287.17438995 294.08352493 287.45513367 295.0947995 287.74438477 296.13671875 C287.98874771 297.01030029 288.23311066 297.88388184 288.48487854 298.78393555 C289 301 289 301 289 304 C272.83 304 256.66 304 240 304 C238.1818107 298.54543211 236.49027591 293.3462648 235.08081055 287.81567383 C234.82526083 286.81863339 234.82526083 286.81863339 234.56454849 285.80145073 C234.00216972 283.60409021 233.4444455 281.40557671 232.88671875 279.20703125 C232.48031733 277.61530753 232.07361644 276.02366024 231.66664124 274.43208313 C230.56591368 270.12414578 229.46916178 265.8152052 228.37309265 261.50608063 C227.22086963 256.97918613 226.06489208 252.45325078 224.90917969 247.92724609 C223.20563021 241.25453343 221.50322558 234.58153058 219.80219078 227.90817642 C216.46018651 214.79755938 213.10879707 201.68935609 209.75390625 188.58203125 C209.37339143 187.09531009 209.37339143 187.09531009 208.98518944 185.57855415 C207.97791882 181.64304043 206.97061622 177.70753489 205.96324825 173.77204609 C203.57987338 164.46084474 201.19744577 155.14940126 198.81579399 145.83775902 C198.39081667 144.17628032 197.96579546 142.51481285 197.54072762 140.85335732 C196.9603179 138.58471873 196.38004298 136.31604571 195.79980469 134.04736328 C195.3119046 132.140009 195.3119046 132.140009 194.81414795 130.19412231 C194.20328122 127.79752714 193.59640378 125.40022227 193 123 C187.16401098 134.54675075 181.53418991 146.18095819 176 157.875 C175.16504258 159.63627072 174.32999868 161.39750044 173.49487305 163.15869141 C166.60961319 177.68572958 159.75835284 192.22874559 152.92288208 206.77926636 C149.61939158 213.81131549 146.31094376 220.84102826 143.00219727 227.87060547 C142.00325369 229.9930868 141.0045207 232.1156671 140.00585938 234.23828125 C136.98011511 240.66920364 133.95351368 247.0997171 130.92323303 253.52850342 C122.57495171 271.23973323 114.2715507 288.97033854 106.05297852 306.7421875 C105.38701112 308.17016489 104.7046463 309.59070741 104 311 C103.34 311 102.68 311 102 311 C95.50211928 297.60886911 89.05470539 284.20006203 82.8125 270.6875 C77.6678783 259.55267361 72.44589734 248.45650984 67.1875 237.375 C65.64183786 234.11722982 64.09623305 230.85943247 62.55078125 227.6015625 C61.97773506 226.39358757 61.97773506 226.39358757 61.39311218 225.16120911 C55.89022093 213.55656944 50.42960466 201.93202624 44.9667511 190.3085022 C42.6039822 185.2820206 40.23640168 180.25782135 37.8671875 175.234375 C36.49454686 172.32303202 35.1221983 169.41155149 33.75 166.5 C33.41835846 165.79646393 33.08671692 165.09292786 32.74502563 164.36807251 C29.25666352 156.96511789 25.78392886 149.55561605 22.36328125 142.12109375 C21.93778488 141.19648849 21.93778488 141.19648849 21.50369263 140.25320435 C20.1784528 137.37114488 18.85707413 134.48738148 17.54003906 131.6015625 C17.08467773 130.60769531 16.62931641 129.61382813 16.16015625 128.58984375 C15.76449463 127.72222412 15.36883301 126.85460449 14.96118164 125.96069336 C14.15359083 124.04570238 14.15359083 124.04570238 13 123 C12.86621224 123.52668715 12.73242449 124.05337429 12.59458256 124.59602165 C-15.59168633 235.55519761 -15.59168633 235.55519761 -25.17947388 272.89141846 C-25.89233067 275.66751764 -26.60358841 278.44401866 -27.31344604 281.22088623 C-28.27263415 284.97251849 -29.23740939 288.72269853 -30.203125 292.47265625 C-30.47776077 293.54928024 -30.75239655 294.62590424 -31.03535461 295.7351532 C-31.28311142 296.6927504 -31.53086823 297.6503476 -31.78613281 298.63696289 C-32.10460175 299.87658531 -32.10460175 299.87658531 -32.42950439 301.14125061 C-33 303 -33 303 -34 304 C-35.47354348 304.09304018 -36.95150591 304.11746265 -38.42797852 304.11352539 C-39.36887833 304.11344986 -40.30977814 304.11337433 -41.27919006 304.11329651 C-42.30209641 304.10813522 -43.32500275 304.10297394 -44.37890625 304.09765625 C-45.941605 304.09553383 -45.941605 304.09553383 -47.53587341 304.09336853 C-50.87811094 304.0877508 -54.22028257 304.0751953 -57.5625 304.0625 C-59.82226466 304.05748728 -62.08203037 304.05292398 -64.34179688 304.04882812 C-69.89455391 304.03777561 -75.44727225 304.02102024 -81 304 C-79.45654599 295.42151124 -77.23741494 287.03758977 -74.984375 278.625 C-74.5769628 277.09476814 -74.16980962 275.5644673 -73.76289368 274.03410339 C-72.66016857 269.89024186 -71.55349391 265.74744457 -70.44600296 261.60485458 C-69.50609461 258.08716183 -68.56847659 254.56886026 -67.63084888 251.05055904 C-58.52689648 216.89064059 -49.36397336 182.74645766 -40.19114685 148.60498047 C-36.85004913 136.16869967 -33.51380888 123.73112155 -30.1796875 111.29296875 C-13.79411599 50.16891981 -13.79411599 50.16891981 -6.1875 22.0625 C-5.91783417 21.06514832 -5.64816833 20.06779663 -5.37033081 19.04022217 C-4.63723537 16.32992108 -3.90289226 13.61996212 -3.16796875 10.91015625 C-2.95871765 10.13641159 -2.74946655 9.36266693 -2.53387451 8.56547546 C-1.75077334 5.68389298 -0.94453576 2.83360728 0 0 Z " fill="#131313" transform="translate(1764,471)"/>
<path d="M0 0 C4.19711774 3.59752949 8.15196355 7.02463027 12.03125 10.8984375 C13.37123047 12.23648437 13.37123047 12.23648437 14.73828125 13.6015625 C15.64964844 14.51679688 16.56101562 15.43203125 17.5 16.375 C18.41136719 17.2825 19.32273437 18.19 20.26171875 19.125 C21.15503906 20.01960938 22.04835938 20.91421875 22.96875 21.8359375 C23.76732422 22.63563965 24.56589844 23.4353418 25.38867188 24.25927734 C27.44856535 26.42124109 29.41270729 28.60973741 31.36328125 30.86767578 C34.82018731 34.84699222 38.4677745 38.58047922 42.21875 42.28125 C42.88032104 42.93903442 43.54189209 43.59681885 44.22351074 44.27453613 C46.31322735 46.35217274 48.40617315 48.42650627 50.5 50.5 C53.263417 53.2365815 56.02333722 55.97662263 58.78125 58.71875 C59.40124878 59.33045044 60.02124756 59.94215088 60.66003418 60.5723877 C64.36357685 64.25545639 67.83401621 68.07180494 71.24816895 72.02331543 C74.10363003 75.24528472 77.15515419 78.25865872 80.21875 81.28125 C80.88032104 81.93903442 81.54189209 82.59681885 82.22351074 83.27453613 C84.31322735 85.35217274 86.40617315 87.42650627 88.5 89.5 C91.263417 92.2365815 94.02333722 94.97662263 96.78125 97.71875 C97.40124878 98.33045044 98.02124756 98.94215088 98.66003418 99.5723877 C102.36357685 103.25545639 105.83401621 107.07180494 109.24816895 111.02331543 C112.10363003 114.24528472 115.15515419 117.25865872 118.21875 120.28125 C118.88032104 120.93903442 119.54189209 121.59681885 120.22351074 122.27453613 C122.31322735 124.35217274 124.40617315 126.42650627 126.5 128.5 C129.263417 131.2365815 132.02333722 133.97662263 134.78125 136.71875 C135.71124817 137.63630066 135.71124817 137.63630066 136.66003418 138.5723877 C140.36793855 142.25979398 143.84342903 146.08051071 147.26159668 150.03674316 C150.04334129 153.17829211 153.01330552 156.11724269 156 159.0625 C156.639375 159.69808838 157.27875 160.33367676 157.9375 160.98852539 C159.95588397 162.9948365 161.97749876 164.99784001 164 167 C178.90992932 181.75997314 178.90992932 181.75997314 182.5625 186.0625 C188.04657579 192.34425954 194.10357777 198.10357777 200 204 C200.33 141.96 200.66 79.92 201 16 C217.17 16 233.34 16 250 16 C250 115.99 250 215.98 250 319 C245.65781713 315.27812896 241.58791349 311.71318533 237.57373047 307.70071411 C237.07449507 307.2030387 236.57525967 306.70536329 236.06089592 306.19260681 C234.41062593 304.54628343 232.76390352 302.89645961 231.1171875 301.24658203 C229.92576389 300.0565153 228.73412805 298.866661 227.54229736 297.67700195 C224.32100009 294.46024543 221.10285237 291.24035545 217.88541412 288.01973963 C214.50828159 284.64006552 211.12869865 281.26284315 207.74951172 277.88522339 C202.07534874 272.21287711 196.40329135 266.53843176 190.73242188 260.86279297 C184.18994333 254.31487539 177.64387382 247.77056436 171.09592247 241.22811997 C165.4607495 235.59749548 159.8275408 229.96491141 154.19594765 224.33070648 C150.83834872 220.97155398 147.48009083 217.61306775 144.12005615 214.25635147 C140.95932485 211.09852403 137.80107886 207.93823122 134.64467621 204.77607727 C133.49066216 203.62074895 132.33581116 202.46625589 131.18003082 201.31269455 C129.59310377 199.72853192 128.00933907 198.14126942 126.42626953 196.55325317 C125.54214386 195.66875048 124.65801819 194.78424778 123.74710083 193.87294197 C120.38321838 190.35496441 117.20522485 186.66311411 114 183 C92.88 161.88 71.76 140.76 50 119 C49.67 181.37 49.34 243.74 49 308 C32.83 308 16.66 308 0 308 C0 206.36 0 104.72 0 0 Z " fill="#131313" transform="translate(959,467)"/>
<path d="M0 0 C0.63099609 0.30663574 1.26199219 0.61327148 1.91210938 0.92919922 C16.53488945 8.11761481 28.9328168 17.34250811 40.61474609 28.66162109 C41.80926144 29.81571576 43.02212082 30.95076858 44.23828125 32.08203125 C63.95349576 50.84901901 76.47204944 76.91996396 83 103 C83.17934082 103.70608398 83.35868164 104.41216797 83.54345703 105.13964844 C88.41764074 125.3624285 88.09353179 149.86578555 83 170 C82.70996094 171.1746582 82.70996094 171.1746582 82.4140625 172.37304688 C72.60339613 210.91927616 47.3354278 244.49444688 13.17578125 264.94140625 C-12.68485878 279.89519732 -40.53191318 287.45847275 -70.4375 287.375 C-71.17678741 287.37445618 -71.91607483 287.37391235 -72.67776489 287.37335205 C-115.52401041 287.22933106 -155.13613527 270.74883594 -185.6875 240.75 C-203.22270002 223.05075159 -215.28419631 201.28288173 -222.25 177.4375 C-222.49645264 176.59936768 -222.74290527 175.76123535 -222.99682617 174.89770508 C-226.32635584 162.98712696 -227.35177172 151.30220889 -227.31567383 138.99951172 C-227.31252272 136.76609974 -227.33604514 134.53403009 -227.36132812 132.30078125 C-227.4220961 118.62150701 -225.43733311 105.35943856 -221.4375 92.25 C-221.06286621 91.02083862 -221.06286621 91.02083862 -220.68066406 89.7668457 C-207.96177164 50.07110718 -179.16362805 18.93642391 -142.5 -0.0625 C-98.23761957 -22.16130311 -44.20483013 -21.74666487 0 0 Z M-146 54 C-146.76183594 54.68320312 -147.52367187 55.36640625 -148.30859375 56.0703125 C-164.05604991 70.86255035 -173.01774087 90.26101333 -178 111 C-178.24621094 112.01578125 -178.49242187 113.0315625 -178.74609375 114.078125 C-184.31510857 142.80656005 -178.24160037 172.28476218 -163 197 C-160.50176736 200.4935044 -157.80985638 203.75450697 -155 207 C-154.39671875 207.74765625 -153.7934375 208.4953125 -153.171875 209.265625 C-135.54740113 230.44461461 -107.91353703 241.49390613 -81 244 C-51.52621073 245.68804133 -22.53426703 238.84530407 0 219 C0.81855469 218.32453125 1.63710937 217.6490625 2.48046875 216.953125 C21.9697514 200.39478873 33.61830609 175.72972936 36.75390625 150.515625 C39.004852 118.35925712 32.00693928 86.30373194 10.57470703 61.33984375 C-8.64956896 39.88134469 -34.54287738 29.24292592 -63 27 C-92.85749462 25.50556857 -123.78132955 33.15376829 -146 54 Z " fill="#131313" transform="translate(1536,493)"/>
<path d="M0 0 C164.03719008 0 164.03719008 0 212 45.625 C238.90112041 73.25202366 248.448058 110.45108728 248.23217773 148.10888672 C247.60983269 187.3948088 234.68511412 222.22616355 206.73828125 250.26953125 C152.54271172 301.41939935 66.42110347 292 0 292 C0 195.64 0 99.28 0 0 Z M49 41 C49 109.97 49 178.94 49 250 C88.34857232 251.04986286 88.34857232 251.04986286 126.875 244.25 C127.73029297 243.99323486 128.58558594 243.73646973 129.46679688 243.47192383 C152.6647697 236.28202267 173.08026583 223.631425 185.359375 202.1171875 C200.45492578 173.43564102 203.27830059 138.51467112 194.125 107.38671875 C186.41646331 84.18081142 173.00226621 66.67327284 151.1875 55.25 C118.58419228 39.8044505 84.7378502 41 49 41 Z " fill="#131313" transform="translate(1830,88)"/>
<path d="M0 0 C150.79581311 0 150.79581311 0 178.1875 25.6875 C193.34208353 41.44250284 199.76945633 62.39200307 200.4375 83.8125 C199.92188901 106.47696562 192.35170831 127.0843435 176.8125 143.75 C163.56484797 156.28343079 147.70668396 161.98765958 130 165 C130.3810791 165.50635986 130.7621582 166.01271973 131.15478516 166.53442383 C138.12687423 175.8031153 145.07929238 185.08413551 151.9375 194.4375 C156.96364119 201.29015496 162.08245297 208.06592981 167.25 214.8125 C171.99271254 221.00504281 176.65131521 227.23151325 181.13378906 233.61450195 C184.95235225 239.01411481 188.97680607 244.25193196 193 249.5 C198.31531489 256.43465179 203.51216763 263.42066661 208.5390625 270.56640625 C210.4026417 273.19518945 212.32596084 275.77261326 214.2734375 278.33984375 C215.1082666 279.44042114 215.1082666 279.44042114 215.95996094 280.56323242 C217.0501369 281.99500751 218.14439136 283.42368852 219.24316406 284.84887695 C223 289.78235193 223 289.78235193 223 292 C215.38876495 292.40825307 207.78037524 292.68685255 200.16064453 292.87890625 C197.57396004 292.95900336 194.98799188 293.06793087 192.40380859 293.20703125 C171.56140408 294.30019246 171.56140408 294.30019246 165.69747925 290.51287842 C161.88088909 286.85597848 159.33421255 282.61052729 156.97711182 277.91296387 C155.76440429 275.53875691 154.27297646 273.46969565 152.66015625 271.3515625 C151.79202702 270.1109421 150.92607621 268.86879398 150.0625 267.625 C144.33423441 259.44760377 138.49901728 251.35096029 132.64111328 243.26611328 C129.92351827 239.513552 127.21205527 235.75656581 124.5 232 C123.41669638 230.49997854 122.33336304 228.99997854 121.25 227.5 C119.08333333 224.5 116.91666667 221.5 114.75 218.5 C114.2135083 217.75717773 113.6770166 217.01435547 113.12426758 216.24902344 C112.04332809 214.75231299 110.96243599 213.25556832 109.8815918 211.75878906 C107.1370246 207.95817363 104.39158034 204.15819702 101.64453125 200.359375 C96.12631254 192.72656329 90.61631613 185.08852691 85.1574707 177.41308594 C83.13975927 174.57916788 81.08786848 171.78382464 79 169 C69.1 168.67 59.2 168.34 49 168 C49 208.92 49 249.84 49 292 C32.83 292 16.66 292 0 292 C0 195.64 0 99.28 0 0 Z M49 41 C49 70.04 49 99.08 49 129 C56.71375 129.04125 64.4275 129.0825 72.375 129.125 C74.76927246 129.14320801 77.16354492 129.16141602 79.63037109 129.18017578 C113.01595851 129.6371928 113.01595851 129.6371928 142 115 C149.85309344 106.95911519 153.10285829 96.07930725 153 85 C152.36507053 73.30108683 149.46456638 62.85793998 140.8125 54.5625 C116.45800768 34.93229047 76.23337704 41 49 41 Z " fill="#131313" transform="translate(1239,88)"/>
<path d="M0 0 C152.22520661 0 152.22520661 0 179.94921875 26.890625 C194.38750834 42.33472803 202.47049811 64.05442345 202.1484375 85.1171875 C200.92668119 108.84498109 192.11501595 129.68751262 174.8125 146.1875 C162.34598623 156.73110263 147.76275436 161.6675981 132 165 C132.35602295 165.48130371 132.7120459 165.96260742 133.07885742 166.45849609 C142.3411982 178.98702293 151.50353855 191.58343184 160.60449219 204.22949219 C167.27234294 213.49152195 173.98677039 222.71584893 180.76928711 231.89428711 C185.2559876 237.97250114 189.68593798 244.08979014 194.09887695 250.22167969 C198.09006274 255.75977565 202.12995694 261.26038291 206.1875 266.75 C210.44804712 272.51926953 214.69247894 278.29882955 218.875 284.125 C219.2980542 284.71120117 219.7211084 285.29740234 220.15698242 285.90136719 C223 289.88074512 223 289.88074512 223 291 C172.66734791 294.85965352 172.66734791 294.85965352 162.97070312 289.01660156 C157.42422523 284.03855153 154.69382606 277.90255327 152.18359375 270.98779297 C150.40133298 266.48876093 147.6757217 262.93911536 144.75 259.125 C143.78064162 257.7671546 142.8170029 256.4052062 141.859375 255.0390625 C141.38951172 254.37551758 140.91964844 253.71197266 140.43554688 253.02832031 C137.95349984 249.52137359 135.47710676 246.01043706 133 242.5 C132.00002554 241.0833153 131.00002558 239.66664861 130 238.25 C112 212.75 112 212.75 110.49951172 210.62426758 C109.50119046 209.21000622 108.5028182 207.79578086 107.50439453 206.3815918 C100.78278408 196.86058959 100.78278408 196.86058959 98.40332031 193.46875 C97.38766775 192.03580376 96.35836176 190.61243415 95.31542969 189.19921875 C92.86031524 185.84405274 90.77188138 182.69178873 89.1484375 178.85546875 C87.12881737 174.20058281 87.12881737 174.20058281 81 169 C70.44 168.67 59.88 168.34 49 168 C49 208.59 49 249.18 49 291 C32.83 291 16.66 291 0 291 C0 194.97 0 98.94 0 0 Z M49 41 C49 70.04 49 99.08 49 129 C97.19551946 132.27420517 97.19551946 132.27420517 143.3125 114.9296875 C153.20260074 104.4941768 154.49092376 93.54300096 154.27734375 79.75390625 C153.84566535 68.82879164 148.90929908 60.7977241 141.25 53.3125 C125.7498242 42.28352876 106.3776444 40.81215623 87.8671875 40.90234375 C86.37844116 40.90385437 86.37844116 40.90385437 84.85961914 40.90539551 C81.19806745 40.91057629 77.53653241 40.924537 73.875 40.9375 C61.561875 40.9684375 61.561875 40.9684375 49 41 Z " fill="#131313" transform="translate(1075,880)"/>
<path d="M0 0 C16.5 0 33 0 50 0 C50.01458252 5.69693115 50.02916504 11.3938623 50.04418945 17.26342773 C50.09460157 36.11871134 50.16106013 54.97391341 50.23571491 73.82911587 C50.28057374 85.25724296 50.32001101 96.68533958 50.34643555 108.11352539 C50.36949618 118.08080881 50.4029835 128.04799498 50.44870156 138.01520115 C50.47252548 143.28687108 50.49132494 148.55844534 50.49761391 153.83016777 C50.50371414 158.80505488 50.52388955 163.77969756 50.55427551 168.75449371 C50.56297735 170.56791287 50.56679489 172.38136408 50.56500816 174.19480324 C50.55091505 195.12264207 53.09840991 215.72654408 66 233 C66.56460937 233.55300781 67.12921875 234.10601563 67.7109375 234.67578125 C69 236 69 236 69 238 C69.57878906 238.27199219 70.15757813 238.54398438 70.75390625 238.82421875 C72.98869345 239.99408127 74.89970535 241.33011195 76.9375 242.8125 C93.17722633 253.68328243 113.39940698 255.11154811 132.16357422 251.41040039 C145.99766925 248.38914188 157.77429789 241.72115059 166 230 C177.57652011 210.39578729 179.29256608 189.35779942 179.31884766 167.109375 C179.32817111 165.27452159 179.33834326 163.43967233 179.34928894 161.60482788 C179.37633093 156.67618921 179.39166078 151.74757869 179.40471697 146.8188858 C179.42046181 141.64859326 179.44721515 136.47835727 179.4727478 131.30810547 C179.51933622 121.54093601 179.55617614 111.77375567 179.58942068 102.00653267 C179.62778385 90.87695487 179.67715632 79.74743416 179.72740483 68.61790466 C179.8304278 45.74530689 179.91833081 22.87268468 180 0 C196.17 0 212.34 0 229 0 C229.06787037 25.6355071 229.12307086 51.27094081 229.15543652 76.90651512 C229.1708677 88.811082 229.19188513 100.71558885 229.22631836 112.62011719 C229.25633593 123.00302823 229.2756022 133.38589578 229.28226548 143.76884902 C229.2861569 149.26024428 229.29522314 154.75151516 229.31719017 160.24287033 C229.33775108 165.42535077 229.34379472 170.60765713 229.33932304 175.79017448 C229.34013957 177.67899081 229.34598723 179.56781376 229.35761642 181.45659447 C229.44645922 196.64818187 228.42710479 211.8171291 223.25 226.25 C222.99250977 226.98758545 222.73501953 227.7251709 222.46972656 228.48510742 C212.86242394 255.18775736 194.42360693 274.7013522 168.95556641 287.10400391 C142.90365439 299.04039805 109.60198895 300.73154603 82 294 C81.29520508 293.83371094 80.59041016 293.66742187 79.86425781 293.49609375 C64.37207734 289.72942223 50.37916512 283.12499241 38 273 C37.09894531 272.27425781 36.19789062 271.54851562 35.26953125 270.80078125 C13.78259852 252.4656694 2.83570051 225.00674396 0.46022034 197.31904602 C-0.18641767 188.57532281 -0.13219178 179.84478393 -0.11352539 171.08276367 C-0.11324277 169.20894879 -0.11340272 167.33513379 -0.1139679 165.46131897 C-0.11425293 160.41265317 -0.10840388 155.36401148 -0.10139394 150.31535125 C-0.09511131 145.02495813 -0.09455273 139.73456436 -0.09336853 134.44416809 C-0.09026963 124.44312657 -0.08207577 114.44209609 -0.07201904 104.44105941 C-0.06081301 93.0479895 -0.05533617 81.65491905 -0.05032361 70.26184499 C-0.03989186 46.84122249 -0.02156442 23.42061508 0 0 Z " fill="#131313" transform="translate(1395,880)"/>
<path d="M0 0 C56.1 0 112.2 0 170 0 C170 14.19 170 28.38 170 43 C130.07 43 90.14 43 49 43 C49 65.44 49 87.88 49 111 C88.27 111 127.54 111 168 111 C168 125.52 168 140.04 168 155 C128.73 155 89.46 155 49 155 C49 185.69 49 216.38 49 248 C88.93 248 128.86 248 170 248 C170 262.52 170 277.04 170 292 C113.9 292 57.8 292 0 292 C0 195.64 0 99.28 0 0 Z " fill="#141414" transform="translate(0,483)"/>
<path d="M0 0 C-1.57932142 4.61084815 -4.04993034 8.29051897 -6.7890625 12.26953125 C-7.48399307 13.29103523 -7.48399307 13.29103523 -8.19296265 14.33317566 C-9.66585234 16.49602927 -11.14530839 18.65429571 -12.625 20.8125 C-13.62804171 22.28290475 -14.63065072 23.75360476 -15.6328125 25.22460938 C-18.08354392 28.81984494 -20.5401722 32.41098265 -23 36 C-26.273107 34.92023297 -29.52889141 33.82383323 -32.75 32.59765625 C-62.64556999 21.63051212 -96.83751213 21.8402724 -126.07128906 34.92724609 C-135.11695565 39.2020741 -143.70706425 44.41721301 -150.640625 51.73046875 C-152 53 -152 53 -154 53 C-154.38285156 53.87011719 -154.38285156 53.87011719 -154.7734375 54.7578125 C-156.12224635 57.22346943 -157.66357664 58.86669003 -159.625 60.875 C-179.68252589 83.10874931 -184.98993434 113.83239881 -184.17919922 142.68408203 C-182.84604325 167.35291637 -172.33514508 189.75908799 -156 208 C-155.42765625 208.64324219 -154.8553125 209.28648437 -154.265625 209.94921875 C-136.22079829 229.06814229 -108.99630532 239.42142983 -83.0390625 240.203125 C-63.11351857 240.49131573 -43.41568033 238.4494082 -26 228 C-24.68 228 -23.36 228 -22 228 C-20.27289464 230.14271895 -18.86732768 232.16894063 -17.4375 234.5 C-16.56128373 235.87198112 -15.68362687 237.24304305 -14.8046875 238.61328125 C-14.34932617 239.33080566 -13.89396484 240.04833008 -13.42480469 240.78759766 C-11.04992539 244.47525294 -8.55628296 248.07965161 -6.0625 251.6875 C-5.60222412 252.3578125 -5.14194824 253.028125 -4.66772461 253.71875 C-4.23210205 254.35167969 -3.79647949 254.98460937 -3.34765625 255.63671875 C-2.94305176 256.22630371 -2.53844727 256.81588867 -2.12158203 257.42333984 C-1.17902785 258.7483322 -0.15802632 260.01702018 0.87890625 261.26953125 C1.43384766 262.12611328 1.43384766 262.12611328 2 263 C1 266 1 266 -1.52734375 267.61328125 C-34.79717841 284.19103392 -76.63041201 289.85375141 -113 281 C-114.24813477 280.70198486 -114.24813477 280.70198486 -115.52148438 280.39794922 C-150.14724909 271.88184828 -182.38207594 252.70767334 -204 224 C-204.4031543 223.47712402 -204.80630859 222.95424805 -205.22167969 222.41552734 C-212.07427123 213.49557056 -217.3753188 204.24309555 -222 194 C-222.54527344 192.80890625 -223.09054688 191.6178125 -223.65234375 190.390625 C-238.54011016 155.69038574 -238.60051846 114.90095803 -225.13623047 79.74462891 C-209.32531275 40.48964772 -179.07696825 10.10487136 -140.46484375 -7.06640625 C-129.34799035 -11.75650162 -117.8075293 -14.63800612 -106 -17 C-104.16115234 -17.37125 -104.16115234 -17.37125 -102.28515625 -17.75 C-69.4283631 -23.16967722 -28.58835746 -18.19758907 0 0 Z " fill="#131313" transform="translate(2547,496)"/>
<path d="M0 0 C-3.14125116 5.82261692 -6.8446091 11.02637467 -10.8125 16.3125 C-12.0620894 17.99152439 -13.3107962 19.67120603 -14.55859375 21.3515625 C-15.15269043 22.15110352 -15.74678711 22.95064453 -16.35888672 23.77441406 C-19.32169865 27.7924137 -22.18210792 31.87909767 -25 36 C-26.155 35.608125 -27.31 35.21625 -28.5 34.8125 C-44.01398409 29.49247639 -44.01398409 29.49247639 -60 26 C-60.74765625 25.88914062 -61.4953125 25.77828125 -62.265625 25.6640625 C-91.24570934 22.11352237 -122.05659404 28.16420952 -145.6875 45.75 C-147.47007902 47.15185847 -149.24184524 48.56762889 -151 50 C-151.84691406 50.64710938 -152.69382812 51.29421875 -153.56640625 51.9609375 C-172.31895553 67.67334637 -184.03202519 95.31916215 -186.203125 119.23779297 C-188.82104422 151.56531943 -181.03532153 180.78972916 -160 206 C-142.46551503 226.14397275 -115.44862727 238.09933954 -89 240 C-68.56626794 240.88502264 -48.0481181 239.34977525 -30.015625 228.8203125 C-27.44045755 227.77227924 -26.5674758 227.96614317 -24 229 C-22.20410156 231.03442383 -22.20410156 231.03442383 -20.390625 233.70703125 C-19.72160156 234.68148193 -19.05257812 235.65593262 -18.36328125 236.65991211 C-17.31720703 238.22044312 -17.31720703 238.22044312 -16.25 239.8125 C-15.53714844 240.85736572 -14.82429687 241.90223145 -14.08984375 242.97875977 C-12.04791724 245.97795599 -10.02131154 248.9868843 -8 252 C-7.24493164 253.12003418 -7.24493164 253.12003418 -6.47460938 254.26269531 C-4.29574421 257.49505974 -2.13308053 260.73722879 0 264 C-10.86859526 277.19757995 -39.06188479 281.60420523 -55.1015625 283.53125 C-74.34871375 285.3375948 -95.1614398 285.60498138 -114 281 C-115.26408691 280.69400879 -115.26408691 280.69400879 -116.55371094 280.38183594 C-128.55616715 277.3866716 -139.89952476 273.4561658 -151 268 C-152.11632812 267.45601562 -153.23265625 266.91203125 -154.3828125 266.3515625 C-189.63042737 248.260618 -216.29159653 216.75295466 -228.49609375 179.1484375 C-240.14385124 140.8887388 -236.45149706 100.75978597 -219 65 C-218.50628906 63.98292969 -218.01257813 62.96585938 -217.50390625 61.91796875 C-211.86791783 51.01320928 -204.39350553 41.11079832 -196.0078125 32.18359375 C-193.93597301 29.98391819 -193.93597301 29.98391819 -191.95703125 27.421875 C-189.02095865 23.78841191 -185.59727701 20.96314164 -182 18 C-181.071875 17.23429688 -180.14375 16.46859375 -179.1875 15.6796875 C-128.85747465 -24.45850772 -56.80695548 -30.77043422 0 0 Z " fill="#131313" transform="translate(497,496)"/>
<path d="M0 0 C1.31253754 -0.00281982 2.62507507 -0.00563965 3.97738647 -0.00854492 C5.44561781 -0.00660032 6.91384901 -0.00455213 8.38208008 -0.00241089 C9.91753175 -0.00376486 11.45298311 -0.00554477 12.98843384 -0.00772095 C17.17013463 -0.01229573 21.35181087 -0.01050554 25.53351212 -0.00734186 C29.89994627 -0.00481849 34.26637826 -0.00715573 38.6328125 -0.00872803 C45.96688211 -0.01054979 53.30094168 -0.00814324 60.63500977 -0.00338745 C69.12660751 0.00205518 77.61818124 0.00029253 86.1097784 -0.00521386 C93.38703842 -0.00974479 100.66429119 -0.01039563 107.94155216 -0.00777519 C112.29383297 -0.00621231 116.64610248 -0.00601895 120.99838257 -0.00931168 C125.08915715 -0.01219011 129.17990064 -0.01021521 133.27067184 -0.00441742 C134.77638065 -0.00308967 136.28209205 -0.00348419 137.78779984 -0.00568008 C139.83460652 -0.00839098 141.8814189 -0.0043973 143.92822266 0 C145.07639969 0.00037703 146.22457672 0.00075405 147.407547 0.0011425 C149.96411133 0.12698364 149.96411133 0.12698364 150.96411133 1.12698364 C150.96411133 15.31698364 150.96411133 29.50698364 150.96411133 44.12698364 C115.32411133 44.12698364 79.68411133 44.12698364 42.96411133 44.12698364 C42.96411133 66.56698364 42.96411133 89.00698364 42.96411133 112.12698364 C77.28411133 112.12698364 111.60411133 112.12698364 146.96411133 112.12698364 C146.96411133 125.98698364 146.96411133 139.84698364 146.96411133 154.12698364 C112.64411133 154.12698364 78.32411133 154.12698364 42.96411133 154.12698364 C42.96411133 199.66698364 42.96411133 245.20698364 42.96411133 292.12698364 C26.46411133 292.12698364 9.96411133 292.12698364 -7.03588867 292.12698364 C-7.05847276 255.07232643 -7.07638622 218.01767102 -7.086954 180.96300832 C-7.08820478 176.5931062 -7.08949909 172.2232041 -7.09082031 167.853302 C-7.09108262 166.98329541 -7.09134493 166.11328883 -7.09161519 165.2169184 C-7.09597216 151.11086435 -7.10385986 137.00481435 -7.11304147 122.89876271 C-7.12237725 108.43572942 -7.12794412 93.97269827 -7.12997717 79.50966209 C-7.13135255 70.577812 -7.13570397 61.64597338 -7.14380514 52.71412682 C-7.14907167 46.59777518 -7.15069318 40.48142951 -7.14939005 34.36507577 C-7.14874652 30.83085398 -7.14976581 27.29665227 -7.15509415 23.76243401 C-7.16081548 19.93985625 -7.15888974 16.11730511 -7.15614319 12.29472351 C-7.15905603 11.1653704 -7.16196887 10.03601729 -7.16496998 8.87244135 C-7.16297893 7.85678219 -7.16098788 6.84112303 -7.1589365 5.79468632 C-7.15931622 4.91107711 -7.15969594 4.0274679 -7.16008717 3.11708266 C-6.89221068 -1.17524574 -3.58045372 0.00117571 0 0 Z " fill="#131313" transform="translate(427.035888671875,878.8730163574219)"/>
<path d="M0 0 C0.80050781 0.20133545 1.60101562 0.4026709 2.42578125 0.61010742 C6.26013656 1.65276098 8.73089125 2.53924981 11.375 5.5 C10.72144531 7.22669922 10.72144531 7.22669922 10.0546875 8.98828125 C5.77888123 20.38439714 1.93324555 31.86075724 -1.625 43.5 C-5.8677391 44.71552927 -8.27194968 44.19159746 -12.375 42.6875 C-39.78420254 33.75710594 -72.39038861 37.76108647 -98 50.375 C-122.14699212 62.76282703 -139.09745243 82.96425241 -147.97998047 108.48779297 C-150.85733913 117.46401934 -153.26546094 127.06209964 -153.625 136.5 C-153.6765625 137.70398438 -153.728125 138.90796875 -153.78125 140.1484375 C-154.66823088 171.10846839 -144.32388826 199.86767606 -123.07080078 222.50512695 C-99.2481027 247.04357426 -68.6116066 252.85066967 -35.625 254.5 C-35.625 268.69 -35.625 282.88 -35.625 297.5 C-77.30086894 298.40599715 -116.17998739 288.96036851 -148.625 261.5 C-149.20427246 261.01031738 -149.78354492 260.52063477 -150.38037109 260.01611328 C-178.97804218 235.46566426 -197.77919226 200.08487936 -201.4140625 162.43505859 C-202.61258947 145.75833265 -202.65302405 128.7975485 -198.625 112.5 C-198.35091309 111.35289551 -198.35091309 111.35289551 -198.07128906 110.18261719 C-191.31615608 82.8182279 -177.30450661 59.43592769 -157.625 39.5 C-157.08045166 38.9342627 -156.53590332 38.36852539 -155.97485352 37.78564453 C-151.96994411 33.67680635 -147.78778141 30.05083966 -143.1875 26.625 C-142.49793213 26.11106689 -141.80836426 25.59713379 -141.09790039 25.06762695 C-133.96302153 19.85868795 -126.4718491 15.53529611 -118.625 11.5 C-118.01865723 11.18192383 -117.41231445 10.86384766 -116.78759766 10.53613281 C-81.02500555 -8.03906428 -38.54925413 -9.75134282 0 0 Z " fill="#131313" transform="translate(749.625,482.5)"/>
<path d="M0 0 C16.5 0 33 0 50 0 C50 82.5 50 165 50 250 C93.23 250 136.46 250 181 250 C181 263.86 181 277.72 181 292 C121.27 292 61.54 292 0 292 C0 195.64 0 99.28 0 0 Z " fill="#131313" transform="translate(1565,88)"/>
<path d="M0 0 C20.17996455 9.42891447 34.19329475 41.50787539 41.8046875 60.87109375 C54.21475503 95.58882868 53.75445736 137.37573138 38.20800781 171.07763672 C30.94499486 186.34501679 22.87242311 199.3561936 11.30859375 211.8046875 C9.21930233 214.05096106 9.21930233 214.05096106 7.31640625 216.578125 C3.58686971 221.08908824 -1.14933504 224.45648277 -5.734375 228.05859375 C-6.66636719 228.80625 -7.59835937 229.55390625 -8.55859375 230.32421875 C-27.05941503 244.76142171 -48.10043223 253.45652698 -70.734375 259.05859375 C-71.77924072 259.32978027 -71.77924072 259.32978027 -72.84521484 259.60644531 C-112.75390534 269.59106174 -158.07892995 259.73410322 -192.734375 239.05859375 C-202.2513545 233.19785496 -213.34622662 226.3485481 -219.734375 217.05859375 C-212.62656716 203.21556477 -202.47509623 191.11493863 -192.734375 179.05859375 C-189.53784023 180.43545613 -187.78033316 181.92103272 -185.609375 184.62109375 C-169.05497021 204.01640275 -144.10125511 215.94421721 -118.734375 218.05859375 C-88.62291104 219.55041876 -59.4846183 213.49415596 -36.18359375 193.29296875 C-34.97123047 192.18695313 -34.97123047 192.18695313 -33.734375 191.05859375 C-32.95707031 190.3625 -32.17976563 189.66640625 -31.37890625 188.94921875 C-12.49944741 171.14208718 -1.28586357 144.22663376 -0.3984375 118.46484375 C0.00372349 87.67964063 -6.60861749 58.5512968 -27.734375 35.05859375 C-30.89359191 31.86038753 -34.26493006 28.91534948 -37.734375 26.05859375 C-36.19843559 21.70339713 -32.8490558 19.57151905 -29.234375 16.99609375 C-28.58162598 16.52655273 -27.92887695 16.05701172 -27.25634766 15.57324219 C-21.97469878 11.83026318 -16.5838017 8.26266958 -11.109375 4.80859375 C-9.97338867 4.07370728 -9.97338867 4.07370728 -8.81445312 3.32397461 C-3.54002596 0.0758577 -3.54002596 0.0758577 0 0 Z " fill="#131313" transform="translate(1089.734375,122.94140625)"/>
<path d="M0 0 C0.72233826 0.00149048 1.44467651 0.00298096 2.18890381 0.0045166 C13.29934153 0.04565159 23.92158697 0.70607414 34.75 3.3125 C36.0184375 3.60253906 37.286875 3.89257812 38.59375 4.19140625 C68.87607764 11.66813797 94.80605093 27.32083187 116.75 49.3125 C117.57886719 50.12976563 118.40773438 50.94703125 119.26171875 51.7890625 C144.94740407 78.62760622 158.11931906 117.07088467 157.75 153.78515625 C156.93214414 184.17015941 148.17168696 214.80037777 129.75 239.3125 C129.13898438 240.13234375 128.52796875 240.9521875 127.8984375 241.796875 C119.34790527 252.84571088 109.92237197 262.89537423 98.75 271.3125 C97.71617187 272.11171875 96.68234375 272.9109375 95.6171875 273.734375 C66.1899973 295.97162285 66.1899973 295.97162285 53.34472656 295.16064453 C49.7836346 293.99662181 49.08208121 292.38121676 47.2265625 289.16796875 C46.28296875 287.56211914 46.28296875 287.56211914 45.3203125 285.92382812 C44.67835938 284.79396484 44.03640625 283.66410156 43.375 282.5 C42.74078125 281.41267578 42.1065625 280.32535156 41.453125 279.20507812 C40.17939614 277.01764377 38.91275523 274.82606641 37.65332031 272.63037109 C35.70864498 269.24040987 33.74426859 265.86309393 31.7734375 262.48828125 C30.90211182 260.99615112 30.90211182 260.99615112 30.01318359 259.47387695 C29.59633301 258.76062256 29.17948242 258.04736816 28.75 257.3125 C31.56788184 254.49461816 34.98253 253.77814982 38.6875 252.5625 C65.37513861 243.41524553 84.09772975 224.45838998 96.671875 199.6796875 C99.72984861 193.41772892 101.93602188 187.0491168 103.75 180.3125 C104.06839844 179.14332031 104.38679687 177.97414063 104.71484375 176.76953125 C108.77697953 159.00470703 108.53997285 138.90159059 103.75 121.3125 C103.42128906 120.09175781 103.09257813 118.87101563 102.75390625 117.61328125 C98.66682248 104.07923569 92.12621826 90.95798799 82.75 80.3125 C82.09773437 79.5184375 81.44546875 78.724375 80.7734375 77.90625 C63.18477422 57.18360672 37.42234365 46.75204363 10.75 44.3125 C-8.20319223 43.02227677 -26.51357228 45.55472421 -44.25 52.3125 C-45.58611328 52.80169922 -45.58611328 52.80169922 -46.94921875 53.30078125 C-48.72269344 53.95384087 -50.48793595 54.62925067 -52.25 55.3125 C-56.45792117 40.89813173 -58.30185894 26.17099066 -60.25 11.3125 C-53.18889196 8.49360659 -46.24951658 5.753489 -38.8125 4.125 C-38.17763672 3.97353516 -37.54277344 3.82207031 -36.88867188 3.66601562 C-24.6627117 0.87388672 -12.49928788 -0.06411184 0 0 Z " fill="#131313" transform="translate(816.25,873.6875)"/>
<path d="M0 0 C0.13051758 0.63276855 0.26103516 1.26553711 0.39550781 1.91748047 C1.01228451 4.90360864 1.63121568 7.88928722 2.25 10.875 C2.58572021 12.50393188 2.58572021 12.50393188 2.92822266 14.16577148 C3.98119999 19.24371922 5.05359784 24.31101931 6.2578125 29.35546875 C6.44698242 30.15678223 6.63615234 30.9580957 6.83105469 31.78369141 C7.18310817 33.25858692 7.54510427 34.73115941 7.91894531 36.20068359 C9.00487877 40.77996102 9.14238861 44.4249796 8 49 C6.50390625 51.203125 6.50390625 51.203125 4.5625 53.25 C-14.34605193 75.72300068 -20.24541997 106.80343363 -17.79345703 135.40966797 C-14.62968492 163.64439036 -1.72575581 189.50325444 20 208 C24.43132061 211.40416069 29.1452492 214.24580881 34 217 C34.98613281 217.56332031 35.97226562 218.12664062 36.98828125 218.70703125 C42.28814029 221.53983818 47.72766254 223.76423639 53.4375 225.625 C54.0970166 225.84043457 54.7565332 226.05586914 55.43603516 226.27783203 C59.3922856 227.47559593 63.14884065 228.17312371 67.26953125 228.53125 C80.588062 229.84132794 80.588062 229.84132794 84.89257812 233.69384766 C88.48271787 238.1306585 91.00365999 243.12535641 93.54052734 248.21386719 C96.14667657 253.18900519 99.27489898 257.84319486 102.3125 262.5625 C103.44323846 264.32849708 104.56519396 266.10016765 105.67578125 267.87890625 C106.14927002 268.6272876 106.62275879 269.37566895 107.1105957 270.14672852 C107.40409912 270.75830811 107.69760254 271.3698877 108 272 C107.67 272.66 107.34 273.32 107 274 C90.90398049 278.49391261 70.16351327 275.44423857 54 272 C53.21367188 271.83371094 52.42734375 271.66742187 51.6171875 271.49609375 C17.06271158 263.89861126 -15.5661228 244.35168942 -37 216 C-37.40460449 215.47567383 -37.80920898 214.95134766 -38.22607422 214.41113281 C-45.07342279 205.49720653 -50.39489199 196.24541384 -55 186 C-55.27827637 185.38543945 -55.55655273 184.77087891 -55.84326172 184.13769531 C-71.19918202 149.64479528 -72.88065888 109.47996873 -60 74 C-59.6289917 72.97374512 -59.6289917 72.97374512 -59.25048828 71.92675781 C-49.63758927 45.89408592 -33.04007147 22.90516828 -11 6 C-10.22011719 5.37738281 -9.44023438 4.75476563 -8.63671875 4.11328125 C-3.39204545 0 -3.39204545 0 0 0 Z " fill="#131314" transform="translate(728,902)"/>
<path d="M0 0 C-1.4745236 4.64634054 -5.34936929 6.3201387 -9.3125 8.625 C-17.48562348 13.54604374 -25.53609845 18.86873733 -32.51586914 25.42358398 C-36.37265799 28.97084317 -36.37265799 28.97084317 -39.60546875 29.12109375 C-40.45753906 28.89550781 -41.30960938 28.66992188 -42.1875 28.4375 C-43.14140625 28.210625 -44.0953125 27.98375 -45.078125 27.75 C-46.04234375 27.5025 -47.0065625 27.255 -48 27 C-77.70076658 20.89012802 -110.36452685 23.20552493 -136.6875 39.3125 C-163.27012669 57.12519853 -177.34137578 81.41420694 -183.6875 112.3515625 C-186.53305062 129.22725855 -186.45871255 148.62386236 -181 165 C-180.24420794 169.91884339 -181.06873434 172.56486028 -183.8515625 176.5234375 C-185.09263701 178.15350552 -186.35110221 179.77045268 -187.625 181.375 C-188.86919012 182.98543397 -190.11138989 184.59740767 -191.3515625 186.2109375 C-191.96580078 187.0047583 -192.58003906 187.7985791 -193.21289062 188.61645508 C-195.46986288 191.6266764 -197.5316883 194.74289418 -199.59326172 197.88867188 C-201.69288758 201.03993262 -203.9463955 204.05857129 -206.25 207.0625 C-206.8996875 207.93165039 -206.8996875 207.93165039 -207.5625 208.81835938 C-208.65889304 210.25145336 -209.82397531 211.63149644 -211 213 C-211.66 213 -212.32 213 -213 213 C-231.43664708 177.39013089 -241.02258599 140.06880706 -232 100 C-231.83371094 99.25492187 -231.66742187 98.50984375 -231.49609375 97.7421875 C-226.24220927 75.09210775 -215.51355996 53.36755307 -200 36 C-199.23558594 35.12730469 -198.47117187 34.25460938 -197.68359375 33.35546875 C-195.485326 30.87451344 -193.25417723 28.43015389 -191 26 C-190.45085938 25.39671875 -189.90171875 24.7934375 -189.3359375 24.171875 C-143.77548747 -23.85736789 -55.98346463 -36.17038661 0 0 Z " fill="#131314" transform="translate(1061,102)"/>
<path d="M0 0 C16.17 0 32.34 0 49 0 C49 96.36 49 192.72 49 292 C32.83 292 16.66 292 0 292 C0 195.64 0 99.28 0 0 Z " fill="#131313" transform="translate(2156,483)"/>
<path d="M0 0 C4.5141495 1.66697581 7.72687796 4.0361466 11.3125 7.1875 C11.88572998 7.68290283 12.45895996 8.17830566 13.04956055 8.6887207 C14.18916036 9.67504571 15.32635879 10.66415327 16.4609375 11.65625 C17.74758874 12.77962063 19.04445958 13.89127217 20.34375 15 C49.66438607 40.13197378 68.94337576 76.65289886 72.5390625 115.171875 C75.41592206 154.07902153 64.13990376 194.81020486 38.52148438 224.7265625 C35.53908761 228.1068648 32.46240778 231.38691135 29.32519531 234.62353516 C28.20531544 235.78674126 27.11129731 236.97476283 26.0234375 238.16796875 C9.12800942 256.21704941 -16.25967445 269.75254591 -40 276 C-41.32 276 -42.64 276 -44 276 C-44 260.49 -44 244.98 -44 229 C-37.73 225.7 -31.46 222.4 -25 219 C-20.42810296 215.74003863 -16.20960472 212.64106615 -12 209 C-11.2678125 208.36835937 -10.535625 207.73671875 -9.78125 207.0859375 C9.77784558 188.84630472 21.23950006 161.02338962 22.3203125 134.65234375 C23.05443074 104.67691294 15.68598689 76.4774204 -5 54 C-7.71003829 51.42097185 -10.4241099 48.86516407 -13.2265625 46.38671875 C-15 44 -15 44 -14.80834961 41.40698242 C-13.80164237 37.16397442 -12.37384152 33.17886499 -10.83984375 29.1015625 C-10.53051407 28.26660248 -10.22118439 27.43164246 -9.90248108 26.57138062 C-8.91916799 23.92069166 -7.92845527 21.27284017 -6.9375 18.625 C-6.26708675 16.8217972 -5.59715955 15.0184136 -4.92773438 13.21484375 C-3.29077649 8.80778273 -1.64717934 4.40325032 0 0 Z " fill="#131313" transform="translate(789,500)"/>
</svg>
