<?xml version="1.0" standalone="no"?>
<!DOCTYPE svg PUBLIC "-//W3C//DTD SVG 20010904//EN"
 "http://www.w3.org/TR/2001/REC-SVG-20010904/DTD/svg10.dtd">
<svg version="1.0" xmlns="http://www.w3.org/2000/svg"
 width="2560.000000pt" height="362.000000pt" viewBox="0 0 2560.000000 362.000000"
 preserveAspectRatio="xMidYMid meet">
<metadata>
Created by potrace 1.16, written by Peter Selinger 2001-2019
</metadata>
<g transform="translate(0.000000,362.000000) scale(0.100000,-0.100000)"
fill="#000000" stroke="none">
<path d="M4670 2180 l0 -1440 360 0 359 0 3 598 3 597 27 50 c51 96 124 145
218 145 123 0 202 -78 229 -225 7 -38 11 -256 11 -612 l0 -553 356 0 355 0 -4
718 c-3 698 -4 719 -25 799 -70 267 -219 432 -452 505 -108 33 -302 33 -410
-1 -102 -32 -177 -71 -249 -131 l-61 -51 0 521 0 520 -360 0 -360 0 0 -1440z"/>
<path d="M11812 2722 c-205 -493 -372 -900 -372 -905 0 -4 192 -6 427 -5 l426
3 374 900 c205 495 373 901 373 902 0 2 -192 3 -427 3 l-428 0 -373 -898z"/>
<path d="M14783 3606 c-108 -35 -203 -126 -243 -233 -32 -85 -26 -216 15 -298
121 -248 452 -296 640 -93 178 192 116 494 -123 606 -47 22 -73 27 -152 29
-59 2 -111 -3 -137 -11z"/>
<path d="M13854 3600 c-269 -38 -478 -181 -588 -403 -59 -119 -86 -225 -93
-362 -3 -60 -10 -118 -15 -127 -7 -16 -24 -18 -118 -18 -72 0 -111 -4 -116
-12 -4 -6 -8 -126 -9 -265 -1 -188 2 -259 11 -271 10 -14 30 -17 114 -17 89 0
103 -2 116 -19 12 -17 14 -121 14 -650 0 -347 4 -637 9 -644 7 -11 74 -14 336
-15 314 -1 328 0 342 19 12 16 14 116 12 652 -1 477 1 636 10 645 9 9 72 12
215 12 157 0 207 3 219 14 15 12 17 43 17 267 0 216 -2 255 -16 268 -13 14
-48 16 -223 16 -148 0 -210 3 -219 12 -36 36 2 163 68 229 74 74 199 100 316
64 27 -8 59 -15 72 -15 l22 0 0 280 c0 323 9 296 -110 325 -76 19 -298 28
-386 15z"/>
<path d="M3050 2776 c-405 -86 -697 -418 -767 -871 -27 -178 -3 -409 60 -575
130 -346 398 -577 732 -631 93 -15 275 -6 360 16 96 26 195 79 263 140 l62 57
0 -86 0 -86 345 0 345 0 0 1005 0 1005 -345 0 -345 0 0 -86 0 -86 -51 46 c-58
52 -185 118 -274 142 -82 22 -301 27 -385 10z m475 -665 c77 -34 123 -70 166
-130 47 -66 79 -162 79 -241 0 -119 -70 -263 -157 -323 -83 -57 -131 -71 -238
-72 -92 0 -105 3 -167 32 -90 42 -160 110 -201 192 -30 61 -32 72 -32 171 0
102 1 109 38 182 54 109 127 170 247 205 67 19 204 11 265 -16z"/>
<path d="M7585 2774 c-335 -59 -600 -254 -747 -549 -146 -292 -153 -654 -19
-941 148 -316 436 -525 801 -580 511 -77 999 186 1171 630 86 223 93 524 18
756 -122 373 -440 631 -854 690 -98 14 -275 11 -370 -6z m323 -656 c59 -15
151 -76 190 -126 18 -22 45 -67 60 -99 23 -50 27 -70 27 -153 0 -88 -3 -101
-33 -163 -123 -248 -417 -311 -612 -130 -84 77 -122 158 -128 267 -15 287 216
475 496 404z"/>
<path d="M9855 2780 c-229 -36 -433 -139 -588 -297 -84 -86 -127 -146 -179
-248 -83 -163 -118 -312 -118 -500 0 -200 44 -370 141 -541 60 -108 223 -272
339 -343 179 -109 347 -154 580 -155 215 -1 353 29 524 115 104 53 153 87 239
168 235 222 343 523 309 869 -26 261 -117 463 -284 632 -134 134 -297 225
-497 277 -77 20 -127 25 -251 28 -85 2 -182 0 -215 -5z m264 -655 c187 -25
347 -252 312 -441 -31 -165 -148 -292 -306 -331 -58 -14 -78 -15 -138 -5 -175
30 -296 152 -329 332 -30 157 66 348 208 415 53 25 149 45 189 39 11 -1 40 -5
64 -9z"/>
<path d="M0 2736 c0 -7 191 -462 424 -1010 l424 -996 -149 -347 c-82 -191
-152 -356 -155 -365 -5 -17 16 -18 379 -18 299 0 386 3 390 13 2 6 256 615
562 1352 307 737 560 1350 562 1363 l5 22 -381 -2 -382 -3 -222 -562 c-122
-309 -225 -564 -228 -567 -2 -3 -78 183 -168 412 -90 229 -191 486 -224 570
l-60 152 -388 0 c-322 0 -389 -2 -389 -14z"/>
<path d="M21090 2739 c-133 -14 -250 -74 -352 -182 l-58 -60 0 84 c0 53 -5 90
-12 97 -17 17 -659 17 -676 0 -9 -9 -12 -231 -12 -940 0 -907 0 -928 19 -938
13 -6 137 -10 335 -10 273 0 317 2 330 16 14 14 16 76 16 538 0 450 2 530 16
576 36 122 108 180 223 180 100 0 159 -39 203 -135 23 -50 23 -50 26 -600 2
-498 4 -551 19 -562 13 -10 96 -13 334 -13 275 0 320 2 333 16 14 14 16 84 16
622 0 358 -4 642 -10 692 -42 341 -197 534 -481 599 -99 23 -180 29 -269 20z"/>
<path d="M22950 2740 c-264 -24 -476 -116 -635 -275 -127 -128 -200 -261 -250
-459 -79 -312 -40 -575 122 -826 68 -104 206 -242 293 -293 175 -101 313 -132
560 -124 192 6 382 40 430 75 l25 19 3 307 c3 348 10 325 -86 277 -229 -115
-493 -71 -610 103 -126 188 -43 458 164 535 140 53 271 48 419 -15 45 -19 89
-34 98 -34 16 0 17 23 17 296 0 177 -4 303 -10 314 -20 38 -223 94 -375 103
-44 2 -118 1 -165 -3z"/>
<path d="M24466 2735 c-223 -43 -421 -140 -565 -279 -181 -175 -268 -386 -278
-677 -8 -217 22 -380 99 -534 134 -268 405 -452 718 -486 165 -18 423 -6 535
25 192 54 367 165 478 303 72 90 83 112 65 128 -24 22 -492 198 -538 202 -41
4 -50 0 -103 -41 -77 -59 -149 -86 -236 -86 -82 0 -152 20 -213 60 -74 49
-150 180 -117 201 8 5 294 9 636 9 342 0 628 3 637 6 14 5 16 29 16 160 0 250
-46 428 -152 591 -122 188 -340 342 -573 405 -96 26 -304 33 -409 13z m262
-540 c71 -21 130 -70 166 -135 50 -94 63 -90 -283 -90 -169 0 -302 4 -305 9
-11 17 58 133 96 164 77 62 216 84 326 52z"/>
<path d="M16571 2724 c-90 -24 -190 -84 -270 -160 l-74 -72 7 83 c6 69 4 85
-9 99 -14 14 -55 16 -339 16 -237 0 -325 -3 -334 -12 -9 -9 -12 -231 -12 -940
0 -907 0 -928 19 -938 12 -6 135 -10 330 -10 298 0 312 1 331 20 19 19 20 33
20 543 0 573 1 584 59 664 78 108 266 113 345 10 55 -72 56 -84 56 -662 0
-424 3 -535 13 -549 12 -17 37 -18 341 -18 226 0 331 3 339 11 14 14 11 1279
-4 1366 -42 245 -153 412 -330 494 -46 21 -116 46 -156 55 -89 20 -258 20
-332 0z"/>
<path d="M18264 2716 c-251 -65 -455 -239 -573 -487 -227 -477 -83 -1095 316
-1353 146 -94 295 -131 497 -123 197 7 329 56 444 161 32 31 62 53 66 49 3 -3
6 -39 6 -79 0 -62 3 -75 19 -84 12 -6 135 -10 330 -10 268 0 312 2 325 16 14
14 16 112 16 933 0 718 -3 921 -12 934 -12 16 -42 17 -343 15 l-330 -3 -3 -88
-3 -88 -62 56 c-175 156 -444 215 -693 151z m530 -626 c79 -30 164 -111 202
-192 26 -56 29 -74 29 -158 0 -85 -3 -101 -29 -155 -38 -76 -105 -143 -181
-181 -54 -26 -70 -29 -160 -29 -91 0 -106 3 -165 31 -79 37 -150 107 -188 183
-24 49 -27 68 -27 151 0 82 4 103 27 152 51 108 157 194 271 218 61 13 155 4
221 -20z"/>
<path d="M14570 2680 c-12 -8 -14 -133 -14 -936 0 -898 1 -927 19 -940 15 -11
81 -14 332 -14 300 0 314 1 333 20 20 20 20 33 20 934 0 818 -2 916 -16 930
-13 14 -58 16 -337 16 -180 0 -328 -4 -337 -10z"/>
<path d="M11539 1632 c-290 -76 -430 -395 -298 -677 30 -64 140 -174 204 -204
282 -132 601 8 677 298 93 358 -225 676 -583 583z"/>
</g>
</svg>
